<svg width="54" height="42" viewBox="0 0 54 42" xmlns="http://www.w3.org/2000/svg"><path d="M54 41.807H5.228V5.227H54v36.58zM6.969 40.065h45.29V6.97H6.969v33.096z"/><path d="M3.484 36.58H0V0h50.516v3.484h-1.742V1.742H1.742v33.097h1.742v1.742z"/><path d="M49.637 9.582h-8.71v10.452h8.71V9.582z"/><path fill="none" d="M10.451 8.709h40.072v29.612H10.451z"/><path d="M50.522 20.902H40.07V8.71h10.452v12.194zm-8.71-1.741h6.968v-8.71h-6.968v8.71zM33.096 8.709h-1.742v29.613h1.742V8.709zm17.412 13.937H38.314v1.742h12.194v-1.742zm.015 3.483H34.846v1.742h15.677v-1.742zm-6.968 3.482h-8.71v1.742h8.71v-1.742zm3.484 0h-1.742v1.742h1.742v-1.742zM27.877 19.16H13.94v1.742h13.936V19.16zm-.007 3.486H10.451v1.742h17.42v-1.742zm-6.967 3.483H10.45v1.742h10.452v-1.742zm3.477 0h-1.74v1.742h1.742v-1.742z"/></svg>