<svg width="54" height="48" viewBox="0 0 54 48" xmlns="http://www.w3.org/2000/svg"><path d="M48.857 8.571h-8.571V4.286A4.29 4.29 0 0 0 36 0H17.143a4.29 4.29 0 0 0-4.286 4.286V8.57H4.286A4.29 4.29 0 0 0 0 12.857v30.857A4.29 4.29 0 0 0 4.286 48h44.571a4.29 4.29 0 0 0 4.286-4.286V12.857a4.29 4.29 0 0 0-4.286-4.286zM42 10.286h1.714v20.571H42V10.286zm-.857 22.285h3.428c.473 0 .858.384.858.858v5.142a.858.858 0 0 1-.858.858h-3.428a.858.858 0 0 1-.857-.858V33.43c0-.474.385-.858.857-.858zm-6-30.857H36a2.575 2.575 0 0 1 2.571 2.572V8.57h-1.714V5.143c0-.946-.769-1.714-1.714-1.714V1.714zm-15.429 0H33.43V3.43H19.714V1.714zm15.429 3.429V8.57H18V5.143h17.143zM14.57 4.286a2.575 2.575 0 0 1 2.572-2.572H18V3.43c-.945 0-1.714.768-1.714 1.714V8.57H14.57V4.286zm-5.142 6h1.714v20.571H9.429V10.286zM8.57 32.57H12c.472 0 .857.384.857.858v5.142a.858.858 0 0 1-.857.858H8.571a.858.858 0 0 1-.857-.858v-5.14c0-.474.385-.858.857-.858zm42.86 11.144a2.575 2.575 0 0 1-2.572 2.572H45.43v-3.429h-1.715v3.429H42v-3.429h-1.714v3.429H12.857v-3.429h-1.714v3.429H9.429v-3.429H7.714v3.429H4.286a2.575 2.575 0 0 1-2.572-2.572V12.857a2.575 2.575 0 0 1 2.572-2.571h3.428v20.729A2.568 2.568 0 0 0 6 33.429v5.142a2.575 2.575 0 0 0 2.571 2.572H12a2.575 2.575 0 0 0 2.571-2.572V33.43c0-1.116-.719-2.06-1.714-2.414v-20.73h27.429v20.73a2.568 2.568 0 0 0-1.715 2.414v5.142a2.575 2.575 0 0 0 2.572 2.572h3.428a2.575 2.575 0 0 0 2.572-2.572V33.43c0-1.116-.72-2.06-1.714-2.414v-20.73h3.428a2.575 2.575 0 0 1 2.572 2.572v30.857z"/><path d="M25.713 16.285H15.428v6.857h10.285v-6.857zM24 21.428h-6.857v-3.429H24v3.429zm-.197 10.063l1.747 6.408 9.792-2.532-1.746-6.408-9.793 2.532zm2.955 4.325l-.844-3.1 6.473-1.674.844 3.1-6.473 1.674z"/></svg>