<svg xmlns="http://www.w3.org/2000/svg" viewBox="0 0 211.527 211.527"><path d="M183.045 15.028L73.974.123c-7.217-.99-13.904 4.086-14.892 11.312L56.703 28.85a3.41 3.41 0 0 0 2.92 3.843 3.415 3.415 0 0 0 3.843-2.92l2.379-17.413c.48-3.495 3.721-5.956 7.206-5.473l109.071 14.904c3.495.48 5.951 3.712 5.473 7.206l-21.374 156.418c-.48 3.495-3.727 5.953-7.206 5.473l-7.287-.995a3.397 3.397 0 0 0-3.843 2.918 3.41 3.41 0 0 0 2.918 3.843l7.287.995c.604.082 1.205.123 1.799.123 6.504 0 12.191-4.815 13.094-11.435L194.357 29.92c.988-7.224-4.087-13.904-11.312-14.892z"/><path d="M140.356 27.205H30.271c-7.293 0-13.225 5.934-13.225 13.225v157.872c0 7.293 5.934 13.225 13.225 13.225h110.085c7.291 0 13.223-5.932 13.225-13.225V40.43c0-7.293-5.934-13.225-13.225-13.225zm6.399 171.098a6.406 6.406 0 0 1-6.398 6.398H30.271a6.406 6.406 0 0 1-6.398-6.398V40.431a6.406 6.406 0 0 1 6.398-6.398h110.085a6.406 6.406 0 0 1 6.398 6.398v157.872z"/><path d="M119.446 167.153h-71.68a3.414 3.414 0 0 0 0 6.826h71.68a3.413 3.413 0 1 0 0-6.826zM85.313 184.22H47.766a3.414 3.414 0 0 0 0 6.826h37.547a3.413 3.413 0 1 0 0-6.826zm54.613-122.88H30.7a3.414 3.414 0 0 0-3.413 3.413v68.267a3.414 3.414 0 0 0 3.413 3.413h109.227a3.413 3.413 0 0 0 3.413-3.413V64.753a3.414 3.414 0 0 0-3.414-3.413zm-3.413 68.266h-102.4v-61.44h102.4v61.44z"/><path d="M78.486 61.34H30.7a3.414 3.414 0 0 0-3.413 3.413v40.96a3.414 3.414 0 0 0 3.413 3.413h47.787a3.413 3.413 0 0 0 3.413-3.413v-40.96a3.414 3.414 0 0 0-3.414-3.413zm-3.413 40.96h-40.96V68.166h40.96V102.3z"/><path d="M65.383 81.962a3.413 3.413 0 0 0-3.246-2.359h-2.635a4.094 4.094 0 0 1-3.903-2.836l-.814-2.505a3.413 3.413 0 0 0-6.492 0l-.814 2.507a4.094 4.094 0 0 1-3.903 2.836H40.94a3.413 3.413 0 0 0-2.005 6.175l2.132 1.548a4.094 4.094 0 0 1 1.49 4.588l-.814 2.505a3.414 3.414 0 0 0 5.253 3.816l2.133-1.55a4.095 4.095 0 0 1 4.825 0l2.132 1.548a3.404 3.404 0 0 0 4.009 0 3.414 3.414 0 0 0 1.241-3.816l-.816-2.505a4.095 4.095 0 0 1 1.492-4.588l2.132-1.548a3.416 3.416 0 0 0 1.239-3.816zm-11.807 7.297a11.083 11.083 0 0 0-2.038-.191c-.681 0-1.364.065-2.038.191a10.877 10.877 0 0 0-1.258-3.874 10.89 10.89 0 0 0 3.296-2.394 10.898 10.898 0 0 0 3.296 2.394 10.91 10.91 0 0 0-1.258 3.874zm86.35-14.266h-61.44a3.414 3.414 0 0 0 0 6.826h61.44a3.413 3.413 0 1 0 0-6.826zm0 13.654h-61.44a3.414 3.414 0 0 0 0 6.826h61.44a3.413 3.413 0 1 0 0-6.826zm0 13.653h-61.44a3.414 3.414 0 0 0 0 6.826h61.44a3.413 3.413 0 1 0 0-6.826zm0 13.653H30.7a3.414 3.414 0 0 0 0 6.826h109.227a3.413 3.413 0 1 0-.001-6.826z"/></svg>