<svg height="50" viewBox="0 0 92 100" fill="none" xmlns="http://www.w3.org/2000/svg"><path fill-rule="evenodd" clip-rule="evenodd" d="M28.352 32.295a.599.599 0 0 0-.221-.26.369.369 0 0 0-.511 0c-.244.201-.5.095-.755 0-.255-.093-.162-.105-.162-.21a3.096 3.096 0 0 0-.151-.919.634.634 0 0 1 0-.294c.066-.284.151-.564.255-.836a.975.975 0 0 0 0-.988.332.332 0 0 1-.07-.189 1.826 1.826 0 0 0-.36-.824.427.427 0 0 1 0-.482.57.57 0 0 0 .082-.235.804.804 0 0 1 .244-.46l.197-.14a.941.941 0 0 0 .371-1.118 1.903 1.903 0 0 0-.057-.248.549.549 0 0 1 0-.306c.097.01.187.055.255.126a.428.428 0 0 1 .116.262c.093.353.116.721.07 1.083 0 .177-.058.341-.093.518-.04.13-.04.27 0 .4a.692.692 0 0 1 0 .506.179.179 0 0 0 .04.21c.018.017.04.03.064.037.125.069.258.12.395.153.118.04.238.072.36.095a.678.678 0 0 1 .592.388c0-.33 0-.47-.209-.53a1.929 1.929 0 0 1-.615-.447 1.06 1.06 0 0 1-.29-.788.19.19 0 0 1 .08-.13.161.161 0 0 1 .129 0 .856.856 0 0 1 .162.188c.186.295.232.2.441.06a.477.477 0 0 0 .151-.118.177.177 0 0 0 .058-.231.176.176 0 0 0-.058-.064c-.116-.082-.22-.153-.162-.33.058-.176 0-.105-.105-.14a.23.23 0 0 1-.116-.342c.04-.071.086-.138.14-.2a.293.293 0 0 1 .267-.179.287.287 0 0 1 .267.18.318.318 0 0 0 .118.195.31.31 0 0 0 .218.063.906.906 0 0 1 .674.294c.248.208.467.45.65.718a.539.539 0 0 0 .673.294 1.15 1.15 0 0 1 .279 0 .262.262 0 0 1 .186.306.957.957 0 0 1-.302.577.458.458 0 0 0-.186.436v.776a.511.511 0 0 0 .081.295c.054.102.1.209.14.317 0 .118-.07.33.104.354.174.023.116-.2.22-.295a.71.71 0 0 0 .163-.67 1.689 1.689 0 0 0-.15-.589.94.94 0 0 1 0-.847c0-.083.057-.165.08-.248a.441.441 0 0 0-.162-.54 1.168 1.168 0 0 1-.569-.778.318.318 0 0 0-.197-.188c-.093 0-.186-.059-.267-.094a.5.5 0 0 1-.302-.377 1.36 1.36 0 0 1 0-.612.822.822 0 0 0-.116-.635 1.06 1.06 0 0 1 0-.989c0-.106.127-.13.22-.165a1.87 1.87 0 0 1 .906-.153c.247.01.494-.021.731-.094.183-.08.381-.12.58-.118a.426.426 0 0 0 .256-.094l.349-.153a.512.512 0 0 0 .325-.494.381.381 0 0 0-.163-.353.749.749 0 0 1-.36-.377c0-.082-.15-.117-.22-.188a.13.13 0 0 1-.075-.118.131.131 0 0 1 .075-.117c.162 0 .174-.142.197-.283.023-.141.128-.259.337-.188.209.07.22 0 .301-.106.082-.106.221-.377.07-.612 0 0 0-.094.058-.118.058-.023.058 0 .081 0 .267.059.43-.106.58-.33.152-.223.198-.223.291-.329.093-.106.07-.094.105-.106.44-.082.72-.577 1.16-.565.349-.176.732-.247 1.069-.459.116-.07.116-.153 0-.235h-.081c-.082-.094-.07-.212 0-.236a3.763 3.763 0 0 1 1.068-.223c.077.006.154.006.232 0 .104 0 .104-.094 0-.188a.131.131 0 0 1 .024-.174.127.127 0 0 1 .057-.026.939.939 0 0 1 .51 0c.082 0 .117.176 0 .258-.115.083-.115.095-.173.153a.211.211 0 0 0-.085.171.214.214 0 0 0 .085.17.894.894 0 0 0 .58 0c.07 0 .105-.07.14-.129a4.03 4.03 0 0 1 .348-.412.28.28 0 0 1 .226-.117.276.276 0 0 1 .227.117l.174.177s.104.094.15 0a.202.202 0 0 0 0-.247 1.3 1.3 0 0 0-.185-.153.986.986 0 0 1-.209-.271c0-.118 0-.224.105-.212h.325c.123.012.248.012.371 0a.499.499 0 0 0 .37-.463.512.512 0 0 0-.033-.208.881.881 0 0 1 0-.647c.082-.243.191-.476.325-.694.174-.283.36-.553.522-.848.181-.29.463-.5.79-.588a.367.367 0 0 1 .418.141.77.77 0 0 0 .51.306c.105 0 .128.13.175.224a.406.406 0 0 1-.128.494 3.96 3.96 0 0 0-.36.4.45.45 0 0 0-.128.27h.082c.371-.246.72-.058 1.056.083a.429.429 0 0 1 .29.299.442.442 0 0 1-.093.407c-.15.247-.255.506-.406.754a.461.461 0 0 0 .662-.177c.032-.06.06-.123.081-.188.128-.283.128-.283.407-.26a.746.746 0 0 0 .278 0 .401.401 0 0 1 .349 0c.09.036.189.036.278 0a.757.757 0 0 1 .87.307s.117.059.175.082a.664.664 0 0 0 .163.365.853.853 0 0 1 .232.541c0 .165.081.236.22.106.14-.13.117 0 .151 0l.07.189a.58.58 0 0 0 .093.341.736.736 0 0 1 .07.694.727.727 0 0 0 0 .542.87.87 0 0 1-.07.612 2.506 2.506 0 0 1-.534.835c-.16.14-.305.298-.43.471 0 .082-.14.07-.197.118-.385.213-.69.548-.87.953a.916.916 0 0 1-.303.389c-.205.142-.36.349-.44.588l-.105.235a.388.388 0 0 1-.372.26.447.447 0 0 0-.14.447.568.568 0 0 1-.266.34.64.64 0 0 0-.314.424c-.07.212-.081.33 0 .306.081-.023.116-.14.14-.247a.247.247 0 0 1 .255-.235c.374.004.741-.102 1.056-.306a.79.79 0 0 0 .337-.247.175.175 0 0 1 .116-.083h.22c.18-.143.34-.31.477-.494l-.407.141a.16.16 0 0 1-.186-.072.167.167 0 0 1-.023-.069.704.704 0 0 1 .244-.67.276.276 0 0 1 .267 0 .54.54 0 0 0 .36 0c.186-.06.198 0 .198.188s.104.459.348.494c.244.035.36-.059.43-.353v-.188a1.275 1.275 0 0 1 .301.988v.341c.027.01.055.01.082 0v-.058a.083.083 0 0 0 0-.06c0-.364 0-.423.336-.435.201 0 .398-.057.57-.165a.517.517 0 0 1 .487 0l.395.118c.219.083.45.127.685.13a1.44 1.44 0 0 1 .313 0 .14.14 0 0 1 .097.14.125.125 0 0 1-.016.06c0 .07-.081.117-.104.176a.38.38 0 0 0 .104.46c.09.07.188.128.29.176a3.14 3.14 0 0 0 1.8.153l.174-.059a.313.313 0 0 0 .233-.274.323.323 0 0 0-.012-.126.725.725 0 0 0 0-.153 1.55 1.55 0 0 1 0-.765c0-.083 0-.224.104-.212.105.012.21-.224.36-.188.151.035.395 0 .523.188.127.188.569.33.847.494.07.03.15.03.22 0a.745.745 0 0 1 .895.33c.162.223.325.424.476.647a.449.449 0 0 1 .081.389 2.21 2.21 0 0 0 0 1.023.75.75 0 0 1-.15.718c0 .06-.094.095-.129.153a.462.462 0 0 0 0 .612c.123.18.217.38.279.589.109.28.266.54.464.765a.75.75 0 0 0 .337.165c.093 0 .07.27.22.188.152-.082.105-.212.152-.318.15-.288.236-.605.255-.93.036-.326.135-.642.29-.93 0-.058.128 0 .151 0 .083.24.192.469.325.683a.48.48 0 0 0 .476.26.298.298 0 0 0 .279-.154.46.46 0 0 1 .3-.255.447.447 0 0 1 .385.079.438.438 0 0 0 .476 0 .676.676 0 0 1 .371 0c.136.012.272.012.407 0 .197 0 .348-.071.464.176.116.247.198 0 .29 0 .093 0 .186-.07.151-.247-.093-.37-.07-.762.07-1.118h-.093c-.035 0-.267 0-.302-.141a.428.428 0 0 1 .068-.308.418.418 0 0 1 .257-.175h.36c.198 0 .256-.118.232-.353-.023-.235 0-.106 0-.153a.178.178 0 0 1 .124-.17.172.172 0 0 1 .074-.006.24.24 0 0 1 .128 0c.242.176.538.26.835.235h.233a3.7 3.7 0 0 1 1.672.482c.229.166.51.24.789.212.33-.042.664.037.94.224a.843.843 0 0 1 .372.624c0 .176 0 .259-.232.294h-.128a.128.128 0 0 0-.07.118.216.216 0 0 0 0 .082.127.127 0 0 0 .082 0 .642.642 0 0 1 .534.282.5.5 0 0 0 .476.224.297.297 0 0 1 .29.141l.15.189a.338.338 0 0 1 .142.24.345.345 0 0 1-.083.266v.164a.393.393 0 0 0 .43.095 3.439 3.439 0 0 1 1.16-.177c.29 0 .581 0 .871-.082a3.09 3.09 0 0 1 .87 0 .897.897 0 0 1 .72.482c.095.16.18.325.256.495a.954.954 0 0 1 0 .717c-.032.093-.06.187-.081.283 0 .153 0 .259.116.306.271.088.515.246.708.459a.151.151 0 0 0 .122.063.15.15 0 0 0 .122-.063 1.16 1.16 0 0 1 .964-.377h.139a.24.24 0 0 1 .29.106.43.43 0 0 0 .5.165.643.643 0 0 1 .487.059.508.508 0 0 0 .743-.189.534.534 0 0 1 .302-.223l.116.141c0 .236.081.47.128.695a.296.296 0 0 0 .14.2c.248.126.448.333.568.588a.247.247 0 0 0 .18.14.241.241 0 0 0 .215-.07.821.821 0 0 0 .322-.555.836.836 0 0 0-.171-.621.35.35 0 0 1-.197-.264.357.357 0 0 1 .104-.313v-.2c0-.059.104-.247.255-.259.108-.012.217-.012.325 0l.302.094a4.135 4.135 0 0 0 1.776.177 1 1 0 0 1 .732.212 9.68 9.68 0 0 0 1.056.635c.272.143.512.34.709.577.163.2.364.363.592.482a1.002 1.002 0 0 1 .72.483c.142.217.328.402.545.541.208.126.38.305.5.518a.304.304 0 0 0 .22.177.222.222 0 0 1 .14.235c0 .094 0 .13.115.059.117-.07.21 0 .279 0 .107.124.208.254.302.388a.56.56 0 0 1 .07.294c.019.295.081.584.185.86 0 0 .058.082.116 0a.095.095 0 0 0 0-.083.418.418 0 0 0-.093-.376.107.107 0 0 1 .024-.161.104.104 0 0 1 .058-.016c.186 0 .371 0 .534.118a.325.325 0 0 0 .337.082.493.493 0 0 1 .627.294c.239.376.532.713.87 1 .128.107.128.154 0 .26a.583.583 0 0 0-.29.376.603.603 0 0 1-.43.436.78.78 0 0 1-.174 0c-.197 0-.29.141-.278.341a.666.666 0 0 1-.221.542c-.116.082-.105.2 0 .317.105.118.128.2 0 .283-.128.082-.186.27-.36.306a.172.172 0 0 1-.128 0 1.255 1.255 0 0 1-.499-.365.661.661 0 0 0-.383-.259.812.812 0 0 1-.403-.273.83.83 0 0 1-.177-.457.57.57 0 0 0-.123-.345.556.556 0 0 0-.307-.196.424.424 0 0 0-.36 0 .425.425 0 0 1-.395 0 .369.369 0 0 1-.278-.247c-.093-.224-.29-.412-.198-.718 0 0-.15-.13-.197-.094l-.209.2a.225.225 0 0 0 0 .282v.083a.705.705 0 0 1 .162.423 1.055 1.055 0 0 1-.22.565 3.223 3.223 0 0 1-.72.718.53.53 0 0 1-.43.094h-.278a.16.16 0 0 0-.151.095.238.238 0 0 0 0 .2.411.411 0 0 0 .337.247c.139 0 .185.094.22.223.035.13.105.471.163.695.032.19.095.372.186.541a.391.391 0 0 1 .07.377c0 .094 0 .153.08.235a.584.584 0 0 1-.255.683.218.218 0 0 1-.174 0 1.393 1.393 0 0 1-.244-.153.69.69 0 0 0-.824 0c-.557.4-1.161.753-1.718 1.106a2.2 2.2 0 0 0-.604.624 4.3 4.3 0 0 1-.743.718 1.243 1.243 0 0 0-.476.659.13.13 0 0 1-.122.09.127.127 0 0 1-.122-.09 2.594 2.594 0 0 1-.174-.306.6.6 0 0 0-.453-.33 1.146 1.146 0 0 0-1.022.365c-.07.07-.127.153-.197.212s-.15.282-.279.212c-.127-.07 0-.224 0-.341a.142.142 0 0 0-.071-.12.138.138 0 0 0-.138.002.76.76 0 0 0-.394.412c0 .082-.117.14-.186.094-.07-.047-.244 0-.36 0a.388.388 0 0 0-.294.108.402.402 0 0 0-.124.292 2.654 2.654 0 0 1-.464 1.118c-.145.23-.247.486-.302.753 0 .142 0 .2.197.177a.456.456 0 0 1 .174 0c.244 0 .349.224.256.47 0 0-.07.118-.093.177a.642.642 0 0 0 0 .73.782.782 0 0 1 .104.683.165.165 0 0 1-.127.129.14.14 0 0 1-.15-.094c-.001-.07-.001-.153-.094-.247-.093.13-.186.235-.267.364a1.03 1.03 0 0 0-.105 1.024v.095c.14.34 0 .553-.29.553a.62.62 0 0 0-.546.223.954.954 0 0 0-.313.907.226.226 0 0 1-.012.17.222.222 0 0 1-.127.112c-.103.047-.2.107-.29.177a.75.75 0 0 0-.326.588 2.22 2.22 0 0 1-.8 1.4c-.094.095-.21 0-.256-.094a1.776 1.776 0 0 1-.093-.612c.017-.26-.018-.52-.105-.765a1.625 1.625 0 0 1-.08-.34c0-.213 0-.425-.094-.625-.12-.63-.205-1.266-.255-1.906a4.579 4.579 0 0 1 .162-1.59.778.778 0 0 1 .267-.411.81.81 0 0 0 .337-.8.202.202 0 0 1 .14-.236 2.329 2.329 0 0 0 1.23-1.024c.096-.115.17-.247.22-.388.088-.271.244-.515.453-.706.276-.268.504-.583.674-.93a.62.62 0 0 1 .29-.306 1.89 1.89 0 0 0 .371-.059c.395-.235.395-.235.5-.718.104-.482.14-.706.197-1.059a.714.714 0 0 1 .325-.541s.081-.071 0-.118a.13.13 0 0 0-.14-.118.667.667 0 0 0-.638.436 1.37 1.37 0 0 0-.093.753c0 .177 0 .224-.162.235a.481.481 0 0 0-.395.2c-.209.248-.418.471-.615.718-.084.119-.19.219-.314.294-.116 0-.185 0-.209-.117-.023-.118 0-.118 0-.141a1.036 1.036 0 0 1 0-.977s-.093-.07-.15-.083c-.058-.011-.233-.247-.407-.223l-.453.13h-.22a.738.738 0 0 0-.592.458c-.116.283-.314.506-.442.789a1.36 1.36 0 0 1-.406.482 2.29 2.29 0 0 0-.487.812.216.216 0 0 0 .07.236c.08.07.173.117.266.2a.211.211 0 0 1 .065.153.216.216 0 0 1-.065.153.692.692 0 0 1-.534.117.401.401 0 0 0-.395.071c-.232.2-.534.141-.79.26a.299.299 0 0 1-.324-.13.163.163 0 0 1-.062-.13.167.167 0 0 1 .062-.13c.093 0 .255 0 .255-.14a.39.39 0 0 0-.143-.239.38.38 0 0 0-.263-.08.401.401 0 0 1-.348 0 .769.769 0 0 0-.175-.07h-.127c-.244-.13-.407-.094-.511.224a.711.711 0 0 1-.07.13c0 .105-.139.152-.232.093a.368.368 0 0 0-.395 0c-.127.095-.267 0-.394 0a.322.322 0 0 0-.418.083c-.093.117-.198.094-.29 0a.578.578 0 0 0-.465-.165c-.324 0-.647.035-.964.106a1.002 1.002 0 0 0-.685.494c-.163.245-.35.474-.557.683a.73.73 0 0 0-.174.247 2.634 2.634 0 0 1-.673.906 6.1 6.1 0 0 0-.802 1.071c-.166.305-.381.58-.638.812-.279.236-.534.518-.801.789a.212.212 0 0 0-.063.266c.015.03.037.055.063.075.07.063.161.097.255.094.078-.005.155-.005.233 0a.172.172 0 0 1 .182.103.18.18 0 0 1 .015.074v.259c0 .094 0 .235.07.259.07.023.07-.142.116-.2a.282.282 0 0 1 .092-.106.127.127 0 0 1 .163 0c.041.21.041.425 0 .635.255 0 .372-.27.557-.365 0-.353.21-.259.383-.259a.575.575 0 0 1 .364.098.588.588 0 0 1 .229.303.88.88 0 0 0 .29.388.453.453 0 0 1 .197.565 1.2 1.2 0 0 0 0 .565h.151c.065-.142.108-.292.128-.447a3.582 3.582 0 0 0 0-.365c0-.189 0-.33.255-.365.256-.035.163-.153.14-.283-.024-.13 0-.235-.082-.353a.166.166 0 0 1 .082-.164c.058 0 .162 0 .197.082.01.082.01.165 0 .247.017.275.064.547.14.812.063.275.063.561 0 .836-.042.307-.018.62.069.918.186.73.348 1.47.522 2.212v.106c0 .036-.232 0-.348 0a.298.298 0 0 0-.313.126.308.308 0 0 0-.047.11c-.081.317-.15.635-.209.965a.607.607 0 0 0 .081.447c.085.222.198.432.337.624a.51.51 0 0 1 .105.33v.14c0 .024-.105 0-.14-.07-.035-.07 0-.094-.081-.118-.081-.023-.267-.13-.371.07 0 0-.059.236-.198.26-.14.023-.15-.13-.162-.341a1.194 1.194 0 0 1 0-.2c0-.33.034-.66.104-.99.064-.23.064-.474 0-.705a1.108 1.108 0 0 1 0-.671c.086-.386.11-.784.07-1.177a1.35 1.35 0 0 1 0-.306 1.333 1.333 0 0 0-.186-.942 1.375 1.375 0 0 1-.128-.388c-.264.343-.44.748-.51 1.177a1.84 1.84 0 0 0 0 .67 2.17 2.17 0 0 1 0 1.025 1.04 1.04 0 0 0 0 .259 1.66 1.66 0 0 1-.384.918c-.313.393-.557.84-.72 1.318a3.342 3.342 0 0 1-.522.906l-.882 1.177a.705.705 0 0 0-.105.176c-.16.346-.41.643-.72.86a.946.946 0 0 1-1.16.094c-.233-.153-.244-.13-.442 0-.197.13-.348.33-.522.506a2.1 2.1 0 0 0-.256.294.733.733 0 0 0-.197.565.56.56 0 0 1-.209.482 4.088 4.088 0 0 1-.824.66.372.372 0 0 0-.216.294.381.381 0 0 0 .134.341c.263.32.496.662.697 1.024.178.258.267.568.255.883v.518a.69.69 0 0 1-.406.718 8.082 8.082 0 0 0-.836.435 1.07 1.07 0 0 1-.441.118c-.093 0-.174-.06-.174-.177a1.396 1.396 0 0 1 .116-.659.69.69 0 0 0-.081-.718l-.082-.13a.143.143 0 0 1 0-.188s.105-.07.14-.117a.262.262 0 0 0 0-.283c-.093-.282-.186-.365-.441-.353h-.186a.356.356 0 0 1-.279-.175.367.367 0 0 1-.023-.331 2.02 2.02 0 0 0 .209-.73.203.203 0 0 0-.024-.145.198.198 0 0 0-.115-.09 1.375 1.375 0 0 0-1.614.388.835.835 0 0 1-.395.247.081.081 0 0 1-.081 0 .13.13 0 0 1 0-.094.39.39 0 0 0 .07-.423c-.059-.094 0-.2 0-.283l.255-.376a.358.358 0 0 0-.07-.424.253.253 0 0 0-.348 0 6.281 6.281 0 0 1-.94.906.19.19 0 0 0 0 .082.623.623 0 0 1-.247.325.61.61 0 0 1-.392.1.23.23 0 0 0-.255.152.415.415 0 0 0 0 .436s0 .058.07.082c.258.17.463.41.591.694a.233.233 0 0 0 .186.095.229.229 0 0 0 .186-.095c.104-.07.186-.176.29-.258a.324.324 0 0 1 .418-.071c.19.114.407.171.627.165a.23.23 0 0 1 .157.06c.042.04.07.093.075.151 0 .142 0 .295-.186.306-.15.04-.298.09-.44.154a.496.496 0 0 0-.337.258c-.093.2-.302.224-.407.412-.104.189-.15.177-.22.271-.221.365-.302.494.116.718.165.11.284.278.336.47.047.11.082.225.105.342.059.3.186.582.371.824.073.09.135.19.186.294a.106.106 0 0 1 .029.128.106.106 0 0 1-.029.037c-.093 0-.127.106-.058.2.05.064.097.13.14.2a.177.177 0 0 1 0 .235l-.302.106c0 .165.116.165.185.224a.517.517 0 0 1 .175.636 7.05 7.05 0 0 1-.21.576.485.485 0 0 1-.08.177 6.722 6.722 0 0 0-.964 1.695c-.142.35-.37.658-.662.894a6.41 6.41 0 0 1-.86.836 1.152 1.152 0 0 1-.684.388l-.5.118a.591.591 0 0 0-.278.176c-.093.118-.105.106-.197-.082-.093-.189-.082-.106-.105-.07-.023.034-.325.082-.395.305-.07.224-.162.153-.267.189l-.708.211-.267.094a.31.31 0 0 0-.22.341c0 .13 0 .248-.082.319-.081.07-.232 0-.313-.236a.666.666 0 0 1 0-.141c0-.106 0-.27-.116-.306-.116-.035-.302-.188-.523-.118a1.884 1.884 0 0 0-1.068.836.82.82 0 0 1-.163.188c-.151.184-.245.41-.267.648a.393.393 0 0 0 .07.294c.275.468.598.906.964 1.306a2.7 2.7 0 0 1 .603.706c.045.126.072.256.082.389.183.54.246 1.115.186 1.683v.058c0 .754-.14.695-.57 1.025-.166.143-.36.251-.568.317a.404.404 0 0 0-.302.212 1.348 1.348 0 0 1-.476.541c-.048.047-.098.09-.151.13-.093.082-.174.247-.314.153-.139-.094-.08-.247-.08-.377v-.259a.464.464 0 0 0-.326-.435l-.07.07c-.07.071-.092.071-.139 0-.046-.07-.209-.329-.395-.423a.388.388 0 0 1-.127-.212 1.61 1.61 0 0 0-.523-.706.484.484 0 0 0-.337-.141.31.31 0 0 1-.22-.08.32.32 0 0 1-.105-.215.306.306 0 0 0-.127-.164.188.188 0 0 0-.157-.088.184.184 0 0 0-.157.088v.094a6.572 6.572 0 0 1-.383 1.495c-.043.13-.074.264-.093.4 0 .212 0 .412.22.494a.372.372 0 0 1 .233.306c.07.223.174.447.244.67a.711.711 0 0 0 .418.519 3.49 3.49 0 0 1 1.056.906.837.837 0 0 1 .22.612v.388a1.123 1.123 0 0 0 .233.86l.058.082a.725.725 0 0 1 0 .776s0 .142-.093.165a6.24 6.24 0 0 0-.905-.67 2.4 2.4 0 0 1-.65-.718 3.398 3.398 0 0 1-.453-1.507 1.117 1.117 0 0 0-.151-.483l-.615-.918a.43.43 0 0 0-.21-.176h-.174a.585.585 0 0 1 0-.247c0-.153 0-.306.07-.46a2.193 2.193 0 0 0 0-.67c0-.193.035-.385.105-.565a.131.131 0 0 0-.058-.16.127.127 0 0 0-.059-.017c-.092 0-.15-.082-.08-.176a.952.952 0 0 0 0-.977 5.047 5.047 0 0 1-.43-1.8.546.546 0 0 0-.244-.413.219.219 0 0 0-.302 0l-.534.483a.542.542 0 0 1-.72 0 .258.258 0 0 1-.093-.235c0-.13 0-.271.07-.4a1.192 1.192 0 0 0-.314-1.272c-.058 0-.139-.117-.139-.211 0-.295-.163-.4-.337-.553a1.714 1.714 0 0 1-.615-1.178.854.854 0 0 0-.186-.517.198.198 0 0 0-.162-.087.196.196 0 0 0-.163.087 1.32 1.32 0 0 1-.975.6 1.26 1.26 0 0 1-.627 0 .526.526 0 0 0-.556.254.546.546 0 0 0-.07.205.984.984 0 0 1-.197.504.964.964 0 0 1-.43.32c-.287.113-.529.32-.686.588a7.1 7.1 0 0 1-.87.906.452.452 0 0 1-.117.095c-.22.13-.278.411-.476.564-.197.154-.43.154-.58.389-.151.235-.151.106-.244.141a.464.464 0 0 0-.267.541c0 .271 0 .554.105.824.043.221.023.45-.059.66-.143.374-.21.775-.197 1.176a.37.37 0 0 1-.186.377h-.07c-.162.388-.499.6-.696.953a.775.775 0 0 1-.14.2.28.28 0 0 1-.226.118.276.276 0 0 1-.226-.118 1.548 1.548 0 0 1-.372-.647 22.807 22.807 0 0 0-.418-1.26.603.603 0 0 0-.139-.27 1.576 1.576 0 0 1-.348-.777 7.633 7.633 0 0 0-.685-1.753 2.377 2.377 0 0 1-.267-.93c0-.118 0-.235-.07-.353-.081-.46-.162-.918-.232-1.377a.226.226 0 0 1 0-.153 1.741 1.741 0 0 0 0-.977c0-.165 0-.33-.081-.541a.818.818 0 0 0-.151.388.71.71 0 0 1-.378.47.69.69 0 0 1-.598 0 2.673 2.673 0 0 1-.73-.835.142.142 0 0 1 .092-.2l.348-.094a.212.212 0 0 0 .082-.118s0-.082-.082-.082h-.046a.699.699 0 0 1-.443-.054.712.712 0 0 1-.323-.311l-.058-.082c-.058-.083-.395-.224-.476-.471a5.1 5.1 0 0 0-.36-.6.367.367 0 0 0-.43-.224h-.453a2.827 2.827 0 0 1-.545 0 3.013 3.013 0 0 0-.918 0 1.96 1.96 0 0 1-.905 0l-.5-.082-1.242-.13a.555.555 0 0 1-.406-.4 2.372 2.372 0 0 0-.128-.377c-.093-.188-.243-.235-.371-.094-.29.341-.662.27-.999.247a1.733 1.733 0 0 1-.998-.506 1.22 1.22 0 0 0-.5-.353.521.521 0 0 1-.313-.353c-.15-.388-.395-.706-.569-1.07-.058-.13-.139-.224-.29-.2-.15.023-.267-.154-.371-.26-.105-.106-.128.141-.186.212-.372.483-.372.424-.128 1.047.163.406.403.774.708 1.083a.967.967 0 0 1 .302.73c-.01.101.02.202.081.282a.152.152 0 0 0 .122.063.15.15 0 0 0 .122-.063c.042-.088.089-.175.14-.259.058-.082.185 0 .243 0a.488.488 0 0 1 0 .248 3.6 3.6 0 0 1 0 .623c0 .212.151.448.325.4.274-.04.549-.064.825-.07a.806.806 0 0 0 .58-.365c.256-.33.523-.647.79-.953a.08.08 0 0 1 .081 0c.042.023.075.06.093.106v.459a.953.953 0 0 0 .395.835c.16.126.347.215.545.26a.854.854 0 0 1 .592.458c.052.084.11.162.174.236.221.247.233.33.105.635a1.621 1.621 0 0 1-.174.306.794.794 0 0 0-.22.541c0 .13-.082.165-.186.177-.326 0-.418.118-.453.447a1.337 1.337 0 0 0 0 .2.25.25 0 0 1-.029.173.244.244 0 0 1-.134.11.717.717 0 0 0-.534.518.27.27 0 0 1-.209.176.647.647 0 0 0-.488.436.305.305 0 0 1-.313.188 2.367 2.367 0 0 0-.882.247.67.67 0 0 0-.43.365.847.847 0 0 1-.51.494 6.09 6.09 0 0 1-.872.342.869.869 0 0 0-.475.282.618.618 0 0 1-.488.27.426.426 0 0 0-.255.095 1.267 1.267 0 0 1-.685.259 1.153 1.153 0 0 0-.686.282.988.988 0 0 1-.696.189c-.29 0-.418-.142-.5-.448-.08-.306-.104-.506-.173-.753a1.897 1.897 0 0 0-.012-.435.537.537 0 0 1 0-.4 1.443 1.443 0 0 0-.348-1.283 2.504 2.504 0 0 1-.511-.907 1.384 1.384 0 0 0-.65-.847.796.796 0 0 1-.453-.718v-.365a2.066 2.066 0 0 0-.36-1 1.01 1.01 0 0 0-.441-.577.792.792 0 0 1-.407-.6 1.677 1.677 0 0 0-.313-.553c-.255-.412-.488-.836-.731-1.26a.847.847 0 0 0-.186-.282.388.388 0 0 1-.14-.447c.038-.262.01-.529-.08-.777l-.245-.836a.535.535 0 0 1 0-.53c.13-.179.21-.39.233-.611.077-.414.222-.812.43-1.177a1.75 1.75 0 0 0 .255-1.177c-.058-.27 0-.541 0-.812-.105-.083-.221 0-.314 0a.527.527 0 0 0-.662.176 1.15 1.15 0 0 1-.743.248.498.498 0 0 1-.325-.189 1.577 1.577 0 0 0-.545-.376c-.14 0-.233 0-.314.13a.494.494 0 0 1-.464.34.31.31 0 0 1-.302-.094.817.817 0 0 0-.685-.376c-.116 0-.174 0-.093-.177a1.182 1.182 0 0 1-.395-.765c0-.118-.127-.141-.197-.2-.07-.059-.244-.224-.093-.435a.484.484 0 0 0 .06-.58.48.48 0 0 0-.141-.15C0 65.908 0 65.778 0 65.614c.059-.137.125-.27.197-.4a.153.153 0 0 1 .087-.089.147.147 0 0 1 .122.006c.279.177.57 0 .848 0 .279 0 .232-.082.325-.177a.225.225 0 0 0 .058-.129c0-.282 0-.282.209-.294.185-.03.373-.03.557 0a.504.504 0 0 0 .592-.153 2.76 2.76 0 0 1 .337-.283c.233-.185.517-.291.813-.306h.464a.78.78 0 0 1 .604.177c.186.153.418.259.627.4a1.544 1.544 0 0 0 1.16.27c.197-.023.396-.023.593 0a1.149 1.149 0 0 0 .94-.576.203.203 0 0 0 0-.141c0-.33-.081-.695-.394-.883a1.917 1.917 0 0 1-.476-.33s-.093-.105 0-.176a.197.197 0 0 1 .116-.07.78.78 0 0 1 .452.082c.263.135.553.207.848.212.205.012.4.1.546.247a.73.73 0 0 0 .592.188.62.62 0 0 1 .467.055c.144.079.25.211.299.369a.341.341 0 0 0 .209.188c.23.11.43.275.58.483.117.153.233.14.36 0l.093-.118c.186-.388.267-.235.441 0 .05.068.09.143.117.224a1.039 1.039 0 0 0 .545.6.161.161 0 0 1 .093.106.084.084 0 0 1-.02.066.082.082 0 0 1-.061.028.347.347 0 0 0-.267.318c-.043.13-.075.264-.093.4 0 .117 0 .247-.163.306-.162.059-.174.212-.15.388.023.177 0 .306 0 .46a.45.45 0 0 0 .106.275.44.44 0 0 0 .253.148.95.95 0 0 1 .546.341.859.859 0 0 0 .929.283l.592-.165c.104 0 .255.082.337-.082.08-.165 0-.271 0-.4a3.057 3.057 0 0 1-.07-.73.726.726 0 0 0-.093-.636c-.081-.106 0-.259 0-.4 0-.141-.081-.2-.232-.188-.151.011-.186-.083-.197-.224-.01-.198.026-.395.104-.577.14 0 .29.095.43.142a.345.345 0 0 0 .267 0 .268.268 0 0 0 .144-.168.273.273 0 0 0-.028-.22c-.093-.154-.21-.307-.29-.472-.082-.164-.314-.153-.43 0a.545.545 0 0 0-.105.283.235.235 0 0 1-.07.106c-.08 0-.104 0-.127-.118a.87.87 0 0 1-.07-.565c.082-.318 0-.518-.278-.635a.64.64 0 0 1-.407-.577 1.11 1.11 0 0 0-.301-.518l-.21-.212v-.2h.14c.104 0 .209.094.313 0 .105-.094 0-.2 0-.294a.226.226 0 0 1 .151-.177.99.99 0 0 0 .348-.14.195.195 0 0 1 .175 0c.325.129.685 0 .987.164a.16.16 0 0 0 .127-.068.166.166 0 0 0 .024-.144.816.816 0 0 0-.082-.176 2.001 2.001 0 0 1-.325-.695 1.588 1.588 0 0 0-.162-.259.538.538 0 0 0-.558-.282.86.86 0 0 1-.453-.07.263.263 0 0 0-.336.07.924.924 0 0 1-.616.318c-.174 0-.371 0-.44.317 0 .083-.117.106-.186.071a.891.891 0 0 1-.21-.118.165.165 0 0 1-.045-.201.165.165 0 0 1 .046-.058l.104-.094a.459.459 0 0 0 .093-.117.75.75 0 0 0-.383-.742.491.491 0 0 0-.186 0 .253.253 0 0 1-.244-.2 1.187 1.187 0 0 0-.128-.27c-.243-.177-.197-.4-.092-.636a.81.81 0 0 0 .07-.495.738.738 0 0 1 .104-.494c.058-.084.104-.175.14-.27.127-.342.22-.354.429 0 0 .058.07.14.116.211.046.07.093.106.162.07a.151.151 0 0 0 .093-.152v-.306a.25.25 0 0 1 .093-.27.878.878 0 0 0 .302-.319.43.43 0 0 1 .22-.188c.175-.083.327-.208.442-.365a.395.395 0 0 1 .418-.141c.08 0 .174.059.22 0 .349-.212.662.106.976.106.07 0 .139.094.185.141l.302.33s.081.094.105.094c.255-.083.383.153.568.27a.265.265 0 0 0 .349 0 .777.777 0 0 1 .8-.258c.074.01.148.01.221 0 .198 0 .372 0 .476.2.105.2.221.176.349.212a.264.264 0 0 0 .337-.083c.104-.106.197 0 .301 0 .302.07.511-.094.558-.447a.157.157 0 0 0-.01-.287.15.15 0 0 0-.118.005l-.418-.236a.809.809 0 0 1-.372-.435.435.435 0 0 0-.16-.235.425.425 0 0 0-.27-.083c-.231 0-.243 0-.301-.306a3.2 3.2 0 0 0 0-.353 1.014 1.014 0 0 1 .174-.977c.13-.152.228-.328.29-.518v-.106a.179.179 0 0 0-.024-.244.174.174 0 0 0-.08-.038.127.127 0 0 0-.163 0 1.156 1.156 0 0 0-.185.165.53.53 0 0 1-.72 0 1.28 1.28 0 0 1-.302-.742c0-.165.14-.306.267-.27.09.03.18.065.267.105.29.106.488 0 .522-.365a.643.643 0 0 0 0-.211.25.25 0 0 0-.054-.16.243.243 0 0 0-.143-.088h-.267c-.255 0-.383-.164-.441-.459a1.706 1.706 0 0 1 0-.765c.075-.444.282-.854.592-1.176a.909.909 0 0 0 .28-.66.917.917 0 0 0-.28-.659.884.884 0 0 1-.232-.659.64.64 0 0 1 .15-.412c.069-.073.131-.152.186-.235a.782.782 0 0 0 .07-.906 2.001 2.001 0 0 1-.093-.236c0-.153 0-.282.093-.364a.259.259 0 0 0 .105-.306c0-.142 0-.283-.07-.413a1.885 1.885 0 0 1 0-.67.525.525 0 0 0 0-.353.5.5 0 0 1 0-.495 1.31 1.31 0 0 0 .093-.918.703.703 0 0 1 .07-.4c.154-.373.237-.772.243-1.177 0-.212.093-.341.279-.341a.656.656 0 0 0 .402-.138.672.672 0 0 0 .236-.356 1.43 1.43 0 0 1 .372-.46l.383-.364c.21-.194.363-.442.441-.718a1.065 1.065 0 0 1 .534-.683.882.882 0 0 0 .534-.6.353.353 0 0 1 .14-.2.636.636 0 0 0 .197-.6.32.32 0 0 0-.174-.283c-.372-.188-.441-.33-.29-.765a.785.785 0 0 0 0-.682 1.526 1.526 0 0 1-.105-.965.118.118 0 0 1 .07-.097.115.115 0 0 1 .116.014l.395.26.104.105c.478.33.907.727 1.277 1.177.163.2.244.153.325-.106.082-.259.082-.294.116-.447a.19.19 0 0 0-.058-.189 1.87 1.87 0 0 1-.418-.847c-.092-.282-.255-.424-.522-.388-.267.035-.15 0-.15-.142 0-.14-.059-.553.162-.776v-.2a4.844 4.844 0 0 1 0-.824c0-.2 0-.212-.186-.26-.186-.046-.232-.082-.174-.258a.763.763 0 0 0 0-.4.452.452 0 0 1 .174-.447 2.9 2.9 0 0 0 .476-.318 1.81 1.81 0 0 0 .5-.977c.069-.412.162-.812.231-1.177.043-.238.12-.469.232-.683a.237.237 0 0 1 .116-.15.23.23 0 0 1 .186-.014c.256.055.518.074.778.058.153.002.304.038.441.106a.725.725 0 0 1 .418.67 3.452 3.452 0 0 1-.36 1.849.44.44 0 0 0 0 .518 2.277 2.277 0 0 1 .29 2.048.679.679 0 0 0 0 .306c.059.445.059.896 0 1.341a2.584 2.584 0 0 0 0 .424.8.8 0 0 0 .21.66l.093.117a.58.58 0 0 1 .116.659 1.958 1.958 0 0 0-.14.812.808.808 0 0 1-.139.483 4.957 4.957 0 0 0-.476.882.296.296 0 0 1-.14.188.198.198 0 0 0-.115.212c0 .189-.105.271-.221.365-.116.094-.302.189-.453 0-.15-.188-.093 0-.116 0a.238.238 0 0 0 0 .2.199.199 0 0 0 .21.095 1.02 1.02 0 0 1 .672.07c.163 0 .233 0 .28-.176a.636.636 0 0 1 .255-.4l.267-.224a.82.82 0 0 0 .348-.612.983.983 0 0 1 .267-.6.935.935 0 0 0 .15-1.048c-.08-.19-.12-.394-.115-.6a.607.607 0 0 1 .278-.495c.343-.23.75-.341 1.161-.317v.341c.214.283.324.632.314.989a.071.071 0 0 0 .036.06.07.07 0 0 0 .068-.002.309.309 0 0 0 .209-.306c-.058-.235-.104-.459-.174-.694a.564.564 0 0 0-.14-.2.748.748 0 0 0-.405-.141zm.464 2.189c-.02-.1-.047-.198-.081-.294h-.058a.132.132 0 0 0 0 .094.226.226 0 0 0 .15.212c.058.106.105.223.21.259.104.035.174 0 .208 0 .035 0-.058-.118-.116-.142-.058-.023-.22-.094-.313-.13zm-23.8 37.732a1 1 0 0 0 .127-.518.119.119 0 0 0-.081-.106.092.092 0 0 0-.062.024.094.094 0 0 0-.03.059.167.167 0 0 0 0 .106c0 .117.01.247.045.435zM62.82 28v-.07l-.232-.165a.07.07 0 0 0-.104 0 .132.132 0 0 0 0 .094c.07.106.139.223.278.2A.092.092 0 0 0 62.82 28zM50.585 95.578a.768.768 0 0 0-.65.07c-.174.107-.22.083-.337-.105a.41.41 0 0 0-.325-.247 1.148 1.148 0 0 1-.267-.095.538.538 0 0 0-.36 0 2.35 2.35 0 0 1-.395.106c-.081 0-.162 0-.209-.07a.454.454 0 0 0-.453-.188.491.491 0 0 1-.185 0 .3.3 0 0 1-.244-.212 2.873 2.873 0 0 1-.151-.542 1.35 1.35 0 0 0-.337-.776 1.532 1.532 0 0 1-.116-1.425c.105-.212.198-.247.418-.176l.256.094c.255 0 .36.13.487-.282a.662.662 0 0 1 .206-.356.645.645 0 0 1 .375-.162.657.657 0 0 0 .522-.353c.07-.118.186-.2.244-.318a1.172 1.172 0 0 1 .743-.565.36.36 0 0 0 .22-.153c.175-.2.33-.418.465-.647.056-.1.127-.192.209-.271a.242.242 0 0 1 .337 0c.076.03.14.084.185.153.2.314.486.56.825.706l.07.07a.106.106 0 0 1 .034.139.104.104 0 0 1-.035.038c-.15.13-.36.189-.43.436 0 0-.104.07-.162.082a.197.197 0 0 0-.118.082.202.202 0 0 0-.033.142c0 .153-.174.188-.139.365.035.129.09.252.163.364a.71.71 0 0 1 .07.13c.04.302.193.576.429.765.04.033.068.079.081.13a.24.24 0 0 1 0 .129.183.183 0 0 1-.128 0c-.348 0-.487.247-.545.588a1.189 1.189 0 0 1-.465.86.282.282 0 0 0-.104.352.5.5 0 0 1 0 .26 2.382 2.382 0 0 0-.151.882z" fill="#E7E6E6"/><path fill-rule="evenodd" clip-rule="evenodd" d="M44.699 94.66c0-.188-.198-.2-.279-.306a.143.143 0 0 1 0-.153.269.269 0 0 1 .22-.118.264.264 0 0 1 .221.118c.077.203.183.393.314.565.093.094 0 .212-.093.247a.29.29 0 0 0-.21.247c-.06.29-.088.587-.08.883 0 .706 0 .6-.593.636a.367.367 0 0 1-.336-.13 6.608 6.608 0 0 0-.894-.824.538.538 0 0 1-.14-.141 7.847 7.847 0 0 0-.661-.847 1.335 1.335 0 0 1-.256-.495 2.86 2.86 0 0 0-.615-1.177 1.666 1.666 0 0 1-.406-.741 1.185 1.185 0 0 0-.546-.73.598.598 0 0 1-.22-.259 2.345 2.345 0 0 0-.627-.741 3.567 3.567 0 0 1-.546-.565.556.556 0 0 1-.14-.318c0-.13.093-.282.186-.223.33.136.679.216 1.034.235a.44.44 0 0 1 .325.259c.185.349.462.638.8.836.12.08.223.184.303.305.181.267.447.463.754.554.128 0 .244 0 .29.212.047.211.093.07.151.105.243.114.44.31.558.554a.189.189 0 0 0 .127.117.3.3 0 0 1 .192.153.311.311 0 0 1 .017.247c-.093.342 0 .46.256.554a.358.358 0 0 1 .232.235v.094a.74.74 0 0 0 .662.612zM40.391 5.296c.128-.106.093-.2.128-.282a.26.26 0 0 1 .17-.192.252.252 0 0 1 .248.05c.076.085.146.176.209.271.194.323.294.694.29 1.071a.299.299 0 0 1 0 .2 2.15 2.15 0 0 0-.127.86c0 .2 0 .388-.256.423v.13c0 .058.058.106.093.176.035.07.105.212.14.318a.762.762 0 0 1-.098.724.745.745 0 0 1-.657.3.656.656 0 0 1-.349-.13c-.302-.247-.638-.412-.952-.635a1.514 1.514 0 0 1-.139-.13c-.081-.129-.163-.129-.279 0a.162.162 0 0 1-.188.042.163.163 0 0 1-.055-.042 1.6 1.6 0 0 1-.384-.965c0-.33-.092-.423-.383-.482a.882.882 0 0 1-.174 0c-.081 0-.14-.2-.081-.26.244-.211.348-.564.592-.776a.27.27 0 0 0 .093-.27.632.632 0 0 1 .209-.6.976.976 0 0 1 .836-.354.77.77 0 0 0 .476-.13c.337-.164.569 0 .65.354.001.11-.003.22-.012.33zm19.83 89.282h-.348a.538.538 0 0 1-.592-.294.35.35 0 0 0-.302-.13.414.414 0 0 1-.29-.153.176.176 0 0 1-.056-.13.178.178 0 0 1 .056-.129l.673-.33a.481.481 0 0 1 .313 0c.26.065.507.172.732.318a.411.411 0 0 1 .162.353v.306a.31.31 0 0 0 .093.283c.146.133.271.288.372.459a.21.21 0 0 0 .18.104.207.207 0 0 0 .18-.104c.08-.082.15-.177.22-.259.07-.082.233-.33.441-.365a.358.358 0 0 0 .21-.188.445.445 0 0 1 .31-.235.436.436 0 0 1 .374.105c.105 0 .233.095.349.165.225.169.497.264.778.27a.504.504 0 0 1 .174 0 .249.249 0 0 1 .186.259c.004.067.004.134 0 .2 0 .978 0 1.943.057 2.92v.623a.143.143 0 0 1-.07.165.126.126 0 0 1-.162 0 2.603 2.603 0 0 1-.313-.306.372.372 0 0 0-.418-.141l-.592.118h-.22c-.105 0-.152-.118-.129-.236a.663.663 0 0 1 .314-.424c.116-.07.128-.164.105-.306a1.27 1.27 0 0 0-.249-.73 1.243 1.243 0 0 0-.622-.446c-.337-.106-.662-.271-1.01-.353a2.517 2.517 0 0 1-.697-.377.208.208 0 0 0-.29 0 .593.593 0 0 1-.151.106.16.16 0 0 1-.21-.083 1.308 1.308 0 0 0-.394-.623.106.106 0 0 1 0-.165l.627-.153s.197-.012.21-.094zM63.61 20.16c-.093.154-.093.424-.313.4a.678.678 0 0 1-.65-.411 1 1 0 0 0-.337-.47.76.76 0 0 1-.279-.519v-.2a.366.366 0 0 0 .081-.412.68.68 0 0 1 .093-.635.273.273 0 0 0 0-.283.238.238 0 0 1 .07-.282c.194-.12.366-.27.51-.447l.152-.106a.149.149 0 0 1 .17.012.154.154 0 0 1 .039.047c.218.35.484.666.79.941.069.07 0 .188.08.283.082.094 0 .094.105 0 .105-.095.093 0 .093-.106v-.46c0-.364.07-.458.383-.54a.183.183 0 0 1 .209.07l.279.341c.127.153.267.247.453.177a.436.436 0 0 1 .568.188c.125.145.265.275.418.388.08.065.153.136.22.212a.129.129 0 0 1 .055.106.132.132 0 0 1-.054.106.467.467 0 0 0-.255.494.655.655 0 0 1-.256.53.403.403 0 0 1-.441.07c-.128 0-.163 0-.14.165a.143.143 0 0 1-.068.16.137.137 0 0 1-.06.017.95.95 0 0 0-.406.07c-.07 0-.15 0-.209-.07-.057-.07-.336-.13-.499 0a1.866 1.866 0 0 0-.325.2c-.232.177-.232.165-.476-.035zm1.405-2.506a.333.333 0 0 0 .162.27.448.448 0 0 0-.162-.27zm0 1.177a.727.727 0 0 0 .081.459.655.655 0 0 0-.081-.46zm-4.191 51.396a.203.203 0 0 0 0-.2.126.126 0 0 0-.15 0 5.37 5.37 0 0 0-.581.165 1.316 1.316 0 0 0-.662.306.343.343 0 0 1-.22 0h-.453c0-.13 0-.247.07-.33.317-.193.6-.44.835-.73a.524.524 0 0 1 .418-.188c.243.008.485-.02.72-.082a.664.664 0 0 1 .453 0c.197 0 .302 0 .348-.224.038-.18.118-.35.232-.494.092-.121.156-.262.186-.412a.568.568 0 0 1 .105-.224.194.194 0 0 1 .127 0v.224a.19.19 0 0 0 0 .188c.082.094.14 0 .21 0 .292-.171.545-.404.742-.682a3.15 3.15 0 0 0 .57-1.177.558.558 0 0 0 .08-.46 1.692 1.692 0 0 1 .128-.988c0-.165.093-.165.29-.117.198.047.117 0 .117-.154a.154.154 0 0 1 0-.14.138.138 0 0 1 .174 0 .246.246 0 0 1 .14.246c.007.24.07.474.185.683.036.096.067.195.093.294a.833.833 0 0 1 0 .742c-.128.235-.163.53-.395.694a.296.296 0 0 0-.07.294c.072.34.022.694-.139 1a.596.596 0 0 0 0 .4.739.739 0 0 1-.174.625c-.116.164-.174.176-.383.082-.21-.094-.186-.07-.29.118-.105.188-.093.212-.151.164-.058-.046-.29 0-.442.06a.951.951 0 0 1-.545 0c-.07 0-.14-.118-.21 0-.069.117 0 .14 0 .2a.236.236 0 0 1-.069.129c-.125.108-.228.24-.302.388a.28.28 0 0 1-.25.157.275.275 0 0 1-.249-.157.945.945 0 0 1-.093-.188c0-.176-.174-.153-.302-.141l-.093-.07zM38.881 0a.368.368 0 0 1 .302.2c.137.254.235.528.29.812.07.295.239.557.476.742a.408.408 0 0 1 .116.094c.042.049.08.1.116.153.105.212.105.412-.104.518l-.116.07a.321.321 0 0 0-.174.341 2.387 2.387 0 0 0 0 .4c0 .13.058.236.08.354.059.318 0 .494-.336.553a.126.126 0 0 1-.093 0 1.53 1.53 0 0 0-.975.377l-.43.317a.334.334 0 0 1-.43 0l-.452-.423a.47.47 0 0 1-.15-.189.67.67 0 0 0-.233-.306.257.257 0 0 1-.111-.167.262.262 0 0 1 .041-.198.95.95 0 0 1 .43-.517c.325-.106.337-.412.371-.695a.275.275 0 0 0 0-.188c-.243-.188-.15-.412-.08-.647a.933.933 0 0 1 .244-.447.914.914 0 0 1 .44-.248 1.33 1.33 0 0 0 .488-.27.398.398 0 0 0 .185-.436c-.139-.106-.011-.2.105-.2zm4.168 8.156h.08c.07-.07 0-.235.152-.247a.803.803 0 0 1 .313.07s.082.071.082.106c0 .283.301.424.336.707.04.13.127.24.244.306a.658.658 0 0 1 .244.576c.042.315-.01.635-.151.918-.058.095-.116.2-.232.236l-1.057.341a.286.286 0 0 1-.174 0 2.12 2.12 0 0 0-.546 0 .425.425 0 0 0-.394.224 2.062 2.062 0 0 1-.511.447c-.151.141-.325.059-.383-.165a.752.752 0 0 1 0-.506c.232-.518.313-1.083.499-1.612.116-.342.197-.671.29-1.013.111-.354.247-.7.407-1.035 0-.083.092-.083.15 0 .058.082.093.094.117 0 .07-.247.139-.33.255-.294a.487.487 0 0 1 .348.435v.306c0 .106-.046.082-.07.2zm11.112 85.739a.773.773 0 0 1-.267.283.434.434 0 0 0-.325.188c-.081.118.128.235.197.341a.93.93 0 0 1 .21.553.618.618 0 0 0 .266.471.758.758 0 0 1 .14.718.202.202 0 0 1-.151.177.16.16 0 0 1-.198-.083.306.306 0 0 1-.104-.165.238.238 0 0 0-.088-.164.23.23 0 0 0-.18-.047.208.208 0 0 1-.132-.058.213.213 0 0 1-.065-.13 1.291 1.291 0 0 0-.209-.507.845.845 0 0 1-.104-.447s0-.106-.081-.118c-.081-.011-.116 0-.163.083a.74.74 0 0 0 0 .317c.03.36.03.723 0 1.083 0 .224-.116.306-.302.306-.185 0-.36-.188-.36-.376v-.518a.55.55 0 0 0-.185-.495.42.42 0 0 1-.179-.27.427.427 0 0 1 .063-.318c.096-.236.17-.48.22-.73.133-.382.23-.776.29-1.177a.262.262 0 0 1 .093-.176c.256-.177.476-.447.825-.341.327.083.661.138.998.164a.71.71 0 0 0 .674-.259.674.674 0 0 1 .22-.188.172.172 0 0 1 .128 0 .202.202 0 0 1 0 .141.923.923 0 0 1-.226.447.903.903 0 0 1-.424.26.994.994 0 0 1-.175.117 4.4 4.4 0 0 0-1.416 0 .45.45 0 0 0-.327.239.463.463 0 0 0-.01.408c.075.15.192.273.337.354a.127.127 0 0 0 .163 0c.313-.306.731-.248 1.08-.4.069 0 .127 0 .127.129a.119.119 0 0 1-.058.118.975.975 0 0 1-.244.129s-.046-.07-.058-.059zm12.642-31.812a.12.12 0 0 1 0 .082.523.523 0 0 0 .197.577.115.115 0 0 1 .04.088.119.119 0 0 1-.04.089.675.675 0 0 1-.5.247c-.382 0-.58.235-.707.6a.4.4 0 0 1-.07.141.115.115 0 0 1-.163 0l-.487-.27a.519.519 0 0 0-.488-.071h-.093c-.104 0-.267-.118-.313.082-.047.2.127.165.186.26a.13.13 0 0 1 0 .211l-.233.165c-.139.106-.22 0-.255-.118a.336.336 0 0 1 0-.106c0-.188-.116-.365-.081-.565.034-.2.255-.376.313-.624a.15.15 0 0 1 .163-.082c.243.07.336-.07.36-.318.021-.084.048-.166.08-.247.103-.294.131-.61.082-.918a1.194 1.194 0 0 1 0-.2c0-.165.151-.247.267-.165a.8.8 0 0 1 .14.142l.162.247c.22.326.525.583.882.741.174.07.314.118.465 0a.08.08 0 0 1 .093.012zM44.488 97.379l.29-.424a.28.28 0 0 1 .233-.13 1.593 1.593 0 0 1 1.242.424.534.534 0 0 0 .383.153h.406a.285.285 0 0 0 .256-.082.336.336 0 0 1 .464-.082c.118.043.238.079.36.106.199.081.416.106.627.07a.608.608 0 0 1 .407 0 .096.096 0 0 1 0 .07.227.227 0 0 1 0 .095c-.117.106-.268.07-.395.106a.12.12 0 0 0 0 .082.082.082 0 0 0 .058.07.24.24 0 0 0 .127 0c.407-.07.72.248 1.103.283.082 0 .128.083.128.189a.202.202 0 0 1-.093.164.126.126 0 0 1-.162 0 .3.3 0 0 0-.349 0 .607.607 0 0 1-.406 0 1.661 1.661 0 0 0-.546-.082 8.91 8.91 0 0 1-.963-.082 1.278 1.278 0 0 1-.511-.212.739.739 0 0 0-.65-.153.985.985 0 0 1-.639 0l-.406-.094a.404.404 0 0 1-.302-.118 1.156 1.156 0 0 0-.662-.353zm8.686-12.876c-.31-.42-.527-.9-.639-1.412 0-.106 0-.224.081-.27.082-.048.163-.19.163-.342v-.565a2.44 2.44 0 0 1 0-.306c0-.294.162-.377.418-.341a1.5 1.5 0 0 0 .453 0c.127 0 .174.059.15.188a.89.89 0 0 0 .059.553.81.81 0 0 1-.116.777s-.093.094-.128.141a.733.733 0 0 0-.151.765c0 .106.07.224.116.33.047.106.093.117.151.07a.348.348 0 0 1 .414-.093.348.348 0 0 1 .12.093.669.669 0 0 0 .58.083c.07 0 .117 0 .128.094a.154.154 0 0 1-.081.165h-.093a.115.115 0 0 0-.095.07.12.12 0 0 0 .014.118c.054.088.097.183.127.282 0 .13 0 .189-.162.165 0 0-.093-.117-.14-.13-.046-.011-.324 0-.231-.258-.093-.094-.128-.377-.326-.13a.127.127 0 0 1-.116 0 .397.397 0 0 0-.267-.165.39.39 0 0 0-.302.083h-.185l.058.035zm1.694 4.12v-.154c0-.105-.116-.2-.198-.176a1.24 1.24 0 0 1-.58.141c-.105 0-.14.177-.22.247a.092.092 0 0 1-.128 0 .247.247 0 0 1 0-.082.657.657 0 0 1 .15-.483c.193-.162.4-.308.616-.435a.195.195 0 0 1 .255.07c.093.13.175.071.279 0 .149-.14.317-.26.5-.353.127 0 .127-.176.15-.305.023-.13.105-.118.174-.06a.855.855 0 0 1 .36.636c.02.19.05.379.093.565a.763.763 0 0 1 0 .506c0 .07-.081.177-.14.189-.057.011-.092-.106-.127-.165-.035-.06-.081-.13-.15-.07a.308.308 0 0 0-.082.176c0 .13.058.27.07.4.011.13-.105.259-.233.223l-.301-.047c-.395-.153-.511-.341-.488-.823zm14.339-68.097a2.006 2.006 0 0 1-.928-.412c-.082 0-.151-.13-.233-.177a.559.559 0 0 1-.325-.459 2.192 2.192 0 0 0-.302-.647.404.404 0 0 1-.07-.235c0-.06.07-.107.094-.071.258.232.596.35.94.33a.287.287 0 0 1 .232.14.257.257 0 0 0 .22.154c.378.03.738.173 1.034.412a.27.27 0 0 1 .105.211.713.713 0 0 1-.15.484.695.695 0 0 1-.431.258l-.186.012zm17.344 6.92a.953.953 0 0 1 .883.388c.267.294.267.53-.117.683a1.228 1.228 0 0 1-.928.153.321.321 0 0 0-.314.07.438.438 0 0 1-.29.107.367.367 0 0 1-.324-.187.38.38 0 0 1-.001-.378c.267-.495.592-.895 1.091-.836zM31.218 88.517c.01.2-.049.396-.168.555a.835.835 0 0 1-.482.316.4.4 0 0 1-.383-.294 2.038 2.038 0 0 1-.081-1.178c0-.27.093-.541.14-.812.046-.27.127-.282.255-.141.352.38.61.84.754 1.342-.035.13-.046.2-.035.212zm32.903-64.979a1.563 1.563 0 0 1-.325 0s-.07 0-.105-.082a.095.095 0 0 1 0-.13.72.72 0 0 0 .43-.553c0-.188.128-.353.325-.411a.631.631 0 0 1 .615 0 1.568 1.568 0 0 1 .685 1.118c0 .247-.093.376-.301.341a5.038 5.038 0 0 1-.976-.27.584.584 0 0 0-.348-.012z" fill="#E7E6E6"/><path fill-rule="evenodd" clip-rule="evenodd" d="M58.816 70.439s.082.13.128.141c.232 0 .279.247.36.424a.642.642 0 0 1 0 .506 3.328 3.328 0 0 0-.15.483 1.797 1.797 0 0 1-.28.482c-.139.177-.44 0-.464-.176a1.19 1.19 0 0 1 0-.46c.081-.33.081-.33-.186-.47a.315.315 0 0 1-.174-.283.214.214 0 0 1 .07-.235c.209-.165.383-.412.662-.436l.034.024zM36.827 6.285H36.7a.142.142 0 0 1-.104-.153s.057 0 .092-.083c.035-.082.197-.13.07-.211a1.345 1.345 0 0 1-.29-.46.573.573 0 0 1 0-.34c0-.154.07-.213.208-.224a.447.447 0 0 1 .175 0c.277.1.549.218.812.353.233.117.244.306.116.541-.084.18-.22.332-.39.435a.988.988 0 0 1-.562.142zM53.65 77.077a7.588 7.588 0 0 1-.255 1.082c-.07.2-.163.4-.244.6-.081.2-.128.13-.209 0a1.185 1.185 0 0 1-.15-1.365 5.29 5.29 0 0 0 .255-.435.749.749 0 0 1 .232-.235c.197-.095.371.035.371.353zm1.242 10.015c-.198-.14-.314 0-.441.189-.128.188-.175.129-.302 0a.415.415 0 0 1 0-.553c0-.095 0-.153-.081-.189h-.14c-.104 0-.15-.082-.162-.212v-.517c0-.118.08-.177.185-.13.105.047.441.153.534.447a.2.2 0 0 0 .184.156.197.197 0 0 0 .083-.014s.093-.106.151-.071c.058.035.082.141.082.224a.298.298 0 0 0 .15.34.151.151 0 0 1 .074.094.153.153 0 0 1-.015.119c-.093.117-.186.117-.302.117zM46.23 80.89a.404.404 0 0 1 .104-.282.997.997 0 0 1 1.045-.388.232.232 0 0 1 .166.136.238.238 0 0 1-.015.216c-.104.189-.197.389-.313.577a.53.53 0 0 1-.31.274.515.515 0 0 1-.41-.039.453.453 0 0 1-.267-.494zm10.276 17.5s.081 0 .105.095a.107.107 0 0 1 0 .13c-.152.136-.33.24-.523.306a1.403 1.403 0 0 0-.696.47.834.834 0 0 1-.488.283c-.116 0-.209 0-.209-.2a.428.428 0 0 1 .15-.412c.272-.21.568-.385.883-.518.233-.07.5-.106.778-.153zm4.319-28.163a.415.415 0 0 1 0 .436c-.093.14-.198.247-.384.212-.185-.036-.255 0-.348.188-.03.057-.066.112-.104.165a.14.14 0 0 1-.116.063.138.138 0 0 1-.117-.063 1.183 1.183 0 0 1-.22-.4.298.298 0 0 1 0-.142c.093-.153.197-.318.383-.341a.553.553 0 0 0 .348-.13.403.403 0 0 1 .546 0l.011.012zM48.367 20.985l.325.058a.326.326 0 0 1 .183.158.334.334 0 0 1 .026.242.664.664 0 0 1-.267.46.333.333 0 0 1-.383 0 4.674 4.674 0 0 1-.36-.318.142.142 0 0 1 0-.189 1.32 1.32 0 0 0 .209-.329c.035-.082.14-.106.267-.082zm8.581 72.463a4.891 4.891 0 0 0-.151-.918.882.882 0 0 1 0-.6c0-.071.093-.153.186-.13.092.024 0 .106.07.165a.236.236 0 0 0 .185.2c.22.07.22.082.186.318a.56.56 0 0 0 0 .2c0 .188-.07.247-.21.27-.139.024-.15.165-.127.283.023.118 0 .153.081.235.082.083 0 .118 0 .13 0 .012-.093 0-.127 0l-.093-.153zm-5.865 5.414a3.15 3.15 0 0 0-.661-.13s-.07-.07-.082-.117c-.011-.048.186-.389.36-.271a.29.29 0 0 0 .256.059h.301c.256-.2.465 0 .697 0a.177.177 0 0 1 .081.117s0 .118-.058.118a9.05 9.05 0 0 1-.894.224zm6.56-3.955c.257-.01.513.03.755.118a.394.394 0 0 1 .255.27.286.286 0 0 1 0 .142c0 .07-.081 0-.128 0h-.127a1.149 1.149 0 0 0-1.057 0c-.093 0-.174.082-.232 0a.297.297 0 0 1 .104-.4h.186l.244-.13zM36.107.212a.804.804 0 0 1 .43.106.353.353 0 0 1 .127.365.343.343 0 0 1-.244.27.964.964 0 0 1-.534-.117.303.303 0 0 1-.15-.248.322.322 0 0 1 .15-.294c.071-.034.145-.061.22-.082zm16.311 86.01c0 .235 0 .353-.116.423-.213.222-.41.458-.592.706a1.923 1.923 0 0 1-.476.4.092.092 0 0 1-.128 0 .298.298 0 0 1 0-.14.612.612 0 0 1 .14-.2 4.68 4.68 0 0 0 .673-.695c.123-.136.218-.296.279-.47 0-.072 0-.177.15-.13.036.025.06.063.07.106zM3.785 69.91a.625.625 0 0 1-.151 0 .21.21 0 0 1-.103-.183.214.214 0 0 1 .103-.183.985.985 0 0 1 .325-.176 3.18 3.18 0 0 0 .685-.27.091.091 0 0 1 .081 0 .095.095 0 0 1 0 .093 1.024 1.024 0 0 1-.356.513c-.169.128-.373.2-.584.205zm75.778-38.957l-.116-.141c0-.141 0-.27.07-.365a.3.3 0 0 1 .383 0c.096.056.186.123.267.2a.378.378 0 0 1 .116.365.25.25 0 0 1-.11.202.242.242 0 0 1-.227.022c-.15-.059-.255-.2-.383-.283zm-54.567-7.52a.23.23 0 0 1 .232.129c.07.134.131.271.186.412a.156.156 0 0 1-.07.177 1.15 1.15 0 0 1-.545.211s-.105 0-.105-.07a.965.965 0 0 1 .105-.742.223.223 0 0 1 .197-.117zm28.259 75.335l-.604-.13a.13.13 0 0 1 0-.176.361.361 0 0 1 .36-.165.69.69 0 0 1 .267.07.906.906 0 0 0 .952-.082h.082a.203.203 0 0 1 0 .141.363.363 0 0 1-.29.212l-.767.13zm2.112-12.853a.44.44 0 0 0-.14-.306l-.15-.2a.18.18 0 0 1 .03-.207.174.174 0 0 1 .062-.04.379.379 0 0 1 .487.17c.03.057.047.12.047.183.03.152.05.305.058.46 0 .117 0 .152-.185.14h-.081a1.577 1.577 0 0 1-.128-.2zm8.488-63.93v-.282a.224.224 0 0 1 .095-.134.218.218 0 0 1 .16-.031.23.23 0 0 1 .197.188.596.596 0 0 1-.186.636.16.16 0 0 1-.243-.01.165.165 0 0 1-.035-.085 1.9 1.9 0 0 1 .011-.282zM52.383 98.98a.724.724 0 0 1 .616.329.203.203 0 0 1 0 .2.16.16 0 0 1-.197.082l-.221-.094-.337-.2a.14.14 0 0 1-.104-.153.164.164 0 0 1 .127-.13l.116-.035zm.779-14.477a.631.631 0 0 1 .313.636.26.26 0 0 1-.116.2.16.16 0 0 1-.197-.083l-.256-.517c0-.118 0-.165.128-.212h.128v-.024zm23.846-37.096v-.071c.028-.15.071-.295.127-.435a.47.47 0 0 1 .407-.271c.081 0 .15.094.128.176-.024.083 0 .142-.07.177s-.337.282-.51.424h-.082zm-38.023-32.46h-.15c-.07 0-.117-.153 0-.212.115-.059.29-.27.452-.4.163-.13.128 0 .14.082a.498.498 0 0 1-.114.357.49.49 0 0 1-.328.173zm29.804 46.018a.202.202 0 0 1 0 .094.538.538 0 0 1-.14.141c-.23.146-.44.32-.627.518a.092.092 0 0 1-.116 0v-.13a.933.933 0 0 1 .592-.6.978.978 0 0 0 .244-.094s.023.059.047.07zm-12.55 34.06a.39.39 0 0 1 .337.13.223.223 0 0 1 .085.176.227.227 0 0 1-.086.176.333.333 0 0 1-.417-.082.259.259 0 0 1-.093-.27c-.012-.118.093-.106.174-.13zM29.918 24.88c0 .189-.116.283-.267.189a.35.35 0 0 1-.174-.306.357.357 0 0 1 .174-.307h.163a.594.594 0 0 1 .104.424zm30.987 71.98a.654.654 0 0 1-.093.413c-.058.082-.093.176-.197.176-.105 0-.117-.13-.082-.306.034-.148.081-.294.14-.435h.116c.046 0 .07 0 .093.094a.24.24 0 0 1 .023.059z" fill="#E7E6E6"/><path fill-rule="evenodd" clip-rule="evenodd" d="M55.368 85.915c.04.058.082.113.128.165a3.56 3.56 0 0 1 0 .506.153.153 0 0 1-.07.106.083.083 0 0 1-.058.025.081.081 0 0 1-.058-.025 6.493 6.493 0 0 1-.243-.6.12.12 0 0 1-.03-.137.12.12 0 0 1 .03-.04h.301zM61.3 17.83a1.091 1.091 0 0 1 .162 1.048.152.152 0 0 1-.07.059.243.243 0 0 1-.116-.07.202.202 0 0 1 0-.142 8.01 8.01 0 0 1 .024-.895zm-29.954 1.436l-.162-.082c-.058 0-.151 0-.174-.13a.381.381 0 0 1 .07-.294c.07-.07.127-.212.255-.141.128.07.128.177.104.306a1.52 1.52 0 0 1-.093.341zm31.208 32.589a.184.184 0 0 1-.186-.117.406.406 0 0 1 .22-.448.164.164 0 0 1 .186.118.37.37 0 0 1-.022.268.361.361 0 0 1-.198.18zm10.46 4.119a.864.864 0 0 1-.476.613.07.07 0 0 1-.081 0v-.083c.151-.2.256-.459.5-.553l.057.023zM45.452 11.145c.105 0 .22 0 .267.142a.239.239 0 0 1 0 .153c-.07.117-.186.106-.29 0-.105-.106-.22 0-.256-.177-.035-.176.105-.118.279-.118zm9.301 73.994c0 .141.093.247.128.388.01.03.01.064 0 .094H54.8a2.207 2.207 0 0 1-.325-.176.166.166 0 0 1 .058-.283c.07-.03.145-.054.22-.07v.047zm-17.265-.224c0 .141 0 .341-.104.542-.105.2 0 .235-.128.2-.128-.035 0-.153 0-.236 0-.082 0-.423.093-.647.093-.224 0-.106.081-.094.081.011 0 .082 0 .13l.058.105zm1.578-69.474h.21c.057 0 .092 0 .08.095a.212.212 0 0 1-.08.117h-.616v-.141a.93.93 0 0 1 .407-.07zm-7.277 6.426c.127 0 .232 0 .325.06a.13.13 0 0 1 0 .093s0 .07-.058.07a.996.996 0 0 1-.523 0v-.163l.256-.06zM48.1 15.818c.077-.173.158-.243.243-.212a.388.388 0 0 1 .151.435s-.08.071-.116 0l-.278-.247v.024zM40.298 92.6h-.07a.114.114 0 0 1-.081 0c-.186-.153-.256-.294-.21-.411a.08.08 0 0 1 .082 0 .407.407 0 0 1 .279.364v.047zm21.421-70.238h-.082a1.262 1.262 0 0 1-.348-.577c.179.134.316.318.395.53l.035.047zm-34.075 1.176s-.093-.07-.07-.117a.333.333 0 0 1 .154-.206.323.323 0 0 1 .252-.03l.07.06c.07.058 0 .093 0 .117a.795.795 0 0 1-.406.176zm18.4 71.382c0 .105 0 .164-.139.164a.16.16 0 0 1-.135-.043.165.165 0 0 1-.05-.134c0-.106 0-.164.15-.164a.16.16 0 0 1 .165.107.168.168 0 0 1 .01.07zM69.66 60.353a.797.797 0 0 1-.326.353h-.081a.13.13 0 0 1 0-.094.62.62 0 0 1 .313-.354l.093.095zm8.73-9.203h.082a.829.829 0 0 1 .197.446v.071a.07.07 0 0 1-.081 0 .663.663 0 0 1-.198-.435.156.156 0 0 1 0-.083zM56.042 98.18s-.105 0-.105-.083a.13.13 0 0 1 .07-.106 1.29 1.29 0 0 1 .302-.094s.081 0 .081.082a.19.19 0 0 1 0 .13.482.482 0 0 1-.348.07zM27.248 24.786c-.139 0-.255-.118-.267-.294a.154.154 0 0 1 .116-.189.139.139 0 0 1 .163.13v.353h-.012zM41.03 94.154s0 .082-.058.094a.126.126 0 0 1-.093 0 1.171 1.171 0 0 1-.15-.188v-.27c0-.013.139.07.174.14.034.07.104.106.127.224zm26.308-32.248a.787.787 0 0 1-.348.447.812.812 0 0 1 .325-.47s.023.011.023.023zM44.884 11.063a.105.105 0 0 1-.07-.118.423.423 0 0 1 .186-.258h.116a.095.095 0 0 1 0 .129c-.023.141-.093.235-.232.247zm-9.345 2.954c0 .094 0 .165-.116.189a.162.162 0 0 1-.101-.069.167.167 0 0 1-.027-.12c0-.094 0-.176.128-.176s.116.094.116.176zm8.439 79.019a.233.233 0 0 1 .093.188.239.239 0 0 1-.093.188h-.07a.285.285 0 0 1 0-.353s.047-.011.07-.023zm15.024 5.096a.116.116 0 0 1-.093-.106.286.286 0 0 1 .128-.294h.105a.31.31 0 0 1-.07.33l-.07.07zm2.867-3.802h-.232c-.105 0-.175-.105-.14-.14.035-.036.105 0 .163 0h.22s.093 0 .093.07-.07.047-.104.07zM45.72 13.735a.167.167 0 0 1-.035.116.162.162 0 0 1-.104.06c-.07 0-.116 0-.116-.117 0-.118 0-.165.128-.165a.116.116 0 0 1 .127.106zm43.677 40.521h.081a.19.19 0 0 1 0 .236.127.127 0 0 1-.162 0 .298.298 0 0 1 .081-.236zm-57.69-36.932c.082 0 .174 0 .233.118h-.337a.072.072 0 0 1 0-.082h.058l.046-.036zM57.19 75.723a.296.296 0 0 1-.186.248.125.125 0 0 1-.07 0 .262.262 0 0 1 .163-.26.104.104 0 0 1 .081 0s.012-.011.012.012zm-1.15 18.619c0 .07 0 .141-.115.118l-.116-.059v-.07c0-.071 0-.083.08-.094.082-.012.14 0 .152.105zm5.632-.552a.184.184 0 0 1-.22-.085.19.19 0 0 1-.024-.08.207.207 0 0 1 .232.14l.012.024zm-3.1-.613a.206.206 0 0 1 .197.07.132.132 0 0 1 0 .095.08.08 0 0 1-.058 0 .16.16 0 0 1-.197-.07v-.083a.17.17 0 0 1 .058-.012zm28.698-38.45a.333.333 0 0 1 .117 0c.07 0 .14.083.128.177-.012.094 0 0-.07 0s-.209 0-.22-.177c-.012-.177.034.036.046 0zM56.261 71.004c-.058 0-.093 0-.081-.106a.141.141 0 0 1 .115-.12.137.137 0 0 1 .06.002.081.081 0 0 1 .082.067.083.083 0 0 1-.002.04.153.153 0 0 1-.063.094.15.15 0 0 1-.11.023zm26.053-17.266v.095a.196.196 0 0 1-.267-.095.276.276 0 0 1 .116-.058c.046-.036.116-.036.15.058zM41.482 94.801a.291.291 0 0 1 .163.26.096.096 0 0 1 0 .07 1.746 1.746 0 0 1-.151-.247V94.8h-.012zM28.131 23.962c.058 0 .128 0 .128.094 0 .095-.07.106-.128.095-.058-.012-.128 0-.116-.13.012-.13.07-.059.116-.059zm4.376-1.848h.07a.108.108 0 0 1 .058.13h-.082a.091.091 0 0 1-.08 0 .082.082 0 0 1-.058-.07c0-.024.092-.06.092-.06zM45.976 90.53a.114.114 0 0 1 .079.042.118.118 0 0 1 .025.087c0 .07 0 .129-.093.117-.092-.012-.092-.07-.092-.141a.11.11 0 0 1 .021-.068.105.105 0 0 1 .06-.038zm11.401 1a.094.094 0 0 1 .081.105.108.108 0 0 1-.026.083.105.105 0 0 1-.078.035.093.093 0 0 1-.08-.069.097.097 0 0 1-.002-.037c0-.082.035-.118.105-.118zm-3.17 2.318h.22s.117 0 .082.13c-.035.129-.093 0-.15 0-.059 0-.152-.095-.198-.189-.047-.094.035.082.046.059zm2.903.306a.083.083 0 0 1-.047.087.081.081 0 0 1-.034.007c-.082-.094-.14-.094-.14-.094a.096.096 0 0 1 .02-.07.092.092 0 0 1 .062-.036.15.15 0 0 1 .14.106zm-1.813 0h.105v.082a.196.196 0 0 1-.244 0v-.082a.44.44 0 0 1 .14 0zm3.123.153a.121.121 0 0 1-.025.087.115.115 0 0 1-.079.042c-.093 0-.174 0-.163-.129a.153.153 0 0 1 .185-.102.115.115 0 0 1 .07.058.118.118 0 0 1 .012.044zM35.155 14.335s0 .106-.058.13c-.058.023-.081 0-.093-.083-.012-.082 0-.106.058-.13.058-.023.081.024.093.083zm52.929 40.38a.12.12 0 0 1 .07.141c0 .026-.01.05-.028.067a.092.092 0 0 1-.066.028c-.08 0-.104-.071-.092-.153a.095.095 0 0 1 .039-.069.09.09 0 0 1 .077-.014zM55.39 98.367a.107.107 0 0 1-.054.067.104.104 0 0 1-.085.004.08.08 0 0 1-.024-.059.083.083 0 0 1 .024-.059.138.138 0 0 1 .116 0 .071.071 0 0 1 .023.047zm1.557-4.919l.104.118c-.07 0-.127.094-.197 0-.07-.095-.116-.142-.07-.189.047-.047.105.047.163.07zm-17.6-1.966h-.093c-.07 0-.14 0-.128-.164.012-.165 0 0 .07 0a.22.22 0 0 1 .15.164zm-9.545-70.521a.069.069 0 0 1-.059-.036.072.072 0 0 1 0-.07s.059-.082.094 0c.034.082.058 0 .058.07 0 .071-.035.036-.093.036zm23.603 68.485a.07.07 0 0 1-.105 0s-.07-.07 0-.106c.07-.035.082 0 .117 0 .034 0-.082.106-.012.106zm8.744-38.061a.082.082 0 0 1 .024.058.083.083 0 0 1-.024.06.138.138 0 0 1-.163.059v-.083a.14.14 0 0 1 .064-.08.138.138 0 0 1 .099-.014zm8.545 8.12a.155.155 0 0 1-.081.142.104.104 0 0 1-.082 0 .095.095 0 0 1 0-.13.161.161 0 0 1 .105 0l.058-.012zM54.696 98.414s0 .095-.106.083a.082.082 0 0 1-.023-.106.094.094 0 0 1 .117 0l.012.023zm8.29-31.329a.106.106 0 0 1 0 .13s0 .082-.094.07a.095.095 0 0 1 0-.118.094.094 0 0 1 .094-.082zm-7.884-44.723a.07.07 0 0 1-.01.066.071.071 0 0 1-.06.028v-.083c0-.023.046-.011.07-.011zm20.235 6.508a.084.084 0 0 1-.025-.059.083.083 0 0 1 .025-.059h.06a.095.095 0 0 1 0 .118h-.06zm-20.84 71.004c0 .07-.105.153-.163.118-.058-.036 0 0 0-.071a.28.28 0 0 1 .105-.094s.046 0 .058.047zm31.207-44.559a.173.173 0 0 1-.151-.105h.07a.28.28 0 0 1 .104.094l-.023.011zM45.21 13.417s0 .094-.093.082a.083.083 0 0 1 0-.106c0-.058.07-.082.116-.058.046.023-.035.058-.023.082zm-1.243 78.96s.083 0 .083.082v.07s-.083 0-.07-.081c.01-.083-.024-.048-.013-.071zm9.787-3.331v-.07c0-.071 0-.083.082 0 .083.082 0 0 0 .082s-.059-.024-.082-.012z" fill="#E7E6E6"/></svg>