<svg width="31980" height="17234" viewBox="0 0 31980 17234" fill="none" xmlns="http://www.w3.org/2000/svg"><path d="M28280 12148.8c-16-10-56-20-86-20-42 0-88-30-172-110-102-96-126-110-196-110-72 0-84 6-102 58-16 46-38 62-88 72-76 14-172-16-188-60-10-22-42-30-120-30-96 0-108-4-108-42 0-26 16-46 42-52 32-10 38-22 28-64-24-98-64-132-248-210-124-52-182-86-182-110-2-24-10-22-42 16-22 26-42 44-46 40-2-4-26-42-50-82-44-76-44-76-4-76 38 0 38-2-6-48-26-24-62-52-80-58-48-20-38-44 34-84 96-52 210-28 226 46 48 216 82 238 188 124 44-48 92-80 120-80 58 0 504 170 614 234 48 28 90 70 102 104 16 44 38 62 98 76 56 12 78 28 82 62 4 30-4 44-24 44-46 0-40 30 24 96 30 32 64 72 78 86 40 46 84 78 106 78 10 0 20 10 20 24 0 12 14 40 34 60 26 28 26 36 4 36-16 0-42-10-58-20zm-2334-34c0-42 50-106 84-106 14 0 34-12 46-26 18-20-4-22-112-12-74 8-150 20-170 28-48 20-174-6-174-38 0-20 70-26 330-24 210 2 328 10 324 22s-44 40-90 62c-46 24-100 56-120 72-58 52-118 62-118 22zm-360-10c-54-26-58-52-16-68 34-14 130 42 130 72 0 26-58 24-114-4zm-322-130c6-28 26-36 82-34 40 2 74-6 74-14 0-24 54-22 102 4 32 16 36 26 16 50-16 18-64 28-152 28-112 0-128-4-122-34zm-168-8c-20-10-86-20-150-22-64 0-150-16-192-32-40-16-94-24-116-18-44 12-218-44-218-70 0-8-12-16-28-16-42 0-56-34-34-78 16-28 38-38 86-32 80 6 168 40 186 68 18 30 136 28 166-2 18-18 30-18 48 0 14 14 48 24 78 24 36 0 56 12 64 38 6 26 30 42 76 46 52 4 68 18 80 62 16 58 8 64-46 32zm78 10c-28-30-12-68 28-68 28 0 38 10 34 34-6 36-40 54-62 34zm3552-258c-12-38-16-70-8-70 32 0 86 80 76 110-20 50-46 34-68-40zm-518 10c-24-10-50-26-56-38-14-22 58-50 86-34 10 6 28-2 42-20 20-22 30-24 40-6 22 34 94-12 108-72 14-56 36-64 72-20 36 42 8 100-76 158-78 54-142 62-216 32zm-4122-186c-122-128-168-192-194-270-20-58-52-116-72-130s-50-62-64-106c-28-80-60-122-208-274-86-86-140-170-120-188 4-6 54 2 110 16 76 18 116 44 162 100 64 82 286 258 324 258 12 0 56 36 96 80 56 60 72 92 64 130-6 36 0 50 22 50 20 0 40 30 54 82 20 72 46 90 52 36 2-10 4-26 6-38 4-32 82-24 82 8 0 16 12 42 26 56 34 38 38 76 6 76-34 0-52 42-54 126-2 88-22 124-68 124-22 0-46 8-52 16s-84-60-172-152zm1488 134c-6-6-6-56 0-110 10-82 6-98-22-98-42 0-40-62 8-200 22-60 38-124 40-142 0-18 20-58 42-88 38-46 54-52 116-40 210 36 238 36 260-8 24-42 82-58 82-22 0 10-24 46-54 80-56 60-56 60-212 44-158-16-194-6-194 56 0 42 72 110 88 84 6-10 44-26 84-32 38-8 84-20 100-26s28 2 28 22c0 18-8 30-16 28-8-4-44 18-78 46-56 46-60 56-34 82 16 16 32 52 34 78 2 28 24 70 50 98s36 52 24 60-16 28-10 44c8 18 2 38-10 46-30 18-80-26-68-60 6-16-2-24-24-24-22 2-40-12-44-36-4-22-22-48-38-56-20-12-26-34-18-66 8-28 4-48-8-48-18 0-32 148-22 256 2 34-6 44-44 44-26 0-52-6-60-12z" fill="#E7E6E6"/><path d="M28532 11540.8c-8-30-44-68-92-94-70-40-104-78-70-78 52 0 210 144 210 190 0 48-34 36-48-18zm-3392-40c0-14-30-34-64-42-76-20-94-20-140 0-24 10-36 6-36-14s-20-26-68-20c-66 8-68 6-80-84-10-58-24-92-42-92-56 0-86-222-40-292 30-46 36-48 66-22 64 54 104 56 104 6s56-112 102-112c38-2 80-38 124-106 20-32 64-66 96-78 32-10 58-32 58-44 0-14 30-60 68-102l66-78 54 34c30 20 60 50 66 66 6 18 34 40 64 52l52 20-54 24c-42 18-50 30-34 46 18 18 10 28-30 38s-52 24-52 68c0 32 10 64 20 70 12 6 20 32 20 58s18 62 40 82c50 44 52 74 6 66-58-8-86 22-86 92 0 42-16 80-48 110-36 34-52 76-62 164s-20 114-38 100c-14-12-34-12-52-2-44 28-80 24-80-8zm1046-6c-36-12-32-86 2-86 50 0 92 24 92 50 0 28-56 48-94 36zm368-8c-22-12-78-16-136-8-78 12-98 8-98-16 0-54 56-80 152-68 100 10 136 34 124 80-4 24-14 26-42 12zm-2034-90c0-62 46-56 56 8 4 30-4 44-24 44-22 0-32-18-32-52zm1828-204c-12-8-26-46-34-84-6-38-16-84-24-102-14-36 82-166 110-148 24 14 20 170-4 170-12 0-6 18 14 40 32 34 32 40 4 40-18 0-34 20-38 50s-14 44-28 34zm-2204-220c-136-74-198-154-236-308-30-128-48-160-144-262l-110-114 22-126c26-148 6-368-58-600l-44-156-58 72c-42 50-74 70-116 70-72 0-78-12-62-110 18-106-26-230-120-338-42-46-88-118-106-160l-32-76-50 40c-36 28-98 46-200 54-136 14-150 18-150 58-2 56-390 456-496 510l-80 40-12 176c-6 96-16 212-22 256-8 64 0 96 40 160 140 226 160 336 60 362-94 24-110 2-110-158 0-92-10-160-28-184-24-34-26-34-38 12-8 30-44 68-92 94l-78 44-90-184c-48-102-138-294-196-426l-108-240-6-288-8-286-48 72c-68 100-140 98-230-2l-64-74 68-20c66-18 66-20 18-30-108-26-218-106-248-186-30-70-38-76-112-76-44 0-140 10-214 22-122 22-158 18-330-22-180-42-198-50-234-112-38-62-44-66-102-44-90 30-188 8-310-72-84-56-114-92-142-164-50-132-174-168-228-66-18 30-6 64 58 174 42 74 96 170 118 214 40 78 44 78 70-10 12-42 54 66 54 142 0 56 4 58 90 58 122 0 186-36 270-154l70-96 6 94c6 82 16 104 72 146 36 28 80 50 100 50 18 0 40 20 50 46s32 58 52 74c22 18 28 42 20 78-14 60-106 162-144 162-14 0-26 24-26 56 0 76-26 108-124 154-50 24-96 64-112 98-20 42-38 52-68 46-54-14-168 42-192 94-12 28-58 56-136 80-66 20-136 52-158 72s-98 50-170 68c-70 18-142 46-160 62s-64 30-102 30h-70l-36-194c-46-252-182-528-280-566-38-14-50-38-60-122-14-102-94-288-128-302-10-2-66-88-122-190-112-200-130-220-170-188-20 16-40 2-86-64-34-46-66-98-72-114-10-26-12-26-12 0-2 16-34-20-70-80-70-110-68-140 6-102 66 36 156 26 208-22 90-84 168-312 152-436-2-18 2-54 8-84 12-48 10-50-46-46-34 2-76 18-96 38-50 44-148 40-210-8-64-50-84-50-136 2-48 48-94 38-194-38-76-58-144-178-144-254 0-28-8-50-20-50-10 0-20-28-20-62 0-32 8-56 18-50 10 8 24 0 28-12 6-14 12-16 12-6 2 22 96 20 198-2 46-10 44-12-34-94-46-46-82-92-82-100 0-10 24 10 52 44 46 56 64 62 162 62 80 0 126-12 168-42s94-42 178-46c66-2 120 4 120 12 0 16 98 62 200 94 76 24 290 0 326-36 10-10 38-12 62-2 22 8 106 26 182 40 78 12 210 38 296 54s178 26 206 20c52-10 66 14 20 32-34 14-102 220-86 262 30 76 338 166 404 116 30-20 24-242-6-262-14-8-20-30-12-50 10-24 0-38-30-46s-42-24-38-54c6-38 16-42 102-36 102 8 116-10 54-66-22-20-40-44-40-56 0-10 18 2 38 28 46 56 42 64 108-194l48-182-70-38c-70-38-100-36-88 2 4 12 0 14-6 6-8-8-32 6-52 30l-38 44 22-54c14-32 32-56 42-56 30 0 16-36-18-48-20-8-40-2-50 18-10 18-46 30-86 30-80 0-104 28-66 74 14 18 16 28 6 22-12-8-34-6-50 6-20 12-22 18-4 18 12 0 24 20 22 46 0 28-4 34-12 14-6-16-26-46-44-66-16-20-22-36-12-34 44 10 72-2 60-20-24-38 32-80 102-80 60 0 70-8 80-60 8-32 20-56 26-50 12 6 382-28 638-62 72-10 130-48 410-282 178-150 386-322 460-384l136-112-12-140c-6-76-26-256-40-400-16-142-42-394-60-560-60-590-76-684-154-940-62-202-92-272-138-316-78-72-46-70 56 6l82 60 12-52c8-30 12-54 8-56-50-30-194-146-196-158 0-8 14-42 30-74 28-54 28-58-22-96l-54-38 92-74c66-54 100-102 124-174 32-92 38-98 100-98 86 0 270 38 270 56 0 8-14 56-34 108-32 90-32 98 4 162 34 62 34 84 12 216l-24 148 60 50 60 50-30 90c-22 70-50 104-118 148-50 30-114 62-144 72l-56 14 56 24c88 34 146 26 218-34 126-104 178-172 166-214-36-114-34-120 40-156 94-44 104-44 160 20 38 44 48 48 50 22 0-72-58-100-196-92-128 6-130 4-150-50-14-44-10-76 16-134 34-76 34-78-8-132-66-84-56-136 40-178 78-36 80-40 68-108l-12-72 44 44c40 40 44 54 26 102-32 82 2 140 96 166 124 32 158 12 52-30-54-20-96-50-96-66 0-14 30-44 66-66 90-56 222-52 332 10 94 54 162 64 162 24 0-48-50-92-110-98-54-6-62-16-78-100-10-54-14-100-8-106 10-10 226-40 440-60l134-12 6-94c6-88 12-98 106-160 116-74 158-86 470-134 126-18 320-56 430-82 190-48 250-80 250-142 0-38 238-152 322-152 72 0 158 34 158 64 0 8-38 26-84 36l-86 20 136 14c74 10 134 20 134 26 0 4-24 30-54 56l-56 48 64 2c50 0 64-8 70-44 6-42 20-46 124-52 96-6 136 4 224 48 58 30 130 80 160 110 96 100 66 138-316 366-184 110-332 202-330 206 8 6 356-90 370-104 6-6-14-10-46-10-46 0-50-4-32-28 44-52 136-58 208-16 52 32 114 42 328 50 278 10 336 24 278 64-56 42 58 72 238 66 150-6 158-8 170-56 10-46 24-50 150-62 78-6 168-18 200-26 64-16 110 12 174 104 24 36 28 62 12 116-10 38-16 102-12 144 4 60 20 82 92 132l86 60 54-68c30-36 64-82 78-98 22-28 32-28 100 10 70 40 82 42 160 16 76-26 88-26 152 12 62 36 74 38 146 12 70-24 78-32 72-90-8-68 50-182 92-182 64 0 328 44 494 84 100 24 214 50 258 60 52 14 104 48 168 118 96 104 134 116 264 78 112-32 262-28 386 12 116 36 152 78 138 172-10 54 106 74 416 68l290-6 82 76c64 58 94 72 136 64 52-10 54-16 42-84-6-40-18-88-24-110-10-32 0-36 86-24 54 6 178 16 276 24 174 12 188 16 488 170 384 198 410 216 444 318 14 46 44 92 64 102 32 16 34 12 24-42-12-58-10-60 56-60 102 0 198 38 270 106l66 62-44 46c-30 32-66 46-120 46-52 0-76 8-76 28 0 14-14 38-30 52-18 16-26 42-18 72 14 56 10 58-86 18-38-16-92-30-118-30-36 0-50-14-64-64-14-60-24-66-96-72-142-10-168-20-168-76 0-86-50-42-60 54-10 94-60 138-162 138-70 0-86 22-38 54 22 16 40 48 40 72s18 74 42 112c22 36 36 80 30 94-12 32-88 36-162 8-44-16-82 0-320 142-150 90-286 182-306 208-36 44-36 44-82 8-74-60-192-50-264 20l-58 58v-48c0-42-6-46-38-28-22 10-70 20-106 20-60 0-74 12-150 138-48 76-86 144-86 150s18 12 38 12c50 0 72 34 74 110 0 34 6 74 14 90 8 20-8 44-52 72-54 34-64 52-58 104 4 60-4 68-86 104s-90 44-90 108c0 58-10 72-58 88-44 16-64 40-78 92-12 38-52 104-90 144l-70 76-22-80c-46-158-102-454-102-538 0-104 48-244 104-304 22-24 86-66 144-94 66-34 118-76 148-126 26-42 96-112 156-156 158-116 188-150 202-236 6-42 24-90 40-106 26-24 24-28-12-28-24 0-58 18-76 42-96 114-230 238-256 238-22 0-30-22-30-82 0-76-4-82-44-70-26 6-80 12-122 12-66 0-92 16-208 130-132 126-132 130-96 170 20 22 32 46 24 52-12 12-252 46-324 46-40 0-40 0-2-28 44-32 34-38-94-60-52-8-92-4-120 16-34 22-88 26-254 14-116-6-228-6-250 2s-152 122-290 252-292 270-344 310c-100 74-104 96-14 96 44 0 58 12 68 60 10 50 24 60 70 60 34 0 66-16 84-44 38-56 110-38 204 52 82 76 82 54-2 412-76 320-218 570-464 812-114 114-160 146-216 152-46 6-74 0-80-18-14-38-44-32-116 22-36 28-72 80-86 126-14 48-62 118-124 178l-98 98 58 60c32 32 68 86 78 116 28 74 28 226 0 278-24 44-132 96-202 96-46 0-46-6-42-144 2-80 10-166 18-190 12-42 6-46-72-46-84 0-84 0-76-64 6-36 16-80 24-96 8-22-6-42-42-64-56-32-60-32-174 46-156 104-204 76-102-62 88-120-10-132-140-18-36 32-98 72-138 88l-72 30 64 90c52 74 72 88 104 76 54-20 210-20 260 0 30 12 10 36-124 148l-158 134 48 38c46 36 166 250 166 294 0 12-22 16-54 8l-56-12 68 58 66 58-66 44-68 42 66 14c36 8 70 20 76 30 14 24-138 312-240 452-50 66-120 144-156 172-62 46-460 214-580 244-42 10-54 28-60 82-6 52-2 66 18 58 32-12 60 48 32 68-12 6-26 32-34 58-8 24-26 44-42 44-14 0-30 10-34 22-14 42-96-18-96-70 0-48 56-112 98-112 18 0 18-10 2-40-12-24-16-58-10-78 8-28-2-40-44-48-72-16-252 102-286 188-32 76-22 100 142 318 92 124 130 194 140 260 30 176 24 200-72 292-114 110-288 248-312 248-10 0-18-32-14-70 4-62-10-84-104-180-60-60-138-120-174-132s-66-34-66-50-12-28-26-28c-16 0-36 48-52 130-14 72-34 136-44 142s-18 36-18 66c0 40 12 60 40 68 26 6 46 40 62 104 18 68 42 108 94 146 148 112 184 166 184 268 0 52 14 132 32 176 18 46 30 86 24 90-4 6-36-6-72-26zm1926-420c-66-14-90-46-90-116 0-38-8-68-20-68-10 0-20 10-20 20 0 24-44 18-62-8-8-10-20 2-28 26-16 50-50 56-50 10 0-20 32-66 72-104 66-64 76-68 98-38 22 32 26 30 60-6 20-22 50-40 66-40 18 0 26-14 18-40-6-22-4-40 4-40 28 0 84 84 74 112-6 14-2 32 8 38 30 18 24 98-10 162l-30 58v-56c0-32-8-52-20-44-10 6-14 38-8 68 14 64-2 80-62 66zm-690-258c0-10 36-60 80-114s86-118 92-144c16-64 40-60 58 6 8 38 4 58-18 70-18 10-46 44-62 76-28 56-150 140-150 106z" fill="#E7E6E6"/><path d="M25864 10216.8c-16-16-24-48-18-68 6-22-2-42-18-48-32-12-38-152-6-152 30 0 106 42 122 68 10 16 22 14 40-4s16-30-14-52c-22-16-46-24-52-20-18 10-12-60 6-72 8-6 10-32 2-56-12-52-66-60-66-10 0 30-2 30-36 0-20-20-56-34-82-34-28 0-50-18-62-48-10-26-28-54-38-62-26-16-28-116-4-210 10-38 24-96 30-126 12-52 20-56 88-50 70 6 74 10 84 86 14 112 0 190-32 190-30 0-38 90-16 148 10 24 20 28 38 12 20-16 42-14 84 6 30 16 68 24 82 20 12-6 24 4 24 22s-10 32-20 32c-38 0 28 78 70 84 34 6 40 20 38 110-2 58-10 122-18 140-10 30-18 24-44-34s-34-64-42-30c-4 22-20 54-34 70s-30 48-32 68c-10 50-42 58-74 20zm196-244c0-10-22-38-50-64s-50-36-50-24c0 14 8 24 18 24s22 18 28 40c10 38 54 58 54 24z" fill="#E7E6E6"/><path d="M25960 10170.8c0-10 12-28 28-40 32-26 64 4 42 38-16 24-70 26-70 2zm-262-296c-14-32-30-62-34-70-14-28 70-16 96 14 24 28 10 110-18 110-8 0-28-24-44-54zm-44-1012c-38-80-26-146 42-218 70-76 104-72 104 10-2 78-64 258-94 268-12 4-34-22-52-60zm900-886c-20-22-16-126 6-168 12-22 12-42 2-48s-22 2-30 18c-16 44-52 36-52-8 0-22 28-58 60-82 34-24 60-56 60-72s14-28 32-28c16 0 60-30 94-64 58-60 74-66 186-66s126-4 146-50c46-102 84-160 106-160 10 0 16 14 8 30-20 54 50 32 118-36 74-74 114-190 96-276-8-46 2-68 54-118 76-70 110-68 110 6 2 30 12 64 26 78 30 30 32 128 4 146-10 6-20 34-20 62s-10 46-24 44c-18-4-32 44-46 146-20 156-56 228-102 210-16-6-34 4-44 22-12 20-24 24-32 10-10-16-28-16-64 0-40 18-60 18-92-2-34-22-38-20-32 10 2 18-16 58-44 90-44 48-54 50-82 26s-36-24-66 10c-20 22-46 34-60 30-14-6-38 4-52 22-14 16-38 30-56 30-22 0-26-16-18-70 6-38 2-74-8-80-10-8-18-2-18 8 0 12-24 22-54 24-52 0-52 2-14 18 66 26 68 86 10 192-52 94-82 122-108 96zm406-396c-10-10-32-12-52-4-32 12-32 16 4 40 28 22 42 22 52 6 8-14 6-32-4-42zm-9160-30c0-30 48-58 100-58 28 2 66-4 84-12 30-14 32-10 10 36-20 44-38 52-108 52-48 0-86-8-86-18z" fill="#E7E6E6"/><path d="M27398 6752.8c-16-38-14-62 2-84 12-16 26-46 34-66 8-26 26-34 56-28 40 6 48-2 58-64 6-40 12-102 12-136 0-36 6-66 12-66s50 40 100 90c88 92 156 114 204 66 20-20 22-10 12 40-10 54-6 64 24 64 36 2 36 2-2 32-22 16-72 38-114 50-56 14-76 30-76 58 0 52-62 52-110 0-26-28-44-34-72-20-18 12-52 14-72 8-28-10-26-4 8 26l46 36-52 24c-46 22-52 18-70-30zm-8134 22c-28-12-84-112-84-150 2-14 14 4 32 42 16 38 44 80 64 94 36 28 32 32-12 14zm-654-110c-78-72-200-170-240-192-22-12-30-24-16-24 12 0 64 34 114 76 50 40 116 94 146 118 32 22 52 46 46 50s-28-8-50-28zm-354-256c-28-20-58-32-66-24-10 8-10 2-2-10 10-18-2-26-36-26-28 0-54-6-58-14-6-10 30-12 78-8 48 2 82 14 76 24s10 36 36 58c60 50 36 52-28 0z" fill="#E7E6E6"/><path d="M18068 6400.8c22-18 54-32 70-30 28 0 28 2 2 12-16 6-48 20-70 30-40 18-40 18-2-12zm9510-152c-2-28-2-90-2-140 2-50 2-108 2-130-4-70 0-158 14-256 6-52 4-110-4-130-22-42-24-284-2-284 8 0 20 0 26 2 28 4 44-52 26-84-24-48-22-58 12-58 40 0 60 86 56 230-4 66 4 138 14 160 18 34 76 224 112 360 10 36 8 36-30-6-56-64-106-48-134 36-20 62-18 82 24 160 52 96 60 140 28 140-10 0-20-14-20-30 0-54-76-34-96 26l-20 54-6-50zm-9800-32c-14-16-42-26-62-22-20 6-32 2-24-8 18-30 108-20 108 10 0 18 26 32 66 38l64 8-62 2c-36 2-74-10-90-28zm1874-46c-6-10-30-14-52-8s-40 6-40 0c0-24 82-26 102-2 12 16 18 28 12 28s-16-8-22-18zm12220-2232c-16-16-60-30-98-30-46 0-74-12-82-32-20-54 8-72 96-58 146 26 242 106 160 138-42 16-40 16-76-18zm-12806-764c18-4 28-18 22-30-8-14-4-16 8-8 40 24 26 52-20 50-36-2-38-4-10-12zm334-36c28-16 60-28 70-28 12 0-2 12-30 28s-58 28-70 28c-10 0 2-12 30-28zm420-44c16-6 48-26 70-44 40-32 40-32 2 14-22 24-52 44-70 42-28 0-28-2-2-12zm-200-56c28-16 60-28 70-28 12 0-2 12-30 28s-58 28-70 28c-10 0 2-12 30-28zm-260-74c50-48 76-58 50-18-6 12-32 32-56 44-40 22-40 18 6-26zm972-46c-18-28-26-50-16-50s28 22 40 50 20 50 16 50-22-22-40-50zm-1068-20c28-30 42-34 80-14l46 24-46-12c-26-6-62 0-80 14-32 24-32 24 0-12zm1152-44c36-4 90-4 120 0s0 8-66 8-90-4-54-8zm-132-70c-46-56-104-76-104-34 0 10-10 14-22 6-24-14 14-48 52-48 30 2 134 98 126 118-4 8-26-10-52-42zm-294-162l-60-60 70 46c38 26 72 50 76 52s0 8-10 12c-8 4-42-18-76-50zm10854 2c-16-62-14-68 52-102 88-48 262-32 314 26 34 38 34 40-36 70-40 16-110 30-154 30-46 0-100 10-120 20-34 18-42 12-56-44zm-11254-56c-32-32-54-62-48-66 4-4 34 22 64 60 72 82 62 86-16 6zm294-160c0-38 4-54 10-34 4 18 4 50 0 70-6 18-10 2-10-36zm1276-200c0-50 42-68 110-52 62 16 66 64 6 80-84 22-116 14-116-28zm6430-12c-34-18-92-28-136-24-78 8-78 8-34-28 36-30 40-42 20-66-14-16-20-44-12-60 14-38 112-40 112-4 0 16 36 44 82 64 68 32 136 100 114 120-28 24-96 24-146-2zm-350-282c-114-78-130-160-48-236 68-62 128-62 226-2 72 46 76 46 68 12-18-68 44-66 218 2 92 36 170 68 174 72 16 12-64 86-92 86-16 0-42 14-58 30-38 38-96 38-126 2-20-24-32-24-84 2-32 16-74 24-90 18-18-6-44 2-60 18-40 38-68 38-128-4zm774-30c-54-32-74-56-70-86 6-40 96-72 96-32 0 12 28 14 70 8 38-6 70-2 70 8s30 18 66 18c92 0 134 20 134 64 0 76-248 88-366 20zm-7024-260c22-12 54-32 70-44 18-12 10-2-16 24-26 24-56 44-70 44s-6-12 16-24zm2806-368c-14-14 88-174 160-252 36-40.003 72-56.003 118-56.003 36 0 66 10 66 20 0 12 12 20 26 20 16 0 44 18.003 64 40.003s48 40 62 40 36 18 48 40c32 60-52 104-216 110-74 2-160 14-190 26-62 26-120 30-138 12zm-186-210c-32-10-90-14-128-10-60 10-78 0-142-70.003-66-72-82-80-156-76-110 8-154-32-126-108 14-38 40-58 80-66s62-28 70-60c10-34 36-54 98-72 46-12 92-36 100-50 28-46 86-28 176 54 62 56 78 78 54 80-24 0-36 16-36 50 0 40 12 54 62 64 32 6 56 22 52 34-6 14 16 22 54 22 60 0 62 2 64 100 0 56-8 106.003-20 114.003-30 20-128 16-202-6z" fill="#E7E6E6"/></svg>