<svg height="50" viewBox="0 0 78 82" fill="none" xmlns="http://www.w3.org/2000/svg"><path fill-rule="evenodd" clip-rule="evenodd" d="M25.54 22.742c-.145-1.206-.133-1.351.468-2.183.267-.371.481-.777.638-1.206a2.181 2.181 0 0 1 1.875-1.29c.256-.025.514-.025.77 0a1.2 1.2 0 0 0 .733-.254.458.458 0 0 0 0-.723c-.204-.17-.433-.29-.637-.458a.34.34 0 0 1 0-.266.35.35 0 0 1 .168-.18 1.51 1.51 0 0 1 1.203.361 10.2 10.2 0 0 0 2.801 1.025c.45.175.942.2 1.407.072a.648.648 0 0 1 .733.145c.217.23.361.097.553 0 .193-.096.481 0 .698.157a.688.688 0 0 1 .156.784 2.414 2.414 0 0 1-.733 1.314.94.94 0 0 0-.433.688 5.96 5.96 0 0 1-.421 1.652.725.725 0 0 0 .192.784c.351.286.666.614.938.976a.721.721 0 0 0 .421.314 4.89 4.89 0 0 1 2.032 1.206c.126.124.278.219.445.277a3.306 3.306 0 0 1 1.72 1.206 1.372 1.372 0 0 0 1.201.543 1.067 1.067 0 0 0 1.119-.772c.421-1.178.747-2.387.974-3.618a2.8 2.8 0 0 0 0-1 5.66 5.66 0 0 1 0-2.292c.023-.144.023-.29 0-.434-.169-1.46.637-2.545 1.202-3.75a.966.966 0 0 1 .156-.23.397.397 0 0 1 .457-.156c.108 0 .253.193.253.289.192 1.17.54 2.31 1.034 3.389.168.542.264 1.121.384 1.676.12.555.205.724.854.844a2.127 2.127 0 0 1 1.635 1.7c.096.47.169.953.24 1.424.05.52.223 1.02.506 1.459.364.564.56 1.22.565 1.893a2.973 2.973 0 0 0 1.755 2.761c.742.389 1.446.845 2.104 1.363a.82.82 0 0 1 .349.41c.3 1.146 1.202 1.978 1.275 3.268a.326.326 0 0 0 .456.338c.337-.109.578.12.866.205a.745.745 0 0 1 .565.7 3.154 3.154 0 0 0 1.527 2.616c.499.476.939 1.01 1.31 1.592.205.253.398.241.662 0 .265-.241.445 0 .445.205a4.7 4.7 0 0 1 0 .712c-.144.905-.18 1.824-.108 2.737 0 .193 0 .446.072.555.77.916.252 2.11.565 3.111.04.24.016.485-.072.712-.313 1-.265 2.098-.662 3.075a.87.87 0 0 0-.072.422 6.71 6.71 0 0 1-.901 3.413 2.412 2.412 0 0 1-.566.771 4.621 4.621 0 0 0-1.19 1.99c-.204.53-.397 1.061-.565 1.604a8.616 8.616 0 0 1-.95 2.412c-.216.367-.34.78-.36 1.206-.085.808-.205 1.616-.277 2.412a1.269 1.269 0 0 1-.842 1.206 2.396 2.396 0 0 1-1.202.229 2.398 2.398 0 0 0-1.888.76c-.54.482-1.07.976-1.563 1.495-.24.241-.433.301-.685.12a4.44 4.44 0 0 1-.95-.735c-.288-.386-.65-.386-1.022-.507a1.127 1.127 0 0 0-1.299.35 1.288 1.288 0 0 1-1.503.464 1.285 1.285 0 0 1-.468-.307 2.94 2.94 0 0 0-1.323-.543 8.209 8.209 0 0 1-1.84-.675 2.888 2.888 0 0 1-1.779-2.738 4.472 4.472 0 0 0-.48-1.772c-.314-.651-.662-1.074-1.42-.808-.288.096-.469-.181-.384-.543.217-.537.25-1.13.096-1.688a.53.53 0 0 0-.289-.217.252.252 0 0 0-.204.144c-.084.217-.133.459-.217.676a1.05 1.05 0 0 1-1.202.771.324.324 0 0 1-.239-.3.328.328 0 0 1 .023-.134c.09-.158.194-.307.312-.446.205-.198.333-.463.36-.748a4.76 4.76 0 0 1 .65-2.158 1.21 1.21 0 0 0 .06-.555.134.134 0 0 0-.084-.096.145.145 0 0 0-.12 0c-.457 1.097-1.491 1.567-2.128 2.412a6.127 6.127 0 0 0-.421.711c-.12.241-.072.64-.42.651a1.117 1.117 0 0 1-.963-.989 2.915 2.915 0 0 0-.156-1.121 3.789 3.789 0 0 0-.878-1.411 1.857 1.857 0 0 1-.697-1.001 1.207 1.207 0 0 0-.685-.808 7.856 7.856 0 0 0-.71-.362c-.878-.47-1.912-.482-2.705-1.206a1.2 1.2 0 0 0-1.01-.157c-.818.085-1.635.145-2.405.266-.344.044-.676.16-.974.338a5.857 5.857 0 0 1-3.114.82 2.88 2.88 0 0 0-1.72.494 7.872 7.872 0 0 1-1.045.555 2.885 2.885 0 0 0-1.672 1.483 1.206 1.206 0 0 1-1.202.832h-4.28a1.306 1.306 0 0 0-1.142.555 1.204 1.204 0 0 1-.602.518 3 3 0 0 0-1.322.869 1.55 1.55 0 0 1-1.551.47 9.958 9.958 0 0 0-1.022-.157 4.558 4.558 0 0 1-2.573-1.809.979.979 0 0 1 0-1.206c.3-.41.685-.76.661-1.35a7.257 7.257 0 0 0-.132-3.1c-.18-.386-.3-.796-.481-1.206a5.21 5.21 0 0 1-.577-2.411 3.07 3.07 0 0 0-.373-1.363 12.81 12.81 0 0 1-1.034-2.822 2.318 2.318 0 0 0-.541-1.134 6.684 6.684 0 0 1-.42-.554c-.29-.41-.446-.82 0-1.206a.93.93 0 0 0 .143-.374c.337-.096.397.35.65.374.072 0 .192-.072.192-.109a1.124 1.124 0 0 0-.024-.458c-.289-.663-.553-1.314-.842-2.002a2.14 2.14 0 0 1 0-1.93 2.89 2.89 0 0 0 .277-1.53 3.265 3.265 0 0 1 .12-1.28c.12-.349.253-.783.722-.385.132.096.252 0 .348-.096.866-.808 1.912-1.29 2.742-2.135a1.347 1.347 0 0 1 1.058-.47 6.873 6.873 0 0 0 2.981-.832 9.239 9.239 0 0 1 1.36-.41c.546-.13 1.084-.295 1.61-.495a2.49 2.49 0 0 0 1.13-.928c.41-.567.77-1.206 1.203-1.737.168-.292.215-.638.132-.965a1.765 1.765 0 0 1 .59-1.652c.456-.47.636-.458 1.01.12.071.121.131.254.204.363.072.108.216.18.348.084a.423.423 0 0 0 .12-.241c0-.241-.072-.47-.096-.712 0-.494.096-.796.553-.711h.253a.515.515 0 0 0 .589-.446c.215-.77.63-1.47 1.202-2.026a4.952 4.952 0 0 1 2.694-1.749 1.282 1.282 0 0 1 1.286.555c.169.205.325.434.493.651a.878.878 0 0 0 .902.446c.45.003.897.097 1.31.278zm34.074-8.297c-.144.18-.264.374-.42.543a.686.686 0 0 1-.83.216 10.113 10.113 0 0 0-3.018-.76 1.778 1.778 0 0 1-1.118-.638 15.83 15.83 0 0 1-2.129-2.509c-.1-.2-.259-.365-.457-.47-.589-.29-1.202-.53-1.803-.796a.78.78 0 0 0-.746 0c-.649.422-1.406.724-1.454 1.797a1.027 1.027 0 0 1-.714.91c-.13.042-.268.056-.405.043-.517 0-1.034-.073-1.539-.133-.505-.06-.757-.35-.817-.953-.06-.603 0-1.206-.072-1.724a21.86 21.86 0 0 1 0-3.437c.022-.673-.01-1.346-.096-2.014a16.499 16.499 0 0 1-.073-2.882c0-.495.277-.663.71-.519.433.145.553.217.841.338 1.01.41 2.02.82 3.03 1.206a12.622 12.622 0 0 1 2.537 1.7c.225.162.4.383.505.64a3.039 3.039 0 0 0 1.96 1.712c.289.132.59.18.866.313.625.35.649.941.06 1.411-.06 0-.156.085-.217.145a.53.53 0 0 0-.144.736c.042.082.095.16.157.229a5.57 5.57 0 0 1 1.575 2.05.457.457 0 0 0 .252.313c.685.205 1.07.88 1.647 1.206.145.109.349.157.421.302.337.687.974.723 1.54.928l-.049.097zm-4.1 62.225a4.09 4.09 0 0 1-1.202 2.92c-.301.349-.614.686-.878 1.06-.265.374-.3.615-.661.603a1.393 1.393 0 0 1-1.203-.59 7.969 7.969 0 0 1-1.202-2.557c-.144-.651-.349-1.278-.517-1.93a4.716 4.716 0 0 1-.156-.687c-.073-.856.312-1.206 1.01-.94.17.05.328.132.468.24a2.017 2.017 0 0 0 2.309.218c.289-.109.565-.266.842-.362a.72.72 0 0 1 .998.603c.12.47.132.953.192 1.423z" fill="#E7E6E6"/><path fill-rule="evenodd" clip-rule="evenodd" d="M27.8 16.326l.397-.06a.397.397 0 0 1 .42.24.569.569 0 0 1-.12.652.746.746 0 0 1-.685.29l-1.01-.193a.36.36 0 0 1-.313-.398.592.592 0 0 1 .277-.447c.385-.229.721-.024 1.034-.084zm39.184-7.911s-.264 0-.348-.18c-.373-.556-.722-1.207-1.058-1.75 0-.072 0-.265.108-.373a.216.216 0 0 1 .24 0 5.048 5.048 0 0 1 1.503 1.676c.144.253-.06.627-.445.627zm7.323 3.895c.288.398.553.748.805 1.122.097.133 0 .422-.18.422a2.83 2.83 0 0 1-1.37-.241.578.578 0 0 1-.35-.543c0-.217.157-.313.313-.398l.782-.362zM37.683 64.093a3.885 3.885 0 0 1-.577-.133.444.444 0 0 1-.204-.313.531.531 0 0 1 .168-.35 1.106 1.106 0 0 1 .818-.301.96.96 0 0 1 .961.53c.109.253-.324.53-.877.555l-.289.012zM61.718 2.482a2.97 2.97 0 0 1 1.07.784 1.11 1.11 0 0 1 .349.892.495.495 0 0 1-.277.446.324.324 0 0 1-.42-.217c-.169-.386-.301-.784-.47-1.206-.096-.205-.216-.41-.324-.615l.072-.084zm6.854 7.344h.12c.564.243 1.093.56 1.575.94.349.302.54.748.373.797-.169.048-.457-.193-.662-.338l-1.406-1.037a.532.532 0 0 1 0-.265v-.097zM73.38 10.9c-.06 0-.143.144-.203.12a2.62 2.62 0 0 1-1.407-.904.351.351 0 0 1 0-.266.205.205 0 0 1 .312-.12c.474.238.91.542 1.299.904v.265zm2.802 2.037c-.12.073-.18.157-.252.157a.396.396 0 0 1-.229-.096 2.583 2.583 0 0 1-.721-1.484c0-.06.06-.156.108-.229a.108.108 0 0 1 .12 0c.41.496.739 1.053.974 1.652z" fill="#E7E6E6"/><path fill-rule="evenodd" clip-rule="evenodd" d="M61.646 2.59a4.602 4.602 0 0 1-2.008-1.205.29.29 0 0 1 0-.242s.168-.108.217-.072c.69.374 1.32.854 1.863 1.423l-.072.096zm14.777 11.855a.84.84 0 0 1 .817.566.316.316 0 0 1 0 .254.253.253 0 0 1-.216.132.936.936 0 0 1-.782-.639v-.144c.055-.062.116-.119.18-.17zM54.877 72.39a1.133 1.133 0 0 1 .553 1.278s-.169.108-.205.072a1.617 1.617 0 0 1-.553-1.206s.133-.108.205-.144zM69.678 8.861c-.084.133-.133.254-.18.254a1.104 1.104 0 0 1-1.095-.93s.12-.168.168-.156c.44.168.823.456 1.107.832zM36.793 20.812c.24 0 .481.23.481.53 0 .302-.108.375-.3.399-.193.024-.397-.133-.457-.386a.46.46 0 0 1 .276-.543zm22.833-6.367c-.216-.41-.445-.82-.65-1.206 0 0 0-.193.109-.23a.228.228 0 0 1 .228 0c.306.283.516.654.602 1.062.072.205-.157.313-.301.398l.012-.024zM48.722 72.33c0 .084 0 .313-.205.337-.205.024-.253-.205-.253-.386 0-.18 0-.398.277-.374.278.025.169.23.181.422zM62.98 16.157a.84.84 0 0 1 .686.495s0 .205-.084.205a.636.636 0 0 1-.674-.47s.048-.145.073-.23zM41.339 26.07c-.06-.072-.157-.12-.157-.193a.288.288 0 0 1 .17-.328.288.288 0 0 1 .131-.022.205.205 0 0 1 .242.253c-.025.218-.193.278-.386.29zM53.34.25a.255.255 0 0 1-.34.135.181.181 0 0 1-.06-.314.253.253 0 0 1 .35 0 .169.169 0 0 1 .048.18zm5.096.857a.229.229 0 0 1-.18-.29.18.18 0 0 1 .277-.144.253.253 0 0 1 .132.193c.012.169-.096.23-.229.241z" fill="#E7E6E6"/></svg>