<svg width="31980" height="17234" viewBox="0 0 31980 17234" fill="none" xmlns="http://www.w3.org/2000/svg"><path d="M29863.8 16107.8c0-16 8-34 18-40 22-14 66 36 48 54-24 24-66 14-66-14zm48-60c-22-16-62-32-88-36-32-4-50-18-48-38 4-44 166-258 198-258 52 0 190-122 220-194 18-42 38-80 46-86s24-28 36-50c28-52 88-64 88-20 0 24 12 32 40 24s42 4 56 44c14 44 6 66-50 142-40 52-64 104-58 126 6 26 0 32-26 24-40-12-110 56-132 130-8 28-42 88-74 136-64 92-130 110-208 56zm-1992-380c-44-34-96-176-96-264 0-80-2-78 90-34 62 30 80 30 142 8 92-34 114-8 100 114-18 132-68 204-142 204-32 0-76-14-94-28zm2588-226c-22-8-22-16 2-44 58-68 54-98-18-140-78-48-82-60-28-108 28-24 40-58 40-116 0-52-14-100-40-132-22-28-40-64-40-78s-16-42-38-62c-20-20-44-56-50-82l-14-44 72 42c40 24 78 58 84 76s16 50 26 72 22 58 30 80l14 40 16-40c14-36 20-30 50 38l32 78 100-12c88-10 98-8 98 26 0 62-44 140-80 140-22 0-42 28-56 76-50 164-114 224-200 190zm-2618-350c-42-40-46-42-82-10-22 20-70 34-120 34-158 0-270-74-306-204-10-42-46-104-78-136-34-34-60-72-60-84 0-18-6-18-24 0-14 14-40 24-60 24-34 0-34-8 14-86 66-114 70-192 4-104-24 32-68 86-96 118l-52 58-72-132c-66-118-84-134-170-162-52-16-156-40-230-54-128-22-142-20-196 20-32 24-86 42-128 42-100 0-196 46-246 116-42 58-52 60-210 66-146 8-174 14-232 64-94 78-226 76-322-4l-70-58 48-52c42-44 46-62 34-148-20-154-90-406-136-488-32-54-38-92-30-148 8-42 2-114-8-162-34-132 12-362 58-290 14 20 26 14 50-24 50-76 186-146 372-190 184-44 234-76 254-168 14-62 154-216 344-370l106-88 98 52c54 28 104 52 108 52 6 0 20-34 32-78 10-42 40-102 64-132 36-48 52-52 120-42 72 12 76 10 76-40v-54l134 14c130 14 266 60 266 92 0 8-12 26-28 38-26 22-92 184-92 224 0 8 60 50 136 94 74 44 156 104 182 132 118 126 184 26 204-308 14-230 42-340 90-340 14 0 50 80 80 180 40 128 66 180 88 180 50 0 80 42 80 110 0 32 22 96 50 140 30 50 48 110 50 160 0 78 4 84 110 136s110 58 142 174c32 110 38 118 82 108 24-8 46-4 48 4 0 10 4 38 6 62 4 24 46 80 96 124 84 76 92 90 124 246 18 92 32 190 32 218 0 110-114 450-186 556-46 66-76 136-84 198-26 204-64 264-168 264-34 0-84 22-118 50-74 62-122 64-178 6z" fill="#E7E6E6"/><path d="M26523.8 12267.8c0-24 20-32 72-32 90 0 84 48-8 56-48 4-64-2-64-24zm1760-112c-16-10-56-20-86-20-42 0-88-30-172-110-102-96-126-110-196-110-72 0-84 6-102 58-16 46-38 62-88 72-76 14-172-16-188-60-10-22-42-30-120-30-96 0-108-4-108-42 0-26 16-46 42-52 32-10 38-22 28-64-24-98-64-132-248-210-124-52-182-86-182-110-2-24-10-22-42 16-22 26-42 44-46 40-2-4-26-42-50-82-44-76-44-76-4-76 38 0 38-2-6-48-26-24-62-52-80-58-48-20-38-44 34-84 96-52 210-28 226 46 48 216 82 238 188 124 44-48 92-80 120-80 58 0 504 170 614 234 48 28 90 70 102 104 16 44 38 62 98 76 56 12 78 28 82 62 4 30-4 44-24 44-46 0-40 30 24 96 30 32 64 72 78 86 40 46 84 78 106 78 10 0 20 10 20 24 0 12 14 40 34 60 26 28 26 36 4 36-16 0-42-10-58-20zm446-430c-26-84-10-88 60-14 66 68 68 84 8 84-36 0-52-16-68-70zm-518 10c-24-10-50-26-56-38-14-22 58-50 86-34 10 6 28-2 42-20 20-22 30-24 40-6 22 34 94-12 108-72 14-56 36-64 72-20 36 42 8 100-76 158-78 54-142 62-216 32z" fill="#E7E6E6"/><path d="M28535.8 11547.8c-8-30-44-68-92-94-70-40-104-78-70-78 52 0 210 144 210 190 0 48-34 36-48-18z" fill="#E7E6E6"/></svg>