<svg height="50" viewBox="0 0 74 100" fill="none" xmlns="http://www.w3.org/2000/svg"><path fill-rule="evenodd" clip-rule="evenodd" d="M17.707 69.31c.25 0 .475-.165.738-.177.263-.013.25 0 .3.227.082.195.145.397.188.605 0 .277.225.353.426.416.2.063.162 0 .187 0a.267.267 0 0 0-.087-.303h-.175a.364.364 0 0 1-.226-.277 1 1 0 0 0-.175-.63.126.126 0 0 1 .063-.177.474.474 0 0 0 .413-.378s.075-.076.125-.076c.525 0 .738-.517.988-.933a.165.165 0 0 0 0-.214 3.246 3.246 0 0 1-.625-1.16 1.979 1.979 0 0 1-.188-.933 1.457 1.457 0 0 0-.188-.554c-.075-.177-.137-.366-.225-.542a2.536 2.536 0 0 1-.275-1.438c0-.138 0-.277-.113-.315-.113-.038-.325-.365-.375-.655a1.878 1.878 0 0 1-.163.706c-.075.189-.175.315-.363.302a.511.511 0 0 0-.513.366c-.2.378-.538.617-.738.983a.564.564 0 0 1-.25.202 1.487 1.487 0 0 0-.551.34.287.287 0 0 1-.326.063 1.008 1.008 0 0 0-.538-.138h-.075c-.238-.404-.713-.48-.964-.87a.771.771 0 0 1-.187-.656c0-.176 0-.39.287-.365.288.025.3-.429.288-.517-.012-.089-.087-.164-.137-.126-.05.038-.476 0-.563.327a.087.087 0 0 1-.126 0 .162.162 0 0 1-.075-.138 1.51 1.51 0 0 1 .163-.744c.088-.139.15-.252 0-.403a.342.342 0 0 1 0-.429c0-.088.113-.164.163-.24.05-.075-.113-.1-.175-.15a.377.377 0 0 1-.09-.43.384.384 0 0 1 .09-.125c.075-.127.1-.19 0-.303a.644.644 0 0 1-.163-.731 1.04 1.04 0 0 0 0-.618.674.674 0 0 1 .075-.58.253.253 0 0 0 0-.328.506.506 0 0 1 0-.68.57.57 0 0 0 .075-.152c.063-.353.063-.353.363-.39h.225c.063-.089 0-.127 0-.19 0-.277 0-.34.288-.264.288.075.225.075.225-.202a.279.279 0 0 1 .2-.303.808.808 0 0 1 .451-.063c.113 0 .225.076.325 0 .1-.075-.112-.1-.175-.113-.062-.013-.213-.19-.225-.353a.267.267 0 0 1 .225-.303.336.336 0 0 0 .35-.29c0-.113.15-.15.238-.201.088-.05.1-.139 0-.252-.1-.114-.1-.328 0-.391s.238 0 .313.24a.483.483 0 0 0 0 .126.225.225 0 0 0 .2-.227.672.672 0 0 0-.112-.492c-.138-.114-.113-.164 0-.24l.225-.15c.088-.064.175-.102.225 0 .05.1.313.125.376.34.062.214.1 0 .162 0l.338-.177a.393.393 0 0 1 .1-.63.252.252 0 0 0 .076-.139 3.44 3.44 0 0 1 .738-1.45c.075-.113.175-.088.275 0 .1.089.275 0 .238-.214a1.786 1.786 0 0 0 0-.202.405.405 0 0 1 0-.327c.275-.278.35-.845.926-.744-.3-.252-.275-.24-.175-.542a3.97 3.97 0 0 1 .413-.87.25.25 0 0 0 .1-.202.254.254 0 0 0-.1-.201.226.226 0 0 1-.068-.286.226.226 0 0 1 .068-.08c.238-.139.2-.542.475-.63v-.101a1.27 1.27 0 0 1 .338-1.26s.113-.09.113-.165a.431.431 0 0 1 .3-.441.514.514 0 0 0 .313-.504c0-.328.188-.517.288-.77.1-.251.2-.302.4-.163.2.139.088.088.126 0 .037-.088.287-.34.225-.63-.163 0-.213.214-.338.302-.125.088-.213.139-.3 0-.088-.139 0-.504.175-.53a.735.735 0 0 0 .663-.554l.075-.088c.225-.29.275-.29.426.075 0 0 0 .076.112.076-.062-.202 0-.403-.075-.605a.317.317 0 0 1 .15-.39c.163-.114.138-.228 0-.341l.188-.215c.075-.1.188-.15.163-.327-.025-.177.137-.416.25-.58.113-.164.238 0 .363-.063s.075-.328.125-.58a.9.9 0 0 1-.538.328c-.163 0-.25-.063-.188-.215.063-.151 0-.24 0-.353a.875.875 0 0 1 .25-.643c.106-.109.203-.227.288-.353a.238.238 0 0 1 .388 0c.113.14.15.353.376.227.225-.126.1.076.137.139.038.063.076.24.238.29-.1-.252-.162-.504-.413-.593-.25-.088-.162-.138-.075-.302a2.63 2.63 0 0 1 .413-.492.582.582 0 0 0 .125-.605c-.075-.252 0-.315.213-.302.213.012.375.189.563.264.188.076.075.152 0 .253-.075.315-.075.315.188.504.125-.114.163-.29.263-.416s.112-.126.2-.101c.088.025.1.1.125.189a.824.824 0 0 1 0 .429.685.685 0 0 0 0 .416c.125-.127 0-.265.075-.379.05-.206.144-.4.275-.567 0 0 .138-.151.188-.075.05.075.163 0 .175-.089.013-.088 0-.138.1-.189.1-.05.276.29.426.429.163-.378.163-.378-.088-.605a.465.465 0 0 1-.162-.378c0-.164 0-.253.225-.265.225-.013.438 0 .525.315 0-.114.2-.101.15-.278-.05-.176 0-.302.213-.315.213-.012.226 0 .176-.24-.05-.239-.063-.1-.138-.087h-.3c-.125 0-.188 0-.25-.152-.138-.327-.138-.327.15-.517a.812.812 0 0 1 .275-.138c.375-.076.5 0 .526.504a.385.385 0 0 1 .451.116c.035.044.06.094.074.149.02-.18.02-.362 0-.542 0-.089 0-.202.075-.252.075-.05.163 0 .225.088.063.088.1.24.188.328.088.088.288-.227.138-.467a.2.2 0 0 1-.045-.224.2.2 0 0 1 .045-.066c.087 0 .1-.164.163-.24a.302.302 0 0 1 .256-.145.298.298 0 0 1 .257.146c.112.151.2.29.413.138.212-.15.175 0 .237 0a.266.266 0 0 1 0 .24 2.169 2.169 0 0 1-.275.466c-.16.215-.248.476-.25.744a1.01 1.01 0 0 1-.176.605.19.19 0 0 0 0 .227.819.819 0 0 0 .2-.353c.27-.705.6-1.384.99-2.03 0-.1.125-.189.25-.163.125.025.137.15.15.264a.572.572 0 0 1 0 .29c-.15.303 0 .568 0 .858.087 0 .137 0 .15-.076a9.698 9.698 0 0 0 .55-1.639c0-.151.076-.214.213-.151.138.063.1 0 .138 0 .038 0 .25-.101.35 0 .1.1.226.201.238.378a.64.64 0 0 1-.413.593.113.113 0 0 0 0 .138c.2.101.238.265.113.48v.113a.103.103 0 0 0 .012.097.1.1 0 0 0 .088.041c.075 0 .15 0 .138-.1a2.535 2.535 0 0 1 0-.681c0-.34.2-.467.488-.454a.262.262 0 0 1 .288.227c0 .24.175.265.338.24a.572.572 0 0 1 .5.239c.188.24.45.365.626.605.175.24.2.416 0 .605 0 0-.1 0-.125.088a1.243 1.243 0 0 1-1.514.403c.136.232.342.413.587.518a.389.389 0 0 1 .25.327c0 .252.226.316.376.139a.313.313 0 0 1 .276-.1c.309.043.595.19.813.415 0-.34.288-.441.263-.731-.025-.29.087-.113.15-.088a1 1 0 0 1 .238.113c.174.163.378.292.6.378a.264.264 0 0 1 .163.366c0 .214-.175.328-.35.328s-.276-.139-.438-.164c.188.34.55.353.813.555.263.201.2 0 .225.214.026.214.138.189.238.139.4-.19.751.088 1.114.163a.72.72 0 0 0 .4 0 .658.658 0 0 1 .589.101c.223.12.433.263.625.429.44.396.858.817 1.252 1.26.217.21.395.458.525.732 0 .088.1.214.2.113.1-.1.213 0 .276.076.093.164.216.31.363.428.125.089.225.366.425.089 0 0 .126 0 .163.075l.238.34c.162.215.25.505.55.606.3.1.238.264.276.479.047.408.14.81.275 1.197a.71.71 0 0 1 0 .505 2.926 2.926 0 0 1-1.159 1.789 2.887 2.887 0 0 1-2.057.518.773.773 0 0 1-.45-.202 1.135 1.135 0 0 0-.564-.252 3.74 3.74 0 0 1-1.64-.668c-.1-.063-.2-.139-.325-.089-.125.05-.287 0-.35-.214s0-.126-.1-.1c-.275.138-.45-.14-.676-.203a1.074 1.074 0 0 1-.7-.68.343.343 0 0 0-.168-.246.337.337 0 0 0-.296-.019c.188.404.35.782.551 1.147a.966.966 0 0 0 .463.429c.075 0 .2 0 .225.139.125.44.5.516.776.743.22.216.361.5.4.807a1.269 1.269 0 0 1-.225 1.16.266.266 0 0 0 0 .353c.15.265.163.592.288.87.038.212.038.43 0 .643a.861.861 0 0 0 .15.466c.113.139.226.252.4.176a.299.299 0 0 1 .376.14l.088.138c.275.41.681.713 1.151.857.35.151.738-.227.676-.63v-.215c-.075-.34-.075-.365-.375-.264a.31.31 0 0 1-.4-.139c-.164-.265-.351-.53-.502-.807a.367.367 0 0 1 0-.53c.113-.075.138-.226.176-.365.037-.138.162-.24.325-.176.202.07.383.192.526.353.226.268.527.461.863.554.167.035.324.104.463.202a.738.738 0 0 0 .764.24c.175 0 .387.138.638.1a4.306 4.306 0 0 0-.488-1.26 2.23 2.23 0 0 1-.363-1.021.457.457 0 0 1 .225-.492c.212-.128.382-.317.488-.542a.416.416 0 0 1 .276-.265c.575-.088.813-.605 1.113-1.033 0 0 0-.14.088-.19.088-.05.2-.24.375-.075a.91.91 0 0 0 .45.201.647.647 0 0 1 .589.467c.088.24.388.202.375.53a.303.303 0 0 0 .088-.354 1.066 1.066 0 0 1 .1-.832c.146-.372.206-.773.175-1.172a.406.406 0 0 0-.275-.454c-.288-.075-.338-.315-.325-.592a3.25 3.25 0 0 1 .087-.505 6.96 6.96 0 0 0 .213-1.828.786.786 0 0 0-.25-.63 2.837 2.837 0 0 1-.526-.567.152.152 0 0 1 0-.19h.25c.39.263.864.367 1.327.29.205-.003.408.031.6.102a.6.6 0 0 1 .414.454.596.596 0 0 0 .337.479c.1 0 .113.15.126.252l.075.416c.087.44.087.44-.276.53a1.077 1.077 0 0 1-.275.062c-.425 0-.6.366-.8.694a.342.342 0 0 0 .062.428c.29.316.52.683.675 1.084 0 .164.188.265.376.164.188-.1.15-.075.213 0 .062.076.125 0 .2 0 .513-.1.901-.315.8-1.021a1.1 1.1 0 0 1 0-.29c0-.492.226-.845.714-.895a.2.2 0 0 0 .188-.19c0-.213.163-.276.313-.377a8.157 8.157 0 0 0 1.439-1.135l.075-.088c.388-.202.776-.416 1.176-.605.175-.088.288 0 .376.189.087.189.075.126.15 0a.228.228 0 0 0 0-.202c0-.113-.213-.176-.113-.328.085-.126.182-.244.288-.352.138-.14.225-.089.225.125v.101c0 .101.113-.075.113-.15a.747.747 0 0 1 .488-.694c.275-.114.576 0 .914-.19-.138.366-.4.29-.601.404a.978.978 0 0 1 0 .706 2.133 2.133 0 0 0 0 .845.15.15 0 0 0 .163.138.349.349 0 0 1 .275.126c.15.152.238.126.25-.126a.874.874 0 0 1 .45-.743c.201-.127.439-.152.639-.303.288.139.613 0 .914.126.3.126.262.126.45-.139.26-.425.639-.762 1.089-.97.313-.139.325-.139.488.201l.113.215c.162.214.225.416 0 .63a.495.495 0 0 0-.1.277.445.445 0 0 0 .175.404.212.212 0 0 0 .288 0 .378.378 0 0 0 .15-.404v-.214c0-.176 0-.29.225-.328.613-.164.8-.542.626-1.26a3.482 3.482 0 0 0-.25-.719 1.408 1.408 0 0 1-.188-.807.533.533 0 0 1-.604-.177.544.544 0 0 1-.097-.2c0-.09-.15-.127-.2 0-.05.125-.126.176-.176 0-.05-.177-.35-.58-.488-.921a1.27 1.27 0 0 1 .2-1.06c.076-.163.226-.176.313 0 .313.543.839.87 1.14 1.425.087.164.187.316.287.492.1 0 .163-.214.3-.214a.485.485 0 0 1 .326.075c.228.156.5.231.776.215.486.038.957.19 1.376.44.291.091.551.262.751.493a.833.833 0 0 1 .225.605c.007.1.007.201 0 .302-.057.437.031.88.25 1.26a1.155 1.155 0 0 1 0 1.072 1.497 1.497 0 0 0-.124.53c0 .34.162.53.463.504.3-.025.413 0 .438.454.012.185.012.37 0 .555a.951.951 0 0 1-.388.794.54.54 0 0 0-.263.39 1.265 1.265 0 0 1-.538.807c-.2.14-.388.278-.589.391a1.256 1.256 0 0 0-.613.895 1.4 1.4 0 0 1-.525.908 8.052 8.052 0 0 0-1.602 1.89c-.238.392-.55.732-1.051.619a.198.198 0 0 0-.196.037.202.202 0 0 0-.067.19 9.894 9.894 0 0 1-.476 2.332 1.766 1.766 0 0 0 0 .769 1.27 1.27 0 0 1-.087.907c-.075.152-.113.316-.175.48a.253.253 0 0 0 0 .34.568.568 0 0 1 .15.542 3.431 3.431 0 0 1-.063.378 2.399 2.399 0 0 0 0 1.361c.077.227.111.467.1.706 0 .202 0 .379-.25.404-.25.025.438.63.438.769.041.119.096.233.163.34a1.267 1.267 0 0 1 0 1.475 2.75 2.75 0 0 1-.538.757.353.353 0 0 0-.126.34.772.772 0 0 1 0 .34.33.33 0 0 0 .088.353c.1.139.2.303.313.429.273.328.42.744.413 1.172.007.298-.09.588-.276.82a5.601 5.601 0 0 1-.525.693 2.526 2.526 0 0 0-.526.882c-.1.328-.2.643-.288.984a2.133 2.133 0 0 0 0 .844c.075.593.326.807.839.706.513-.1.838 0 .726.807v.29c-.125.668-.663.945-1.19.605-.137-.1-.274-.265-.437-.1-.163.163 0 .34 0 .516.037.164.087.324.15.48a.944.944 0 0 0 .851.541.474.474 0 0 0 .338-.201c.183-.207.422-.356.688-.43.213-.087.338 0 .3.278.01.494-.168.973-.5 1.337-.194.236-.355.5-.476.781a.495.495 0 0 0 0 .328c.075.416.163.807.25 1.26.088.454.126.303.326.253.125-.02.251-.02.375 0a.374.374 0 0 1 .363.365c0 .53.413.719.726.958.185.162.41.27.651.316.2 0 .275.189.25.415a1.037 1.037 0 0 1-.281.678 1.023 1.023 0 0 1-.657.318.324.324 0 0 1-.3 0c-.188-.189-.288-.088-.426.101a.352.352 0 0 1-.403.164.35.35 0 0 1-.135-.076c-.1-.064-.21-.11-.326-.138a.486.486 0 0 1-.362-.34c-.15-.379-.326-.467-.651-.265a.598.598 0 0 1-.701 0c-.275-.139-.563 0-.801.277 0 0-.088.139-.138.19a.438.438 0 0 1-.6.125 2.242 2.242 0 0 1-.614-.491c-.137.113-.075.252-.1.365-.025.114 0 .177-.125.19-.125.012-.15 0-.163-.14-.087-.58-.575-.819-.85-1.26-.088-.151-.25-.114-.389-.114-.137 0-.5 0-.7-.252-.2-.252-.263-.1-.4 0-.138.101-.314.278-.652 0-.337-.277-.413-.138-.538.076-.203.32-.494.575-.838.731a.413.413 0 0 0-.263.278c-.062.239-.25.315-.413.428-.163.114-.275.202-.188.555.027.082.048.166.063.252a.559.559 0 0 1-.246.577.548.548 0 0 1-.205.078c-.15 0-.237-.1-.287-.24a1.554 1.554 0 0 0-.326-.579c-.162-.176-.238-.164-.288.076a1.35 1.35 0 0 1-.275.63.873.873 0 0 0-.112.845.457.457 0 0 1-.1.567.899.899 0 0 0-.188.466c0 .19 0 .34.175.416.175.076.25.252.288.467.037.214.1.34.375.365h.2a.297.297 0 0 1 .238.101 1.679 1.679 0 0 1 .5 1.45c0 .227-.162.277-.325.29-.162.012-.112 0-.125.139-.012.138 0 .088.1.113.1.025.313.139.3.34a1.102 1.102 0 0 1-.25.58c-.137.164-.325.126-.438-.088l-.075-.19s0-.112-.087-.125a5.446 5.446 0 0 1-.676 1.777c0 .114-.1.24-.15.353a.329.329 0 0 0 .112.467 1.5 1.5 0 0 1 .35.542c0 .1 0 .277.213.189.213-.088.113.1.113.189-.013.14-.038.28-.075.416-.079.321-.03.66.138.945.212.391.4.795.613 1.198.213.403 0 .378-.125.53l-.35.428a.44.44 0 0 1-.584.085.44.44 0 0 1-.142-.16 1.933 1.933 0 0 0-.826-.795c-.263-.15-.539-.264-.589-.668 0-.176-.237-.189-.362-.277a.872.872 0 0 0-.952-.063.312.312 0 0 1-.45-.076l-.063-.063a1.817 1.817 0 0 0-1.501-.68 2.265 2.265 0 0 1-1.177-.34.696.696 0 0 0-.7 0 .212.212 0 0 1-.276 0 2.284 2.284 0 0 1-.425-.43 1.594 1.594 0 0 0-.614-.58 2.5 2.5 0 0 1-.826-.529.173.173 0 0 0-.137 0c-.238 0-.35-.189-.463-.39a.58.58 0 0 0-.138-.202c-.125-.101-.238-.34-.438 0a.474.474 0 0 1-.55.075c-.25-.126-.401 0-.601.164l-.976.694a.485.485 0 0 1-.413 0c-.2 0-.276-.19-.263-.43.012-.239 0-.239 0-.352a.317.317 0 0 0-.163-.315c-.2-.076-.338-.252-.55-.278-.213-.025-.226-.176 0-.327.242-.308.582-.522.963-.606a.636.636 0 0 0-.713-.138c-.376.164-.651-.19-.976-.24a1 1 0 0 0-.226-.479s-.062-.126-.112-.113c-.05.012-.488 0-.651.29a2.53 2.53 0 0 0-.275.466.87.87 0 0 1-.438.505.49.49 0 0 0-.276.516v.34a.673.673 0 0 1-.362.694c-.2.088-.326.315-.489.48a.545.545 0 0 0-.087.403c.025.238.025.48 0 .718a.494.494 0 0 1-.3.416.488.488 0 0 0-.326.517.432.432 0 0 1-.15.416.29.29 0 0 0-.063.403c.168.278.278.587.326.908a.429.429 0 0 0 .288.328c.145.081.295.153.45.214a.225.225 0 0 1 .188.24.304.304 0 0 1-.188.29.447.447 0 0 1-.338 0 1.093 1.093 0 0 0-1.251.378 9.48 9.48 0 0 0-.739.693c-.062.088-.175.202-.288.088-.112-.113 0-.24 0-.353.029-.07.062-.137.1-.201a1.886 1.886 0 0 0-.988-.517c-.225 0-.313 0-.363.24-.05.239 0 .251-.2.239-.2-.013-.15-.164-.125-.303a.34.34 0 0 0 0-.1c-.163.138-.376.15-.538.314.125.215.4.253.425.555-.15.088-.225-.1-.363-.088-.137.013 0 .164 0 .265v.138c0-.012-.275.126-.425.076a.364.364 0 0 1-.188-.202 1.155 1.155 0 0 0-.488-.491.392.392 0 0 0-.075.428c.05.234.143.457.275.656.17.201.282.445.326.706a.695.695 0 0 0 .513.479.538.538 0 0 1 .4.454c.063.264.325.353.488.517.163.163.2.365.363.491.163.126 0 .101 0 .139a.136.136 0 0 1-.1 0 .148.148 0 0 1-.1 0 5.465 5.465 0 0 0-.851-.68v.1c0 .492 0 .492-.376.24a.525.525 0 0 0-.162-.089c-.088 0-.2 0-.238.076-.038.076 0 .164.075.227a.95.95 0 0 1 .113.113c.1.126 0 .215 0 .315 0 .101-.313 0-.326.24.002.142.027.282.075.416a1.97 1.97 0 0 1 0 .718c0 .089 0 .177-.137.177-.138 0-.125-.088-.138-.177-.012-.088 0-.353-.15-.453-.15-.101-.088.075-.113.138-.025.063 0 .164-.162.139a.214.214 0 0 1-.1-.164l-.113-.315c0-.076-.088-.088-.163 0-.075.088-.388 0-.425-.24a.612.612 0 0 1 0-.214.368.368 0 0 0-.15-.428.579.579 0 0 1-.172-.728.568.568 0 0 1 .172-.205s.137 0 .137-.164c-.313.088-.438-.126-.55-.416a7.262 7.262 0 0 0-.714-1.26v.2c0 .076-.075.152-.163.127a.478.478 0 0 1-.212-.618c0-.088.137-.176 0-.227-.538-.29-.488-.781-.388-1.26-.009-.355.02-.71.087-1.06a.216.216 0 0 0 0-.163 5.02 5.02 0 0 0-1.364-1.26 1.049 1.049 0 0 0-.9-.215.175.175 0 0 1-.113 0c-.075 0-.163 0-.163-.139 0-.138.075-.1.138-.113h.112c.088 0 .213 0 .2-.151a.178.178 0 0 0-.088-.152.175.175 0 0 0-.174 0c-.388.139-.601-.24-.851-.428-.25-.19-.288-.303-.438-.454-.15-.152-.376-.328-.288-.643a.177.177 0 0 0 0-.19.835.835 0 0 1-.238-.49c0-.152-.1-.24-.225-.228-.125.013-.088.177-.1.277a.089.089 0 0 1 0 .101c-.088 0-.113-.088-.163-.15-.05-.064-.063-.127-.15-.077-.088.05-.313 0-.4-.214a1.064 1.064 0 0 1-.1-.945.548.548 0 0 0-.501 0c-.133.08-.27.153-.413.214-.226.076-.288.202-.163.403a.583.583 0 0 1 0 .517.952.952 0 0 0 .4 1.198c.221.121.424.274.601.454a.808.808 0 0 1 .25.466c.076.252.163.492.238.731.197.466.528.861.951 1.135.126.113.276 0 .413 0 .113.006.226.006.338 0a.273.273 0 0 1 .28.131.28.28 0 0 1-.017.31c-.125.227 0 .328.113.39.487.245.96.518 1.414.82.338.164.488.567.663.908 0 .113 0 .252-.075.365a.15.15 0 0 1-.238 0 .29.29 0 0 1-.125-.15c-.15-.354-.488-.404-.726-.606a.162.162 0 0 0-.1 0c-.225 0-.325.24-.4.429-.076.189-.176.378 0 .554l.262.24a.605.605 0 0 1 .065.722.603.603 0 0 1-.177.186.414.414 0 0 0-.226.403.456.456 0 0 1-.15.34c-.11.099-.2.219-.262.353-.138.278-.25.316-.489.152-.237-.164-.162 0-.212 0a1.063 1.063 0 0 0-.163.97.556.556 0 0 1 0 .202c0 .441-.275.618-.638.416-.088 0-.163-.126-.25-.19-.088-.062-.113-.15-.176-.163-.513-.113-.85-.618-1.364-.756a.528.528 0 0 1-.238-.681s.076-.164.126-.151c.287 0 .575-.24.876 0a.699.699 0 0 0 .588.113c.424-.08.842-.19 1.251-.328.088 0 .188-.088.188-.189a.558.558 0 0 1 .25-.491v-.152c-.075-.466-.325-.844-.413-1.26l-.087-.076a.71.71 0 0 1-.651-.643c0-.1-.075-.202-.175-.189-.326 0-.476-.265-.626-.479-.15-.214-.363-.441-.663-.39a.522.522 0 0 1-.613-.354 3.89 3.89 0 0 1-.438-.479c-.2-.328-.539-.492-.714-.832 0 0-.062-.088-.087-.075-.376.063-.376-.353-.564-.543a1.262 1.262 0 0 1-.388-.706 5.605 5.605 0 0 0-.262-.857.318.318 0 0 0 0-.113 3.425 3.425 0 0 0-1.076-.618.497.497 0 0 0-.526.353.868.868 0 0 1-.676.492c-.363 0-.563.378-.8.63-.239.252-.552.492-1.04.227s-.926-.177-1.364-.378h-.237l-.438.29a.415.415 0 0 0-.213.491c.005.224.047.446.125.656a.99.99 0 0 1-.275.945 4.999 4.999 0 0 1-1.515.958.738.738 0 0 0-.438.391c-.262.454-.538.883-.813 1.26a.744.744 0 0 0-.101.89.741.741 0 0 0 .214.233.277.277 0 0 1 .068.322.277.277 0 0 1-.068.094.478.478 0 0 1-.138.138 1.515 1.515 0 0 0-.588.971.392.392 0 0 1-.35.328.837.837 0 0 0-.664.643.542.542 0 0 1-.538.416H5.443a1.58 1.58 0 0 0-.776.227 2.191 2.191 0 0 0-.714.53c-.175.214-.525.113-.738-.165a2.39 2.39 0 0 1-.325-.643c-.176-.453-.501-.693-.901-.504a2.634 2.634 0 0 1-1.164.126c-.288 0-.388-.126-.288-.428.079-.377.108-.763.087-1.147 0-.101 0-.19-.112-.253-.613-.315-.613-.706-.326-1.26a9.79 9.79 0 0 0 .551-2.32 2.716 2.716 0 0 0-.125-.92.99.99 0 0 1 0-.378 1.422 1.422 0 0 0-.225-1.084c-.188-.366-.138-.606.212-.744h.263c.125 0 .2-.076.276-.202a.556.556 0 0 1 .555-.393.547.547 0 0 1 .233.065c.285.121.592.182.901.177h.15a1.827 1.827 0 0 1 1.252.075c.386.083.782.108 1.176.076.42-.014.84.02 1.251.1.192.02.385.02.576 0a.386.386 0 0 0 .376-.365c.062-.365.125-.73.175-1.096.05-.366.087-.996.112-1.5a4.633 4.633 0 0 1 0-.833.368.368 0 0 0-.237-.403c-.363-.126-.501-.517-.701-.807a.266.266 0 0 1 0-.252c.1-.214-.063-.265-.163-.39-.288-.379-.75-.404-1.076-.681a.575.575 0 0 0-.55-.127c-.201.076-.526-.239-.501-.479a.406.406 0 0 0-.088-.34c-.163-.176 0-.315.063-.428a.973.973 0 0 1 .588-.265 1.09 1.09 0 0 0 .438-.151.498.498 0 0 1 .638 0 .55.55 0 0 0 .6.163c.178-.039.362-.039.539 0 .036-.343-.03-.69-.188-.996-.112-.252-.1-.479 0-.554a.583.583 0 0 1 .6.176 1.04 1.04 0 0 0 .952.391c.1 0 .238-.076.238-.24a.759.759 0 0 1 .575-.655c.207-.053.4-.152.563-.29a.454.454 0 0 0 .176-.441 1.684 1.684 0 0 1 0-.252c.062-.593.187-.782.7-.908.38-.173.745-.38 1.09-.618.074 0 .1-.201.225-.189.125.013.162 0 .075-.176-.088-.177 0-.126 0-.19.52-.549.808-1.282.8-2.042a.57.57 0 0 1 .3-.491c.088.1 0 .176 0 .264v.19c.276.277.126.605.114.907 0 0 0 .076.075.164a2.14 2.14 0 0 1 .15-.454.495.495 0 0 0 0-.403.658.658 0 0 1 .538-.983c.263 0 .5-.139.763-.076.263.063.15 0 .213-.139.325-.403.613-.453 1.001-.189.175.126.25.076.313-.126a.48.48 0 0 1 .1-.214c.3-.177.225-.454.113-.694a.355.355 0 0 1 0-.415.215.215 0 0 0 0-.278 2.245 2.245 0 0 1-.2-1.071c0-.265 0-.505-.313-.568-.313-.063-.163-.126-.15-.252.012-.126 0-.592-.063-.895a3.808 3.808 0 0 1 .2-1.613.592.592 0 0 1 .513-.404.885.885 0 0 0 .739-.53c.143-.223.354-.395.6-.491.113-.076.188 0 .175.126-.031.18-.031.363 0 .542a.634.634 0 0 1-.087.454 1.915 1.915 0 0 0-.138.832c0 .202 0 .303.238.29.238-.013.288 0 .338.19a.469.469 0 0 1-.163.49.66.66 0 0 1-.275.152.123.123 0 0 0-.1 0c0 .429-.438.618-.588.983-.15.366 0 .517-.088.77h.15c.288.125.326.214.213.541 0 .114 0 .593.113.593.112 0 .387.227.65.151.263-.075.3.126.2.353-.1.227-.175.151-.162.303a.62.62 0 0 0 .613-.215.398.398 0 0 1 .25-.088.902.902 0 0 0 .5-.365c.101-.152.251-.227.401-.101.15.126.313.075.376-.177.062-.252.075-.24.213-.201a.375.375 0 0 1 .3.29c0 .264 0 .39-.325.592.3 0 .363.214.463.39.1.177.212.253.438.089a2.66 2.66 0 0 1 .988-.555 1.83 1.83 0 0 0 .914-.504 2.868 2.868 0 0 1 1.64-.719.645.645 0 0 1 .6.215c.088.1.163.227 0 .315s-.1.139-.063.252a.2.2 0 0 0 .226.114.91.91 0 0 0 .609-.229.923.923 0 0 0 .304-.578.293.293 0 0 1 .18-.295.287.287 0 0 1 .12-.02.56.56 0 0 0 .463-.328c.218-.302.313-.677.263-1.047 0-.264-.062-.542-.075-.806-.05-.47.028-.945.226-1.374.074-.17.129-.348.162-.53.034-.257.152-.496.336-.679a1.16 1.16 0 0 1 .678-.33.175.175 0 0 1 .2.089c.235.306.444.63.626.97a.39.39 0 0 0 .463.29.487.487 0 0 0 .413-.491.939.939 0 0 0 0-.265 9.02 9.02 0 0 1 .1-1.412c0-.088.075-.189 0-.277a.36.36 0 0 1-.4 0 .764.764 0 0 1-.426-.668c0-.278 0-.568-.063-.845-.062-.277 0-.428.176-.492.175-.063.6-.39.963-.504.363-.113.688 0 .939-.315h.112c.329.048.649.141.951.277.213.123.458.176.701.152.35 0 .35 0 .413-.416 0-.139 0-.253.213-.215a.759.759 0 0 0 .65-.24.638.638 0 0 1 .727-.188c.087 0 .2.063.225-.076a.204.204 0 0 0-.088-.21.2.2 0 0 0-.075-.03.287.287 0 0 0-.225 0c-.313.114-.5-.126-.738-.264a.538.538 0 0 1-.263-.554.546.546 0 0 1 .075-.203c-.2.089-.288.29-.45.253-.163-.038-.601.163-.902 0h-.187a18.71 18.71 0 0 0-1.59.605c-.525.227-.988.39-1.489.567a.66.66 0 0 0-.338.164c-.062 0-.137.1-.213 0-.075-.101 0-.126 0-.19a.292.292 0 0 0-.075-.302c-.087-.075-.125 0-.187.088a.236.236 0 0 1-.313 0c-.1-.088 0-.189 0-.264 0-.076 0-.391-.075-.467-.075-.075-.45-.353-.701-.428-.25-.076-.225-.215-.275-.404-.138-.53.125-1.008.125-1.512a2.54 2.54 0 0 0-.138-.946.825.825 0 0 1-.088-.454 1.547 1.547 0 0 0-.075-.63 1.193 1.193 0 0 1 .2-1.26c.126-.165.338-.278.351-.568.012-.29.15-.164.275-.164a.398.398 0 0 0 .388-.164c.195-.212.367-.445.513-.693a8.02 8.02 0 0 1 .901-1.324c.266-.287.47-.626.601-.996a.771.771 0 0 1 .526-.643c.262-.075.275-.138.237-.428a.775.775 0 0 1 0-.34.976.976 0 0 0-.162-.643 5.442 5.442 0 0 0-.55-.656c-.076-.088-.251-.24-.364-.164a.376.376 0 0 1-.413 0 .324.324 0 0 0-.363 0 .36.36 0 0 1-.425 0 .287.287 0 0 0-.426.19 1.161 1.161 0 0 1-.588.768.263.263 0 0 0-.16.25c0 .036.008.07.023.103a.825.825 0 0 1-.188.832.633.633 0 0 0 0 .706c0 .088.1.139.137.214.15.278.126.442-.1.618a1.07 1.07 0 0 0-.262.315 2.517 2.517 0 0 1-1.102 1.35v.062a4.196 4.196 0 0 0-.838.656 1.605 1.605 0 0 0-.35.365c-.226.303-.263.77-.664.895-.063 0 0 .126-.063.19a.496.496 0 0 1-.283.484.485.485 0 0 1-.192.045.964.964 0 0 1 .075.82 1.13 1.13 0 0 0 0 .541c0 .152 0 .303-.125.353-.125.05-.15.152-.138.265.012.472.05.944.113 1.412a.62.62 0 0 0 .475.58.312.312 0 0 1 .276.252.729.729 0 0 0 .175.214c.21.276.387.577.526.895a.445.445 0 0 1 0 .416 1.26 1.26 0 0 1-.514.656c0 .063.113 0 .163 0s.163.088.1.202a1.7 1.7 0 0 1-.65.806 5.7 5.7 0 0 0-.714.442.464.464 0 0 0-.275.479c0 .504-.088 1.02-.125 1.525-.018.28-.056.558-.113.832a2.387 2.387 0 0 0-.087.82c.134-.174.224-.377.262-.593 0-.164.075-.39.326-.441a19.058 19.058 0 0 1-.463 1.853s-.075.214-.188.189c-.113-.025-.088-.151-.075-.252.012-.101.062-.19 0-.315 0 .163-.113.302-.15.453-.125.391-.125.404-.526.391h-.45a.736.736 0 0 0-.495.24.747.747 0 0 0-.194.517c0 .605 0 .605-.538.617-.2 0-.388.139-.6.089-.213-.05-.313-.063-.25-.316a.114.114 0 0 0 0-.15h-.176a.215.215 0 0 0 0 .239c0 .1.138.227 0 .315-.217.27-.333.61-.325.958a.556.556 0 0 1-.076.202s0 .113-.112.088c-.263-.114-.588 0-.814-.252 0 0-.125-.114-.2 0-.075.113-.188 0-.213-.088a3.595 3.595 0 0 1 0-.366.872.872 0 0 1-.598-.236.885.885 0 0 1-.278-.584.843.843 0 0 1-.212-.05zm27.419 13.98a.125.125 0 0 0-.175 0c-.252.092-.512.16-.776.201-.19.027-.373.091-.538.19-.223.098-.43.23-.614.39-.275-.126-.45.177-.688.19a.696.696 0 0 0-.513.327c-.138.151-.188.429-.45.416v.088a.94.94 0 0 0 .112.757c.075.1.138.189.25.163.133.025.268.025.4 0a.894.894 0 0 1 .74 0 .61.61 0 0 0 .813-.214c.128-.244.283-.472.463-.68.238-.227.225-.265 0-.467h-.063c-.088-.076-.2-.151-.163-.315.038-.164.163-.19.288-.215.125-.025.213 0 .263 0 .19-.199.415-.361.663-.478a.71.71 0 0 0-.012-.353zm-16.77-13.628l-.225.429a.127.127 0 0 0 0 .176h.188a.772.772 0 0 0 .038-.605zm-4.104-8.068c.188.1.375.214.575.303.2.088.188.088.226 0 .037-.089-.075-.164-.163-.177-.088-.012-.425-.126-.638-.126z" fill="#E7E6E6"/><path fill-rule="evenodd" clip-rule="evenodd" d="M66.071 13.406c.3-.152.313-.164.225-.454a.713.713 0 0 1 .088-.605c.113-.19.263-.252.425-.164a.81.81 0 0 0 .401.113c.25 0 .463.088.463.404.425.063.7-.227 1.014-.454.087-.076.213-.177.313-.114.325.24.525-.063.738-.227.213-.163.25-.365.5-.34.25.025.113-.1.15-.189.038-.088.1-.19.226-.164.125.025.225-.126.2-.277a.812.812 0 0 1 .426-.908c.15-.088.275-.214.363-.365a.227.227 0 0 1 .2-.177.511.511 0 0 0 .313-.139 1.133 1.133 0 0 1 1.509.28c.113.15.188.328.218.515 0 .138 0 .277.1.416a.482.482 0 0 1 0 .453.226.226 0 0 0-.052.253.23.23 0 0 0 .052.075c.087.101 0 .215-.075.29a1.754 1.754 0 0 0-.4.618c-.088.189-.214.365-.1.58h-.101a.56.56 0 0 0-.776.227c-.386.45-.927.739-1.514.806a.411.411 0 0 0-.313.14c-.35.516-.914.705-1.352 1.07 0 0-.125.114-.162.089-.3-.126-.376.126-.526.315-.167.24-.39.435-.65.567a1.432 1.432 0 0 0-.564.568c-.1.176-.225.34-.325.53a.992.992 0 0 1-1.026.465v.177a.315.315 0 0 1 0 .454c-.16.155-.266.359-.3.58a.203.203 0 0 1-.138.189c-.276 0-.3.252-.226.53-.313 0-.438-.329-.713-.354 0 .215.088.429 0 .656-.088.227-.175.365-.438.1v.228a.952.952 0 0 1-.175 1.147.442.442 0 0 0-.163.29c0 .151-.125.176-.225.088a.63.63 0 0 1-.25-.315.937.937 0 0 0-.138-.303c-.113.265-.113.278 0 .467.174.22.255.501.225.781 0 .126 0 .265-.15.328s-.2-.088-.263-.19a.126.126 0 0 0-.15-.075c.075.215.25.378.25.605 0 .227-.162.366-.438.366.25.378 0 .63-.15.92-.15.29-.338.252-.588.152a.58.58 0 0 1 .163.794.889.889 0 0 0-.075.416.406.406 0 0 1-.125.34c-.363.227-.313.68-.476 1.009a1.803 1.803 0 0 0-.125 1.172.38.38 0 0 1 0 .164c-.2.504 0 .983 0 1.475-.002.27.067.535.2.769.11.167.182.357.213.555.089.408.308.776.625 1.046.193.225.421.417.676.567a.25.25 0 0 1 .129.29.253.253 0 0 1-.054.1c-.125.165-.263.316-.388.467a.139.139 0 0 1-.106.051.138.138 0 0 1-.106-.05l-.213-.24a.1.1 0 0 0-.081-.042.1.1 0 0 0-.081.042.437.437 0 0 1-.639 0c-.188-.202-.313-.202-.463 0-.15.202-.2.113-.3 0l-.113-.114c-.175-.214-.313-.44-.663-.327-.35.113-.476-.215-.513-.543-.038-.327 0-.592.3-.693v-.113a.725.725 0 0 1-.526-.643c0-.202-.087-.303-.3-.252-.213.05-.25-.202-.3-.391-.15 0-.126.189-.226.252a.537.537 0 0 1-.788-.252 2.31 2.31 0 0 1-.113-1.588.403.403 0 0 1 .476-.29c.275 0 .45-.089.476-.442.034-.223.101-.44.2-.643a.596.596 0 0 0-.1-.655c-.276-.328-.263-.504 0-.807a.946.946 0 0 1 .187-.139c.213-.075.238-.277.25-.479a.913.913 0 0 1 .597-.908.896.896 0 0 1 .38-.05c-.017-.33.034-.66.15-.97a.975.975 0 0 1-.588-.555c-.075-.139-.1-.277.1-.366.2-.088.425-.44.713-.554 0 0 0-.114.075-.19a.745.745 0 0 1 .25-.416s.113-.075.113-.113c0-.303.163-.366.35-.403a.827.827 0 0 0 0-.114c0-.1-.25-.139-.175-.328.075-.189.213-.1.338-.126a.337.337 0 0 0 .2-.1.79.79 0 0 1-.35-.517c0-.177 0-.328.2-.328s.326-.139.513-.202c-.087-.214-.212-.126-.337-.126-.126 0-.276-.1-.188-.315l.125-.265c0-.113.113-.264-.113-.24-.225.026-.112 0-.125-.125a.874.874 0 0 1 0-.669.24.24 0 0 1 .202-.199.236.236 0 0 1 .249.137c.062.075.062.201.187.176a.35.35 0 0 0 .25-.177 2.83 2.83 0 0 0 .138-.302c.125-.315.263-.416.551-.39.288.024.513-.102.55-.543.038-.441.113-.693.451-.807a.226.226 0 0 0 .175-.201 1.151 1.151 0 0 1 .764-.883c.263-.139.538-.252.613-.63 0-.139.163-.214.275-.29.113-.076.213-.164.35-.076.138.088.05.202.038.34zM4.438 78.416a.431.431 0 0 1 .188-.352c.348-.35.654-.74.914-1.16a.792.792 0 0 1 .825-.48.497.497 0 0 0 .626-.403h-.15c-.288.252-.338.252-.613 0-.075 0-.125-.163-.225-.126a.385.385 0 0 1-.476-.151c-.088-.1-.163 0-.238 0-.075 0-.488 0-.513-.328a.266.266 0 0 1 .15-.264c.213-.14.426-.265.626-.416a.744.744 0 0 0 .213-.971c-.063-.126-.138-.076-.225 0-.088.075-.15 0-.2 0-.05 0 0-.164.074-.227a2.32 2.32 0 0 1 .15-.19c.1-.125.213-.264 0-.44a.114.114 0 0 1 0-.152.1.1 0 0 1 .128-.03.1.1 0 0 1 .035.03c.3.252.626 0 .926 0 .088 0 .1-.088.113-.176a4.05 4.05 0 0 1 .113-.883c0-.075 0-.126-.088-.163a.787.787 0 0 1-.519-.48.8.8 0 0 1 .068-.706c0-.075 0-.15.126-.302a4.16 4.16 0 0 1-.789.302c-.125 0-.238.14-.388 0-.15-.138-.075 0-.1 0-.025 0-.175.215-.275 0a.583.583 0 0 1-.063-.352 2.13 2.13 0 0 1 .175-.379 1.268 1.268 0 0 0 0-1.134c0-.076-.075-.126-.15-.101a.175.175 0 0 0-.112.202s.1.1.125.15c.1.266 0 .455-.263.43-.263-.026-.1 0-.125.113-.025.113-.1.177-.213.139-.113-.038-.088-.19 0-.29a2.62 2.62 0 0 1 .125-.416.254.254 0 0 0-.1-.353.882.882 0 0 0-.238.328.186.186 0 0 1-.237.176c-.126-.038-.238-.076-.238-.24a.253.253 0 0 1 .162-.264c.263 0 .376-.316.576-.454.2-.139.15-.441.3-.643-.162 0-.2 0-.237.139a.553.553 0 0 1-.513.302c-.075 0-.188-.075-.15-.151.125-.29 0-.643.3-.895s.225-.48-.125-.618c-.35-.139-.313-.39-.513-.542-.2-.151 0-.139 0-.214a.716.716 0 0 1 .375-.391c.175 0 .175.227.238.365.062.14.1.354.313.43-.288-.303 0-.631 0-.934.425-.315.325-.92.613-1.26.288-.34.263-.366.563-.303.307.028.617-.002.914-.088.15 0 .312-.101.412.088a.495.495 0 0 1-.075.555c-.175.214-.3.504-.563.643-.075 0-.175.151-.112.227.062.075 0 .302-.1.542a2.847 2.847 0 0 1 1.714-.202.385.385 0 0 1 .384.197.393.393 0 0 1-.034.433c-.198.614-.45 1.209-.75 1.778a.152.152 0 0 0 0 .189c.137.277 0 .353-.213.39a.211.211 0 0 0-.163.114.088.088 0 0 0 .092.091.087.087 0 0 0 .046-.015c.425-.088.688.164.963.479.277.313.433.715.438 1.134.055.294.16.576.313.832a.214.214 0 0 0 .15.126c.426.114.564.543.739.933.027.12.073.236.137.34a.63.63 0 0 1 .176.656c0 .089 0 .164.075.227a.544.544 0 0 1 0 .731s-.113.152 0 .227c.112.076.125 0 .175 0a.738.738 0 0 1 .65-.176.712.712 0 0 1 .589.643 1.268 1.268 0 0 1-.25 1.109c-.138.151-.2.378-.413.429-.213.05-.075.113-.113.164-.15.29-.138.34.15.39h.075c.113 0 .238 0 .276.164.037.164 0 .265-.138.366a1.716 1.716 0 0 1-1.252.53c-.3 0-.575.138-.876 0-.062 0-.075 0-.087.113-.013.113-.225.201-.388.113a.46.46 0 0 0-.463 0c-.225.076-.488.252-.726 0s-.55 0-.638.24c-.088.24-.175.428-.6.34-.426-.088-.514-.1-.702.177a.539.539 0 0 1-.684.167.539.539 0 0 1-.192-.168z" fill="#E7E6E6"/><path fill-rule="evenodd" clip-rule="evenodd" d="M1.197 73.135a1.046 1.046 0 0 1-.726-.227c-.213-.177-.225-.316-.063-.568l.163-.227c0-.15-.15-.088-.2-.15-.05-.064-.138-.14-.075-.215.062-.076.125-.34.225-.492a.29.29 0 0 1 .25-.164h.263c.488.114.488.114.851-.315 0-.1-.087-.076-.15-.1-.063-.026-.263-.152-.088-.379a.808.808 0 0 0 .138-.252.771.771 0 0 1 .576-.605c.167-.024.328-.08.475-.164.113-.1.25 0 .338.113a.238.238 0 0 0 .263.076c.475-.088.763.139.85.656a.595.595 0 0 0 .176.403.595.595 0 0 1 0 .769c-.13.154-.277.294-.438.416a.25.25 0 0 0-.133.257.253.253 0 0 0 .033.096c.238.492.063 1.021.15 1.513a.996.996 0 0 1-.1.378 2.22 2.22 0 0 0-.15.706c0 .214-.113.29-.3.277a1.24 1.24 0 0 0-.952.315c-.349.302-.747.54-1.176.706a3.126 3.126 0 0 1-.676.101c-.162 0-.313-.138-.4-.265a1.184 1.184 0 0 0-.2-.29.127.127 0 0 1 0-.189c.075-.138.075-.189-.063-.302-.138-.114 0-.265.1-.29a.487.487 0 0 0 .422-.38.495.495 0 0 0 .004-.2c.262-.252.262-.719.613-1.008zm17.357 17.031c-.014.347-.09.688-.225 1.008a.367.367 0 0 0 0 .429c.223.276.334.627.313.983v1.26c0 .43 0 .656-.426.656-.087 0-.112.114-.162.177-.05.063-.376.227-.563 0a1.344 1.344 0 0 1-.15-.908 3.153 3.153 0 0 0 0-.593.71.71 0 0 0-.15-.554.518.518 0 0 1-.113-.404c0-.113 0-.227.187-.189.188.038.45-.252.639-.44.187-.19 0-.165 0-.228a1.85 1.85 0 0 1-.401-1.172.508.508 0 0 1 .25-.53.814.814 0 0 0 .45-.44.087.087 0 0 1 .126 0 .137.137 0 0 1 .088.125c.03.276.077.55.137.82zm6.495-50.88l-.188.215c-.226.075-.363.29-.538.428-.176.139-.176.278-.35.152-.176-.127-.113 0-.138 0a1.177 1.177 0 0 1-1.04.365.262.262 0 0 0-.137 0c-.238.404-.776.404-.95.883a.326.326 0 0 1-.113.113c-.1 0-.176 0-.15-.113.087-.316 0-.706.425-.858a.24.24 0 0 0 .087-.075c.176-.278.388-.467.714-.315a.124.124 0 0 0 .112 0c.226-.29.563-.366.839-.568a.226.226 0 0 0 .087-.201c-.212.1-.4-.152-.638 0-.238.15-.1-.126-.087-.24a.734.734 0 0 1 .463-.605c.137 0 .075-.29.212-.214.138.075.188.252.238.416a.803.803 0 0 0 0 .138c.1-.207.132-.441.088-.668a.457.457 0 0 1 .1-.479c.101-.113.178-.246.225-.39a.14.14 0 0 1 .128-.112c.02 0 .041.003.06.01a.2.2 0 0 1 .162.215c.012.2-.04.4-.15.567-.225.227-.162.454 0 .744a.772.772 0 0 0 .188-.429c0-.151.075-.214.2-.176.125.038.276.139.2.252-.075.113 0 .492 0 .731l-.05.214zm29.384-1.033a2.29 2.29 0 0 1 .288-1.261c.276-.454.626-.492.976-.126s.288.441.576.466c.288.026.288.58.225.719-.062.139 0 .113-.1.1-.1-.012-.313.127-.388.29-.175.354-.513.442-.776.656h-.225c-.075 0-.263-.328-.463-.1 0 0-.088-.101-.1-.164a1.56 1.56 0 0 1-.013-.58zM32.857 99.999a.288.288 0 0 1-.237-.089 1.062 1.062 0 0 0-.814-.302c-.288 0-.35 0-.338-.265a.343.343 0 0 1 .249-.347.337.337 0 0 1 .152-.006h.175c.375.366.863.151 1.251.303.22.127.476.175.726.138.063 0 .1.076.088.151-.013.076-.075.265-.213.265-.325.038-.676.114-1.039.152zM3.937 63.692c-.113.202-.087.542-.35.719h-.075c-.126.076-.2.353-.388.214a1.078 1.078 0 0 1 0-.882c.15-.114.25-.29.4-.391.15-.1.2-.164.313-.113.113.05.063.302.1.453zm55.277-31.957c-.039.187-.039.38 0 .568a.102.102 0 0 1-.038.109.1.1 0 0 1-.037.017s-.1 0-.113-.076c-.013-.076-.138-.34-.2-.504a.683.683 0 0 0-.363-.517.225.225 0 0 1-.166-.21.277.277 0 0 1 .341-.27.85.85 0 0 1 .576.882zM12.898 93.758c0 .366-.3.53-.576.34a.874.874 0 0 0-.262-.138c-.176 0-.2-.189-.075-.353a1.25 1.25 0 0 1 .55-.353c.125-.05.363.303.363.504zM34.085.295a1.268 1.268 0 0 1 0-.176c0-.14.138-.177.225 0 .12.164.23.337.326.516a.303.303 0 0 1-.1.416c-.138.089-.238 0-.313-.126a1.585 1.585 0 0 1-.138-.63zm-.625 32.058a.348.348 0 0 1-.32-.238.355.355 0 0 1-.018-.14c0-.076.275-.303.375-.303.1 0 .326.24.338.416.013.177-.162.265-.375.265zm.6 61.595c.175 0 .4.302.375.479-.025.176 0 .088-.1.113a.646.646 0 0 1-.638-.164.177.177 0 0 1 0-.189.587.587 0 0 1 .363-.24zM6.49 62.432v-.164c0-.063 0-.278.113-.34.113-.064.2.088.276.176.075.088.162.063.237.113.075.05.075.076.063.139-.013.063-.063.113-.113.1-.05-.012-.288 0-.35.165-.063.164-.113 0-.175 0-.063 0-.075-.126-.05-.19zm22.463 33.419c0 .1 0 .177.113.252a.163.163 0 0 1 .059.126.164.164 0 0 1-.06.126c-.087.076-.162 0-.224 0-.063 0-.088-.088-.088-.138a.634.634 0 0 0-.163-.467c-.112-.126 0-.24.088-.315.087-.076.163 0 .213.088a.381.381 0 0 1 .062.328zm6.557 2.773c-.125 0-.125-.126-.112-.24a.681.681 0 0 1 .45-.466c.088 0 .138 0 .15.14a.595.595 0 0 1-.487.566zm-7.383-63.498c-.175 0-.425-.479-.337-.668a.076.076 0 0 1 .062-.034.075.075 0 0 1 .063.034c.143.116.27.252.375.404.075.126-.012.277-.163.264zm.889-.327c0 .113 0 .315-.163.302a.3.3 0 0 1-.25-.328c0-.189.113-.327.25-.315.138.013.175.114.163.34zm14.005 13.879c0 .114 0 .227-.113.265-.112.038-.175 0-.237-.151a.343.343 0 0 1 0-.391.211.211 0 0 1 .25 0c.1 0 .1.164.1.277zM5.714 71.256a.38.38 0 0 1-.087.265c-.1.113-.226.264-.35.151-.126-.113 0-.265.062-.378l.125-.151s.1-.101.175 0c.075.1.063-.026.075.113zM33.17 96.96c.151 0 .251 0 .289.114a.266.266 0 0 1 0 .24c-.076.125-.176.075-.276 0h-.1a.15.15 0 0 1-.135-.114.177.177 0 0 1 .16-.214l.063-.026zm.652-1.928c.1 0 .175.1.175.252 0 .151 0 .29-.188.328-.188.037-.075 0-.087 0a.699.699 0 0 1 0-.454s.012-.126.1-.126zm-1.815-62.654a.288.288 0 0 1-.225-.29.18.18 0 0 1 .042-.128.176.176 0 0 1 .12-.06.274.274 0 0 1 .25.264.215.215 0 0 1-.187.214zm2.503 66.965c.141-.15.245-.33.3-.53a.089.089 0 0 1 .1-.088s.075.34 0 .492a.4.4 0 0 1-.4.126zM13.7 93.305c0 .1 0 .163-.126.176-.125.013-.325-.126-.3-.252a.162.162 0 0 1 .15-.151.223.223 0 0 1 .255.126.228.228 0 0 1 .02.1zM2.899 65.243c-.1 0-.225-.076-.2-.227.025-.151.137-.164.262-.164.126 0 .163 0 .15.19a.204.204 0 0 1-.132.19.2.2 0 0 1-.08.01zm23.526.971a2.948 2.948 0 0 1-.113-.971 1.43 1.43 0 0 1 .451-.895.288.288 0 0 1 .213-.088c.2 0 .313.075.238.277a1.269 1.269 0 0 0-.088.655.19.19 0 0 1 0 .127c-.225.378-.488.63-.7.895zm3.543-1.917a.876.876 0 0 0-.087-.718c-.113-.215 0-.378.188-.492.2-.14.433-.223.675-.24a.523.523 0 0 1 .313.114c.2.19.2.303 0 .467-.2.163-.313.327-.55.34-.238.013-.15.113-.2.189a.48.48 0 0 1-.338.34zm1.026-1.954c0 .164-.126.202-.226.278a.412.412 0 0 1-.675-.177.127.127 0 0 1 0-.164c.14-.117.291-.223.45-.315.175-.076.45.202.45.378zm-2.678-2.76a.622.622 0 0 0 0 .428c0 .063 0 .152-.113.126-.112-.025-.312-.126-.387-.315a.738.738 0 0 1 .137-.555c.063-.063.138 0 .213 0a.314.314 0 0 1 .15.316zM23.448 69.92a.31.31 0 0 1-.296-.183.32.32 0 0 1-.029-.12c0-.126 0-.264.175-.264.176 0 .276.163.288.327.013.164-.025.227-.138.24zm9.235-21.355c.088 0 .175 0 .2.151.025.151-.175.29-.287.277a.185.185 0 0 1-.143-.064.19.19 0 0 1-.045-.15c.012-.151.138-.214.275-.214z" fill="#E7E6E6"/></svg>