<svg width="31996" height="17280" viewBox="0 0 31996 17280" fill="none" xmlns="http://www.w3.org/2000/svg"><path d="M7750 10417.2c-18-28-150-88-164-74-12 14-200-116-240-166-14-16-26-48-26-70s-44-88-96-145.98c-96-108-104-112-372-174-32-6-114-66-184-134l-128-122-88 26c-100 28-146 20-298-48-56-26-166-72-244-102-100-38-172-84-246-156-102-100-106-108-96-186 14-102-44-198-226-378-82-78-122-134-122-166s-46-92-140-186c-76-78-140-150-140-164s-10-58-22-100c-16-60-36-84-92-106-38-18-74-28-78-24-18 20 36 164 86 230 34 42 76 108 96 146 18 38 56 92 80 120 26 28 62 102 80 166s38 112 46 106c18-20 84 52 84 90 0 70-42 58-148-48-82-80-110-124-116-174-4-52-20-74-78-104-40-20-92-58-118-86l-46-50h42c70 0 52-60-44-148-50-48-96-116-112-162-48-152-120-292-164-330-26-22-88-52-138-70-86-30-98-42-156-168-34-76-90-176-124-222-122-168-126-190-122-644 4-264-2-446-18-500-16-64-16-86 2-92 12-4-20-34-74-64-92-54-286-224-286-252 0-12 50-6 160 20 28 6 16-2-24-20-44-20-82-54-96-88-12-30-66-102-122-160-82-88-98-116-98-182 0-52-14-88-44-116-42-42-42-42-70-2-44 62-74 48-122-50-24-50-68-102-100-118s-96-88-140-160c-64-104-112-150-218-220-190-122-360-190-432-170-68 18-110 2-234-80-50-34-114-62-142-62-62 0-108 46-90 90 14 40-42 88-162 134-134 50-146 48-146-40 0-98 44-160 130-176 48-8 64-20 56-40-26-68-240 70-326 208-56 88-56 94-20 100 22 4 40 14 40 24 0 34-234 226-350 290-66 34-130 84-144 110-30 60-82 86-254 130-76 18-152 46-166 62-16 16-58 28-92 28-62-2-62-2-24-32 100-74 294-188 324-188 16 0 62-26 100-60 36-32 76-60 88-60 30 0 116-106 118-142 0-18 20-58 44-88l42-54-62 32c-84 44-162 40-216-10-42-38-48-40-104-10-34 18-66 32-72 32-4 0-16-50-22-110-8-62-20-108-28-106-118 62-116 62-178 16-64-48-92-102-112-216-18-100 70-244 148-244 30 0 66-14 80-30s60-36 102-42c86-14 114-58 68-108-22-24-24-38-6-56 40-40 0-52-52-16-36 22-96 32-208 32-130 0-164-6-192-38-20-22-32-48-26-58 6-8-20-28-58-42-36-14-68-32-68-38 0-22 112-84 150-84 20 0 46-14 58-30 12-18 56-36 98-44 58-8 74-4 74 20 0 16 14 36 32 42 50 20 164 14 178-8 6-10 4-20-8-20s-26-22-34-48c-8-36-28-50-90-60-58-10-84-26-106-68-20-38-58-66-110-84-108-36-130-62-100-128 20-44 38-52 110-52 76 0 90-8 144-82 34-44 90-104 128-130 68-50 230-108 304-108 24 0 78-24 120-52 66-46 84-50 118-30 20 14 100 32 176 40 100 10 148 26 176 56 30 32 82 46 256 64 118 14 320 42 446 64s282 48 348 60c64 10 160 42 214 68 52 28 110 50 126 50s60-34 98-74c66-70 72-72 116-42 42 28 56 24 190-38 230-104 314-82 98 26-134 68-130 92 4 28 52-26 116-48 142-48 42-2 58-20 118-130 2-4 48 40 102 98l96 106 44-72c54-92 84-94 84-4 0 80 32 92 86 30 44-52 94-50 214 10 122 62 302 110 406 110 78 0 214 64 214 100 0 10-24 32-52 46-38 20-46 32-30 44 28 16 376 16 404 0 42-26 122 20 170 98l52 82-10-82c-10-92 12-148 62-148 18-2 56-16 84-32 32-20 36-26 12-18-84 26-218 50-226 42-24-22 36-80 106-104 114-40 140-36 194 36 58 74 216 130 414 148l130 12 24-62c18-52 34-62 90-62l66-2-70-30c-38-18-84-34-98-36-44-8-50-50-12-64 18-8 42-34 52-62 10-26 32-52 48-58 36-14 256 144 246 176-4 12-38 38-72 56-58 32-60 36-24 46 34 8 38 18 20 64-14 40-14 62 2 82 38 46 58 32 46-32-12-52-6-62 44-80 72-28 128-78 128-114 0-20-12-24-42-16-34 12-40 6-34-34 4-30 22-48 52-52 24-4 40-16 32-26-6-10-18-14-28-8s-58 0-108-12c-104-26-138-84-128-220 6-72 14-88 56-100 40-12 42-14 10-16-38-4-38-4-4-32 34-24 36-46 24-208-14-156-10-182 16-182 16 0 34-18 40-42 10-40 20-42 178-30 182 16 236 26 236 52 0 8-30 60-64 112-56 82-78 100-136 104-54 6-80 22-116 78-24 40-42 72-40 74 56 24 92 60 122 124 22 42 60 102 88 132l50 52-52 34c-66 44-48 74 34 60 78-14 140 20 94 50-22 14-24 24-6 42 14 14 18 48 12 80-16 86 26 72 54-16 34-106 48-116 118-74 50 30 62 50 62 104 0 52-6 66-30 56-48-18-36 38 22 106 64 78 102 78 118 4 6-32 26-64 42-70s28-34 28-60c0-28 18-62 42-78 26-18 32-34 20-44-12-6-22-44-22-82 0-54-10-72-48-88-26-10-54-28-62-40-8-14-38-18-70-10-48 10-70 0-134-60l-76-72 104 6c124 8 112-16-26-50-96-24-98-26-104-104-6-120 82-268 196-324 114-60 254-62 264-8 6 36 12 36 86 10 104-36 230-36 230-2 0 16 18 48 40 74s40 36 40 24-8-28-20-34c-30-18-24-104 6-116 16-6 40-2 56 8s56 18 90 18c62 0 248 106 248 142 0 10-22 18-50 18s-90 10-140 24c-72 20-100 20-130 0-48-30-66-30-50-4 6 10 2 38-10 60-22 42 6 58 32 18 6-12 32-16 58-10 28 8 54 0 70-18 36-42 146-58 228-30 40 12 108 62 154 110 72 76 94 88 158 84 42 0 90 10 110 26 30 24 28 30-24 72-30 24-50 52-40 60 8 8 38-6 66-34l50-48 110 58c118 62 128 80 68 112-22 12-36 32-28 42 8 12 28 6 52-14 28-28 46-32 70-16 54 34 52 66-2 80-66 16-46 50 24 44 38-4 54 4 60 30 6 28-2 34-42 24s-50-4-58 38c-10 46 2 54 120 102 72 30 158 74 190 102 32 26 74 48 94 48 26 0 34 10 28 28-8 22 8 32 66 36 70 6 76 10 82 74 6 62 4 66-40 56-42-10-42-10-12 14 32 24 32 28-16 48-28 14-62 24-78 24-20 0-30 22-30 70 0 84-12 86-100 20-84-62-116-110-72-110 16 0 36-10 42-20 8-14-4-18-38-8-42 10-64 0-104-42-40-44-54-50-80-28-20 16-24 30-8 46 28 28 24 52-10 52-44 0-36 34 10 46 22 6 40 28 40 48 0 26 22 44 66 56 44 14 66 34 70 66 4 24 24 54 46 64 24 14 38 42 38 82 0 34-8 56-20 48-10-6-14 0-8 18 6 16 4 44-6 62-18 30-26 28-78-16-76-64-148-100-200-104-70-2-34 42 84 110 74 42 108 72 108 100 0 22-10 40-24 40-54 0-268-68-286-92-12-14-56-30-96-38s-74-22-74-30-24-26-54-40c-52-24-54-26-16-40s38-16-10-36c-28-10-64-44-78-72-20-38-40-50-66-40-20 6-36 0-36-12s-10-16-24-6c-28 16-76 24-214 32-118 6-152-42-82-116 40-44 64-50 178-50 162 0 214-26 146-74l-46-32 102-104 104-106-48-82c-24-44-70-92-102-104-30-12-62-38-72-54-16-28-26-28-72-8-28 14-60 24-70 24-36 0-20-58 22-82 44-22 42-22-14-70-32-26-70-42-84-38-16 6-32-8-38-30s-28-40-50-40c-24 0-32 8-24 22 10 16-20 20-108 14-100-6-118-4-100 18 16 20 14 26-10 26-16 0-36-12-40-24-8-20-16-20-30 2-14 20-28 20-60 4-22-12-66-22-98-20-54 2-54 2 10 18 36 8 82 30 102 48s46 32 58 32c14 0 24 30 24 70 0 58-8 72-50 82-62 16-62 18 2 102 74 96 58 146-66 208-58 30-98 58-92 66 6 6-22 6-62 2-42-6-88-24-106-42-18-16-44-26-60-20s-36 12-42 12c-8 2 6 14 32 28l48 26-54 62c-60 70-100 80-164 34-24-16-86-36-140-42l-96-10 90 50c56 30 124 50 176 52 46 0 84 4 84 10s-18 48-40 90c-28 56-56 82-96 90-30 6-80 22-114 34-32 12-86 22-118 22-50 0-52 2-20 20 86 48 66 114-34 114-44 0-68 20-116 90-88 132-104 166-134 288-40 170-36 202 20 202 66 0 102 40 132 148 24 92 26 92 112 92 104 0 268 68 430 180 100 68 138 82 258 92l140 14v150c0 132 6 158 54 222 124 162 154 174 228 100 38-38 42-56 28-166-6-66-30-150-52-186l-40-64 96-48c138-70 172-116 174-230 2-86-8-108-82-194-98-108-102-130-46-170 44-32 52-100 18-162-14-28-14-60 2-106 14-44 14-84 2-118-30-76 14-102 144-86 56 8 138 14 178 12 82-2 218 80 248 150 10 22 36 42 58 46 126 18 124 14 114 144-6 90-2 120 18 120 16 0 10 12-14 30-38 28-38 28 2 18 24-6 68 10 108 42 84 60 134 64 152 10 8-22 20-36 30-30 24 14 60-56 60-114 0-28 20-70 44-96 44-46 46-46 54-10 4 22 22 50 42 64 18 12 62 80 98 150 34 70 82 150 106 180 36 46 40 66 24 110-18 50-12 64 60 134 46 42 110 86 146 94 34 10 84 36 110 58 40 34 42 42 16 60-26 16-24 20 6 20 20 0 40 14 46 30 8 16 24 30 36 30 14 0 40 12 58 26 28 20 30 42 16 140-14 102-12 114 20 114 44 0 30 62-24 112-46 42-48 80-8 96 16 6 30 22 30 38 0 18 22 24 70 18 78-10 130 22 130 78 0 22 8 38 18 38 40 0 70 182 38 226-30 38-116 26-116-18 0-36-40-34-88 2-54 40-78 38-66-8 12-48-32-62-200-62-126 0-126 0-126-58 0-34 26-88 62-134 34-44 80-114 102-158s60-102 84-128l42-48-44 24c-24 12-66 22-94 22s-80 26-116 58c-114 98-138 104-370 90-234-14-322 6-340 72-6 22-34 44-66 50-34 8-88 48-128 100-90 108-94 138-6 56 126-124 368-204 430-142 56 56 0 134-96 136-38 0-44 4-20 18 16 12 36 14 44 10 30-20 58 14 38 48-46 80 94 206 224 200 56-2 74-12 74-38 0-50 68-128 98-110 12 8 18 32 12 54-8 26-4 38 18 38 48 0 38 56-10 70-24 8-74 36-112 62-40 26-108 58-154 70-46 14-106 50-136 82-38 44-62 56-94 46-64-20-52-94 28-164 86-76 94-126 10-66-32 24-60 36-60 28 0-6-30 10-68 40-38 28-84 52-102 52-76 0-190 90-222 174s-26 160 10 136c10-6 26 0 34 12 10 16-8 20-60 14-50-6-72 0-72 18 0 14-14 26-32 26-16 0-26 8-20 18 14 22-76 62-138 62-34 0-46 8-38 30 6 16-10 62-34 104-26 42-68 118-92 172-52 112-68 120-52 24 6-40 2-70-8-70-24 0-22 112 2 166 10 18 12 46 6 62-6 14 0 38 12 50 18 18 12 26-20 34-48 12-80 68-40 68 14 0 8 10-12 22-18 10-42 16-50 10-10-6-32 16-52 50-18 32-48 58-62 58-16 0-44 22-62 50-18 26-48 54-68 60-54 18-120 134-120 214 0 38 28 142 60 232 70 194 76 284 20 334-38 34-42 34-80 0-58-52-140-242-140-324 0-90-84-168-164-152-32 6-74-2-102-20s-82-28-144-24c-56 2-126 6-160 8-42 2-52 8-32 20 14 10 20 28 14 40-8 12 0 22 16 22 36 0 42 32 10 50-12 8-34-2-48-22-16-22-30-28-30-14 0 18-16 18-64 2-194-60-252-60-356-4-182 98-268 218-222 302 14 28 12 72-12 158-62 242 6 492 176 634 82 68 86 68 154 40 38-16 94-26 124-22 68 6 120-52 156-178 28-94 88-126 236-126 104 0 120 20 76 102-18 36-36 92-42 126-4 34-22 88-38 120s-28 80-28 106-10 66-20 88c-20 36-14 38 170 38 198 0 272 24 298 94 8 18-2 106-20 196-40 191.98-26 251.98 86 349.98 78 68 94 72 192 30 140-58 180-26 66 52-54 36-64 52-46 74 16 20 14 32-8 46-36 22-52 22-68-2zm436-3323.98c12-44 10-44-16-8-34 44-40 80-12 64 10-6 22-32 28-56zm-450-312c148-74 204-110 204-130 0-8-20-2-44 14-24 18-74 32-108 32s-86 18-114 40c-62 50-102 52-86 6 10-30 8-30-18 2-26 34-26 42 6 64 44 34 28 36 160-28zm-478-48c12-36 16-104 10-160-10-78-6-106 22-136 20-22 42-36 48-30 8 4 24-18 36-50 26-72-4-90-84-48-30 16-60 24-68 18-8-4-30 20-50 56-26 46-26 54-4 26 50-62 54-28 12 96-38 104-40 218-6 278 20 34 64 10 84-50zm422-180c0-22 10-56 22-78 14-30 14-48-4-70s-16-28 8-28c18 0 38 18 44 40 16 50 90 54 90 4 0-88-120-166-146-96-10 24-26 24-112-2-138-40-196-28-96 20 58 28 74 48 74 88 0 30-16 70-34 92-34 38-34 40 10 16 56-30 84-14 84 52 0 42 4 48 30 26 16-14 30-42 30-64zm456 38c50-32 26-68-40-60-150 18-192 28-202 52-6 20 20 26 104 24 62 0 124-8 138-16zm-536-314c-68-22-120-22-70 0 22 10 58 16 80 16 32 0 30-4-10-16zm-170-90c-4-10-12-44-18-72-8-34-28-58-58-66-26-6-56-30-66-54-24-52-140-68-182-26-16 16-42 28-58 28s-28 8-28 16c0 10-36 34-78 54-44 20-100 56-124 82-46 48-34 64 22 28 18-12 34-10 44 6 12 18 42 10 116-30 54-32 116-56 134-56 32 0 32 2 2 34-32 30-32 34 10 58 52 28 292 28 284-2zm-3370-178c0-58-78-156-188-234-112-82-138-72-52 22 40 44 84 80 98 80 12 0 32 24 42 52 26 66 26 68-14 70-28 0 40 36 110 56 2 2 4-20 4-46zm2320-354c0-22-8-34-20-28-10 6-20 30-20 52s10 34 20 28c12-6 20-30 20-52zm-90-222c-38-106-54-126-98-132-42-6-52 2-52 34 0 24 14 42 30 42 18 0 24 12 18 30-18 44 46 132 82 118 20-8 30 0 30 22 0 18 8 28 18 22s-4-68-28-136zm3378-126c22-16 30-30 20-30-12 0-38 14-60 30-20 16-28 28-18 28 12 0 38-12 58-28zm-4838-1056c12-16 52-44 92-60 38-16 86-52 104-82 20-28 52-52 74-52s40-8 40-20c0-38-88-8-156 56-38 34-154 30-184-6-14-16-42-30-64-30-38 0-38 2-10 48 34 52 26 72-28 72-18 0-38 12-44 28s-42 32-78 36l-66 8 70 22c86 30 222 18 250-20zm-546-688c-6-18 16-26 70-26 64 0 84-10 106-50 36-66 18-78-68-50-40 12-92 16-116 8l-44-14 44-34c24-20 44-42 44-48 0-22-74-12-162 20-48 18-128 44-178 60l-90 28 92-12c102-10 208 20 186 54-6 12-38 18-70 14-38-6-52-2-40 10s8 36-10 64c-26 42-26 46 10 56 24 6 54-6 74-28 18-20 56-38 84-38h50l-48 54-48 54 62-50c34-26 58-60 52-72z" fill="#E7E6E6"/><path d="M8566 9389.22c-10-18-56-32-114-36-62-4-102-16-108-34-6-20 10-24 74-18 92 8 102-10 38-78l-42-46 108-4c170-6 200 0 246 40 24 20 58 44 78 52 46 16 34 62-18 64-20 2-72 4-114 6-60 2-80 12-88 42-12 46-38 52-60 12zm-544-24c-42-30-44-36-14-52 34-20 104-6 148 30 22 16 22 24 0 36-40 26-82 22-134-14zm964 0c-16-46 20-72 82-56 66 16 66 36 2 64-66 30-68 30-84-8zm-916-228c34-38 34-40 0-40-22 0-62-22-90-50-32-30-106-64-192-86-90-22-138-44-132-60 12-36-18-30-106 26-44 26-98 50-120 50-34 0-30-8 26-64 56-58 78-66 200-72 130-8 142-4 332 94 108 56 204 102 214 102 22 0 156 88 158 102 0 20-112 38-226 38-98 0-100 0-64-40zm1226-2872c-54-28-80-108-36-108 12 0 20 14 20 30 0 22 24 30 94 30 90 0 92 0 56 40-42 48-62 48-134 8zm34-376c-34-14-72-40-88-58-24-30-22-34 20-34 54 0 218 76 218 102s-80 20-150-10zm-6110-412c-42-42-120-184-120-220 0-10 32-20 70-20 70 0 70 2 70 86 0 48 14 104 30 126 56 74 18 96-50 28zm-2032-630c-18-48 4-84 70-112 34-16 62-40 62-54 0-36 52-50 94-26 34 20 34 22-8 34-40 10-42 16-14 42 36 36 12 72-74 118-72 36-116 36-130-2zm-1110-430c-46-36-46-38-8-40 22 0 60-6 84-12 54-14 88 46 44 74-42 26-68 22-120-22zm10752-38l-160-56-126-188c-188-282-222-342-298-544-64-170-68-196-56-330l14-148 106-48c78-36 110-62 118-100 8-30 10-58 4-64-6-4-66 6-134 24-122 36-122 36-170-10-52-48-60-104-28-186 16-42 8-62-52-134-38-46-66-94-60-106 60-142 60-156-32-354-48-102-122-234-162-292-72-98-80-104-210-128-74-14-256-26-404-28-242 0-276-4-330-42-32-24-98-62-144-86-106-54-246-236-246-320 0-58 6-62 176-114 96-28 238-64 314-76 134-24 142-28 176-99.998 42-88 32-112-48-112-64 0-138-30-138-58 0-8 128-82 286-162 156-80 324-168 374-196 56-30 146-54 240-66 82-8 218-26 300-38s188-28 234-34c88-12 166 4 426 86 82 26 152 48 156 48 22 0-32-48-136-116l-118-80 174-84c122-58 192-80 234-74 34 4 126 20 206 34l148 26 42-54c44-52 50-54 334-66 448-18 766 38 1150 204l80 34-148 56c-124 46-140 56-100 66 26 8 78 14 114 14 74 0 82 28 34 122l-32 60 84-44c70-34 106-40 200-30 106 10 116 8 178-52 60-56 74-60 168-50s332 92 332 114c-2 26-274 166-342 174-64 10-72 16-48 34 28 20 24 30-28 80-34 32-108 92-166 132-122 83.998-226 233.998-206 297.998 6 22 44 70 82 106l68 64-102 104-100 102 80 52c46 30 82 56 82 60 2 2 14 70 28 150l24 144-96 108c-98 112-122 158-166 316-22 80-22 114 2 206 22 78 24 122 8 148-18 36-356 254-450 290-22 8-126 36-230 62-272 66-288 76-378 196-80 108-82 110-306 180l-226 72-64 176c-36 96-102 290-146 432l-82 254-74-2c-40 0-146-26-234-56zm-3010-212c-46-56 34-144 84-94 18 18 16 36-4 74-30 58-46 62-80 20zm-332-80c-8-16-8-42-2-58 12-32 166-86 186-66 28 26-20 100-84 126-84 34-86 34-100-2zm-156-182c-12-48-20-50-88-38l-72 14 54-56c30-30 52-66 46-80-12-28 26-188 54-222 26-34 94-34 94 0 0 14-12 38-24 52-22 20-20 22 6 12 42-16 280 124 292 172 6 22 26 38 46 38 56 0 86 50 50 80-38 32-160 10-208-38-36-36-40-34-124 40-48 42-94 76-100 78-8 0-20-24-26-52zm812-620c-76-32-84-88-20-148 60-56 144-46 152 18 10 64-10 136-42 148-14 6-54-2-90-18zm160-112c14-38 86-42 116-6 22 26 16 30-50 30-50 0-70-8-66-24zm-3448-152c-22-54-34-60-132-68-90-8-120-20-158-64-26-30-46-62-46-72 0-34 200-64 340-50 90 10 140 6 140-6 0-28-140-50-344-52-136-2-182-10-208-36-34-32-30-36 54-74 76-36 80-42 36-42-108 0-178-24-178-60 0-20 12-46 28-60 16-12 26-34 20-48s14-36 42-52c66-36 52-46-26-16-34 14-66 40-72 62-4 20-28 42-50 48-24 6-44 34-52 68s-30 60-56 68c-24 6-78 22-118 34-72 20-78 18-156-52-44-40-98-72-120-72-50 0-50-22 0-114 22-42 40-86 40-98s18-46 40-74c38-48 40-56 12-112-30-56-28-58 14-70 138-34 268-36 330-4 34 18 110 32 168 32 128 0 262 68 272 136 4 24-4 44-18 44s-20 4-14 10 34 0 62-12c70-32 122 8 104 76-14 58 30 62 66 6l26-42 80 46c46 26 76 54 70 70-6 14-2 26 8 26 12 0 20-8 20-20 0-10 20-20 44-20 40 0 42-2 6-40s-34-40 12-40c120 0 134 14 198 188 14 40 28 52 42 38s6-54-22-126c-48-122-40-192 22-160 22 12 48 16 60 10 10-8 36-2 54 14 30 24 32 22 6-8-14-20-40-36-56-36-54 0 8-54 76-68 122-24 182 66 98 144l-40 38 40 88c22 48 40 124 40 168 0 80 2 82 130 146 72 36 144 64 160 64 18 0 30 20 30 50 0 46-6 48-70 40-38-4-74 0-80 12-8 10-22 14-32 8-10-8-18 2-18 20 0 26 8 28 42 10 22-14 42-20 44-16s16 26 28 50c22 38 20 48-12 66-58 30-114 24-264-24-82-26-130-52-122-64 6-12-14-2-44 24-32 24-68 44-82 44-12 0-50 12-82 28s-138 34-234 40l-176 14-22-58zm1228-486c-30-34-102-92-158-130-58-36-106-82-106-98 0-46 56-60 98-22 20 18 50 32 70 32 50 0 34-86-24-110-54-24-48-50 22-90 38-22 64-24 108-8 38 14 78 14 122 0 52-16 72-12 98 14 26 24 28 34 8 34-16 0-22 12-14 30 6 18-10 40-44 58-52 30-52 30-8 32 24 0 50 14 56 30 8 16 20 26 30 20 8-6 26 8 38 30 14 26 14 40 2 40s-16 12-12 26c6 12 2 34-6 44-16 24-192 130-214 130-8 0-38-28-66-62zm-1258-538c-50-20-62-60-20-60 48 0 178-44 166-56-8-6-44-10-82-8-52 4-70-2-70-26s-14-16-52 24c-28 32-54 46-60 34s-32-18-58-12c-30 4-50 0-50-14 0-12-26-22-60-22-64 0-80-28-30-48 16-6 24-24 18-42-6-16-4-30 8-30 10 0 24-18 30-40 6-24 28-40 52-40 28 0 38-10 30-30-10-24 4-30 68-30 46 0 88 10 94 20 6 12 36 20 66 20 34 0 84 28 134 74 60 54 100 74 164 80 98 8 112-16 32-54-50-22-52-26-20-38 34-12 32-16-12-40l-48-26 58-58c32-32 68-58 78-58s38 40 62 90c48 100 80 120 140 88 58-32 96-8 96 60 0 100-18 122-100 122-44 0-84 10-92 22-6 12-34 16-58 10-28-8-120 12-224 48-192 66-196 66-260 40z" fill="#E7E6E6"/><path d="M7078 1953.22c0-34-4-38-14-16-20 44-160 52-176 12-10-24-20-26-52-10-74 40-130-68-88-166 10-22-4-52-42-94-52-58-62-60-134-44-60 14-94 12-134-10-68-34-110-104-82-132 34-34 180-22 270 22 88 42 274 54 274 18 0-12 18-16 40-10s40 4 40-6c0-8 52-30 114-50 64-20 102-40 86-46-32-10-80-62-80-88 0-8 38-16 86-16 68 0 96 12 130 50 28 32 64 50 98 48l56-2-54-18c-70-26-84-70-46-144l30-62-48 46c-38 36-62 44-112 32-34-8-68-26-74-42-30-82 166-170 292-130 38 12 74 18 78 14 12-12-118-151.998-164-175.998-40-22-40-20-6 18 18 22 34 44 34 49.998 0 8-40 28-88 46-50 20-94 46-100 62-16 40-66 34-80-6-6-20-8-12-4 20 4 34-4 54-18 54s-30 20-36 44c-12 44-12 44-56 4-40-34-44-34-32-2 12 30 8 32-26 14-30-16-40-16-40 2 0 28-176 6-216-28-24-18-22-24 10-36 30-12 28-16-14-16-28-2-70-24-96-50l-46-50 90-12c50-8 88-22 82-30-6-10 10-21.998 34-25.998 26-6 10-6-34-2-44 2-102 11.998-128 19.998-34 10-44 8-34-8 8-13.998 6-23.998-6-23.998-10 0-26 10-32 20-16 27.998-36 25.998-82-8-36-28-36-30 12-50 50-20 48-20-14-20-42-2-72-16-86-40-30-58-28-58 68-48 56 8 92 2 102-14 10-18 4-20-24-12-22 8-64 4-94-8l-52-20 40-40c22-22 56-40 76-40 28 0 28-4 6-18-58-36-8-82 92-84 52-2 78-6 56-12-92-20-102-28-66-48 64-36 166 2 262 94 60 56 110 88 144 88 30 0 50 12 50 28 0 14 14 40 32 54 30 24 32 22 20-18-14-42-10-46 32-40 30 4 48 22 52 52 4 24 20 44 38 44 20 0 28 12 20 38-8 30 4 40 48 46l58 10-42-40c-22-20-38-52-34-70 6-28 34-34 162-34 84 0 154-6 154-14 0-10 18-16 42-16 22 0 126-20 230-44 146-32 182-48 156-62-30-18-30-22 14-58l48-38-50 24c-28 12-70 40-94 62-24 24-104 52-190 68-176 34-174 34-132 0 30-22 28-26-24-26-36 0-60 12-60 28 0 18-30 26-104 26-132 0-180-26-116-60 24-12 38-28 34-34-6-6-32 4-58 22-52 38-130 42-210 10-52-20-54-24-16-38 34-14 30-18-22-18-74-2-96-20-66-56 18-20 14-26-20-26-24 0-72-14-106-32l-64-32 50-28c26-14 84-28 128-28s98-14 118-30c22-16 74-30 118-30 46 0 72-8 64-20s10-20 38-20c32 0 52-12 52-30 0-46 94-36 166 18 54 40 252 112 308 112 8 0-34-28-92-62l-110-64 56-46c34-30 80-48 122-48 38 0 74-8 80-20 18-30 134-24 216 10 100 42 106 38 40-20l-56-50 150 12c82 8 168 24 192 38 34 22 44 22 60-2 30-46 254-70 426-46 170 24 186 32 140 64-26 20-6 24 100 26 120 2 350 52 386 86 8 8-36 44-96 80-92 54-146 70-286 86-172 20-232 34-140 38 46 0 46 2 8 20-44 20-52 22 138-14 108-20 88 28-40 92-54 26-158 82-230 124s-152 76-180 76c-32 0-40 6-22 16 54 34-108 132-186 112-36-10-50-6-46 14 4 16-28 32-82 44-72 14-84 21.998-56 35.998 44 26 44 58 0 58-26 0-28 6-10 24 40 40 28 56-40 56-50 0-58 6-40 24 40 40 28 74-34 106-44 22-74 24-112 10-46-18-50-16-40 26 10 34-2 56-48 90-72 52-82 94-20 78s98 4 98 56c0 40-20 52-134 88-162 52-166 52-166 4 0-36-12-38-164-30-216 14-204 12-360 8-76-2-136-10-136-18s-40-12-88-12-84 6-78 16c4 8 26 14 46 14 56 0 68 34 16 50-40 14-38 18 36 62 44 28 96 44 118 40 24-6 68-4 100 4 36 10 86 6 130-8 38-12 134-30 214-38 128-12 152-8 224 32 84 46 98 66 60 88-12 10-8 24 14 40 34 24 32 26-6 38-24 8-48 26-54 42-8 22-42 30-118 30-90 0-114-8-142-44-16-26-26-32-20-12 14 40-40 52-276 54-170 4-176 2-178-42z" fill="#E7E6E6"/><path d="M6436 1943.22c-126-52-96-140 58-174 80-18 146 40 146 126 0 88-68 104-204 48zm-416-76c0-16-10-30-22-30-16 0-14-12 4-34 26-30 20-30-70-18-82 12-102 10-132-24-22-22-32-46-26-52 8-6-10-12-40-12-58 0-62-6-82-84-12-52-8-56 44-56 64 0 134 64 118 108-8 18 6 32 42 38 68 14 74 6 34-32-68-68 0-104 84-44 24 16 48 22 54 12s-2-22-18-30c-70-26-22-52 98-52 148 0 162 12 176 144 8 74 4 96-22 106s-26 14-2 30c46 28 8 46-120 52-96 6-120 2-120-22zm-400-18c0-38 60-58 92-30 44 36 32 58-32 58-38 0-60-10-60-28zm-1288-70c-14-22 44-74 114-100s74 12 8 74c-48 46-104 58-122 26z" fill="#E7E6E6"/><path d="M4230 1703.22c-10-24-18-28-24-10-14 38-160 30-174-10-16-38 32-86 86-86 18-2 68-38 112-80 88-88 186-130 262-112 26 8 48 4 48-8 0-30 86-24 130 8 36 26 36 28-6 40-34 12-40 26-32 70 20 96-112 160-182 90-30-30-34-30-44 10-8 32-22 42-48 36-26-8-38 0-38 26 0 20-14 42-32 48-42 16-42 16-58-22zm520-164c-14-24 62-50 90-32 10 6 20 20 20 32 0 24-94 24-110 0zm836-86c-46-22-80-88-58-112 22-22 122 52 128 94 8 46-4 50-70 18zm1280-10c-14-4-26-26-26-48 0-46 74-52 132-8 32 26 34 32 8 50-32 20-74 24-114 6zm-1940-30c-50-24-62-106-20-122 66-26 294-38 294-16 0 12-8 22-20 22-10 0-20 22-20 48 0 36-14 50-54 60-32 6-74 16-96 20-22 6-60 0-84-12zm1496-18c-34-14-42-26-28-40 28-28 172-46 240-28l56 14-48 38c-50 40-142 48-220 16zm-1680-80l-46-38h60c32 0 70 12 82 28 38 44-42 52-96 10zm1102 20c6-16 36-26 74-26 34 2 62-4 62-12 0-42-72-66-216-68-130-2-154-8-160-36s8-36 64-36c38 0 76-8 82-20 6-10-6-20-30-20s-36-8-30-20c18-28-18-24-46 4-18 18-30 20-40 4-8-12-26-26-40-30-46-16 20-72 102-85.999 62-12 82-6 120 31.999 26 28 64 44 90 40 64-10 204 58 204 98 0 18 14 44 30 58 18 14 30 46 26 68-4 34-22 42-86 46-44 4-110 12-148 18-52 10-64 8-58-14zm446-28c-32-26-34-36-14-48s14-20-24-30c-42-10-52-24-52-72s8-60 46-60c24 0 72 14 104 32 34 18 82 38 108 46 70 20 76 98 12 122-98 38-140 40-180 10zm-1420-90c-16-24 94-74 206-92 86-14 164 16 164 62 0 22-30 28-138 28-76-2-158 4-178 12-22 6-46 2-54-10zm1216-319.998c-58-24-60-74-6-90 50-16 100 20 100 72 0 42-24 46-94 18z" fill="#E7E6E6"/></svg>