<svg width="31980" height="17246" viewBox="0 0 31980 17246" fill="none" xmlns="http://www.w3.org/2000/svg"><path d="M8634 17135.3c-148-72-226-122-238-152-12-26-48-108-82-186-112-246-118-276-92-468 20-162 38-318 112-1012 18-154 40-324 50-380 10-54 46-248 80-430s70-370 80-420c142-702 146-732 130-950l-14-214-120-82c-310-216-298-200-592-752l-270-510 24-110c16-62 38-160 50-218 18-78 54-146 146-262 66-84 130-186 142-224 30-92 4-322-42-366-18-20-34-56-34-84 0-26-8-48-20-48-10 0-14-14-8-30 10-24 20-24 54-6 24 12 54 36 68 54 20 28 24 28 38-8 8-22 48-90 90-152 74-110 80-114 250-165.96 154-48 184-52 256-32 46 12 212 54 372 89.96 160 38 312 74 338 80s136 100 246 206 218 204 242 218 98 30 164 38c142 16 182 54 420 378l146 200 394 140c334 118 408 152 508 232 74 62 140 98 182 102 58 6 70 18 94 86 62 176 50 216-150 502l-182 264-22 294c-22 318-18 308-164 522-100 148-100 148-192 148s-176 44-386 204c-70 54-74 62-88 210l-14 156-192 250c-280 364-346 440-388 440-20 0-90-22-156-48-84-34-120-42-120-24 0 14 24 38 52 52 66 36 108 118 108 216 0 148-180 262-416 264-52 0-82 8-74 20 6 12 6 62-2 112-16 112-70 146-178 114-70-22-70-22-70 40 0 34 10 90 24 128 22 58 18 78-32 184-46 94-68 120-114 130-36 6-68 32-86 70-28 54-28 62 10 108 22 28 56 58 78 64 54 18 50 70-10 152-26 38-64 96-80 128-18 34-60 82-94 112l-60 50 26 160c24 136 36 168 98 230 108 110 160 138 260 140l90 2-160 76c-88 42-182 78-210 78s-148-50-270-110z" fill="#E7E6E6"/></svg>