<svg height="50" viewBox="0 0 52 100" fill="none" xmlns="http://www.w3.org/2000/svg"><path fill-rule="evenodd" clip-rule="evenodd" d="M34.662 15.047a.474.474 0 0 1 .6.313c0 .125.174.15.274.213.302.194.654.294 1.012.288.175 0 .287.188.312.401a1.03 1.03 0 0 1-.125.69l-.312.5a.312.312 0 0 0 .35-.2l.212-.388a.888.888 0 0 1 1.25-.426c.499.25 1.023.426 1.548.639a.85.85 0 0 1 .537.363c0 .113.15.1.237.063a.324.324 0 0 1 .35.075 1.78 1.78 0 0 1 .537 1.253.36.36 0 0 0 .362-.138.686.686 0 0 1 .775-.1l1.324.476a6.225 6.225 0 0 0 1.923.1c.45-.012.89.13 1.25.401.52.352.99.774 1.398 1.253.313.363.737.564 1.075.89a.86.86 0 0 0 .612.175h.55c.561 0 .836.338 1.01.864a6.535 6.535 0 0 1 0 3.76c-.13.38-.329.732-.586 1.04-.237.363-.537.688-.775 1.077a.976.976 0 0 1-.3.3 3.42 3.42 0 0 0-1.336 1.842c-.1.3-.252.58-.45.827-.137.188-.287.389-.512.401-.224.013-.362.188-.4.451a8.52 8.52 0 0 0-.074 2.506c.044.464.032.93-.038 1.391-.062.268-.1.54-.112.814a2.17 2.17 0 0 1-.387 1.253 1.256 1.256 0 0 0-.2.84 1.959 1.959 0 0 1-.425 1.504.914.914 0 0 0-.15.375c-.11.333-.28.642-.5.915a1.594 1.594 0 0 0-.424 1.002.904.904 0 0 1-.587.89.762.762 0 0 0-.5.551.45.45 0 0 1-.412.351 2.08 2.08 0 0 1-.55.075 5.677 5.677 0 0 0-1.723.088h-.138c-.112.464-.587.363-.811.664a.899.899 0 0 1-.563.3 2.197 2.197 0 0 0-.999.49c-.63.53-1.218 1.109-1.76 1.728a1.807 1.807 0 0 0-.426 1.504c.005.291.06.58.163.852a.252.252 0 0 1 0 .188 2.11 2.11 0 0 0-.15 1.002 1.42 1.42 0 0 1-.65 1.253 1.26 1.26 0 0 0-.437.514 4.67 4.67 0 0 0-.8 1.73 3.87 3.87 0 0 1-.536 1.002c-.088.175-.213.338-.3.526-.098.203-.25.376-.437.5l-.6.477a1.68 1.68 0 0 0-.562.915 2.37 2.37 0 0 1-.7 1.177 2.43 2.43 0 0 0-.586.827 2.43 2.43 0 0 1-1.062 1.253.811.811 0 0 1-.712.1 1.37 1.37 0 0 0-.637-.062 2.167 2.167 0 0 1-1.411-.338 1.46 1.46 0 0 0-.613-.226.822.822 0 0 1-.774-.443.126.126 0 0 0-.088-.041.124.124 0 0 0-.05.008c-.087 0-.087.138-.087.225a.626.626 0 0 0 .337.464c.302.186.575.414.812.677a.727.727 0 0 1 .175.79c-.175.55-.1.75.4.976a.437.437 0 0 1 .275.426 1.56 1.56 0 0 1-.2.978c-.137.2-.262.426-.412.626-.17.208-.29.452-.35.714a.854.854 0 0 1-.525.664c-.68.329-1.404.56-2.148.69-.35 0-.687.162-1.037.225a3.276 3.276 0 0 1-1.623-.125.993.993 0 0 0 .15.576.904.904 0 0 1 0 .89c-.167.297-.22.644-.15.977.074.664 0 .764-.538 1.065a1.558 1.558 0 0 1-1.66 0c-.213-.138-.45-.213-.675-.338-.225-.126-.225 0-.25.15-.031.17-.031.344 0 .514.075.265.113.539.112.814a.717.717 0 0 0 .4.777c.1 0 .137.188.262.2.125.013 0-.25.125-.288.159-.065.322-.12.487-.163.113 0 .175.113.225.213.095.261.117.543.063.815 0 .263-.238.338-.438.388a.386.386 0 0 1-.437-.2c-.262-.401-.274-.389-.6 0 .126.2.35.175.525.263.175.088.188.213 0 .326-.187.112-.187.125-.274.188a1.25 1.25 0 0 0-.575 1.253 1.332 1.332 0 0 1-.325 1.253.439.439 0 0 0-.075.376c0 .363 0 .413-.312.425a2.008 2.008 0 0 0-1.799 1.492.892.892 0 0 0 0 .739 3.2 3.2 0 0 0 .85 1.052c.191.143.423.222.662.226.374 0 .524.175.5.589-.026.413-.176.714-.176 1.102a.563.563 0 0 1-.237.364c-.548.426-1.054.904-1.511 1.428a1.028 1.028 0 0 0-.287.814 2.3 2.3 0 0 1-.225 1.04.776.776 0 0 1-.462.464 1.536 1.536 0 0 0-1.05 1.253.867.867 0 0 0 0 .589c.105.29.16.594.163.902.057.42.225.819.487 1.153.087.138.287.275.175.476-.113.2-.313.088-.475 0a3.538 3.538 0 0 1-.387-.15.224.224 0 0 0-.25.087c-.075.1 0 .188 0 .263a.302.302 0 0 0 .294.183.298.298 0 0 0 .118-.032c.2-.088.313 0 .425.175.188.255.344.533.462.827 0 .125.1.263-.125.263s-.1.125 0 .175c.17.21.301.447.387.702.197.335.46.625.775.852.4.339.824.652 1.249 1.028a1.024 1.024 0 0 0 .837.35c.162 0 .35 0 .387.251.037.25-.137.514-.362.514a6.583 6.583 0 0 0-1.124.175 1.41 1.41 0 0 0-.413.176c-.224.075-.087.112 0 .213.088.1 0 .35-.112.313a2.493 2.493 0 0 1-1.411-.539c.035.318.147.623.324.89.113 0 .1-.238.213-.213a.96.96 0 0 1 .3.15c.174.165.31.366.4.589a.25.25 0 0 1-.076.288c-.075 0-.175.175-.275 0-.1-.175-.225-.075-.337-.113-.112-.037-.237 0-.25-.188-.012-.188.2 0 .25-.238a.45.45 0 0 1-.624-.238s0-.075-.1-.1c-.1-.025-.338 0-.487-.113-.15-.113-.15-.338-.338-.376-.187-.037 0 .138 0 .188 0 .05.163.213 0 .326-.162.113-.262.075-.374 0a2.326 2.326 0 0 0-.637-.576c-.113 0-.1-.2 0-.314.1-.112.087-.313 0-.363-.313-.125-.637-.338-1-.188l-.125.163a.647.647 0 0 0-.262 0c-.237 0-.3-.15-.275-.376h.462c-.237-.188-.462-.338-.237-.689.088-.125-.112-.376-.237-.3-.125.074-.462-.076-.762-.201.112.25.262.463 0 .564-.262.1-.387-.076-.437-.376-.05-.3-.35-.25-.525-.364-.175-.112-.187 0-.275 0-.087 0-.274-.112-.137-.313.137-.2.137-.213 0-.313s-.1-.501-.387-.514c-.288-.012-.213 0-.225-.188-.013-.188.1-.2.212-.225.113-.025.15-.075.113-.176-.038-.1-.1-.1-.175-.1-.075 0-.287.188-.437.138-.15-.05 0-.326-.175-.439a.776.776 0 0 1-.412-.814c.396.32.813.613 1.249.877a.412.412 0 0 0 .624 0 .436.436 0 0 1-.462-.276c-.112-.213-.212-.438-.487-.5-.275-.063-.2-.276-.175-.477.025-.2 0-.2 0-.175 0 .025-.287-.213-.387-.351-.15.138-.088.363-.2.489a1.14 1.14 0 0 1-.487-1.329.377.377 0 0 1 .325-.413c.212 0 .462.113.612-.188 0-.088.137 0 .175.075.11.151.178.328.2.514 0 .225.162.363.212.551.05.188.075 0 .112 0 .038 0 .113 0 .075-.1-.187-.238 0-.627-.35-.814a.602.602 0 0 1-.187-.339c0-.113-.087-.138-.2-.15-.112-.013-.325-.2-.175-.414a.829.829 0 0 0 0-.764c-.087.326-.187.626-.262.94-.075.313-.137.313-.275.275-.137-.037-.337 0-.45.238a.137.137 0 0 1-.162 0c-.1 0-.1-.125-.087-.213.01-.321.145-.626.374-.852.15-.137.225-.212.163-.438a.39.39 0 0 1 .137-.451c.2-.138 0-.401.138-.614.137-.213 0-.388-.15-.539a.577.577 0 0 1-.138-.476.691.691 0 0 0-.25-.664.35.35 0 0 1 0-.551c-.237 0-.337.35-.512.15a.602.602 0 0 1-.1-.626c.075-.264.15-.514.238-.765a.565.565 0 0 0 0-.488.402.402 0 0 1 0-.439.402.402 0 0 0 .112-.276c0-.263.125-.376.337-.35a.388.388 0 0 1 .313.476 2.764 2.764 0 0 0 0 .651.314.314 0 0 0 .087.276.489.489 0 0 1 .1.551.226.226 0 0 0 .15.25.791.791 0 0 0 0-.726 1.583 1.583 0 0 1-.15-.589c0-.288 0-.35.325-.313a.75.75 0 0 0 .512 0c-.088-.263-.312-.2-.462-.263-.15-.063-.238 0-.362 0-.125 0-.1-.2-.1-.3 0-.101.137-.577.362-.765a.627.627 0 0 0 .2-.338c0-.214-.125-.49-.275-.401-.362.188-.587 0-.824-.213-.175 0-.088.175-.1.263-.013.087-.075.275-.238.263-.162-.013-.2-.15-.2-.3a.691.691 0 0 1 .175-.565c.2-.188.338-.45.587-.551 0-.15-.1-.175-.137-.263-.038-.088 0-.351.2-.376a6.04 6.04 0 0 1 .712 0c-.288-.125-.512-.125-.687-.288-.175-.163-.138-.213 0-.263.137-.05.2-.264.287-.401.275-.502.3-.865-.25-1.128a.175.175 0 0 1 0-.313.65.65 0 0 0 .35-.501c.075-.351.075-.351.425-.326h.175c0-.126 0-.113-.088-.138-.087-.025-.262-.113-.175-.276a.263.263 0 0 1 .412 0 .662.662 0 0 1 .338.501 2.25 2.25 0 0 0 0 .878.59.59 0 0 1-.175.55c-.088.114-.163.176 0 .314a.277.277 0 0 1 0 .326c0 .113 0 .163.075.188.075.025.187 0 .187-.088 0-.3.212-.576 0-.89a.464.464 0 0 1 .137-.663c.088 0 .213-.126.1-.276-.112-.15 0-.339 0-.501a.878.878 0 0 0 .113-.827.365.365 0 0 1 0-.2 5.35 5.35 0 0 0 .45-1.692c0-.163.174-.213.262-.376-.225-.126-.412-.276-.225-.589a.201.201 0 0 0-.1-.25c-.075-.063-.15 0-.2 0-.1.212-.425.15-.462.338-.037.188.075.426.112.639.038.213 0 .138 0 .15-.387.3-.15.74-.187 1.115.02.129.02.26 0 .389-.175.388-.287.463-.637.313-.35-.15-.387-.313-.262-.702.063-.338.08-.684.05-1.027a1.458 1.458 0 0 1 .4-1.253.176.176 0 0 0 0-.213 2.161 2.161 0 0 1 0-1.403 5.97 5.97 0 0 0 0-.665c.008-.33.136-.647.362-.89a.816.816 0 0 0 .15-.525 2.714 2.714 0 0 0-.15-.953c0-.1-.1-.213-.088-.288a7.54 7.54 0 0 0-.125-1.679c0-.3 0-.576.375-.664.375-.088.15-.25.137-.388a.478.478 0 0 1 .188-.489.74.74 0 0 0 .225-.438 7.735 7.735 0 0 1 .537-1.667c.157-.36.27-.74.337-1.128 0-.363.212-.714.262-1.077.162-.605.25-1.228.262-1.855 0-.714-.137-1.428-.212-2.142a1.759 1.759 0 0 1 .25-1.253 1.08 1.08 0 0 0 0-.94 1.119 1.119 0 0 1 .1-1.065 1.67 1.67 0 0 0 .187-.626c.1-.67.25-1.332.45-1.98.126-.358.152-.743.075-1.115a1.08 1.08 0 0 1 .112-.79c.107-.194.155-.417.138-.638v-1.767a.797.797 0 0 0 0-.3.804.804 0 0 1 .137-.803.803.803 0 0 0 .162-.526c-.02-.328.01-.658.088-.977.087-.35.087-.716 0-1.065a1.094 1.094 0 0 1 0-.401c.04-.903-.027-1.807-.2-2.694a.98.98 0 0 0-.524-.902.775.775 0 0 1-.3-.3 3.938 3.938 0 0 0-1.562-1.316c-.87-.44-1.706-.947-2.498-1.517a7.004 7.004 0 0 1-1.586-1.628.577.577 0 0 1-.1-.627.754.754 0 0 0 0-.676c-.337-.652-.737-1.253-1.024-1.943a.476.476 0 0 0-.163-.188 1.092 1.092 0 0 1-.35-.751 1.13 1.13 0 0 0-.1-.501c-.3-.602-.563-1.22-.786-1.855a1.394 1.394 0 0 1-.15-.376 1.67 1.67 0 0 0-.637-1.14 1.254 1.254 0 0 1-.312-.564 2.506 2.506 0 0 0-.875-1.253c-.187-.137-.362-.326-.55-.463-.187-.138-.336-.301-.15-.577a.289.289 0 0 0 0-.338l-.074-.125a1.344 1.344 0 0 1 .25-1.855c.174-.25.375-.481.6-.689.337-.263.387-.463.25-.952h-.088c-.025 0-.238.313-.437.163-.2-.15-.413-.226-.475-.589a8.797 8.797 0 0 1 0-1.253.29.29 0 0 1 0-.188c.45-.25.375-.877.674-1.253.3-.376.075-.4.088-.601 0-.389 0-.489.362-.539.362-.05.5-.338.774-.414a.163.163 0 0 0 .113-.162.553.553 0 0 1 .287-.627c.1-.063 0-.225.088-.338.087-.476.2-.614.637-.652a.586.586 0 0 0 .562-.5c.062-.34.324-.527.474-.803-.387-.288-.387-.288-.3-.79a1.621 1.621 0 0 0 0-.6 4.75 4.75 0 0 1 0-1.116 1.772 1.772 0 0 0-.287-1.34c-.225-.451-.225-.752.225-1.115.45-.364.375-.339.2-.79a.768.768 0 0 1 0-.15.239.239 0 0 1 0-.276c.075 0 .137 0 .2.075.062.075.2.301.4.426a.78.78 0 0 1 .387-.877c.274-.213.4-.601.737-.739.125-.05.125-.175.125-.276 0-.1 0-.338.074-.5.075-.728.475-1.154 1.112-1.128.2 0 .362 0 .462-.239.1-.238.25-.175.4-.162.407.027.81-.093 1.137-.339.118-.075.243-.138.374-.188a.925.925 0 0 0 .5-.426.651.651 0 0 1 .937-.35.425.425 0 0 1 .248.56.426.426 0 0 1-.136.179 1.1 1.1 0 0 1-.3.238c-.237.1-.25.25-.137.476l.212.388a3.13 3.13 0 0 1 1.612-.664c-.113-.2-.375-.138-.363-.376A.729.729 0 0 1 12.354.4c.162-.213.35-.188.487 0v.1c0 .551.437.664.85.727.154.028.305.075.449.138a.612.612 0 0 1 .4.45c.175.552.175.54.674.477.5-.063.862-.088 1.25-.126a.66.66 0 0 1 .761.351c.312.451.774.313 1.187.238.412-.075.437-.263.7-.25 0 0 .074 0 0 0-.076 0-.113-.213 0-.288a.735.735 0 0 1 .361-.063h1.624a.46.46 0 0 1 .462.2c-.2.301-.524.213-.874.289.197.117.367.275.5.463a.388.388 0 0 0 .324.176c.29.052.566.163.812.325a1.251 1.251 0 0 1 .675 1.416h.1c.362-.263.637-.075.999.088.42.228.796.53 1.111.89.214.188.344.454.363.739 0 .15 0 .3.2.3.574 0 .849.552 1.249.928.101.13.249.215.412.238a3.82 3.82 0 0 0 1.461 0 2.88 2.88 0 0 1 1.836.3 12.03 12.03 0 0 1 1.737.902c.232.245.487.468.761.665a1.725 1.725 0 0 1 .925 1.466c.097.448.218.892.362 1.328a.677.677 0 0 0 .475.551c.25 0 .287.226.224.464a1.77 1.77 0 0 1-.387.852.803.803 0 0 0-.125.275 1.74 1.74 0 0 0-.674.614c.375 0 .574-.125.612-.489-.038-.087 0-.087.025-.087zM10.618 95.399c-.313-.25-.725-.439-.662-1.015-.3.514.287.74.262 1.165.15-.075.262-.175.412-.15.137.326.487.313.712.526.225.213.162 0 .187-.15.025-.15.238-.401.263-.652a.226.226 0 0 1 .187-.213c.125 0 .138.126.15.213.081.295.081.607 0 .902-.075.15 0 .188.125.2.125.013.175 0 .15-.162-.025-.163 0-.3-.063-.451 0-.376 0-.439.275-.614.113-.075.25-.125.375-.2a.163.163 0 0 0 .087-.201c0-.1-.112-.1-.187-.088l-.312.088a.424.424 0 0 1-.575-.238.729.729 0 0 1 .088-.752s.174 0 .162-.138a.29.29 0 0 0-.188-.225c-.187-.1-.324 0-.362.288 0 .489-.162.965-.187 1.466-.025.501-.175.539-.537.476l-.362-.075zm.224-92.807c-.474.414-.5.627-.162 1.14.063.088.1.201.162.301.063.1.275.213.4 0a.817.817 0 0 0 0-.827 17.07 17.07 0 0 1-.4-.614zm-.724 91.591a.972.972 0 0 0 1.087-.526.302.302 0 0 0 0-.15.25.25 0 0 0-.1-.113h-.1c-.219.34-.525.612-.887.79zm-.55-1.252c.113.137.175.45.338.325.272-.161.582-.248.899-.25-.45-.276-.837.175-1.237-.113v.038zm-1.51-12.154c.136-.175.536 0 .424-.464-.113-.463-.225-.112-.4-.112.043.19.034.39-.025.576z" fill="#E7E6E6"/><path fill-rule="evenodd" clip-rule="evenodd" d="M22.47 72.989c.213.162.512.125.612.476.076-.058.147-.12.213-.188.274-.238.274-.238 0-.527a.464.464 0 0 1-.088-.175c0-.113 0-.238.113-.2.412.086.837.086 1.249 0a.648.648 0 0 0 .424-.15.324.324 0 0 1 .2-.088c.354.08.695.211 1.012.388.187.075.162.514 0 .651a1.248 1.248 0 0 1-.525.314c-.162 0-.312 0-.3.275-.337-.1-.362.364-.636.426-.275.063-.375.126-.575-.238-.2-.363-.25-.363-.562-.112-.312.25-.575.338-.912-.113l-.212-.25c-.075-.164-.063-.164-.013-.49z" fill="#E7E6E6"/></svg>