<svg width="31996" height="17280" viewBox="0 0 31996 17280" fill="none" xmlns="http://www.w3.org/2000/svg"><path d="M14413.3 7442c-8-6-14-28-14-48 0-44-72-66-160-54-58 8-60 6-60-68 0-42-8-76-20-76-28 0-24-102 8-192 28-82 20-308-10-308-10 0-18-16-18-36 0-38 106-94 160-86 16 2 56 4 86 2 32 0 134 8 230 20 168 22 176 20 208-22 26-30 36-78 36-180 0-116-6-140-40-158-22-12-40-40-40-62s-16-44-34-50c-20-6-54-18-76-28s-54-20-72-26-38-28-42-50c-10-32 4-44 70-64 62-18 82-18 94 0 10 16 32 18 60 10 38-12 42-24 34-82-12-74 6-86 54-38 32 32 142 42 122 12-6-10 16-36 48-54 36-22 62-56 66-86 4-40 26-56 106-84 56-20 92-36 84-38-8 0 4-20 26-44 22-26 46-66 52-90 16-58 90-106 166-106 32 0 62-10 66-24 6-14 32-26 58-26 28-2 60-8 72-16 24-16 14-194-14-222-24-24-26-172-4-206 8-12 38-28 68-36s64-26 78-42c38-46 58-32 46 32-8 36-2 72 12 92 22 26 20 38-16 72l-42 42 44 36c34 28 38 40 20 60-20 20-30 18-56-2-24-20-30-20-30 4 0 38 64 96 106 96 20 0 28 10 22 30-16 42 26 38 86-10 40-32 58-34 94-16 22 12 48 30 54 42 16 22 218-20 218-44s98-62 160-62c34 0 66 14 78 36 18 30 26 28 84-30 58-62 116-90 88-46-6 12-4 20 8 20s16-38 10-100c-14-132 38-280 98-280 24 0 66 24 98 54 64 62 76 56 96-50 12-68 8-78-32-98-38-18-62-14-116 16-66 36-68 36-78-4-12-46 24-66 96-54 40 8 48 2 54-42 8-72 108-106 264-90 84 10 122 6 132-14 10-14 56-30 104-38l86-14-60-24c-32-14-64-32-70-44-8-10-116 4-260 36-184 40-250 48-256 30-4-14-34-38-66-56-50-26-58-40-58-114 2-46-4-120-10-166-14-78-10-84 94-180 60-54 130-128 156-162 26-36 64-66 84-66 50 0 46-32-14-90-70-72-176-68-254 10-52 52-58 70-48 130 14 66 8 74-80 134-154 106-228 178-270 258-64 128-44 214 60 258 100 40 96 80-16 180-94 84-100 98-120 226-22 158-40 184-124 202-38 6-66 26-72 50-10 36-98 70-130 48-10-4-16-48-16-94 0-60-14-104-44-144-50-62-98-174-102-238-2-22-14-52-28-66-20-20-44-6-120 66-108 100-194 128-278 86-50-24-60-42-80-176-38-228-34-346 10-402 20-28 102-84 182-128 174-94 322-252 448-470 48-82 106-168 130-188 22-22 42-56 42-76s14-58 32-84c34-56 6-92-42-52-24 20-30 18-30-8 0-18 12-32 26-32 18 0 18-4-2-16-18-14-16-26 16-54 30-26 40-30 40-8 0 16 12 8 32-18 16-24 40-44 52-44 14 0 12 12-4 30-26 30-24 30 54 30 8 0 16-20 16-42 0-26 18-50 44-60 54-20 80 12 46 52-36 42-4 36 54-10l52-40h-92l46-50c34-36 58-46 96-36 30 6 54 2 66-16 8-14 22-20 32-12 8 10-6 34-34 54-50 38-50 38 42 6 56-20 92-46 92-64 0-92 6-96 86-96 90 0 100 18 36 62-24 18-36 32-26 32s36-18 58-38l42-40 166 324c834 1622 764 1476 806 1710 20 118 38 220 38 228s-204 150-454 318c-1122 750-1558 1046-1570 1066-8 12-16 56-16 96 0 60 10 80 60 110 34 20 70 64 82 100 24 76 86 126 152 126 28 0 46 12 46 30 0 16 24 42 56 58 76 40 144 108 144 144 0 24-12 22-62-14-52-36-66-38-80-16-26 40-22 60 14 86 28 22 24 34-24 110-40 58-68 82-92 76-40-12-58 24-42 84 14 52-50 84-76 36-10-16-44-36-76-44-120-26-132-124-14-102 92 18 190-6 214-52 26-48 4-156-32-156-16 0-38-18-50-42-14-22-28-36-34-30-8 6-24-6-40-28s-40-40-56-40c-50 0-256-194-278-262-14-40-44-78-76-94-50-24-62-20-160 56-120 90-114 90-240 52-84-26-96-26-122 4-18 18-34 66-38 104-4 54-20 76-66 100-102 52-142 86-196 172-38 60-46 88-30 104 30 30-42 184-86 184-18 0-48 22-66 50-28 42-48 50-138 50-60 2-120 14-142 30-42 32-96 40-118 16zm1978-4290l58-66-64 58c-62 56-76 72-60 72 4 0 32-30 66-64z" fill="#E7E6E6"/><path d="M16959.3 7386c-14-16-32-24-42-18s-28-14-42-42c-18-42-18-62 0-92 20-30 20-38-2-38-14 0-58-50-100-112-60-92-74-132-74-212 0-94 2-98 92-152 52-30 272-174 492-320s394-256 386-244-4 34 10 50c18 20 16 38-6 74-16 26-34 70-42 100-6 30-30 64-52 76-24 12-40 42-40 70 0 26-22 72-50 102-64 70-62 92 10 174 74 84 74 94 6 94-32 0-78 20-106 42s-38 34-22 26c18-8 24-6 16 6-22 34-94 46-94 16 0-14 12-30 26-36 12-4-20-18-74-30-110-22-152-14-152 30 0 22-14 28-50 22-58-12-62 4-20 84 20 38 22 62 10 70s0 30 30 54c60 48 68 104 12 86-30-10-36-4-28 26 4 22 0 46-12 52-10 8-16 26-8 42 14 40-42 40-74 0zm-1246-264c-6-10-6-54-2-100 4-48-2-86-12-86-42 0-16-32 42-54 88-34 104-16 94 94-12 116-86 204-122 146zm-516-58c-20-26-20-34 4-50 38-24 50-22 74 8 16 18 12 32-16 48-28 20-42 18-62-6zm532-268c-8-26-2-56 16-76 16-18 34-48 40-64s10 14 8 68c-4 104-42 144-64 72zm1970-670c0-4 94-72 210-150s210-136 210-130c0 4-94 72-210 150s-210 136-210 130zm-3240-348c0-12 8-22 18-22s48-36 82-80l64-80-62-12c-74-16-80-42-12-68 48-18 74-100 30-100-10 0-20-18-20-40 0-34 10-38 48-28 78 18 96-4 62-84-16-38-22-84-16-102 8-20 4-28-8-20-10 6-48 18-82 24-68 12-78-6-46-68 14-26 12-36-10-36-14 0-28 8-28 18 0 8-10 16-22 16-14 0-18-20-8-54 12-54 12-54-18-16-26 34-30 36-32 6 0-18 16-44 36-54 30-18 30-20 0-22-32 0-38-44-10-72 26-26 14-52-18-40-16 6-24 4-18-6s2-24-10-32c-30-18-24-50 10-50 16 0 30 12 30 26 0 16 6 14 18-6 12-16 14-36 10-44-6-8-2-16 8-16s26-20 36-42c16-34 42-44 114-52 100-8 122 16 54 58-68 44-50 78 36 64 114-18 142 26 76 124-28 42-46 82-40 92 6 8-2 16-16 16-14 2 2 14 38 30 34 14 68 48 76 74 10 24 46 80 82 124 36 42 72 102 78 134 10 42 26 58 66 62 70 8 84 92 26 144-40 36-40 40-6 64 56 42 4 72-140 80-166 10-262 28-280 54-6 12-34 22-60 26-24 2-66 10-90 18-30 10-46 6-46-8z" fill="#E7E6E6"/><path d="M14061.3 5564c-22-26-22-40 0-84 14-30 38-68 52-86 24-28 22-34-12-44-32-8-36-20-24-76 14-62 20-68 78-62 60 4 90-24 44-40-12-4-8-26 12-52 26-38 46-44 110-38 48 4 94 24 120 52 42 46 42 46 4 98-32 42-36 64-20 98 34 78-14 150-146 212-134 62-178 66-218 22zm1936-430c-54-54-60-74-34-118 28-42 104-54 126-20 8 12 4 34-8 48s-16 32-8 38c6 8 2 14-10 14s-24 16-28 36c-6 32-8 32-38 2zm586-342c4-52 16-68 56-72 42-6 44-4 22 24-14 16-20 38-16 48 6 8-6 28-28 42-38 22-40 20-34-42zm-2284 10c0-26 8-46 20-46 10 0 14-14 8-30-14-36 24-90 64-90 36 0 36 30 0 64-14 16-40 54-58 86-30 54-32 56-34 16zm360-236c0-34 4-36 48-18 36 14 24 48-20 48-16 0-28-14-28-30zm2070-172c-20-30 6-50 32-24 14 14 14 26 2 34-12 6-28 2-34-10zm-3510-492c-28-6-64-22-82-38-24-22-56-26-116-16-66 10-82 8-82-18 0-16 20-34 44-40 44-12 44-12 6-50-22-22-48-34-56-30-10 6-40 4-70-4-40-10-46-16-22-32 14-10 48-18 74-18 24 0 44-12 44-28s12-34 26-40c12-8-22-8-80-4-58 6-108 4-114-4-10-18 40-66 54-52 6 6 8-6 8-26-4-28 8-36 56-32 34 2 48 0 36-6-14-6-26-20-26-30 0-32 48-18 110 32 42 36 52 56 36 66s-18 24-4 44c16 24 24 24 32 4 4-14 22-36 36-52 16-14 22-34 14-42s4-12 26-8c22 2 56-2 76-12 20-8 46-4 64 10 16 14 30 16 30 6s28-20 64-20 68-10 72-22c16-48 106-24 174 44 36 38 76 70 86 74 12 4 24 30 28 58 4 36-6 56-38 70-24 10-48 34-52 54-6 22-30 36-58 36-24 0-68 18-96 40s-68 40-90 40c-24 0-50 8-60 18-28 26-92 38-150 28zm2952-776c8-16 20-30 30-30s18 14 18 30-14 30-30 30c-18 0-24-12-18-30z" fill="#E7E6E6"/></svg>