<svg width="42" height="68" viewBox="0 0 42 68" fill="none" xmlns="http://www.w3.org/2000/svg"><path fill-rule="evenodd" clip-rule="evenodd" d="M33.58 1l4.939 26 2.962 5-18.765 23 3.95 4 9.877-7 .324.875c-.04.07-.076.143-.11.217a.871.871 0 0 1-.432.504.48.48 0 0 0-.22.213.501.501 0 0 0-.052.304v.34a.68.68 0 0 1-.07.407.661.661 0 0 1-.289.287c-.134.06-.234.184-.335.309l-.025.03-.033.04a2.295 2.295 0 0 1-.089.1.537.537 0 0 0-.086.404c.024.238.024.48 0 .718a.496.496 0 0 1-.297.416.482.482 0 0 0-.25.201.5.5 0 0 0-.071.316.44.44 0 0 1-.082.347.425.425 0 0 1-.067.069.291.291 0 0 0-.061.403 2.455 2.455 0 0 1 .321.908.432.432 0 0 0 .284.328c.144.081.292.153.445.214a.223.223 0 0 1 .186.24.307.307 0 0 1-.048.174.298.298 0 0 1-.138.116.437.437 0 0 1-.334 0 1.068 1.068 0 0 0-.678-.019 1.089 1.089 0 0 0-.558.397 9.44 9.44 0 0 0-.729.693.536.536 0 0 1-.048.06.256.256 0 0 1-.093.067c-.045.017-.094.012-.143-.039a.157.157 0 0 1-.05-.116c0-.04.013-.08.026-.121v-.003l.014-.046a.267.267 0 0 0 .01-.067c.028-.07.06-.137.099-.201a1.854 1.854 0 0 0-.977-.517c-.222 0-.309 0-.358.24-.017.083-.023.14-.03.176-.015.069-.04.07-.168.063-.198-.013-.148-.164-.123-.303a.385.385 0 0 0 0-.1.92.92 0 0 1-.244.138h-.003c-.058.027-.116.052-.172.087a.596.596 0 0 0-.113.09c.124.214.396.252.42.554a.169.169 0 0 1-.048.02.135.135 0 0 1-.083-.007.322.322 0 0 1-.052-.028l-.024-.016c-.014-.01-.028-.02-.043-.028a.18.18 0 0 0-.108-.029c-.136.013 0 .164 0 .265v.138c0-.012-.272.126-.42.076a.363.363 0 0 1-.186-.202 1.15 1.15 0 0 0-.482-.491.393.393 0 0 0-.074.428c.015.073.035.144.058.214l.012.035.007.02a1.855 1.855 0 0 0 .195.387c.168.201.279.445.321.706a.688.688 0 0 0 .507.479.546.546 0 0 1 .395.454c.043.18.178.28.31.376.061.045.122.089.173.14a.736.736 0 0 1 .104.134 1.4 1.4 0 0 1 .033.054l.02.033.012.021c.033.06.066.117.107.168a.49.49 0 0 0 .082.082c.16.126 0 .1 0 .139a.133.133 0 0 1-.099 0l-.005.002-.006.001-.01.003-.009.001-.006.001h-.011l-.023-.001a.15.15 0 0 1-.029-.007 5.411 5.411 0 0 0-.84-.681v.1c0 .095 0 .17-.003.23a.615.615 0 0 1-.02.137.094.094 0 0 1-.01.02.05.05 0 0 1-.017.015c-.048.024-.14-.039-.321-.162a.514.514 0 0 0-.16-.088l-.06.001a.592.592 0 0 0-.092.013c-.037.01-.067.029-.083.062a.15.15 0 0 0-.004.12.263.263 0 0 0 .078.107c.04.034.077.072.111.113.066.085.044.152.021.218l-.015.052a.202.202 0 0 0-.006.045c0 .02-.01.03-.028.04a.203.203 0 0 1-.045.013l-.022.004-.012.002a.398.398 0 0 0-.138.042.15.15 0 0 0-.055.057.19.19 0 0 0-.021.082c.001.142.026.282.074.416a2.032 2.032 0 0 1 0 .718c0 .089 0 .177-.136.177-.118 0-.124-.066-.132-.14v-.007l-.004-.03a.966.966 0 0 1-.006-.061 1.02 1.02 0 0 0-.033-.226.421.421 0 0 0-.029-.072.252.252 0 0 0-.08-.094c-.106-.072-.105-.004-.105.064v.033a.12.12 0 0 1-.007.041c-.024.063 0 .164-.16.139a.215.215 0 0 1-.1-.164l-.11-.315c0-.076-.087-.088-.161 0-.074.088-.383 0-.42-.24a.613.613 0 0 1 0-.214.374.374 0 0 0-.054-.34.362.362 0 0 0-.095-.089.576.576 0 0 1-.23-.466.59.59 0 0 1 .228-.465.133.133 0 0 0 .009.02l.004.01a.085.085 0 0 0 .031.03.06.06 0 0 0 .03.007c.06 0 .135.076.221 0a.153.153 0 0 0 .027-.028l.007-.011.004-.007.005-.01a.168.168 0 0 0 .011-.109l-.001-.005a.164.164 0 0 0-.052-.082.241.241 0 0 1-.092-.1c-.02-.046-.02-.095-.02-.152a.38.38 0 0 0-.061-.328c-.05-.088-.124-.164-.21-.088-.087.076-.198.189-.087.315a.632.632 0 0 1 .16.392c-.201-.011-.3-.198-.392-.435a7.28 7.28 0 0 0-.704-1.261v.202c0 .04-.02.08-.053.105a.118.118 0 0 1-.108.02.478.478 0 0 1-.224-.266.489.489 0 0 1 .014-.35c0-.02.006-.04.015-.058a.54.54 0 0 1 .018-.034c.021-.04.041-.077.015-.106a.1.1 0 0 0-.024-.019l-.01-.005-.014-.006c-.531-.29-.482-.781-.383-1.26-.009-.356.02-.71.086-1.06a.217.217 0 0 0 0-.163 4.981 4.981 0 0 0-1.347-1.26 1.032 1.032 0 0 0-.821-.229l-.008.002-.02.003-.017.003-.024.006a.169.169 0 0 1-.111 0c-.074 0-.16 0-.16-.139 0-.108.044-.109.093-.11h.022a.15.15 0 0 0 .02-.003h.156c.078-.004.164-.025.153-.151a.179.179 0 0 0-.087-.152.17.17 0 0 0-.172 0c-.289.105-.48-.084-.661-.264a1.969 1.969 0 0 0-.18-.165 1.492 1.492 0 0 1-.303-.303h-.001a1.488 1.488 0 0 0-.128-.15l-.046-.045c-.143-.142-.317-.314-.239-.598a.18.18 0 0 0 0-.19.839.839 0 0 1-.235-.49c0-.152-.098-.24-.222-.228-.094.01-.095.108-.096.199 0 .027 0 .055-.003.078a.088.088 0 0 1 0 .1c-.064.001-.094-.047-.126-.098a.567.567 0 0 0-.035-.052.556.556 0 0 1-.024-.035l-.002-.002-.01-.015c-.026-.038-.05-.06-.112-.024-.086.05-.309 0-.395-.214a1.073 1.073 0 0 1-.1-.945.523.523 0 0 0-.057-.026l-.016-.006-.013-.005a.537.537 0 0 0-.407.036 3.117 3.117 0 0 1-.408.215c-.223.076-.285.202-.161.403a.589.589 0 0 1 0 .517.963.963 0 0 0 .071.885c.08.129.192.237.324.313.219.121.418.274.594.454a.812.812 0 0 1 .247.466c.074.252.16.492.235.731.194.466.521.861.94 1.135.081.075.175.05.268.025a.547.547 0 0 1 .139-.025c.111.006.222.006.334 0a.268.268 0 0 1 .29.159.282.282 0 0 1-.03.282.4.4 0 0 0-.05.144.217.217 0 0 0 .003.073c.02.084.09.136.157.174.482.244.948.517 1.397.82.282.138.432.447.576.745.026.055.052.11.08.162l-.001.053-.001.043a.819.819 0 0 1-.02.144.492.492 0 0 1-.012.041l-.006.018a.41.41 0 0 1-.035.066.15.15 0 0 1-.117.06.146.146 0 0 1-.089-.03l-.006-.006a.152.152 0 0 1-.023-.024.289.289 0 0 1-.123-.15c-.099-.235-.279-.336-.457-.436-.09-.051-.181-.102-.26-.17a.158.158 0 0 0-.1 0c-.222 0-.32.24-.395.429-.074.189-.173.378 0 .554l.26.24a.611.611 0 0 1 .151.437l-.001.022-.003.02a.61.61 0 0 1-.112.287l-.01.012-.01.012-.008.011a.598.598 0 0 1-.118.107.423.423 0 0 0-.223.403.46.46 0 0 1-.06.23l-.007.012-.012.018-.006.01-.008.01a.491.491 0 0 1-.055.06 1.09 1.09 0 0 0-.26.353c-.136.278-.247.315-.482.152-.235-.164-.16 0-.21 0a1.07 1.07 0 0 0-.16.97.553.553 0 0 1 0 .202c0 .441-.273.618-.63.416-.057 0-.108-.053-.16-.107l-.024-.025-.015-.015-.021-.02a.448.448 0 0 1-.118-.116c-.027-.034-.05-.063-.083-.07-.26-.058-.474-.219-.69-.38-.204-.154-.41-.309-.657-.376a.518.518 0 0 1-.207-.202l-.01-.016-.01-.021-.008-.017a.534.534 0 0 1 0-.425s.074-.164.123-.151c.285 0 .569-.24.866 0a.691.691 0 0 0 .277.123c.101.02.205.016.303-.01a9.14 9.14 0 0 0 1.236-.328.201.201 0 0 0 .186-.189.564.564 0 0 1 .247-.491v-.152l-.004-.025-.007-.039a2.09 2.09 0 0 0-.069-.26l-.015-.046a4.614 4.614 0 0 0-.125-.33 3.341 3.341 0 0 1-.188-.56l-.086-.076a.699.699 0 0 1-.585-.423.737.737 0 0 1-.058-.22c0-.1-.074-.202-.173-.189-.293 0-.442-.22-.578-.421l-.04-.058c-.148-.214-.358-.441-.655-.39a.512.512 0 0 1-.606-.354 3.872 3.872 0 0 1-.432-.479 1.92 1.92 0 0 0-.34-.39 2.909 2.909 0 0 1-.231-.24 1.235 1.235 0 0 1-.134-.202s-.062-.088-.086-.075c-.25.042-.331-.132-.414-.307a.844.844 0 0 0-.143-.236 1.267 1.267 0 0 1-.383-.706 5.66 5.66 0 0 0-.26-.857.319.319 0 0 0 0-.113 3.37 3.37 0 0 0-1.062-.618.486.486 0 0 0-.321.083.503.503 0 0 0-.198.27.844.844 0 0 1-.668.492c-.276 0-.457.224-.633.442l-.002.003a3.458 3.458 0 0 1-.156.185c-.235.252-.544.492-1.026.227-.262-.144-.509-.184-.75-.222H13.1c-.088-.015-.175-.029-.261-.048a1.568 1.568 0 0 1-.332-.108h-.235l-.432.29a.405.405 0 0 0-.194.206.42.42 0 0 0-.017.285 1.987 1.987 0 0 0 .03.302c.02.12.052.239.094.354a1.005 1.005 0 0 1-.011.51.989.989 0 0 1-.26.435 4.932 4.932 0 0 1-1.496.958.724.724 0 0 0-.433.391c-.26.454-.532.883-.803 1.26a.747.747 0 0 0-.197.588.757.757 0 0 0 .308.535.276.276 0 0 1 .092.208.283.283 0 0 1-.092.208l-.01.015a.484.484 0 0 1-.126.123 1.52 1.52 0 0 0-.581.971.392.392 0 0 1-.27.313.393.393 0 0 1-.076.015.796.796 0 0 0-.268.102.834.834 0 0 0-.387.54.543.543 0 0 1-.194.305.524.524 0 0 1-.338.112H5.375c-.27.007-.534.085-.766.227a2.202 2.202 0 0 0-.409.25 2.174 2.174 0 0 0-.295.28c-.174.213-.52.113-.73-.165a2.379 2.379 0 0 1-.257-.468l-.02-.051a2.785 2.785 0 0 1-.03-.082l-.014-.042c-.173-.453-.495-.693-.89-.504-.37.129-.762.172-1.15.126-.284 0-.383-.126-.284-.428a4.497 4.497 0 0 0 .087-1.148c0-.1 0-.189-.112-.252-.605-.315-.605-.706-.32-1.26a9.899 9.899 0 0 0 .543-2.32 2.747 2.747 0 0 0-.124-.92 1.005 1.005 0 0 1 0-.378 1.44 1.44 0 0 0-.222-1.084c-.185-.366-.136-.605.21-.744h.26c.123 0 .197-.076.272-.202a.557.557 0 0 1 .313-.352.534.534 0 0 1 .465.024c.282.122.585.182.89.177h.148a1.783 1.783 0 0 1 1.236.075 3.95 3.95 0 0 0 1.162.076c.415-.014.83.02 1.236.1a2.904 2.904 0 0 0 .626-.005.4.4 0 0 0 .073-.021.395.395 0 0 0 .241-.338c.061-.366.123-.732.173-1.097.05-.366.086-.996.11-1.5a4.71 4.71 0 0 1 0-.833.375.375 0 0 0-.045-.245.36.36 0 0 0-.189-.158c-.272-.096-.415-.343-.555-.583a6.118 6.118 0 0 0-.08-.135l-.022-.035-.012-.019-.023-.035a.27.27 0 0 1 0-.252c.074-.161.002-.23-.081-.308a.791.791 0 0 1-.08-.083c-.164-.219-.387-.32-.608-.42a1.818 1.818 0 0 1-.455-.26.571.571 0 0 0-.256-.136.557.557 0 0 0-.288.01c-.197.075-.519-.24-.494-.48a.41.41 0 0 0-.087-.34c-.16-.176 0-.315.062-.429a.955.955 0 0 1 .581-.264c.153-.018.301-.07.433-.152a.489.489 0 0 1 .63 0c.042.05.093.093.149.125l.016.009.008.004.018.009a.548.548 0 0 0 .081.03l.021.005a.52.52 0 0 0 .102.013.536.536 0 0 0 .198-.03c.175-.04.357-.04.532 0a1.782 1.782 0 0 0-.186-.997c-.11-.252-.098-.479 0-.554a.573.573 0 0 1 .594.176 1.009 1.009 0 0 0 .94.39.235.235 0 0 0 .234-.239.772.772 0 0 1 .182-.42.74.74 0 0 1 .387-.235 1.4 1.4 0 0 0 .556-.29.45.45 0 0 0 .147-.196.464.464 0 0 0 .026-.245 1.682 1.682 0 0 1 0-.252c.061-.593.185-.782.692-.908.375-.174.735-.38 1.075-.618.032 0 .055-.037.08-.078.034-.055.072-.118.143-.11.123.012.16 0 .074-.177-.058-.118-.039-.135-.02-.152.01-.008.02-.016.02-.037a2.94 2.94 0 0 0 .79-2.043.581.581 0 0 1 .083-.287.56.56 0 0 1 .215-.204c.086.1 0 .176 0 .264v.19c.206.21.17.449.136.684a4.166 4.166 0 0 0-.023.187l-.002.036s0 .076.074.164c.032-.156.082-.308.148-.454a.5.5 0 0 0 .027-.324l-.002-.01-.005-.015a.39.39 0 0 0-.02-.054.666.666 0 0 1 .22-.886.634.634 0 0 1 .312-.097c.26 0 .494-.14.754-.076.18.044.181.027.186-.034v-.002l.006-.047a.25.25 0 0 1 .018-.056c.321-.403.605-.453.989-.189.03.022.056.038.08.05l.015.006a.21.21 0 0 0 .016.006.131.131 0 0 0 .061.005.096.096 0 0 0 .034-.012.198.198 0 0 0 .07-.092.72.72 0 0 0 .033-.089.484.484 0 0 1 .098-.214c.297-.177.223-.454.112-.694a.358.358 0 0 1-.057-.292l.004-.013.003-.011.002-.007.006-.015.004-.01a.356.356 0 0 1 .038-.068.217.217 0 0 0 0-.277 2.27 2.27 0 0 1-.198-1.071c0-.265 0-.505-.309-.568a.477.477 0 0 1-.166-.055.075.075 0 0 1-.021-.021.048.048 0 0 1-.007-.031v-.006a.397.397 0 0 1 .018-.051l.017-.04a.218.218 0 0 0 .01-.048c.013-.126 0-.592-.061-.895a3.852 3.852 0 0 1 .198-1.613.592.592 0 0 1 .193-.28.574.574 0 0 1 .313-.124.867.867 0 0 0 .436-.163.891.891 0 0 0 .294-.366 1.24 1.24 0 0 1 .593-.492c.111-.076.185 0 .173.126-.031.18-.031.363 0 .542a.638.638 0 0 1-.087.454 1.938 1.938 0 0 0-.135.832c0 .202 0 .303.234.29.235-.013.285 0 .334.189a.475.475 0 0 1-.04.348l-.004.008-.008.012a.463.463 0 0 1-.109.124.65.65 0 0 1-.272.15.168.168 0 0 0-.011-.004l-.01-.002a.122.122 0 0 0-.078.007.633.633 0 0 1-.106.347 1.92 1.92 0 0 1-.201.25c-.106.118-.213.238-.273.386a.924.924 0 0 0-.064.47.679.679 0 0 1-.023.3h.148c.285.125.322.214.21.541 0 .114 0 .593.112.593.038 0 .094.026.162.058.132.06.309.143.48.093.26-.075.297.126.198.353-.099.227-.173.151-.16.303a.607.607 0 0 0 .428-.065l.021-.013a.6.6 0 0 0 .156-.137.39.39 0 0 1 .248-.088.891.891 0 0 0 .494-.366.503.503 0 0 1 .12-.125c.083-.054.18-.057.275.025.149.126.31.075.371-.177.06-.244.074-.24.198-.205l.012.003a.365.365 0 0 1 .273.217c.01.023.018.048.024.073 0 .265 0 .391-.322.593.255 0 .337.158.418.315l.013.025a.482.482 0 0 0 .027.05c.099.177.21.253.432.089.283-.254.616-.443.977-.555.342-.076.655-.25.902-.504a2.816 2.816 0 0 1 1.62-.719.63.63 0 0 1 .593.215c.086.1.16.227 0 .315-.161.088-.1.139-.062.252a.205.205 0 0 0 .091.097.193.193 0 0 0 .072.02l.01.001h.026l.007-.002a.174.174 0 0 0 .016-.003.891.891 0 0 0 .602-.228.926.926 0 0 0 .3-.578.293.293 0 0 1 .178-.295.28.28 0 0 1 .12-.02.548.548 0 0 0 .457-.328c.215-.302.308-.677.259-1.046 0-.148-.02-.3-.038-.45v-.002l-.01-.076-.007-.061a4.375 4.375 0 0 1-.02-.218c-.048-.47.028-.946.223-1.374a2.39 2.39 0 0 0 .161-.53c.034-.257.15-.496.332-.679a1.152 1.152 0 0 1 .67-.33.17.17 0 0 1 .113.01.175.175 0 0 1 .084.079c.232.306.438.63.618.97a.394.394 0 0 0 .17.241.378.378 0 0 0 .287.05.48.48 0 0 0 .294-.169.496.496 0 0 0 .114-.3v-.023a.936.936 0 0 0 0-.265 9.288 9.288 0 0 1 .1-1.412.36.36 0 0 1 .015-.09c.017-.063.034-.128-.016-.187a.354.354 0 0 1-.396 0 .76.76 0 0 1-.291-.26.52.52 0 0 0 .12-.063c.057-.039.11-.087.166-.14.04-.036.08-.074.126-.112.198-.163.198-.277 0-.466a.513.513 0 0 0-.309-.113 1.292 1.292 0 0 0-.24.04 3.306 3.306 0 0 0-.014-.155.4.4 0 0 0 .279-.112c.02-.016.04-.03.062-.043.082-.054.16-.105.16-.235 0-.132-.153-.32-.302-.375.03-.015.062-.034.098-.055l.133-.081c.195-.12.436-.27.655-.339.359-.113.68 0 .927-.315h.111c.325.048.64.141.94.277.21.123.451.176.692.152.161 0 .247 0 .3-.043.06-.048.075-.151.108-.373 0-.139 0-.253.21-.215a.74.74 0 0 0 .643-.24.63.63 0 0 1 .605-.221.613.613 0 0 1 .112.033h.017l.015.002.014.002.018.003c.036.006.07.011.099.002.028-.009.05-.032.059-.085a.207.207 0 0 0-.023-.143l-.003-.005-.005-.007a.197.197 0 0 0-.13-.085.28.28 0 0 0-.222 0c-.236.087-.4-.032-.569-.155a4.104 4.104 0 0 0-.16-.11.534.534 0 0 1-.264-.421.588.588 0 0 1 .004-.132.548.548 0 0 1 .074-.203c-.197.089-.284.29-.445.253-.057-.014-.15.003-.257.023-.195.036-.442.082-.633-.023h-.185c-.531.176-1.05.378-1.57.605-.39.17-.745.305-1.107.436l-.158.057-.206.074a.65.65 0 0 0-.25.099l-.02.014-.014.01a.513.513 0 0 0-.027.021l-.01.009-.012.01a.104.104 0 0 0-.041.012l-.022.01c-.046.023-.097.047-.147-.021-.05-.067-.033-.101-.017-.135l.007-.015a.147.147 0 0 0 .005-.012.084.084 0 0 0 .005-.027.297.297 0 0 0-.075-.303c-.078-.068-.116-.013-.168.064l-.017.024a.233.233 0 0 1-.309 0c-.067-.06-.043-.126-.02-.186a.603.603 0 0 0 .019-.063l.001-.015c0-.076 0-.391-.074-.467-.074-.075-.445-.353-.692-.428-.247-.076-.223-.215-.272-.404-.082-.32-.02-.622.042-.922.041-.196.081-.392.081-.59a2.567 2.567 0 0 0-.136-.946.835.835 0 0 1-.086-.454 1.567 1.567 0 0 0-.074-.63 1.207 1.207 0 0 1 .198-1.26c.033-.045.072-.085.112-.126.11-.112.225-.23.234-.442.005-.113.028-.163.063-.182.032-.017.074-.007.119.004.029.007.06.014.09.014a.389.389 0 0 0 .37-.147l.013-.017a4.096 4.096 0 0 0 .506-.693c.253-.47.551-.914.89-1.324.263-.287.465-.626.594-.996a.776.776 0 0 1 .044-.183l.008-.022.005-.01.007-.017a.768.768 0 0 1 .455-.41c.26-.076.272-.14.235-.43a.792.792 0 0 1 0-.34.99.99 0 0 0-.161-.643 5.425 5.425 0 0 0-.544-.655.696.696 0 0 0-.17-.146c-.065-.038-.134-.055-.188-.018a.368.368 0 0 1-.408 0 .32.32 0 0 0-.089-.042l-.012-.004-.01-.002-.015-.003a.31.31 0 0 0-.233.051.355.355 0 0 1-.42 0 .28.28 0 0 0-.407.146.287.287 0 0 0-.013.043 1.173 1.173 0 0 1-.208.45c-.1.132-.228.241-.373.32a.258.258 0 0 0-.141.146.266.266 0 0 0 .005.206.836.836 0 0 1-.186.832.647.647 0 0 0-.105.353.64.64 0 0 0 .105.353c0 .016.004.031.01.045a.18.18 0 0 0 .035.056l.03.033c.023.025.047.05.062.08.148.278.123.442-.1.618a1.067 1.067 0 0 0-.259.315 2.511 2.511 0 0 1-1.087 1.35v.062a4.138 4.138 0 0 0-.59.43l-.039.034-.029.027a4.282 4.282 0 0 0-.17.165 1.584 1.584 0 0 0-.347.365c-.075.102-.128.222-.182.342-.106.236-.21.47-.473.553a.027.027 0 0 0-.018.006c-.007.006-.01.016-.012.03v.053l-.002.015c-.001.03-.007.062-.03.084a.501.501 0 0 1-.123.368.482.482 0 0 1-.346.162.97.97 0 0 1 .074.82 1.16 1.16 0 0 0 0 .541v.05a1.74 1.74 0 0 1-.007.116c-.01.085-.04.156-.117.187-.123.05-.148.152-.136.265.012.472.05.944.112 1.412a.625.625 0 0 0 .138.371.604.604 0 0 0 .37.215.304.304 0 0 1 .138.074.317.317 0 0 1 .095.172.717.717 0 0 0 .173.214c.208.276.383.576.52.895a.448.448 0 0 1 0 .416c-.092.271-.27.502-.508.656 0 .042.051.027.1.013.023-.006.045-.013.061-.013.05 0 .16.088.1.202a1.7 1.7 0 0 1-.644.806c-.245.13-.48.277-.704.442a.462.462 0 0 0-.272.479c0 .322-.035.649-.07.975v.004l-.001.004-.02.184c-.012.12-.024.24-.033.358-.018.28-.055.558-.111.832a2.419 2.419 0 0 0-.087.82 1.36 1.36 0 0 0 .26-.593c0-.164.074-.39.321-.441a19.24 19.24 0 0 1-.457 1.853s-.074.214-.185.189c-.104-.024-.09-.135-.077-.231l.003-.021a.505.505 0 0 1 .006-.04l.007-.034a.366.366 0 0 0-.002-.216.248.248 0 0 0-.011-.025.438.438 0 0 1-.022.13c-.023.075-.06.145-.09.216a.718.718 0 0 0-.037.107l-.003.012c-.12.38-.124.392-.516.38h-.445a.723.723 0 0 0-.488.239.752.752 0 0 0-.192.517c0 .224 0 .365-.027.454a.236.236 0 0 1-.018.046.168.168 0 0 1-.03.04c-.07.068-.202.071-.456.077a.505.505 0 0 0-.083.008l-.028.005-.023.005c-.037.009-.074.02-.112.031a2.992 2.992 0 0 1-.144.04.558.558 0 0 1-.107.01.402.402 0 0 1-.096-.01l-.025-.006c-.193-.046-.282-.067-.223-.31l.007-.008.006-.009a.113.113 0 0 0 .016-.058.116.116 0 0 0-.029-.076h-.172a.219.219 0 0 0 0 .24c0 .033.014.069.029.105.03.074.062.15-.03.21a1.49 1.49 0 0 0-.32.958.56.56 0 0 1-.075.202s0 .042-.026.07a.066.066 0 0 1-.04.02.12.12 0 0 1-.045-.002 1 1 0 0 0-.317-.064c-.175-.016-.35-.033-.487-.188 0 0-.123-.114-.198 0-.074.113-.185 0-.21-.089l-.001-.036-.001-.021a3.343 3.343 0 0 1 .002-.308.856.856 0 0 1-.59-.236.89.89 0 0 1-.275-.584.857.857 0 0 1-.21-.05c.247 0 .47-.164.73-.176.111-.006.173-.007.21.012.045.023.056.074.078.18l.008.034c.08.196.142.398.185.606 0 .277.223.353.42.416l.072.02.014.003.012.002a.24.24 0 0 0 .025.002c.038.002.046-.01.052-.019.003-.005.005-.008.011-.008a.276.276 0 0 0 .006-.166.264.264 0 0 0-.093-.137h-.173a.361.361 0 0 1-.222-.277 1.01 1.01 0 0 0-.173-.63.126.126 0 0 1-.012-.09l.004-.013a.122.122 0 0 1 .027-.044.124.124 0 0 1 .043-.03.465.465 0 0 0 .356-.239.488.488 0 0 0 .052-.14l.009-.008.016-.014a.38.38 0 0 1 .043-.032.114.114 0 0 1 .055-.02c.52 0 .73-.518.977-.934a.162.162 0 0 0 .039-.107.166.166 0 0 0-.04-.107 3.257 3.257 0 0 1-.617-1.16c-.136-.29-.2-.611-.186-.933a1.468 1.468 0 0 0-.185-.554 4.793 4.793 0 0 1-.044-.109l-.046-.118a6.142 6.142 0 0 0-.072-.18 3.298 3.298 0 0 0-.06-.136 2.565 2.565 0 0 1-.273-1.437c0-.138 0-.277-.11-.315-.112-.038-.322-.365-.372-.655a1.897 1.897 0 0 1-.16.706c-.075.189-.173.315-.359.302a.5.5 0 0 0-.314.095.516.516 0 0 0-.192.27 1.711 1.711 0 0 1-.165.256l-.028.036-.018.023a6.1 6.1 0 0 1-.163.192c-.13.15-.26.298-.356.477a.558.558 0 0 1-.247.202 1.453 1.453 0 0 0-.544.34.286.286 0 0 1-.15.084.276.276 0 0 1-.116-.002l-.014-.004-.01-.003a.286.286 0 0 1-.031-.012.986.986 0 0 0-.532-.139h-.074c-.12-.206-.301-.326-.483-.447-.174-.115-.348-.231-.468-.422a.773.773 0 0 1-.186-.656c0-.176 0-.39.284-.365.285.025.297-.429.285-.517-.013-.088-.087-.164-.136-.126a.265.265 0 0 1-.089.02c-.142.02-.402.058-.467.307a.087.087 0 0 1-.062.027h-.012a.093.093 0 0 1-.022-.007.087.087 0 0 1-.028-.02.162.162 0 0 1-.074-.138c-.01-.258.045-.514.16-.744.087-.139.149-.252 0-.403a.344.344 0 0 1 0-.43c0-.034.018-.067.043-.1a.405.405 0 0 1 .018-.022l.037-.04.014-.016a.495.495 0 0 0 .05-.06c.015-.025.01-.044-.008-.06-.02-.019-.052-.033-.085-.048h-.002a.412.412 0 0 1-.079-.044.379.379 0 0 1-.119-.277.383.383 0 0 1 .12-.277c.04-.069.065-.119.064-.168 0-.042-.02-.083-.065-.135a.625.625 0 0 1-.079-.086l-.005-.007-.01-.015a.65.65 0 0 1-.116-.396v-.02a.563.563 0 0 1 .016-.102.648.648 0 0 1 .033-.105 1.053 1.053 0 0 0 0-.618.68.68 0 0 1 .075-.58.256.256 0 0 0 0-.328.51.51 0 0 1 0-.68.571.571 0 0 0 .074-.152c.033-.188.048-.276.1-.322.046-.041.12-.05.258-.069h.223c.061-.088 0-.125 0-.189 0-.277 0-.34.284-.264.284.075.222.075.222-.202a.282.282 0 0 1 .044-.189.272.272 0 0 1 .154-.113.79.79 0 0 1 .445-.063c.111 0 .223.075.322 0 .045-.035.026-.059-.014-.076a.663.663 0 0 0-.133-.033l-.027-.005c-.061-.013-.21-.19-.222-.353a.269.269 0 0 1 .005-.105l.003-.013a.266.266 0 0 1 .023-.054l.009-.014.009-.013a.265.265 0 0 1 .173-.104.331.331 0 0 0 .331-.226.345.345 0 0 0 .016-.063c0-.089.09-.131.17-.17a.636.636 0 0 0 .064-.032c.038-.022.062-.052.068-.088.008-.045-.012-.1-.068-.164-.099-.114-.099-.328 0-.391.1-.063.235 0 .31.24a.475.475 0 0 0 0 .125.22.22 0 0 0 .184-.148.233.233 0 0 0 .013-.078.678.678 0 0 0-.111-.492c-.136-.113-.111-.164 0-.24l.222-.15c.054-.04.108-.07.153-.062a.073.073 0 0 1 .023.008c.009.005.017.01.024.019.008.009.016.02.023.034.05.101.309.126.37.34.04.14.07.098.103.052.018-.025.037-.052.058-.052l.334-.176a.393.393 0 0 1-.04-.512.382.382 0 0 1 .139-.118.254.254 0 0 0 .074-.139 3.455 3.455 0 0 1 .73-1.45c.073-.113.172-.088.271 0 .1.088.272 0 .235-.214a1.887 1.887 0 0 0 0-.202.41.41 0 0 1 0-.328.9.9 0 0 0 .129-.167c.026-.04.05-.082.075-.124l.002-.003c.152-.258.307-.52.709-.45-.276-.234-.274-.24-.193-.482l.02-.06c.1-.305.237-.597.408-.87a.252.252 0 0 0 .099-.2.258.258 0 0 0-.07-.175l-.004-.006-.007-.006a.238.238 0 0 0-.018-.016.226.226 0 0 1-.091-.182.232.232 0 0 1 .09-.183c.11-.065.16-.186.21-.307.027-.065.054-.13.09-.185a.317.317 0 0 1 .17-.138v-.101a1.285 1.285 0 0 1 .334-1.26s.111-.09.111-.165a.435.435 0 0 1 .168-.375.417.417 0 0 1 .129-.066.51.51 0 0 0 .302-.385.52.52 0 0 0 .007-.12c0-.223.086-.383.173-.541.04-.074.08-.147.111-.227.099-.252.198-.303.396-.164.197.139.086.088.123 0a.576.576 0 0 1 .05-.082l.002-.003c.082-.12.218-.322.17-.546-.098 0-.155.082-.213.165l-.045.063a.365.365 0 0 1-.075.075c-.068.049-.125.086-.176.086-.043 0-.082-.023-.12-.086-.087-.139 0-.504.172-.53a.72.72 0 0 0 .566-.344.75.75 0 0 0 .09-.21L23 9.046c.222-.29.272-.29.42.075 0 0 0 .076.111.076a.75.75 0 0 1-.03-.186v-.026l-.002-.047V8.91c-.002-.106-.003-.211-.042-.317a.322.322 0 0 1 .066-.328.308.308 0 0 1 .082-.063.286.286 0 0 0 .097-.103c.148.094.156-.037.32-.169.04-.031.076-.066.113-.103l.018-.018.035-.035.025-.026.028-.028c.038-.037.076-.074.117-.106a.649.649 0 0 1 .196-.112l.185-.215.05-.214c0-.24-.075-.618 0-.731.057-.088-.019-.168-.113-.218l.005-.027-.018.021a.515.515 0 0 0-.072-.028c-.124-.038-.198.025-.198.176a.915.915 0 0 1-.012.079.877.877 0 0 1-.232.08.485.485 0 0 1-.063-.004.44.44 0 0 1 .122-.47.942.942 0 0 0 .148-.567.204.204 0 0 0-.116-.2c.093-.1.178-.209.255-.323a.236.236 0 0 1 .192-.1.23.23 0 0 1 .191.1.638.638 0 0 1 .039.055l.011.018.02.032c.07.116.13.219.301.122.223-.126.099.076.136.139.037.063.074.24.235.29-.099-.252-.16-.504-.408-.593-.247-.088-.16-.138-.074-.302a2.573 2.573 0 0 1 .408-.492l.015-.016a.656.656 0 0 0 .048-.063l.009-.014.006-.01a.57.57 0 0 0 .07-.181.593.593 0 0 0-.025-.32c-.074-.253 0-.316.21-.303.132.007.244.08.355.151a2.33 2.33 0 0 0 .156.093l.009.004.017.008.02.008c.084.035.107.07.1.106-.009.044-.06.091-.1.146a1.102 1.102 0 0 0-.043.244.233.233 0 0 0 .009.05l.002.006c.023.063.088.11.217.205a.503.503 0 0 0 .084-.104c.027-.043.05-.088.072-.133a2.44 2.44 0 0 1 .066-.125.623.623 0 0 1 .038-.054c.098-.126.11-.126.197-.101.087.025.1.1.124.189a.837.837 0 0 1 0 .429.693.693 0 0 0 0 .416c.124-.126 0-.265.074-.379a1.5 1.5 0 0 1 .272-.567s.136-.151.186-.076c.049.076.16 0 .172-.088a1.046 1.046 0 0 0 .01-.077c.007-.045.023-.078.09-.112.062-.032.154.093.251.224.056.076.114.154.169.205.086-.204.126-.298.106-.376-.017-.068-.079-.125-.193-.23a.468.468 0 0 1-.16-.378c0-.051 0-.096.006-.132.01-.047.03-.082.076-.104a.441.441 0 0 0-.012.103.308.308 0 0 0 .06.214c.046.06.113.102.187.114.161.013.161-.189.161-.302a1.33 1.33 0 0 0 0-.142c.116.032.211.112.263.3 0-.034.018-.057.042-.077a.257.257 0 0 1 .017-.013l.012-.01h.001c.05-.037.105-.076.076-.177-.05-.177 0-.303.21-.316l.032-.001c.18-.01.188-.011.142-.238-.02-.095-.034-.13-.048-.138-.01-.006-.021.004-.035.017-.014.013-.03.029-.053.033h-.346l-.027-.002a.184.184 0 0 1-.08-.022.156.156 0 0 1-.046-.043.383.383 0 0 1-.045-.085c-.07-.166-.103-.248-.083-.313.02-.063.09-.11.231-.204a.796.796 0 0 1 .272-.138c.37-.076.494 0 .519.504a.377.377 0 0 1 .446.116c.035.043.06.094.073.149a2.409 2.409 0 0 0 0-.542c0-.089 0-.202.074-.252.075-.05.161 0 .223.088a.44.44 0 0 1 .03.05c.013.025.025.052.037.079v.001l.006.012c.03.067.064.136.112.186.087.088.284-.227.136-.467a.192.192 0 0 1-.018-.02l-.006-.008-.008-.014-.005-.008-.004-.008-.003-.008a.206.206 0 0 1 .044-.224c.087 0 .1-.164.16-.24a.298.298 0 0 1 .254-.145.293.293 0 0 1 .254.146l.014.02c.105.143.193.263.393.118.146-.104.173-.064.196-.03a.09.09 0 0 0 .02.024.031.031 0 0 0 .02.006.269.269 0 0 1 0 .24 2.179 2.179 0 0 1-.273.466 1.268 1.268 0 0 0-.183.358l-.01.033-.01.03-.004.016a1.285 1.285 0 0 0-.04.307 1.027 1.027 0 0 1-.173.605.192.192 0 0 0 0 .227.838.838 0 0 0 .198-.353c.265-.705.592-1.384.976-2.03 0-.1.124-.189.248-.163.061.012.095.05.116.1.012.03.02.065.024.1l.007.06v.004a.576.576 0 0 1 0 .29.643.643 0 0 0-.065.28c-.001.1.016.195.033.292l.02.122c.007.053.013.108.013.163.086 0 .136 0 .148-.075.23-.529.411-1.077.544-1.639 0-.151.074-.214.21-.151s.1 0 .136 0h.006l.011-.003a.439.439 0 0 1 .228-.04L33.58 1zm-5.574 36.662l-.222.429a.127.127 0 0 0 0 .176h.185a.778.778 0 0 0 .037-.605zm-4.054-8.068c.186.1.371.214.569.303l.028.012.06.027a.99.99 0 0 0 .037.015l.017.006.012.003a.052.052 0 0 0 .033 0c.014-.009.021-.03.035-.063.037-.089-.074-.164-.16-.177-.087-.012-.42-.126-.63-.126zm8.328-13.03c.086 0 .173 0 .197.152.025.151-.173.29-.284.277a.183.183 0 0 1-.14-.064.191.191 0 0 1-.045-.15c.012-.151.136-.214.272-.214z" fill="#E7E6E6"/></svg>