<svg width="31952" height="17234" viewBox="0 0 31952 17234" fill="none" xmlns="http://www.w3.org/2000/svg"><path fill-rule="evenodd" clip-rule="evenodd" d="M8958.86 17234h-112.98L8640 17134l-210-104-72-150c-140-288-150-330-124-584 118-1156 178-1548 428-2790 36-178 38-224 20-384-12-100-28-192-34-206s-90-78-186-142c-98-64-192-132-208-150s-148-254-292-524c-172-322-262-512-262-552 0-32 18-136 42-230 36-144 58-190 160-322 146-190 156-218 154-396 0-120-8-152-48-200-28-32-44-70-36-88 8-20-4-38-38-54-64-28-162 28-144 82 6 20 0 44-14 52-12 8-28 4-32-8-8-28-132-84-182-84-64 0-226-146-254-230-16-46-66-118-122-172-84-80-116-96-252-126-144-32-166-44-282-154-136-126-146-130-242-96-72 26-98 20-458-130-170-70-240-110-316-186-94-92-96-98-84-186 10-82 4-98-72-200-44-60-128-150-182-198-72-62-98-98-92-124 12-42-68-150-182-248-52-46-82-96-104-172-28-94-44-114-118-156l-88-48 14 88c8 50 40 124 72 168 34 44 82 122 110 174s60 100 72 106c28 18 98 182 98 232 0 20 12 38 26 38 44 0 100 74 86 112-20 54-216-140-244-242-16-60-40-90-92-120-38-22-84-52-102-68-30-24-30-30 12-62l44-36-96-92c-76-74-106-126-156-262-78-212-110-254-250-312-108-46-114-52-200-222-48-94-96-178-108-186-12-6-40-50-66-96-42-80-44-108-44-544-2-316-10-478-26-518-12.35-28.82-18.35-42.81-13.9-48.23 4.2-5.12 17.69-2.62 43.9 2.23 8.88 2.22 18.68 4.59 28.77 7.04 26.26 6.36 54.44 13.18 73.23 18.96 38 12 44 6 44-46 0-90-172-244-336-304-98-34-136-60-160-106-20-34-76-110-130-170-78-88-94-120-94-186 0-58-12-86-44-108-38-28-48-28-76-2-48 44-72 36-100-32-14-34-60-88-102-122s-110-114-152-180c-120-188-464-388-654-380-82 4-114-6-204-68-86-54-124-70-184-64-68 6-74 12-84 76-8 60-24 76-102 114-50 24-114 50-142 56-52 14-52 12-42-74 12-96 64-156 136-156 36 0 46-10 44-40-4-52-46-50-134 2-94 56-174 134-224 216-40 64-40 68-8 94 32 24 26 34-70 126-58 56-168 134-242 172-74 40-136 84-136 100s-20 42-46 60c-52 34-226 90-280 90-22 0-60 18-88 40-50 38-138 56-118 24 18-30 290-184 324-184 18 0 64-26 102-60 36-32 78-60 92-60 26 0 102-104 126-170 8-22 28-56 44-76 44-50 18-62-54-26-80 42-114 40-186-10-50-36-68-40-108-20-76 34-82 30-94-68-4-52-14-96-20-102s-38 4-72 20c-60 32-62 32-132-32-96-88-116-228-50-342 24-40 50-74 56-76 68-8 118-24 144-48 18-16 56-30 84-30 72 0 108-48 80-110-16-34-16-52-2-62 14-8 16-18 0-34-14-14-34-10-66 10-66 44-326 46-392 4-26-16-42-44-36-58 6-16-12-34-50-48-32-10-58-28-58-36 0-16 232-132 300-150 16-6 42 8 60 28 36 44 156 66 200 38 24-16 24-26 4-46-12-12-24-40-24-58 0-24-24-38-80-48-54-10-92-30-120-68-20-32-80-72-130-90-50-20-90-48-90-62 0-66 26-90 98-90 84 0 110-18 188-124 72-98 160-148 344-194 84-22 170-54 192-74 32-30 50-30 114-12 40 12 122 26 180 30 74 6 120 22 154 54 38 36 84 48 224 62 392 40 912 140 1052 204l136 60 78-76c72-70 84-74 126-52 40 20 64 16 174-36 72-34 152-62 180-62 38 2 16 20-90 74-162 84-144 114 22 38 62-28 128-52 148-52 40 0 94-56 104-108 4-32 24-18 104 74 98 114 132 138 132 86 0-16 18-48 38-74l38-48 14 72c12 60 20 72 54 62 22-4 44-22 50-36 16-42 116-34 222 18 112 58 354 120 402 104 42-12 172 56 172 92 0 14-22 38-50 52l-48 24 58 22c36 14 132 16 272 8l214-14 54 84c32 46 60 78 66 72s10-46 8-90c-4-78 0-82 88-122 104-44 108-76 6-40-86 30-164 28-154-2 12-38 160-84 218-70 28 8 60 34 72 58 26 60 270 136 432 136 104 0 116-4 134-50 26-66 58-78 158-50 80 22 84 24 70 90-10 54-4 70 28 88 26.55 14.22 40.51 21.7 47 17.54 7.2-4.62 5.21-23.57 1-63.53v-.01c-8-60 0-70 70-104 56-28 78-52 82-92 6-44 0-52-34-42-60 16-52-30 8-58 62-28 46-56-30-56-82 0-160-40-170-88-30-126-18-214 30-226 22-6 34-18 30-28-6-8 0-34 12-56 20-30 20-60 0-146-34-138-24-208 24-200 30 6 34-2 24-36-14-44-12-44 176-36 106 2 198 12 206 20 24 24-34 134-98 188-44 36-78 50-118 44-38-6-56 0-56 20 0 16-18 54-40 86l-42 56 54 14c36 10 62 36 82 86 16 40 52 102 80 138 48 64 48 68 14 94-22 16-46 30-54 30-10 0-10 10-2 22s40 18 78 12c80-14 134 16 90 48-22 16-24 24-4 32 12 4 24 40 24 76 0 126 36 102 88-54 14-48 62-46 112 4 48 48 54 120 10 120-48 0-36 76 20 132 58 58 118 56 126-6 4-22 24-58 46-78 20-18 38-50 38-68 0-20 12-46 28-60 24-18 24-34 8-70-34-76-8-110 86-110 116 0 260 90 252 160-2 34-18 52-48 56-60 8-58 34 8 130 64 92 52 120-66 188-60 34-82 38-106 20-24-20-28-18-18 8 10 24-2 32-46 34-36 0-64-10-72-28-12-32-98-38-116-10-6 12 4 28 22 38 26 14 28 26 10 60-40 76-90 88-186 44-46-22-122-38-166-38h-80l90 48c50 26 128 54 176 62 46 6 84 16 84 22 0 4-14 34-30 66-34 66-86 100-150 100-22 0-62 14-86 30-36 22-62 24-122 8-76-22-130-10-60 14 152 48 176 100 52 120-66 10-86 28-152 130-52 80-90 172-116 282-20 88-34 164-32 166 4 2 38 12 76 22 58 16 74 34 110 128 23.32 61.08 33.69 88.24 53.37 100.67 15.76 9.95 37.49 10.44 76.63 11.33 108 2 278 76 434 186 92 68 130 82 204 82 176 0 182 6 182 168 2 78 12 162 26 186 40 70 152 186 182 186 16 0 52-28 80-62 44-52 50-76 40-136-22-128-48-220-68-232-38-22-20-44 80-98 128-70 160-118 160-236 0-86-10-108-80-184-90-98-98-130-40-182 26-22 36-50 28-68-6-18-14-110-18-208-4-166-2-176 40-186 24-6 82 0 128 12 48 12 110 16 142 10 68-14 202 64 236 138 14 32 44 52 98 62 100 18 110 26 88 66-10 20-12 72-2 120 8 46 6 90-2 96-30 18-20 48 12 36 16-6 72 12 124 42l92 56 34-42c20-24 40-38 46-30 12 12 56-82 86-182 10-32 30-62 46-68s24 2 18 18 10 44 36 62c24 20 66 78 90 132 26 52 70 134 100 180 46 74 52 96 34 136s-14 52 26 86c26 22 54 40 62 42 8 0 18 18 26 38 6 22 38 42 76 50 70 14 154 64 154 92 0 10-28 22-62 30-40 10-56 20-42 34 12 12 34 12 62-4 48-24 82-12 82 32 0 16 20 28 48 28 64 0 82 30 74 130-6 104-50 146-172 168-60 12-112 36-132 60-68 84-124 96-374 86-246-10-324 6-324 68 0 16-30 42-68 58-58 24-152 122-242 250-18 26-16 26 20 2 22-16 72-60 110-94 68-64 198-132 302-156 38-8 68 0 100 28l48 40-48 40c-26 22-64 40-86 40-20 0-32 10-26 20 6 12 30 20 50 20 28 0 36 14 36 62-4 92 94 182 206 190 86 6 88 4 122-74 34-82 76-104 76-40 0 20 14 44 32 50 26 10 28 18 8 42-14 16-42 30-62 30-22 0-38 10-38 20 0 24-218 124-240 110-10-6-48 22-86 64-60 62-76 70-102 48-46-38-40-60 40-136 58-54 78-62 100-44s36 18 52 2 12-26-16-36c-20-8-42-22-50-32-6-8-46 2-88 24-44 22-88 40-100 40s-36 18-56 40c-18 22-48 40-64 40-18 0-68 18-110 40-90 46-148 152-134 244 4 38-2 56-20 56-14 0-42 8-62 18-18 10-66 28-104 40-42 12-48 18-14 12 30-6 54-2 54 10 0 10-24 20-54 20-66 0-116 28-100 54 6 10-6 48-28 84-32 54-44 62-70 40-26-20-26-16-8 30 14 38 14 66-2 96-22 42-24 42-52 4-18-24-24-64-18-104 8-60 6-64-22-42-24 22-28 50-16 148 6 66 20 128 28 140 26 32 18 150-10 150-40 0-56 42-26 62 24 14 22 18-2 20-4.91.61-10.38 1.41-15.95 2.23-12.6 1.85-25.73 3.77-34.05 3.77-10 2-48 30-82 62-34 34-112 106-174 162-150 138-158 190-74 410 72 188 86 320 38 368-26 28-34 26-80-24-64-70-118-204-118-294 0-92-98-180-182-162-34 8-74 2-102-16-42-28-94-30-336-16-64 4-66 6-24 24 26 10 42 26 34 36-6 10-2 24 10 32 10 6 20 22 20 34s-14 10-32-6-56-24-82-22c-26 4-58-2-72-12s-66-26-118-32c-74-12-110-6-180 30-200 102-294 216-254 306 20 40 18 80-10 196-26 118-30 168-12 254 26 140 114 294 208 370 68 56 78 58 138 36 38-14 98-24 138-24 82 0 118-42 156-178 26-98 70-122 222-122 108 0 120 18 70 116-14 30-32 88-40 130s-22 70-34 64c-10-8-18 30-18 88 0 54-8 106-20 112-10 6-20 26-20 42 0 26 26 30 146 28 224-6 252-2 294 40 48 48 52 134 10 276-28 92-28 110 0 178 70 166 164 220 296 172 104-38 172-26 236 44 54 56 78 62 78 24 0-16 34-82 78-146 74-118 80-122 248-176l170-58 358 86c21.84 5.1 42.67 10 62.57 14.6l.13.1.34.1c267.86 62.6 365.5 85.4 444.67 136.7 45.41 29.4 84.74 68.2 146.62 129.3h.03l.11.1c9.89 9.8 20.36 20.1 31.53 31.1 200 194 266 234 430 258 120 18 172 68 386 364l146 202 394 142c332 122 416 160 524 244 84 64 146 98 184 98 66 0 94 52 110 210 9.9 99.2 8 102-168 354.2l-4 5.8c-12.1 17.5-23.4 33.7-34 48.9-67.7 97.2-105 150.9-128 210.1-28.4 72.9-34.9 154.4-49.6 336.1v.8l-.1.7c-1.9 24-4 49.7-6.3 77.4l-18 216-116 170-118 170h-92c-82 0-114 16-270 126-192 134-204 154-208 332-2 106-4 110-272 454-190 242-284 348-312 348-20 0-92-22-158-48-66-28-124-42-130-32-12 18 66 100 94 100 24 0 76 128 76 190 0 30-30 82-72 128-74 84-184 122-348 122h-80v110c0 98-6 114-50 134-36 16-70 16-118 2-62-18-70-16-80 20-4 22 4 78 20 126 28 80 26 92-20 198-40 86-66 118-118 140-90 38-126 118-84 184 18 26 54 58 82 70 60 28 60 54-2 138-28 38-66 94-84 128-20 32-60 80-92 108-36 36-54 70-52 112 2 112 48 286 88 332 82 90 194 158 266 158 88 0 76 12-82 82l-115.14 52zM31952 3884.86v52.03c-1.3-2.64-2.6-3.45-4-2.89-16 6-50 2-74-10s-70-26-104-28c-38-4-62-18-66-40-10-50 104-48 202 4l46 24.86zM11533.9 0h840.1c168 26 304 60 430 112 102 40 192 78 200 86 8 6-44 34-114 60-144 50-152 82-22 82 46 0 90 6 98 12 6 8 0 44-18 84-16 38-24 74-20 78 4 6 44-10 88-32 66-34 104-40 198-30 106 12 120 8 164-40 40-44 66-52 156-52 100 0 326 72 326 104 0 26-248 152-326 166-60 12-70 20-52 42 30 36 14 56-148 170-148 104-254 234-254 316 0 30 30 76 78 122l78 76-98 96c-54 52-98 102-98 108 2 6 36 34 78 64 72 48 80 64 102 192l26 140-102 120c-72 86-114 164-146 262-44 134-44 142-12 252l32 114-54 54c-30 30-134 102-232 160-148 90-222 118-438 174-226 56-268 74-304 122-118 162-146 182-362 248-172 54-216 74-236 116-16 28-84 226-154 438-10.2 30.67-19.5 59.12-28.1 85.47-61.7 188.08-88.4 269.47-139.9 290.77-39.3 16.24-93.1-2.5-187.9-35.55v-.01c-16.7-5.82-34.7-12.08-54.1-18.68l-182-62-150-232c-186-290-208-330-278-542-54-160-56-176-34-298l24-128 106-46c98-44 106-52 106-118v-70l-130 38c-116 34-134 34-160 8-56-58-72-102-50-158 30-80 26-102-42-180-60-68-62-76-40-148 32-110 30-128-48-298-110-234-224-400-286-412-220-48-440-66-580-48l-150 18-162-100c-108-64-190-134-246-204-84-108-98-146-70-194 18-28 310-116 504-152l130-24 34-94 36-94h-60c-68 0-160-32-160-56 0-10 170-104 378-210l378-194 256-30c142-16 304-40 358-50 86-18 130-14 292 28 104 28 214 60 244 70 32 12 66 22 78 22 36 0-46-80-140-140l-88-54 154-74c174-82 236-86 454-42 134 30 148 28 170-2 14-18 28-42 32-54 1.5-4.362 11.6-9.253 27.9-14zM29920 16100c0-10-8-20-20-20-10 0-20 10-20 20 0 12 10 20 20 20 12 0 20-8 20-20zm198-126c32-48 66-112 74-142 14-56 102-138 130-120 10 6 18-6 18-26 0-22 28-76 62-122 48-66 60-98 48-138-8-38-18-46-36-28-34 34-54 26-54-18 0-22-14-40-28-40-28 0-56 40-120 170-36 74-120 154-206 198-64 32-226 224-226 268 0 14 20 24 46 24s64 14 86 30c74 56 140 38 206-56zm-2014-350c42-72 64-204 40-242-16-22-32-22-86-2-56 20-82 20-144-6l-74-32v78c0 154 68 260 168 260 48 0 72-14 96-56zm2536-248c22-36 50-100 62-140 14-52 30-76 56-76 34 0 82-74 82-130 0-22-22-26-100-16-98 12-100 10-122-52-18-50-28-58-50-40s-30 14-40-14c-40-120-82-192-124-220-66-44-72-26-14 52 28 38 50 78 50 92 0 12 18 46 40 74 52 64 50 146-2 232-40 66-40 70-6 96 20 14 48 26 62 26 36 0 32 62-4 114-24 32-24 44-4 52 52 22 76 12 114-50zm-2854-296c28-22 58-40 68-40 8 0 28 18 42 40 34 54 96 50 176-10 36-28 84-50 108-50 102 0 142-62 170-264 8-60 38-132 80-192 66-98 136-288 170-470 14-68 10-144-12-270-28-166-34-178-128-274-62-64-100-118-100-148 0-38-8-44-48-34-42 10-50 2-80-106-30-110-40-120-148-184s-114-72-116-148c0-44-20-112-44-150s-44-98-44-130c0-70-30-110-82-110-20 0-40-16-46-34-56-204-102-326-120-320-40 12-70 146-78 350-12 302-100 420-218 288-28-32-100-86-162-122-152-86-164-104-134-196 14-42 42-100 64-130l38-54-62-32c-34-18-120-34-196-36-128-4-134-2-128 40s2 44-84 34c-86-12-92-10-130 54-24 38-48 98-54 134-6 34-20 64-30 64s-62-24-116-54l-98-56-88 80c-50 44-138 120-196 168-76 64-120 122-160 212l-56 124-166 36c-206 42-292 86-376 182-50 56-70 68-82 46-46-74-80 206-40 314 16 38 16 74 2 114-18 46-14 76 20 150 66 144 90 222 128 410l34 176-46 50-46 50 60 58c46 48 78 62 154 64 78 4 102-4 152-52 54-52 76-58 236-66 170-10 180-14 210-68 38-64 150-118 250-118 38 0 92-18 126-44 58-42 60-42 232-8 254 50 292 70 366 200 36 62 74 112 84 112s50-44 92-100c40-54 82-100 90-100 24 0-4 100-48 176-32 52-34 64-10 64 16 0 44-20 60-44l32-46v62c2 44 16 74 50 94 28 20 62 74 80 130 42 122 84 162 206 196 128 34 134 34 192-12zm-10728-482l288-62 140-122c84-76 186-194 256-302 114-168 118-182 118-304v-128l116-56c106-50 116-60 132-142 18-88 8-156-50-296-24-60-22-66 80-184 68-80 148-144 228-186 176-94 220-180 210-426-6-154-16-196-62-274-40-70-54-120-54-204 0-60-8-116-20-122-42-26-16-110 82-272 142-236 178-280 438-556 188-198 254-286 354-468 134-240 224-484 190-518-14-14-114 4-302 54l-280 76-70-58c-50-44-66-70-58-102 12-56-156-260-244-298-52-20-68-46-98-148-24-78-66-156-112-210-64-74-76-106-88-216-12-100-26-140-64-176-26-24-62-92-78-146-18-56-86-212-152-346s-118-260-114-280c4-26 22-10 62 58 68 118 90 130 112 72 14-32 20-36 20-12 2 18 14 42 30 50 14 8 64 86 112 172s106 182 132 214c68 78 128 218 128 296 0 40 16 78 46 104 13.2 13.21 29.5 28.24 44.1 41.76 11.9 11.03 22.7 21.05 29.9 28.24 68 62 180 310 210 462 8.4 40.26 16.9 81.83 24 117.33l.1.11v.12c8.1 40.23 14.7 72.64 17.9 86.44 6 34 22 44 76 44 36 0 78-12 90-28 14-16 86-44 162-62s152-50 172-72c18-20 42-38 50-38 54 0 238-88 248-118 14-44 144-106 192-92 28 10 40 0 50-42 10-38 40-64 116-100 90-42 104-56 124-132 12-48 30-84 42-82s44-20 72-50c56-60 92-164 56-164-12 0-34-26-52-60-18-32-42-60-56-60s-58-22-100-50c-64-44-74-62-74-130 0-44-6-80-14-80-10 0-46 42-84 90-72 98-162 138-282 126-68-6-70-8-76-100-6-104-38-130-48-40-6 50-12 46-64-56-30-60-86-160-124-222s-68-124-68-140c0-44 64-98 120-98 60 0 102 40 140 136 16 40 70 100 138 150 92 68 128 84 202 84 50 0 110-8 132-16 36-12 50-4 84 54 38 64 54 72 232 112 166 38 206 42 318 22 70-12 168-22 220-22 86 0 92 4 114 72 26 78 174 186 256 188 26 0 40 8 34 20s-30 20-50 20c-62 0-62 28 2 96 82 88 142 84 202-10l46-76 14 100c6 56 14 184 14 288 2 184 4 192 120 450 184 412 266 572 292 572 42 0 130-82 130-122 0-20 8-38 16-38 42 0 64 58 64 176 0 70 10 144 20 166 28 52 92 48 130-10 38-56 24-102-84-274-66-110-70-124-56-222 8-58 16-174 18-256l2-148 78-44c114-64 512-468 512-520 0-38 14-44 136-58 74-6 164-30 200-52 36-20 70-38 74-38s18 32 30 72c14 40 54 106 90 146 106 118 154 230 146 348-6 98-2 104 44 110 36 6 64-10 112-68l64-76 42 140c62 198 88 414 72 602l-14 164 102 108c86 92 110 134 144 256 46 166 56 182 166 262 110 78 138 76 100-14-14-38-28-106-28-150 0-112-42-182-156-266-80-58-102-86-122-162-12-54-38-100-62-112-44-24-52-98-18-164 14-24 28-88 36-144 10-86 20-104 56-108 34-6 42 2 34 22-8 22 12 38 64 54 106 36 276 220 288 314l10 74 182-154c102-84 188-166 194-182 6-14 6-82 0-150-10-116-22-138-150-308-74-102-142-204-148-230-20-76 32-164 144-238 90-60 114-68 162-52 42 14 54 32 56 76 0 30 12 60 26 64 16 6 24-10 24-48 0-52 12-60 186-124 370-134 460-186 572-324 84-106 282-446 282-486 0-6-32-16-70-24-38-6-70-16-70-22s24-28 52-52l54-40-68-56-68-56 66-2h64l-52-104c-28-58-78-134-110-166l-58-62 154-128c132-108 148-130 114-142-56-22-184-22-228 2-30 16-48 4-108-68-40-50-72-94-72-100s38-30 84-54c48-24 118-70 160-104 58-46 86-56 126-46l54 14-52 68c-28 36-52 86-52 108 0 40 12 36 130-40 128-80 132-82 182-48 42 28 48 42 36 86-30 116-24 134 62 144 66 8 78 16 74 50-4 22-10 106-14 186-5.3 83.94-7.8 123.28 9.6 136.63 15.4 11.77 46.3 3.31 104.4-12.63 98-28 136-86 136-206 0-110-20-158-106-250l-62-64 92-96c52-52 112-136 136-188 22-52 70-116 104-144 58-44 68-46 98-22 68 64 136 38 290-114 252-244 402-506 478-832 68-296 66-326-20-402-82-72-150-80-186-22-38 64-122 52-150-20-14-40-40-62-78-70-88-20-84-42 18-114 54-36 206-170 338-298 134-128 260-244 282-256 26-14 114-16 256-6 168 12 222 10 254-12 28-20 68-24 142-16 126 18 142 28 112 66-1.6 1.8-3.1 3.49-4.5 5.08-6.5 7.24-11.1 12.38-10 15.32 2.8 7.16 39.7 1.19 167-19.38 13.5-2.18 27.9-4.52 43.5-7.02 104-16 114-26 74-70-34-38-32-44 86-162 106-106 134-124 224-138 58-8 120-22 140-28 32-10 36 0 34 68 0 44 4 86 12 94 22 20 174-110 228-194 40-64 60-78 114-78 54 2 60 4 32 26-18 14-42 70-56 128-22 92-36 112-124 168-56 34-146 118-204 182-56 66-144 140-194 166-158 80-220 190-220 394 0 118 84 546 112 574 18 18 124-118 150-192 12-38 44-76 74-90 38-20 56-46 64-94 10-68 22-78 124-120 48-18 54-30 44-78-10-50-2-68 58-116 54-42 66-62 50-82-12-14-16-54-8-88 10-54 4-62-48-82-34-10-60-24-60-30s38-72 84-148c78-126 88-136 164-142 46-6 98-16 118-24 26-12 34-8 34 20 0 32 4 32 46-6 64-60 176-70 250-26 30.8 18.46 45.8 27.46 59 25.36 12.6-1.98 23.6-13.98 45-37.36 26-26 160-116 300-198l256-152 92 24c126 32 148 8 94-94-24-42-42-92-42-110s-18-48-40-68c-52-48-50-70 6-72 24 0 76-10 114-24 64-22 70-32 80-114 8-64 20-92 46-96 24-6 34 6 34 42 0 46 10 52 120 64 114 14 120 18 136 76 12 46 28 62 54 60 22-2 62 10 94 26 76 40 114 36 102-8-4-20 6-48 22-62 18-16 32-42 32-60 0-26 16-32 76-26 58 6 84-4 120-42l46-48-78-62c-76-60-246-116-294-96-16 6-20 30-14 64 16 84-38 52-90-56-56-114-86-136-452-326-272-142-304-154-468-170-96-10-218-20-270-20h-96l14 92c20 154-74 176-194 46-60-66-82-78-112-64-52 24-546 16-612-12-46-18-56-34-56-90 0-84-20-100-170-142-104-32-140-32-280-12-88 14-176 28-196 34-24 8-68-22-140-98-92-96-118-112-224-134-66-12-182-40-256-60-76-22-210-44-300-52l-164-12-36 62c-28 48-32 70-14 102 28 54 18 68-80 100-74 24-90 24-150-10-60-32-80-32-158-10-82 22-96 20-160-20l-70-42-66 90c-34 50-74 92-88 92-48 0-166-82-180-124-6-22-6-98 2-166 12-120 10-130-46-192l-58-64-142 22c-78 14-168 24-200 24-46 0-62 10-72 48-10 42-26 48-170 60-130 12-172 8-224-20-60-30-62-36-32-58 32-22 26-28-40-40-42-8-172-18-290-20-160-2-226-12-264-36-62-42-132-44-184-4-16.9 13.11-25.8 20.08-24.6 23.99 1.3 4.45 15.7 4.95 46.6 6.01 44 0 52 6 30 18-44 24-404 126-412 116-6-4 148-102 340-216 386-230 426-270 348-354-26-28-86-76-134-106-76-50-110-58-226-58-122 0-136 4-136 40 0 32-14 40-70 40-82 0-86-10-24-60l44-36-50-12c-17.6-2.52-47.1-8.21-77.6-14.07v-.02h-.1c-17.8-3.45-36-6.95-52.3-9.91l-80-16 76-20c82-22 92-40 36-72-68-34-158-22-280 40-84 42-124 74-138 116-16 48-40 62-166 100-82 24-310 70-506 104-328 54-368 64-466 130s-106 76-106 150c0 102-18 110-328 140-130 12-244 26-254 30-8 6-12 26-8 46l.5 2.39c27.5 135.63 27.9 137.68 99.5 149.61 52 10 78 28 92 64 38 104-6 112-170 28-134-68-180-72-290-28-142 56-124 88 98 174 16 6-18 12-76 12-88 2-114-6-156-50-50-48-52-70-20-148 8-18 0-48-16-70-29.9-37.92-30-36.01-32 25.62v.38c0 54-12 70-70 98-88 42-102 80-50 150 42 58 54 146 20 166-24 16-26 130-2 168 14 22 36 22 122 4 118-26 186 0 210 78 22 66-4 70-56 8-48-54-52-56-134-30l-84 24 14 94c12 92 10 96-84 190-54 52-124 102-156 110-72 20-174-4-212-50-26-30-22-32 26-20 76 20 250-88 288-178 40-98 34-138-24-166-50-22-52-26-36-138 22-156 20-222-14-298-24-58-22-78 8-160 18-50 30-96 26-100-6-6-80-14-168-20l-158-12-26 94c-18 68-48 110-114 164l-90 74 46 36c40 30 44 40 22 88-38 82-30 98 66 168 70 50 90 78 90 120 0 82-18 86-98 24-116-92-378-182-528-182-144 0-168 12-122 62 28 32 28 40-2 86-40 60-128 72-122 18 2-28-10-34-48-30-228 24-262 32-292 66-46 50-80 48-134-10l-44-48-220 98-14.5 6.57-23.4 10.61c-195.8 88.82-232.2 105.32-242.9 132.1-2.4 6.11-3.5 12.76-4.9 20.93l-.3 1.79c-4 28-26 46-70 54-50 10-72 2-112-36-58-58-44-112 28-112 58 0 66-40 16-84-48-42-218-72-194-34 10 16 18 74 20 128 2 56 10 128 18 162 18 80-8 96-106 66-72-20-82-18-190 56-68 46-108 86-104 102 6 16 16 50 22 76l12 48-116-42c-66-22-136-36-158-34-58 8-50 62 16 92 56 26 74 82 30 86-58 6-102-8-172-48-98-56-104-66-104-188 0-92-8-112-70-174-38-40-70-74-70-80 0-4 52 14 116 40 194 80 390 116 474 88s156-128 138-190c-20-64-88-128-166-152-40-12-130-54-202-94-106-58-158-74-278-84-94-6-152-20-158-34-4-16 12-26 40-26 21.8-.99 32.8-1.49 34-5.15 1.2-3.72-7.8-10.72-26-24.85-26-20-48-22-74-10-50 28-182 24-222-8-48-36-44-48 12-38 48 10 132-22 132-50 0-8-42-32-94-50-86-32-98-32-118-4-32 44-54 38-28-10 18-36 16-40-28-40-30 0-60 16-72 42-18 32-28 36-50 18s-34-12-60 28c-20 28-42 52-52 52-32 0-20-52 24-108l40-52h-50c-32 0-82 28-128 70-46 40-138 90-226 122-82 28-188 74-238 98-114 58-440 418-550 608-118 206-272 366-434 454-166 92-236 166-236 254 0 98 58 396 80 424 28 34 118 50 170 30 22-8 86-56 142-106l1-.87c99-89.14 101.1-90.99 121-47.13 12 24 34 84 48 134s46 118 72 154c26 34 46 90 46 124 0 90 20 122 74 122 32 0 54-14 60-38s34-44 66-52c84-18 120-74 140-212 16-118 26-134 108-210 50-44 92-94 92-110 0-18-34-54-74-80-64-40-76-60-82-128-8-106 82-244 214-328 134-88 170-130 154-190-10-38 2-66 50-122 54-60 74-70 150-70 130 0 222 106 134 152-20 10-108 92-194 182l-158 164 26 90c14 50 20 114 16 140-8 40 6 62 66 110l74 62 230-52 228-50 84 48 86 48-94 14c-50 8-96 26-102 40-8 20-46 24-146 16-100-6-150 0-198 24-78 40-80 58-14 124 54 54 62 106 30 170-28 50-58 48-120-12-30-28-66-46-82-40-46 18-86 148-80 256 4 104-12 156-38 114-12-20-30-12-66 26-54 60-98 68-134 24-30-36-108-22-174 30-26 20-78 42-116 48-40 8-66 22-60 34 8 10-2 18-20 18-16 0-36-14-42-30-22-58-86-76-138-42s-110 42-110 18c0-10-28-32-60-50-46-26-60-48-58-90 0-30 6-44 12-30 10 28 66 34 66 4 0-10-16-26-34-38-34-18-32-22 10-68 30-32 40-54 26-64-12-6-22-42-22-78v-66l-84 40c-48 24-92 52-100 62-22 30-20 126 4 168 10 18 28 78 38 134 22 110 10 130-82 130-30 0-60 10-66 20-6 12-32 20-56 20-70 0-156 68-194 152-40 92-66 114-164 146-60 20-76 36-76 72 0 30-18 58-44 72-26 12-62 40-82 62-36 38-116 34-130-6-18-44-44-12-40 46 6 56-2 68-42 72-26 4-56-2-66-12-16-16-102 0-152 28-4 2 2 22 14 42 10 22 56 50 102 64 58 16 88 40 102 76 10 30 38 66 62 82 36 26 40 46 32 166-10 202-12 202-336 182-218-14-278-12-324 12-48 22-56 38-48 82 34 174 34 244 2 344-32 96-32 108-4 158 18 28 26 72 20 96-10 40-4 44 92 44 92 0 104 6 132 60 34 66 62 74 118 30 22-18 82-30 136-30 78 0 108-10 144-50 26-28 54-50 64-50s38-32 64-70c34-54 40-80 26-108-34-60 76-212 192-268 86-40 96-52 102-118 4-40 24-88 44-106 36-32 44-32 134-2l96 32 118-80c108-74 124-80 174-60 36 16 64 48 78 92 24 70 232 268 284 268 36 0 210 168 226 222 8 22 0 60-18 88-52 78-2 76 58-2 46-60 52-80 34-110-54-86 4-152 76-88 22 20 46 30 52 24 20-20-30-72-126-128-48-26-86-58-86-68s-12-18-28-18c-44 0-146-94-160-148-6-28-38-66-70-84-74-44-98-178-36-212 46-24 94-8 94 34 0 24 12 30 40 20 30-10 46 4 80 70 24 46 70 98 104 116s114 72 180 120c116 84 118 88 106 162-10 64-2 90 70 198 46 68 90 124 100 124s12 32 6 70c-8 56-4 72 26 84 22 8 52 28 68 44 26 26 30 24 38-10 4-20 16-48 26-62s12-36 4-48c-10-18-2-20 28-14 58 16 56-14-4-66-28-24-44-54-40-68 6-14-4-54-22-88-32-64-30-68 42-64 28 4 46-10 54-40 10-38 20-42 88-30 144 26 144 28 124 98-2 7.42-3.9 14.09-5.6 20.1-9.4 33.5-12.9 46.33-8.3 51.16 2.9 3 9 2.92 18.9 2.8 2.1-.03 4.5-.06 7-.06 20 0 30 20 30 62 0 34 18 96 40 136 72 126 256 212 288 132 16-42 70-38 142 10 74 48 126 50 190 6 58-40 190-56 168-22-8 12-16 82-18 154-4 104-18 162-72 272-88 182-132 208-286 170-102-24-122-24-184 8-68 32-78 30-208-8-74-22-148-36-166-30-16 8-34 0-40-16s-48-36-92-44c-42-6-84-26-90-42-16-40-200-38-240 4-32 30-40 58-34 96 8 42-20 108-48 120-18 6-66-6-106-26s-102-44-138-50c-38-8-84-40-112-78-40-54-76-72-204-104-150-36-270-106-270-156 0-12 18-42 42-66 34-36 38-52 18-88-12-22-18-68-10-100 16-76-14-84-250-58-104 10-238 18-296 18-142-2-324 46-480 130-100 54-138 64-168 48-20-10-66-14-102-8-48 10-74 4-92-18-50-60-94-38-138 68-28 70-62 112-106 136-132 72-158 106-180 244-28 190-32 194-146 268-146 92-170 122-304 368-64 118-138 248-164 292-54 86-52 114 8 384 21 94.57 29.8 133.93 24.7 171.41-3.7 26.71-14.4 52.47-32.7 96.59-24 58-44 122-44 140 0 46 348 652 418 726 42 46 302 242 394 300 12 8 84-8 160-32 116-38 156-42 248-26 102 16 120 12 232-44s296-104 400-104c30 0 70 34 120 100l76 100h124c120 0 126 2 166 68 42 66 42 72 12 282-16 118-24 224-16 238 6 12 64 90 126 172 112 148 116 156 188 462 40 172 72 328 72 346s-22 86-50 152c-28 64-64 208-80 320l-30 202 96 194c124 248 138 288 174 554 28 192 38 228 88 280 74 78 202 380 202 476 0 56 16 92 72 154 40 44 88 80 104 80 18 0 162-28 322-62zm2008-946c64-26 70-36 178-404 62-208 118-426 126-484 8-56 22-100 30-94 58 36 26-228-34-294-44-48-60-46-76 18-6 28-52 100-102 158-68 80-116 114-190 138-130 44-152 94-112 254 28 108 28 120-10 192-70 130-74 172-38 334 44 204 90 240 228 182zm7584-1392c8-12-14-20-48-20s-62 10-62 20c0 12 22 20 48 20 28 0 56-8 62-20zm1668-134c-16-20-84-92-152-164-126-128-154-182-94-182 66 0 18-70-68-96-60-20-88-42-96-76-14-52-158-150-278-188-44-14-146-52-226-82-198-78-232-76-326 26-74 82-78 82-114 48-22-18-50-76-64-128-12-52-34-100-46-108-40-26-142-18-190 16-54 38-56 68-4 68 22 0 40 12 40 28 0 36 66 60 118 42 22-6 44-2 52 10s-12 20-48 20c-32 0-72 6-90 12-28 10-28 18 2 70 40 66 52 70 86 28 22-28 28-26 52 6 14 22 104 68 200 106 164 64 176 72 212 156l36 86-54 54-56 52 114 6c88 4 120 14 136 42 46 90 238 62 270-38 10-32 30-40 94-40 72 0 96 14 198 110 84 80 130 110 172 110 30 0 70 10 86 20 48 30 68 24 38-14zm-2264-34c30-26 90-62 132-78 96-42 98-80 2-62s-228 106-228 152c0 48 26 46 94-12zm-392-12c-50-42-102-52-102-20 0 26 62 58 110 58 38 0 38-2-8-38zm-128-114c4-12-12-30-38-36-26-10-48-6-52 8s-34 18-86 10c-64-10-78-8-78 20s18 32 124 28c70-4 126-16 130-30zm436-4c66-6 110-18 98-26s-76-6-140 4c-64 12-160 14-212 8-62-8-96-6-96 8 0 30 58 42 150 30 27.8-3.8 73.8-9.2 120.6-14.6 27.4-3.2 55-6.4 79.4-9.4zm-838-52c-6-16-34-30-62-30s-60-18-74-40-42-40-62-40-56-10-80-22c-32-18-44-18-50 0-12 36-124 26-196-20-106-64-250-60-248 10 2 36 174 112 258 112 42 0 108 12 144 28 38 14 120 28 184 28 64 2 130 12 150 22 38 22 54 0 36-48zm104 34c4-14-10-24-34-24-28 0-38 10-28 30 12 34 50 30 62-6zm3554-224c-66-70-82-66-48 8 14 32 40 52 64 52 38 0 36-6-16-60zm-378-24c86-60 118-110 86-148-34-42-58-34-58 20 0 34-16 54-44 66-48 16-62 18-176 24l-70 4 48 38c60 52 134 50 214-4zm-4100-24c36 2 46-12 56-88 22-170 18-198-46-220-40-14-60-38-68-80-8-36-28-66-54-74-30-10-38-24-28-58 8-32-8-66-54-118-36-40-78-74-94-74-36 0-190-122-314-250-74-76-122-108-178-118-42-8-80-10-86-4-20 20 72 142 132 178 36 20 62 52 62 74s22 54 48 72c28 16 60 64 74 104 12 40 34 84 50 96 14 12 54 80 86 150 60 132 336 456 360 424 6-10 32-16 54-14zm1358-98c8-58 10-122 6-142-2-22 6-42 20-46 14-6 24 10 24 40 0 26 14 60 30 74s30 42 30 62c0 50 24 48 72-4 28-32 30-46 14-52-14-6-26-30-26-54s-14-64-32-88c-28-42-26-46 26-94 30-26 68-50 82-50 24 0 36-40 10-40-6 0-62 16-122 34-104 34-110 34-136-4-34-46-36-98-2-124 14-12 82-14 174-4 144 14 152 14 196-34 24-28 44-60 44-72s-20-4-44 20c-48 44-154 46-262 6-68-26-130 22-154 118-8 38-36 124-62 188l-44 120 44 34c36 30 40 48 30 126-12 84-10 92 28 92 34 0 44-16 54-106zm242 40c4-48 0-52-34-34-38 22-50 62-24 88 26 24 52 0 58-54zm2650-100c-16-16-22-14-22 8 0 40 26 68 36 38 6-14-2-34-14-46zm-3296-22c26 0 34-18 34-86 0-66 14-100 60-152 38-44 60-92 60-128 0-66 32-108 72-92 44 16 32-50-14-74-22-12-36-34-32-46 4-14-4-54-18-92-38-90-36-100 24-122 28-12 44-30 38-42-8-12 4-26 28-32 44-12 58-46 20-46-14 0-52-34-88-74-76-90-110-82-186 42-30 50-78 98-106 110-30 10-70 46-90 80s-68 74-110 90c-76 32-130 96-108 132 20 30-56 24-104-10-64-46-92 2-78 140 10 120 24 156 52 140 18-12 34 34 44 130 4 40 16 50 66 50 34 0 68 12 76 26 12 16 28 18 52 6 40-22 186 20 198 58 4 12 22 16 42 8 18-8 48-14 68-16zm1302-66c-46-34-196-34-226 0-34 42-6 54 88 40 46-6 102-2 122 10 52 30 66-14 16-50zm-288 36c0-24-74-48-100-32-40 24-20 50 40 50 34 0 60-8 60-18zm2240 10c0-6-10-16-24-24s-16-6-8 8c14 24 32 32 32 16zm-3940-60c0-16-8-36-20-42-10-6-20 6-20 28 0 24 10 42 20 42 12 0 20-12 20-28zm3880 18c0-4-20-18-44-30-44-22-44-20-8 8 42 34 52 38 52 22zm-4042-88c-26-58-56-76-82-52-6 6 12 38 40 70 62 70 78 64 42-18zm1968-296c-6-14 0-26 14-26 16 0 18-20 10-64-20-86-22-88-70-46-34 32-38 52-28 138 18 136 52 182 70 92 8-36 10-78 4-94zm-258-556c-14-58 8-108 32-70 28 46 64-2 52-68-8-34-14-76-14-96 0-18-18-48-40-68-36-32-38-32-38 8 0 24-10 44-20 44-12 0-40 18-64 40-38 36-44 36-66 6-20-28-32-22-98 44-42 40-68 80-62 86 8 8 20 0 30-16 10-18 44-30 84-30 56 0 66 8 68 50 4 90 8 96 64 116 70 24 88 14 72-46zm-652-242c24-16 44-40 44-52 0-14 18-44 42-68 24-26 38-62 34-92-8-42-10-40-40 24-16 38-50 88-76 110-50 46-90 110-66 110 10 0 38-14 62-32zm486-120c20-18 38-54 36-76 0-24-6-30-12-16-6 18-24 10-56-26-62-66-130-68-130-2 0 50 44 102 66 78 20-20 16 20-6 54-12 20-8 40 16 66 18.1 20.2 26.5 29.7 31.4 28.1 4.3-1.4 5.8-11.4 8.6-30.1 4-22 24-56 46-76zm74 14c6-16-2-24-18-18-14 4-30 20-34 34-6 16 2 24 18 18 14-4 30-20 34-34zm56-72c-8-30-4-50 8-50 14 0 20-28 16-64-4-50-16-68-50-72-52-8-60 20-16 56 16 14 30 32 30 42s-14 18-30 18-30 10-30 20c0 12 10 20 20 20 12 0 20 18 20 40s10 40 22 40c14 0 18-20 10-50zm-118-164c-18-18-40-28-48-20-6 8 4 28 26 42 50 38 66 20 22-22zm-200-40c10-28-52-90-74-76-24 16 22 112 48 104 10-4 22-16 26-28zm216-46c-8-22-4-40 8-40s22-6 22-16c0-22-154-66-188-52-66 26-84-138-20-178 18-10 24-56 22-134 0-64-10-112-18-108-8 6-32 2-52-10-58-30-86 4-98 124-6 64-20 114-32 114-30 0 2 126 36 146 16 8 30 34 30 54 0 38 20 48 76 42 16-2 40 6 56 20 20 16 28 16 28 0 0-42 54-22 76 28 28 60 72 68 54 10zM8736 9298c58-2 110-10 114-18s-30-40-76-70c-70-48-104-56-204-56-17.68.54-35.08 1.07-51.23 1.57h-.06c-44.09 1.36-78.86 2.43-84.71 2.43-8 2 2 22 26 46 58 64 50 76-52 76-54 0-86 8-78 20 6 12 58 20 112 20 74 0 102 8 112 32 10 28 16 28 44-10 24-32 56-42 138-44zm-618 44c24-16 20-24-22-44-30-12-70-16-90-10-32 14-32 18 14 42 60 34 62 34 98 12zm958-36c4-16-12-26-44-26-52 0-80 24-58 48 22 22 92 4 102-22zm15658-18c36-10 88-98 88-146-2-30-104-16-148 20-58 44-68 76-30 114 28 28 30 28 90 12zM8276 9128c62-18 56-34-30-76-20.26-9.65-44.71-21.63-68.42-33.23l-.11-.06-.02-.01c-25.38-12.43-49.88-24.43-67.45-32.7l-26.49-13.71-12.81-6.63c-208.69-108.02-266.97-138.19-327.59-144.02-23.5-2.26-47.34-.87-80.42 1.07-7.11.41-14.64.86-22.69 1.29-120 6-148 16-194 62-70 68-30 70 84 2 82-48 146-50 120-6-8 10 4 18 26 18 68 0 234 64 286 112 28 26 66 48 84 48 40 0 44 22 10 56-18 18-2 24 76 24 54 0 118-6 144-12zm17516-444c16-106-24-114-100-22-60 72-66 138-18 212l34 52 36-80c18-42 40-116 48-162zm868-804c52-102 50-148-4-186l-46-32h44c24-2 50-12 56-24 8-10 24-16 36-12 14 4 58-8 100-30 74-36 168-34 142 6-16 26 10 98 36 98 30 0 94-84 96-126 0-30 6-32 42-12 32 16 56 16 94 0 26-14 54-18 60-12s28-4 48-24c26-24 36-26 36-6 0 18 10 16 38-8 26-24 42-76 50-176 10-98 30-166 64-218 56-88 60-134 18-190-16-20-30-58-30-82 0-26-8-46-20-46-10 0-20 10-20 20 0 12-12 20-28 20-44 0-60 40-64 142-2 118-60 236-146 292-82 56-96 56-108 12-6-30-12-28-32 14-72 158-86 168-200 162-94-4-114 2-170 54-34 32-82 66-106 74-26 6-46 26-46 40 0 16-22 44-50 62s-50 52-50 74c0 40 2 40 26 4 40-54 62-4 34 80-42 130 36 154 100 30zm160-128c12-16 42-32 66-36 56-8 76-96 20-96-72 0-122 24-146 70-38 72 8 122 60 62zm-8844-226c4-18-18-26-74-26-60 0-82 8-82 32 0 22 18 28 74 24 40-4 76-18 82-30zm-696-6c0-10-26-20-58-20s-84-10-112-20c-40-16-52-14-46 4 14 38 216 72 216 36zm-968-246l2-74h-118c-136 0-160 42-48 80 38 12 80 36 94 52 38 46 66 22 70-58zm-532-222c14-28 26-84 28-126 2-72-2-76-56-72-68 6-82 16-60 48 8 14 14 64 10 112-6 100 34 118 78 38zm-530-30c14-24-24-48-50-32-22 14-8 50 20 50 10 0 22-8 30-18zm526-314l6-58-44 42c-24 24-36 54-28 68 24 38 60 10 66-52zm11704 52c24-16 24-20-6-32-54-20-40-44 32-52 38-4 86 8 118 30 58 38 96 32 96-18 0-30 50-56 148-78 44-10 52-18 34-36-12-12-22-38-22-56 0-24-12-32-38-24-56 14-156-52-208-134l-44-70-14 90c-4.8 40.06-13.5 85.26-18.8 112.96v.13c-.9 4.51-1.6 8.55-2.3 12.02l-.4 2.2-.3 1.53-.2 1.16c-6 22-12 48-12 58-2 8-18 12-38 8-48-14-114 100-94 162 14 46 26 50 70 22zM9400 6230c22-26 16-30-28-30-30 0-72-10-96-22-68-36-64-2 6 40 82 50 86 50 118 12zm18298-42c56 50 52 24-8-80-58-100-50-194 24-242 38-26 46-24 86 18l44 46-30-80c-78-212-118-374-106-432 14-68-22-238-50-238-10 0-14 22-6 48 8 36 2 54-28 70-28 16-40 42-40 102 0 44-8 90-14 102-8 10 0 36 18 56 22 24 28 58 22 104-6 38-16 186-20 328-10 258-10 260 28 210 38-48 40-48 80-12zm-17458-110c0-60-20-114-78-208-30-48-48-60-102-56-66 2-140-50-140-102 0-14 18-50 40-78 42-52 52-94 22-94-40 0-120 86-160 168-22 50-66 120-98 156-124 142-106 196 64 196 154 0 212 16 198 52s2 36 74-2c52-28 60-28 60-2 0 16 16 38 34 50 48 26 86-8 86-80zm-6300-146c0-32-52-92-80-92-10 0-34-26-52-58-34-58-176-124-262-122-78 2 298 298 380 300 8 0 14-12 14-28zm5500-72c0-30-118-84-166-76-40 6-38 12 26 52 74 46 140 58 140 24zm5192-166c8-8 40-14 70-14s62-10 70-22 40-16 80-8c38 6 106 2 152-12 78-20 82-24 48-48-36-26-36-30 6-82 66-84 56-128-28-128-50 0-66-8-58-26 6-16-4-40-20-54-18-14-26-34-20-44s-10-44-38-72c-26-30-64-84-82-120-20-40-58-76-92-88l-60-20 60-86c90-130 82-158-40-146-108 10-136-20-60-68 48-30 54-86 8-68-18 6-52 12-80 12-34 0-50 14-60 50-6 28-20 50-30 50s-18 18-18 40-8 40-20 40c-10 0-20-8-20-20 0-10-8-20-20-20-36 0-20 44 20 54 30 8 34 18 20 46-30 58-24 86 12 52 44-44 50-40 26 20-10 30-14 58-8 64s10 2 10-10c0-10 14-20 32-20 26 0 30 18 22 90l-10 88 74-10c70-8 74-6 66 36-4 24 2 52 14 58 12 8 22 36 22 64 0 44-32 60-104 52-6-2-18 10-24 26s-2 30 8 30c12 0 20 22 20 50 0 36-14 52-50 62-82 20-58 44 60 58 104 14 136 50 46 50-34 0-176 122-176 150 0 10 158-40 172-56zm-402-184c44-26 96-50 114-50 44 0 64-76 48-168-10-50-6-70 18-80 16-6 30-26 30-46-2-54-54-112-90-100-16 8-30 4-30-6 0-32-52-22-102 20-42 34-44 42-18 60 42 28-6 58-72 44-34-6-48 0-48 22 0 16-6 46-12 64-10 22 0 36 30 44 42 10 42 14 10 48-18 22-26 38-18 38s0 18-18 38c-46 50-26 122 34 122 24 0 80-22 124-50zm-10986-76c-12-14-24-64-28-112-6-96-56-150-98-108-18 18-18 38 2 86 32 78 96 160 124 160 14 0 14-8 0-26zm12816-448c0-16-22-24-50-22-66 6-88 72-38 110 32 24 40 20 62-18 14-26 24-58 26-70zm-1606 20c-8-6-14 0-14 14s6 20 14 14c6-8 6-20 0-28zM1314 4788c58-44 64-56 42-82-20-24-18-36 14-58 18.39-14.3 27.39-21.3 26.19-24.72-1.15-3.28-11.65-3.28-32.19-3.28-24 0-44 12-44 26s-32 42-70 60c-42 20-70 48-70 70 0 80 42 82 134 12zm15308-40c10-30 14-58 10-64-20-18-72 40-72 78 0 56 38 46 62-14zm-2328-2c-8-6-14 0-14 14s6 20 14 14c6-8 6-20 0-28zm96-122c-18-18-70 16-70 48s4 32 40-2c22-20 36-40 30-46zm2582-20c-62-8-82 4-64 34 10 14 32 12 68-4l54-24-58-6zM186 4368c-12-32-98-38-116-10-6 12 4 28 22 38 46 26 108 6 94-28zm16548-22c-8-6-14 0-14 14s6 20 14 14c6-8 6-20 0-28zm-8856-244c28-52-20-96-58-52-26 32-14 90 18 90 12 0 30-18 40-38zm1192-22c20-32-22-72-120-120-72-36-110-72-110-112 0-26 138 18 210 68 60 42 92 54 106 40 16-16 16-34 0-62-18-34-16-38 12-28 28 12 32 6 22-32-8-24-26-54-42-66s-28-32-28-46c0-36-76-102-108-90-18 6-32-8-40-40-6-28-26-52-42-52s-30-4-30-8-6-24-14-44c-10-26-6-32 20-22 28 10 32 4 22-36-18-76 42-88 112-20 48 46 62 50 98 32 34-18 42-18 42 6 0 14-14 34-32 40-30 12-30 16 4 54 58 66 110 86 130 56 10-16 12-44 6-62-8-28 0-36 36-36 66 0 100-28 84-68-10-26-4-34 24-28 46 8 62-54 26-96-18-22-44-28-94-18-58 10-68 8-58-18 8-18 6-32-4-32s-48-26-88-56c-40-32-140-84-222-116-144-54-190-88-120-88 20 0 28-12 20-30-8-22 2-30 38-30 28 0 50-8 50-20 0-10-32-20-70-20-88 0-92-34-8-56 60-14 62-18 28-50-32-32-38-32-68-4-44 38-82 40-82 2 0-14 18-32 42-38 54-14 34-44-62-94-94-48-126-50-160-10-14 16-38 30-52 30-42 0-34-46 14-76 34-22 36-32 16-58-18-22-48-28-102-20-70 10-82 4-142-70-80-100-148-136-260-136-62 0-98 12-124 40s-44 34-70 20-42-10-60 10c-42 50-62 34-50-36 10-48 2-78-26-114-20-28-42-66-50-84-16-44-102-46-200-6-96 40-138 38-130-4 12-76-196-44-300 44-116 98-180 370-86 370 60 0 182 42 182 62 0 12-34 16-90 6-76-10-88-8-78 18 18 52 106 98 170 90 36-4 66 6 78 24 16 28 60 34 414 68 44 4 60-2 52-20-8-20 6-22 58-8 140 42 220 12 152-56-18-18-18-24 0-24 14 0 24 10 24 20 0 12 22 30 50 40s50 28 50 40c0 10 12 20 28 20 32 0 132 76 132 102 0 10-12 18-28 18-26 0-62 56-46 72 4 4 34-2 66-14 52-20 68-16 148 38 50 34 110 96 134 138l44 78-98 98c-90 88-96 102-70 130 16 18 30 44 30 56 0 26-200 54-258 34-50-16-146 76-128 122 16 42 98 56 166 28 32-14 78-20 100-14s40 2 40-8c0-38 112 8 160 64 28 32 62 58 76 58 16 0 22 14 16 36-8 24 8 44 50 70 34 18 72 34 86 34 16 0 48 18 76 38 28 22 98 52 158 68l7.85 2.19.01.01h.01c96.68 27.02 119.43 33.38 130.68 24.75 3.46-2.66 5.83-6.73 8.93-12.06l.52-.89zm-1454-74l54-56-56-6c-70-8-158 44-142 86 18 46 84 36 144-24zm-170-178c70-68 78-72 110-40 60 54 156 78 204 52 50-26 36-60-26-60-28 0-56-22-78-60-32-56-208-160-270-160-20 0-22-10-6-38 22-44 0-68-46-50-30 10-74 148-74 230 0 24-14 62-34 82-30 34-28 36 30 36 50 0 64 8 64 40 0 60 42 48 126-32zm5934-2c50-18 108-46 130-60s52-26 70-26c16 0 58-30 94-66 74-76 72-146-4-166-26-6-50-28-56-50-6-20-34-48-64-62-46-20-56-20-72 10-14 22-44 34-88 34-42 0-70 10-72 26 0 20-4 20-12 0-4-14-26-26-46-26s-40 12-46 26c-6 18-14 18-40-4-30-24-34-22-34 6 0 18-8 32-18 32s-26 18-32 42c-10 32-18 36-42 16-16-12-24-40-18-58 8-24-8-50-48-78-64-46-104-56-66-18 40 40 28 58-30 44-42-12-50-8-40 18 8 20-2 34-30 40-22 6-34 20-28 32 10 14 30 14 64 2 68-26 158-6 128 30-16 18-14 28 4 36 14 6 0 12-34 14-32 2-78 10-100 20-32 14-28 18 30 18 92 2 142 68 80 106-62 40-48 58 38 44 56-10 92-4 124 20 60 42 144 40 258-2zm-5140-618c12-28 20-64 20-80 0-70-144-58-182 16-20 36-16 48 22 80 64 52 118 46 140-16zm160-68c0-10-22-20-50-20s-50 10-50 20c0 12 22 20 50 20s50-8 50-20zm7950-40c6-10 8-20 2-20s-16 10-22 20c-6 12-8 20-2 20s16-8 22-20zm-156-14c-8-6-20-6-28 0-6 8 0 14 14 14s20-6 14-14zm32-20c-6 8 0 14 14 14s20-6 14-14c-8-6-20-6-28 0zm142-80c2-34-4-58-12-52-10 4-16 24-16 44 0 18-12 46-24 60-22 20-18 24 12 18 28-4 38-24 40-70zm-11078-10c56-22 116-54 136-72 22-20 42-24 50-14 38 54 284 116 354 90 54-20 60-34 30-80-16-24-26-26-58-6s-40 18-48-16c-8-30-4-38 16-30 16 6 34 2 40-8 6-12 40-18 76-14 46 2 64-6 70-32 4-20-8-38-30-46-20-6-92-36-160-70-114-52-126-64-126-118 0-84-72-266-126-314-24-22-78-46-118-52-88-14-94 8-46 146 38 106 38 140 2 140-16 0-42-42-62-98-26-80-44-104-94-120-68-24-112-10-78 24 14 14 4 28-32 48-64 32-66 32-66-4 0-18-32-46-72-64-68-34-72-34-90 0-12 18-38 34-60 34-34 0-36-6-14-40s20-44-4-60c-50-32-88-24-238 52-94 46-142 82-134 98 4 14-8 42-30 62-48 44-48 68 2 68 22 0 40 10 40 20 0 12 38 20 86 22l84 2-86 40c-72 32-82 44-62 68 16 20 68 28 178 28 174 0 380 36 380 66 0 12-52 16-144 8-140-12-306 12-328 48-36 62 100 138 248 138 48 0 64 8 64 36 0 20 10 46 22 58 34 34 308 8 428-38zm1136 36c34-26 30-34-66-110-58-46-116-82-130-82-28 0-60 36-60 70 0 10-22 30-50 44-20.14 10.07-31.83 15.92-32.11 22.27-.39 8.77 21.04 18.52 72.11 41.73 106 46 216 52 266 14zm9874-24c0-28-6-28-30-8-16 14-30 28-30 32s14 8 30 8 30-14 30-32zm120 12c0-10-8-20-20-20-10 0-20 10-20 20 0 12 10 20 20 20 12 0 20-8 20-20zm2952-34c50-32 50-34 16-60-74-54-150-14-120 64 14 38 42 38 104-4zm-2842-66c36-40 22-50-38-28-34 12-46 68-16 68 10 0 34-18 54-40zm100-60c8-12 22-16 32-10 10 8 32 4 52-6 28-18 28-20-14-34-32-10-56-2-86 28-24 24-32 42-20 42 14 0 30-10 36-20zm3700-18c12-22-84-102-122-102-48 0-30 58 28 88 64 36 78 38 94 14zm-3536-76c-8-6-14 0-14 14s6 20 14 14c6-8 6-20 0-28zm218-48c34-36 32-38-44-38-72 2-76 4-40 30 34 26 36 30 6 30-18 0-34 8-34 18 0 28 74 2 112-40zm3034-30c6-6-20-38-56-72-96-84-120-180-70-284 52-108 240-330 314-370 32-18 98-60 148-94 54-40 184-92 338-138 284-86 350-114 368-162 34-90-106-116-238-46-118 64-224 98-374 118-272 40-426 128-632 364-76 86-96 124-90 162 8 40-4 58-52 86-40 24-62 52-62 80 0 24-22 58-50 76s-50 50-50 70c0 58 146 178 234 192 5.7 1.08 11.3 2.15 17 3.22 36.2 6.86 70.3 13.32 79 16.78 34 12 162 10 176-2zm11038-38c194-24 164-130-36-130-98 0-208 30-208 58 0 6 6 32 12 58 10 38 24 44 76 36 34-6 104-16 156-22zm-27026-80c32-16 62-24 68-18 24 24 90-34 100-92 8-32 26-60 42-60 14 0 40-20 58-46s74-60 140-80c60-20 132-52 156-72 42-34 44-42 18-72-48-58-194-114-258-100-34 8-94-4-158-28-88-36-118-38-228-20-8.51 1.5-16.9 2.97-25.07 4.41h-.02c-57.04 10-103.16 18.09-104.91 21.59-2 2 6 32 18 68 20 52 18 68-10 100-18 20-34 48-34 60s-22 64-50 114-46 90-40 90h20c28-2 126 62 168 108 3.2 3.42 6.19 6.64 9.01 9.67 23.22 24.97 34.48 37.08 47.24 38.95 12.01 1.76 25.36-5.57 51.27-19.8 3.87-2.12 8.02-4.4 12.48-6.82zm2142-28c0-10 34-36 74-56 54-26 74-50 78-90 4-46-10-64-76-104-78-46-80-48-38-72 24-12 38-30 32-40s-2-22 10-30c46-28-6-44-154-44-194-2-266 40-156 90 58 26 60 42 22 94-28 38-30 38-68 2-44-38-106-38-118 0-4 14 34 48 84 76 50 30 120 86 154 124 58 64 156 94 156 50zm1868-260l100-12-66-56c-36-30-90-58-118-64-16.28-3.26-40.81-9.46-66.88-16.05-21.96-5.55-45-11.38-65.12-15.95-82-22-128-2-104 46 70 136 100 162 172 142 28-6 94-18 148-24zm-2450-66c24-62-8-96-86-96-98 0-120 36-56 92 68 60 120 60 142 4zm15678 24c38 0 28-36-14-60-52-26-102-6-102 44 0 32 10 38 46 28 24-6 56-12 70-12zm6424-60c-12-22-56-58-98-80-42-20-82-52-88-70-16-38-72-40-86 0-8 16-2 44 12 60 22 26 20 36-12 60-36 26-34 28 32 30 38 0 84 10 100 20s60 20 96 20c60 0 64-4 44-40zM5078 1910c76-28 164-50 196-50 108 2 216-24 242-56 12-18 24-56 24-88 0-46-8-56-50-56-32 0-50 12-50 32 0 50-108-38-148-122-38-78-62-86-116-36-44 40-46 78-6 94 16 6 24 24 18 38-6 16 4 34 20 40 64 26 30 54-62 54-84-2-106-10-176-80-50-52-98-80-130-80-28 0-62-10-74-22-28-28-118-14-112 16 2 12-18 28-46 34-32 8-48 24-42 40 8 18-6 32-32 40-36 10-38 16-14 30 24 18 24 22-6 34-54 20-40 48 22 48 32 0 64 6 70 14 32 30 120 16 154-28 38-48 66-42 46 10-10 24 0 28 58 18 104-16 138 16 44 46-44 12-90 26-104 32-14 4-20 16-14 28 22 34 142 22 288-30zm2358 32c52-2 64-10 64-46 .89-19.55 1.38-30.41 5.17-31.71 4.73-1.63 14.6 11.7 36.83 41.71 56 74 188 78 264 6 32-30 46-56 32-62-14-10-14-22 2-40 16-20 4-36-52-72-60-36-100-44-208-42-76 2-170 16-212 32-116 40-286 28-384-28-94-52-106-80-38-82 44 0 42-2-6-24-28-12-58-34-66-48-10-16-54-26-106-26-50 0-114-12-144-28-118-60-284-64-284-4 0 14 22 46 50 72 42 40 62 44 144 32 84-10 100-6 150 42 48 46 54 64 44 130-14 88 16 140 80 134 24-2 66 6 94 20 44 22 60 22 104-6 46-32 50-32 60 8s22 42 158 32c23.34-1.17 48.05-2.5 72.23-3.81 58.69-3.18 114.27-6.19 139.77-6.19zm-868-22c60-22 66-70 20-136-36-52-106-56-188-14-84 42-74 86 26 130 10.96 5.04 20.5 9.51 28.88 13.43l.04.02c36.88 17.25 51.31 24.01 65.29 23.17 8.99-.53 17.79-4.2 32.24-10.23l.03-.02c4.55-1.9 9.67-4.03 15.52-6.37zm20802-18c6-10 36-18 66-18 30 2 78-10 104-24 40-22 50-20 72 8 30 42 132 24 114-20-8-20 0-24 22-16 38 14 144-48 120-72-28-22-294-120-334-120-20 0-34 16-34 40 0 50-10 50-78 2-98-70-148-72-218-6-80 74-80 110-6 186 58 56 148 78 172 40zm930 6c68-14 102-62 60-88-14-8-92-22-172-30-82-8-152-22-158-30-18-30-70 2-70 40 0 86 174 140 340 108zm-22122-68c50 0 64-8 56-30-8-16-4-34 6-40 12-8 20-52 20-100 0-128-46-150-268-132-10 2-8 14 2 28 12 12 26 40 32 60 12 30 8 32-26 14-20-10-44-30-50-40-6-12-30-20-50-20-34 0-36 8-20 50 18 48 16 50-52 50-66 0-68 2-38 32 26 26 58 32 156 22l124-12-50 40c-28 20-38 38-24 38 12 0 22 6 22 16-6 38 6 48 48 36 24-6 74-12 112-12zm-478-30c0-30-86-24-96 6-6 20 8 26 44 20 30-4 52-14 52-26zm-1280-90c50-50 52-80 6-66-58 14-112 62-96 84 18 32 46 26 90-18zm-260-60c0-10 14-20 30-20s30 10 30 20c0 12 20 20 42 20 32 0 40-10 32-40s0-38 32-34c24 2 44-4 46-16 8-84 82-126 80-46-2 62 60 70 118 16 28-26 42-58 36-82-6-20 0-52 12-66 20-24 16-34-20-52-34-20-46-18-60 2-10 16-46 24-96 20-92-6-136 14-240 108-42 38-100 78-128 88-52 20-70 60-40 88 20 22 126 16 126-6zm1640-42c0-10-14-18-32-18-16 0-26-8-18-18 12-20-50-62-88-62-12 0-22 14-22 30s10 30 22 30 18 12 12 28c-8 18 2 32 22 36 46 10 104-4 104-26zm2074-30c24-16 62-28 84-28 48 0 66-26 50-70-10-26-28-30-70-22-74 14-78-30-6-92 36-32 46-58 38-90-10-42-6-44 74-34 72 10 92 4 124-30 38-42 38-44 0-72-35.92-27.94-34.01-28 25.59-29.99l.41-.01c90 0 100-34 22-68l-66-28 66-2c72-2 70-42-2-44-42 0-42-2-4-18 22-10 70-18 106-18 38-2 70-14 76-32 8-18 38-30 78-30 36 0 86-18 112-40 42-34 44-42 18-60-24-16-20-20 20-20 28 0 86-20 130-42 442-226 502-272 286-226-160 34-202 34-126-2 32.05-13.887 46.98-20.356 46.31-23.98-.57-3.162-13.01-4.157-36.31-6.02-94-6 20-38 140-38 144-2 230-28 338-100l88-58-144-46c-114-34-178-40-296-34-142 10-148 8-96-18 80-42 40-64-142-78-194-16-392 18-374 64 8 24-4 20-56-10-48-30-102-42-186-42h-118l48 52 48 52-106-42c-114-46-194-54-214-22-6 12-42 20-78 20-72 0-186 74-158 102 8 8 66 44 126 76 60 34 102 62 94 62-62 2-296-74-348-112-72-54-166-64-166-18 0 16-18 30-42 30-22 0-36 8-28 20 6 10-28 16-88 14-66-2-110 6-134 28-26 22-60 30-100 24-36-6-88 4-120 20l-58 32 74 30c58 24 86 26 130 10l56-20-48 50c-42 46-44 52-14 64 18 6 102 2 186-10s156-18 162-14c4 6-24 14-64 20s-104 16-142 24c-80 12-76 38 8 58 40 8 82 0 134-28 104-56 156-54 68 2l-70 44 108 18c96 16 112 14 136-18 16-22 52-38 86-38 44 0 52 6 34 26-42 52 188 6 276-56 44-30 102-66 130-80l50-26-46 52c-44 46-44 52-12 70 34 18-6 30-390 116l-48 10 46 48 44 46-96-48c-64-32-128-48-202-48-100 0-106 2-106 50 0 40 18 58 88 92 72 32 192 148 192 182 0 4-62 6-140 6-116 0-146 8-182 44-26 24-38 56-32 74 18 44 130 42 180-4 38-32 40-32 16 10-60 116 10 192 122 134l66-34-38 44c-56 62-172 58-228-8-28-32-64-50-102-50-80 0-100 38-44 84l46 36-52 20-5.73 1.92c-2.35.78-4.78 1.6-7.27 2.44l-.04.01-.01.01c-29.14 9.79-66.76 22.44-90.95 27.62-26 6-54 20-60 30s-28 18-52 18c-34 0-36 4-16 30 22 26 28 26 52-4l.01-.01c13.78-18.03 20.26-26.49 23.6-25.4 2.95.97 3.45 9.44 4.39 25.41 0 38 30 46 52 12 10-16 18-14 30 6 20 36 234 46 382 20 58-12 100-12 114 2 12 12 40 12 80-2 46-16 64-14 82 6 14 16 18 38 10 50-18 28 84 6 144-32zm-3054-88c0-10-18-20-42-20-22 0-34 10-28 20 6 12 26 20 42 20s28-8 28-20zm772-154c-56-46-92-58-92-30 0 26 46 76 90 100 64 34 64-16 2-70zm1368 32c0-28-74-58-108-46-46 18-40 46 14 66 48 18 94 8 94-20zm-1882-16c60-16 80-62 28-64-30 0-30-4 10-22 66-34 54-64-20-48-22.01 4.89-54.47 10.53-85.98 16-20.04 3.48-39.69 6.89-56.02 10-88 14-118 60-64 98 40 30 108 32 188 10zm1552-24c22-32-2-44-94-46-100-2-164 20-146 48 16 26 224 26 240-2zm-710-38c22-14 14-20-36-20-40 0-62 8-54 20 16 26 52 26 90 0zm-1120-30c-26-32-80-40-80-14 0 28 24 44 66 44 32 0 34-6 14-30zm1298 12c26-18 24-38-16-102-10-16-24-46-30-64-6-22-30-36-62-36s-50-12-50-32c0-26-14-30-70-22-56 10-74 4-90-28-26-48-182-54-220-8-20 24-20 30 8 30 18 0 32 10 32 22s18 16 40 8 40-4 40 8 14 22 30 22 30 10 30 20c0 12-32 20-72 20-56 0-70 6-64 36 4 22 24 32 56 30 158-16 258 6 316 66 48 52 78 58 122 30zm330-22c82-30 64-84-42-136-130-60-186-58-186 6 0 36 14 52 50 62 38 10 46 20 30 38-40 50 50 68 148 30zm17566-56c24-14 48-14 68-2 48 30 278-28 278-72 0-36-128-130-178-130-24 0-42-14-42-30 0-54-90-34-154 36-92 96-170 230-140 240 28 8 110-12 168-42zm-17044-42c-8-22-2-22 26 4 50 44 64 42 64-8 0-30 8-38 32-30 26 10 30 2 20-36-16-62 20-88 40-28l14 44 32-40c18-24 56-48 82-54 88-24 112-46 82-82-14-16-32-30-38-28-8 0-42 0-76-2-56-2-62-8-52-52 4-30 0-50-14-50-12 0-22-18-22-38 0-38-50-70-80-52-10 6-14 24-6 40 6 16 0 30-12 30s-32-22-42-50-32-50-44-48c-56 6-78-4-130-64-72-80-148-118-230-116-42 2-52 6-26 12 74 18 80 46 12 46-36 0-84 10-108 22l-42 24 48 20 50 18-54 16c-30 10-68 30-86 46-26 28-26 32 14 46 26 8 62 14 82 10 18-2 34 6 34 16 0 12-40 22-90 22s-90 8-90 16c0 34 50 64 110 66 46 2 50 6 16 12-54 10-60 40-10 52 32 10 152 6 194-6 12-2 52-2 90 0s54 8 34 14c-18 4-30 16-24 24 4 10-28 22-72 28s-86 16-92 20c-18 20 64 94 104 96 22 0 28 6 14 12-20 8-20 16-2 40 34 40 264 30 248-12zm-1754-20c-4-18-28-36-54-38-72-10-212 14-252 44-30 22-10 26 138 26s172-6 168-32zm18594-94c32-8 40-28 42-108 2-106-22-128-108-96-40 14-46 10-34-24 10-32 4-40-30-40-58 0-88-80-44-116 30-24 28-32-26-76-92-78-134-88-186-46-26 20-74 42-106 48-36 8-70 32-82 60-12 26-46 56-78 68-36 12-62 38-70 72-18 68 14 90 134 90 82 0 100 8 146 70 50 64 64 70 158 72 58 0 122 8 144 18 48 20 86 24 140 8zM6148 812c-8-22-30-32-66-28-64 8-64 38 0 70 54 28 86 8 66-42zm14132 0c0-22-38-30-50-12-6 10 2 20 18 20 18 0 32-4 32-8zm-152-42c16-16 40-30 52-30s16-10 8-22c-8-14-48-18-112-12-164 20-208 94-56 94 42 0 90-14 108-30zm-816-26c-10-32 6-42 112-66 118-28 122-32 80-54-34-20-64-20-124-4-44 12-110 16-148 10-84-16-252 26-210 52 16 10 64 14 108 6l80-12-50 36-48 36 48 14c28 8 76 14 106 16 46 2 54-4 46-34zm444 2c12-38-86-32-118 6-22 28-18 30 42 24 36-4 70-18 76-30zm666-38c44-22 58-42 54-74-8-56-86-68-184-26-78 32-92 66-36 84 18 6 48 18 64 28 1 .622 2 1.229 3 1.819l2.1 1.266c13.2 7.941 20.9 12.633 29.1 13.496 11.8 1.246 24.4-5.482 55.3-21.924v-.006c3.9-2.063 8-4.279 12.5-6.651zm-354-74c36-18 36-20 4-38-38-22-240-26-272-6-38 24-20 46 56 66s146 12 212-22zm652-14c60-16 78-74 28-94-22-8-46 2-70 30-18 24-58 44-86 44-50 0-66 20-40 46 14 12 40 8 168-26zm-586-106c6-8 0-26-14-44-20-24-20-32 2-38 80-26 84-28 30-30-58-2-232 92-232 126 0 18 192 6 214-14zm-826 6692c6 30 50 62 126 98 124 60 146 64 244 44 62-12 62-14 62-140 0-68-10-132-20-138-12-8-20-24-18-36 6-52-4-74-32-74-16 0-30-18-30-40 0-34 14-40 90-40 66 0 90-8 90-30 0-16-10-30-20-30-12 0-30-22-40-50-22-60-80-66-94-10-18 68-50 44-42-32 4-64-2-74-60-98-52-24-64-40-64-90 0-36-12-66-30-72-46-18-36-52 10-38 32 10 40 4 36-34-6-42 2-46 100-52 102-6 106-4 94 36-12 38-10 40 28 16 52-32 44-64-16-72-34-6-44-16-36-48 18-66-24-132-84-136-172-6-258 14-272 62-8 22-44 52-82 68s-76 50-86 78c-12 26-30 54-42 62-16 10-10 26 18 52 24 22 42 62 42 88 0 78 36 148 134 264 56 64 86 114 72 122-32 22-90 222-78 270zm-1946-298c34-36 66-48 130-48 174 0 114 64-78 84l-96 12 44-48zm772-126c42 24 98 50 126 60 132 40 368 4 410-62 14-24-26-140-48-140-8 0-62-40-120-90s-114-90-126-90-50-22-84-48c-72-54-162-56-234-6-60 44-118 44-118 2 0-18-16-44-34-58-30-22-30-26 10-48 58-30 38-62-36-62-66 0-98-32-46-46 20-6-2-10-48-12-70-2-90 8-134 60-28 34-52 82-52 108 0 28-18 58-40 70s-40 38-40 60c0 20-22 64-50 96-66 78-64 134 8 206 80 78 228 82 338 8 94-64 214-66 318-8zm-42-474c-18-16-32-42-32-54 0-32 180-112 324-142 76-16 88 18 16 48-62 26-74 48-38 70 12 10 6 26-20 44-24 16-38 38-32 48 22 32-184 20-218-14zM8834 526c-8-6-20-6-28 0-6 8 0 14 14 14s20-6 14-14zM7542 6782c-24-16-24-26 6-72 20-30 40-48 46-42s0 24-14 42c-40 48 26 38 70-10 22-24 62-40 98-40 34 0 86-14 118-28 60-34 72-14 18 34-42 40-244 134-284 134-16 0-42-8-58-18zm-372-382c-52 188-56 220-32 300 28 92 48 100 92 32 24-34 30-84 26-168-6-116-4-122 76-200 82-78 84-78 136-46 44 26 54 44 46 92-4 34-16 76-24 98-14 32-12 34 28 14 52-28 82-14 82 40 0 20 8 38 20 38 26 0 52-56 68-148 10-50 20-70 30-54 10 14 38 22 64 18 36-4 46-16 42-46-14-72-64-106-200-130-164-28-204-50-204-108 0-24-18-62-42-84-22-20-66-64-98-96-30-30-64-52-74-46-8 4-34 2-56-6-20-8-48-6-60 2-6.87 6.87-26.94 23.17-49.86 41.78-10.45 8.48-21.49 17.45-32.14 26.22-36 28-74 50-86 50-10 0-54 30-94 64l-74 66 68 14c52 10 90 2 162-36 108-54 154-64 118-22-16 22-8 36 44 64 54 28 78 30 142 14 62-18 86-16 124 10 68 44 60 64-22 56-130-12-268 66-268 150 0 22 8 20 32-10l.01-.01c14.87-18.84 22.37-28.33 24.44-27.27 2.11 1.08-1.39 13.08-8.45 37.28zm424-140c24 0 50 10 56 20 16 26-30 26-70 0-24-16-22-20 14-20zm266 308c0-34 80-68 162-68 34 0 78-10 100-20 32-18 38-14 38 18 0 58-86 110-136 84-24-14-62-14-102-2-50 14-62 12-62-12zM6342 5560c-22 0-48 96-32 122 8 10 22 14 32 8 24-16 24-130 0-130zm-62-40c0-10-16-20-36-20-30 0-98-82-100-120-.73-2.2-2-6.27-3.61-11.43l-.02-.09c-2.79-8.93-6.58-21.11-10.37-32.48-20-50 4-102 40-88 16 6 30 2 30-8 0-12 10-20 20-20 12 0 20 18 20 40 0 20 18 84 40 140 46 114 48 140 20 140-10 0-20-8-20-20zm3382-280c-42 0-82 26-82 52 0 22 8 24 38 8 46-24 72-60 44-60zM4520 4234c-23.36-10.28-35.8-15.75-35.3-19.49.57-4.26 18-6.25 55.3-10.51 38-4 80-24 96-46 14-20 40-38 56-38 40 0 34-26-22-88-60-64-52-64 74-2 124 62 158 62 232 0 32-26 64-42 72-34s12 0 8-16c-8-38 106-52 158-20 30 16 26 18-18 8s-56-4-56 20c0 18-14 32-30 32-18 0-62 30-100 68s-88 76-114 82c-26 8-62 32-82 52-42 44-210 50-294 12zm-340-630c-22 14-40 32-40 42 0 18 22 6 104-52 32-24 48-50 42-68-10-24 4-28 56-22 38 2 70-2 72-10s18-28 34-46c16-16 26-42 20-58-14-34-40-38-58-10-16 26-170 26-170 2 0-10 18-26 40-32 70-22 44-54-34-44-118 16-446 120-446 140 0 10 20 14 46 8 122-30 234-36 268-16 30 18 26 20-30 22-40 0-62 8-54 20 6 10-2 40-18 64-18 24-32 52-32 60 0 34 116 14 150-24 38-42 90-54 90-20 0 10-18 30-40 44z" fill="#C4C4C4"/></svg>