<svg xmlns="http://www.w3.org/2000/svg" viewBox="0 0 473.68 473.68"><path d="M236.838 473.679c-.052 0-.101-.007-.153-.007 60.667.045 121.338-23.073 167.623-69.358l-76.179-76.179c-12.681 81.22-43.095 145.544-91.291 145.544z" fill="#f0c816"/><path d="M404.308 69.368C358.049 23.113 297.416-.012 236.786.003h.052c82.615 0 91.29 328.133 91.29 328.133l76.179 76.179c92.499-92.499 92.495-242.452.001-334.947z" fill="#077d48"/><path d="M328.129 328.135L69.365 69.375c-92.487 92.487-92.487 242.448 0 334.931 46.206 46.202 106.757 69.328 167.316 69.365.052 0 .101.007.153.007 48.2.001 78.614-64.323 91.295-145.543z" fill="#ffd72e"/><path d="M328.129 328.135C349.867 188.914 319.453.002 236.839.002h-.052C176.194.018 115.601 23.139 69.365 69.375l258.764 258.76z" fill="#008e56"/><path fill="#d32027" d="M236.435 164.346l15.313 47.13h49.557l-40.092 29.123 15.314 47.13-40.092-29.127-40.092 29.127 15.313-47.13-40.092-29.123h49.557z"/></svg>