<svg version="1" xmlns="http://www.w3.org/2000/svg" width="933.333" height="933.333" viewBox="0 0 700.000000 700.000000"><path d="M378 90.7c-81 8.5-151.1 56-185.6 125.8-31.5 63.6-28.1 139.4 8.9 201.5 31.9 53.5 88.8 93 152.8 106 11 2.3 34.3 5 42.7 5h5.2v-44.8l-6.7-.6c-34.1-3.1-55.3-8.6-79.4-20.7-48.2-24.1-83.9-69.7-93.9-120.1-4.2-21.2-4.4-47.5-.4-67.3 7.1-35.3 27.8-70.3 56-94.6 30.5-26.2 65.5-40.9 108.6-45.4 8.1-.8 15-1.5 15.3-1.5.3 0 .5-9.9.5-22V90l-10.2.2c-5.7 0-11.9.3-13.8.5z"/><path d="M368 172.5c-51 8.7-92.7 43.6-108.8 91-4.9 14.4-6.3 22.7-6.9 40.5-.9 25.9 2.9 44.8 13.1 65.5 19.2 39 54.5 66.7 96.6 76 11.4 2.5 37.2 3.1 49.5 1.1 30-4.8 55.8-17.9 77-39.1 35.8-35.9 49.2-88 35-137-7.7-26.5-26.5-54.1-48-70.6-18.3-14.1-40.6-23.7-63.2-27.4-10.7-1.8-33.9-1.7-44.3 0zM90.5 321.2c3.4 59.1 20.4 109.6 52.3 155.3 20 28.6 47.7 56.5 75.4 75.8 49.3 34.4 108.6 54.6 168.1 57.3l15.7.7v-21.7c0-11.9-.3-21.6-.7-21.6-.5 0-7.3-.5-15.3-1.1-36.9-2.6-69.6-10.9-101.2-25.7-73.9-34.6-128.3-102.7-143.7-179.9-3.5-17.1-5.1-30.8-5.1-42.3v-8H89.8l.7 11.2z"/></svg>