<svg width="139" height="51" viewBox="0 0 139 51" fill="none" xmlns="http://www.w3.org/2000/svg">
<path d="M69.741 39.4222C71.5267 39.4222 72.9742 37.9747 72.9742 36.189C72.9742 34.4034 71.5267 32.9558 69.741 32.9558C67.9554 32.9558 66.5078 34.4034 66.5078 36.189C66.5078 37.9747 67.9554 39.4222 69.741 39.4222Z" fill="#F2D525"/>
<path d="M37.4011 46.7426C38.1637 46.8036 38.4153 47.2612 38.4153 48.0313C38.4153 49.0226 37.9349 49.2895 36.7606 49.2895C35.8531 49.2895 35.3727 49.2895 34.7627 49.2362V44.4092C35.3535 44.3576 35.9465 44.3372 36.5394 44.3482C37.8129 44.3482 38.2628 44.6151 38.2628 45.614C38.2628 46.3003 38.0188 46.6587 37.4011 46.7198V46.7426ZM36.5471 46.4529C37.1571 46.4529 37.3554 46.3156 37.3554 45.7589C37.3554 45.2023 37.1342 45.0955 36.4632 45.0955H35.6244V46.4529H36.5471ZM36.5471 48.6185C37.2181 48.6185 37.4316 48.4889 37.4316 47.9093C37.4316 47.3298 37.2105 47.0934 36.5165 47.0934H35.5862V48.6185H36.5471Z" fill="white"/>
<path d="M41.8011 49.2362V47.2535C41.8011 47.0858 41.8011 46.9409 41.8392 46.7426C41.7669 46.9067 41.6774 47.0626 41.5723 47.2078L40.0472 49.2362H39.2847V45.8047H40.0472V47.8102C40.0472 47.9703 40.0472 48.1152 40.0472 48.2906C40.1208 48.1368 40.2103 47.9911 40.3141 47.8559L41.8392 45.8047H42.5636V49.2362H41.8011Z" fill="white"/>
<path d="M43.4786 45.8657C43.8645 45.7665 44.2621 45.7204 44.6605 45.7284C45.873 45.7284 46.3457 45.881 46.3457 46.6587C46.3457 47.1697 46.1475 47.4213 45.5832 47.4213C46.2085 47.4671 46.4754 47.7568 46.4754 48.3211C46.4754 49.0836 45.9721 49.2514 44.8664 49.2514C44.3551 49.2564 43.8444 49.213 43.3413 49.1218L43.4099 48.5041C43.8217 48.5041 44.3555 48.5651 44.813 48.5651C45.4002 48.5651 45.5756 48.5041 45.5756 48.1457C45.5756 47.7873 45.4002 47.7263 44.813 47.7187H43.8675V47.2154H44.813C45.3163 47.2154 45.4688 47.1315 45.4688 46.8036C45.4688 46.4757 45.2934 46.4452 44.7063 46.4452C44.3021 46.4452 43.8598 46.4452 43.5472 46.5062L43.4786 45.8657Z" fill="white"/>
<path d="M50.7 47.5204C50.7 48.832 50.2273 49.3277 48.9385 49.3277C47.6498 49.3277 47.1694 48.832 47.1694 47.5204C47.1694 46.2088 47.6498 45.7056 48.9385 45.7056C50.2273 45.7056 50.7 46.2088 50.7 47.5204ZM48.0997 47.5204C48.0997 48.405 48.2828 48.649 48.9385 48.649C49.5943 48.649 49.785 48.405 49.785 47.5204C49.785 46.6359 49.5867 46.3842 48.9385 46.3842C48.2904 46.3842 48.0997 46.6359 48.0997 47.5204Z" fill="white"/>
<path d="M53.9105 47.4822C54.5739 47.528 54.8103 47.833 54.8103 48.3896C54.8103 49.0912 54.3833 49.2818 53.3462 49.2818C52.5379 49.2818 52.0956 49.2818 51.5542 49.2437V45.8046C52.0422 45.8046 52.4311 45.7665 53.1403 45.7665C54.2765 45.7665 54.6654 45.9571 54.6654 46.6815C54.6654 47.1619 54.4443 47.4441 53.9029 47.4441L53.9105 47.4822ZM53.1479 47.1924C53.6512 47.1924 53.8266 47.0933 53.8266 46.7654C53.8266 46.4375 53.636 46.3841 53.0641 46.3841H52.3473V47.2153L53.1479 47.1924ZM53.1479 48.6565C53.6817 48.6565 53.8647 48.5727 53.8647 48.2066C53.8647 47.8406 53.6817 47.7415 53.1022 47.7415H52.3396V48.6565H53.1479Z" fill="white"/>
<path d="M59.0194 47.5204C59.0194 48.832 58.539 49.3277 57.2503 49.3277C55.9615 49.3277 55.4888 48.832 55.4888 47.5204C55.4888 46.2088 55.9692 45.7056 57.2503 45.7056C58.5313 45.7056 59.0194 46.2088 59.0194 47.5204ZM56.4114 47.5204C56.4114 48.405 56.6021 48.649 57.2503 48.649C57.8984 48.649 58.0967 48.405 58.0967 47.5204C58.0967 46.6359 57.8984 46.3842 57.2503 46.3842C56.6021 46.3842 56.4114 46.6359 56.4114 47.5204Z" fill="white"/>
<path d="M59.8276 47.7568V47.1544H62.0161V47.7568H59.8276Z" fill="white"/>
<path d="M64.5172 46.4528V49.2132H63.6403V46.4528H62.4126V45.7817H65.7449V46.4528H64.5172Z" fill="white"/>
<path d="M68.4824 49.3353C68.4254 49.5711 68.3208 49.7929 68.1751 49.9869C68.0294 50.181 67.8457 50.3433 67.6351 50.4639C67.4245 50.5845 67.1916 50.661 66.9505 50.6885C66.7094 50.716 66.4652 50.6941 66.2329 50.624L66.3092 50.0368C66.6096 50.08 66.9162 50.0377 67.1937 49.9148C67.4055 49.76 67.5694 49.5485 67.6665 49.3048V49.2362H67.4911C67.4242 49.2417 67.3576 49.2233 67.3031 49.1842C67.2486 49.1451 67.2098 49.0878 67.1937 49.0226L65.9736 45.8047H66.9192L67.6817 48.161C67.7199 48.3211 67.7656 48.466 67.7961 48.6185H67.8876C67.9465 48.4688 67.9974 48.3161 68.0401 48.161L68.8027 45.8047H69.7559L68.4824 49.3353Z" fill="white"/>
<path d="M71.2124 46.3156C71.6056 45.9352 72.1295 45.7197 72.6765 45.7131C73.5382 45.7131 73.8889 46.3842 73.8889 47.5509C73.8889 48.893 73.4238 49.32 72.524 49.32C72.0861 49.3294 71.6547 49.213 71.281 48.9845C71.2964 49.2206 71.2964 49.4575 71.281 49.6936V50.6011H70.3965V45.8046H71.159L71.2124 46.3156ZM71.3039 48.4812C71.6152 48.5649 71.9349 48.6135 72.2571 48.6261C72.7832 48.6261 72.9815 48.4507 72.9815 47.5432C72.9815 46.6358 72.8061 46.4528 72.3867 46.4528C72.0004 46.4835 71.6329 46.6326 71.3344 46.8798L71.3039 48.4812Z" fill="white"/>
<path d="M77.2748 49.2362V47.2535C77.2748 47.0858 77.2748 46.9409 77.2748 46.7426C77.2025 46.9067 77.113 47.0626 77.0079 47.2078L75.4828 49.2362H74.7202V45.8047H75.4828V47.8102C75.4936 47.9701 75.4936 48.1307 75.4828 48.2906C75.5563 48.1368 75.6458 47.9911 75.7497 47.8559L77.2748 45.8047H78.0373V49.2362H77.2748Z" fill="white"/>
<path d="M81.9872 49.1065C81.5659 49.2539 81.1219 49.3261 80.6756 49.32C79.4022 49.32 78.937 48.8396 78.937 47.5128C78.937 46.1859 79.4098 45.7055 80.6833 45.7055C81.1081 45.7028 81.5306 45.7698 81.9338 45.9038L81.8271 46.4376C81.4611 46.4376 81.0645 46.4376 80.8281 46.4376C80.1113 46.4376 79.8597 46.674 79.8597 47.528C79.8597 48.3821 80.1113 48.6337 80.8281 48.6337C81.1876 48.6326 81.5467 48.6097 81.9033 48.5651L81.9872 49.1065Z" fill="white"/>
<path d="M84.5114 46.4528V49.2132H83.6344V46.4528H82.4067V45.7817H85.7391V46.4528H84.5114Z" fill="white"/>
<path d="M88.9263 49.2362V47.2535C88.9263 47.0858 88.9263 46.9409 88.9644 46.7426C88.8917 46.9049 88.8049 47.0606 88.7051 47.2078L87.18 49.2362H86.4175V45.8047H87.18V47.8102C87.1909 47.9701 87.1909 48.1307 87.18 48.2906C87.2511 48.1371 87.3379 47.9914 87.4393 47.8559L88.9644 45.8047H89.7269V49.2362H88.9263Z" fill="white"/>
<path d="M93.7381 49.2362H92.8687V47.9017C92.4554 48.0271 92.0271 48.0963 91.5953 48.1076C90.9319 48.1076 90.604 47.8636 90.604 47.345V45.8199H91.4504V47.0705C91.4504 47.3603 91.5572 47.4594 91.8622 47.4594C92.1961 47.4593 92.527 47.3973 92.8383 47.2764V45.8199H93.7381V49.2362Z" fill="white"/>
<path d="M95.5375 47.8788C95.6062 48.4965 95.8807 48.6414 96.4907 48.6414C96.8339 48.6414 97.3448 48.6414 97.7794 48.5575L97.8557 49.1065C97.3824 49.2687 96.8842 49.3462 96.384 49.3353C95.0876 49.3353 94.5996 48.832 94.5996 47.5281C94.5996 46.2241 95.1105 45.7208 96.323 45.7208C97.5354 45.7208 97.9472 46.1402 97.9472 46.9104C97.9669 47.0415 97.956 47.1753 97.9156 47.3015C97.8751 47.4277 97.8061 47.5428 97.7139 47.638C97.6217 47.7332 97.5087 47.8058 97.3839 47.8502C97.259 47.8946 97.1256 47.9096 96.994 47.8941L95.5375 47.8788ZM96.75 47.2841C97.0321 47.2841 97.0703 47.0629 97.0703 46.8875C97.0703 46.5215 96.9025 46.3766 96.3611 46.3766C95.8197 46.3766 95.5452 46.5596 95.5147 47.2841H96.75Z" fill="white"/>
<path d="M101.669 49.1065C101.247 49.2539 100.803 49.3262 100.357 49.32C99.076 49.32 98.6108 48.8396 98.6108 47.5128C98.6108 46.186 99.0836 45.7056 100.365 45.7056C100.787 45.7023 101.207 45.7693 101.608 45.9038L101.509 46.4376C101.142 46.4376 100.746 46.4376 100.51 46.4376C99.7852 46.4376 99.5411 46.674 99.5411 47.528C99.5411 48.3821 99.7852 48.6337 100.51 48.6337C100.867 48.6328 101.223 48.6099 101.577 48.5651L101.669 49.1065Z" fill="white"/>
<path d="M104.322 47.4594C105.13 47.5509 105.26 47.8864 105.733 49.2362H104.81C104.383 48.0618 104.276 47.7721 103.674 47.7644H103.27C103.293 47.8646 103.305 47.9668 103.308 48.0695V49.2362H102.423V45.8047H103.308V46.7426C103.308 46.8761 103.292 47.0091 103.262 47.1391H103.651C104.269 47.1391 104.414 46.7807 104.741 45.8047H105.641C105.222 46.9866 105.115 47.3298 104.345 47.4365L104.322 47.4594Z" fill="white"/>
<path d="M108.989 49.2362V47.2535C108.989 47.0858 108.989 46.9409 108.989 46.7426C108.917 46.9067 108.827 47.0626 108.722 47.2078L107.197 49.2362H106.473V45.8047H107.235V47.8102C107.246 47.9701 107.246 48.1307 107.235 48.2906V48.2906C107.309 48.1368 107.398 47.9911 107.502 47.8559L109.027 45.8047H109.79V49.2362H108.989Z" fill="white"/>
<path d="M113.29 49.2361V47.2535C113.29 47.0857 113.29 46.9408 113.328 46.7426C113.258 46.9064 113.172 47.0623 113.069 47.2077L111.544 49.2361H110.819V45.8046H111.582V47.8101C111.593 47.9701 111.593 48.1306 111.582 48.2905V48.2905C111.653 48.137 111.74 47.9913 111.841 47.8559L113.366 45.8046H114.129V49.2361H113.29ZM113.58 44.2795C113.633 44.8515 113.183 45.309 112.436 45.309C111.689 45.309 111.208 44.8515 111.269 44.2795H111.902C111.902 44.6761 112.078 44.8667 112.436 44.8667C112.794 44.8667 112.954 44.6761 112.947 44.2795H113.58Z" fill="white"/>
<path d="M119.787 49.2362H116.737V45.8047H117.606V48.5804H119.055V45.8047H119.932V48.5804H120.465V50.2656H119.886L119.787 49.2362Z" fill="white"/>
<path d="M121.952 47.8788C122.013 48.4965 122.296 48.6414 122.906 48.6414C123.249 48.6414 123.76 48.6414 124.187 48.5575L124.271 49.1065C123.797 49.2687 123.299 49.3461 122.799 49.3353C121.502 49.3353 121.007 48.832 121.007 47.5281C121.007 46.2241 121.518 45.6903 122.715 45.6903C123.912 45.6903 124.332 46.1097 124.332 46.8799C124.353 47.0105 124.343 47.1442 124.303 47.2705C124.264 47.3968 124.196 47.5122 124.104 47.6075C124.012 47.7029 123.9 47.7757 123.775 47.8201C123.651 47.8645 123.517 47.8794 123.386 47.8636L121.952 47.8788ZM123.165 47.284C123.447 47.284 123.485 47.0629 123.485 46.8875C123.485 46.5215 123.317 46.3766 122.776 46.3766C122.235 46.3766 121.96 46.5596 121.93 47.284H123.165Z" fill="white"/>
<path d="M128.487 49.2362H127.626V47.7111H126.062V49.2362H125.186V45.8047H126.062V47.1086H127.626V45.8047H128.487V49.2362Z" fill="white"/>
<path d="M131.271 46.4528V49.2132H130.401V46.4528H129.166V45.7817H132.498V46.4528H131.271Z" fill="white"/>
<path d="M133.97 46.3156C134.36 45.9344 134.882 45.7185 135.427 45.7131C136.296 45.7131 136.647 46.3842 136.647 47.5509C136.647 48.893 136.182 49.32 135.274 49.32C134.839 49.328 134.41 49.2116 134.039 48.9845C134.039 49.2209 134.039 49.4496 134.039 49.6936V50.6011H133.162V45.8046H133.886L133.97 46.3156ZM134.054 48.4812C134.368 48.5649 134.69 48.6135 135.015 48.6261C135.541 48.6261 135.732 48.4507 135.732 47.5432C135.732 46.6358 135.556 46.4147 135.106 46.4147C134.72 46.4463 134.353 46.5953 134.054 46.8417V48.4812Z" fill="white"/>
<path d="M28.2887 5.12273V0.699951C22.8908 0.706006 17.7156 2.85302 13.8987 6.66996C10.0818 10.4869 7.93477 15.662 7.92871 21.06V21.06C7.93655 25.9284 9.68599 30.6333 12.8607 34.3241C16.0355 38.0149 20.426 40.4481 25.2386 41.1836C26.248 41.3373 27.2677 41.4138 28.2887 41.4124V36.9972C27.4849 36.9968 26.6821 36.9382 25.8867 36.8218C22.1237 36.2343 18.6934 34.3247 16.2113 31.436C13.7293 28.5473 12.3581 24.8685 12.3439 21.06C12.3499 16.8337 14.032 12.7824 17.0212 9.79464C20.0103 6.80692 24.0625 5.12676 28.2887 5.12273V5.12273Z" fill="#F2D525"/>
<path d="M24.7352 44.615C19.1014 43.7604 13.9599 40.9165 10.2419 36.5984C6.52383 32.2803 4.47506 26.7734 4.46663 21.0752H0.120117C0.132844 27.8142 2.55725 34.3261 6.95468 39.4327C11.3521 44.5392 17.4321 47.9031 24.0946 48.9158C25.4823 49.1306 26.8845 49.2376 28.2886 49.2361V44.8819C27.0991 44.8823 25.9113 44.7931 24.7352 44.615V44.615Z" fill="white"/>
<path d="M34.3281 41.5496L37.3783 21.0752H42.2053L39.1551 41.5496H34.3281Z" fill="white"/>
<path d="M40.36 18.0632C39.7968 15.7859 38.6048 13.7129 36.92 12.0805C35.2352 10.4482 33.1255 9.32229 30.8316 8.83133C28.5377 8.34036 26.1519 8.5041 23.9466 9.30384C21.7413 10.1036 19.8052 11.5071 18.3592 13.3543C16.9132 15.2015 16.0156 17.418 15.7687 19.7508C15.5218 22.0837 15.9357 24.4389 16.9631 26.5478C17.9904 28.6568 19.5899 30.4344 21.579 31.678C23.5681 32.9216 25.8668 33.581 28.2126 33.581C29.7789 33.5827 31.3314 33.2877 32.7879 32.7117C32.9143 32.663 33.0254 32.5815 33.1098 32.4756C33.1942 32.3698 33.2489 32.2433 33.2683 32.1093L33.7945 28.6016H33.4971L32.887 29.0972C32.6659 29.2726 32.704 29.4023 32.5286 29.57C32.2947 29.789 32.0235 29.9646 31.728 30.0885C31.5602 30.1343 30.8282 30.2563 30.8282 30.2563V29.875L30.5918 29.4404C30.4811 29.2043 30.3563 28.9752 30.2181 28.7541C30.0885 28.5863 30.0885 28.3194 29.875 28.1135C29.7175 27.9703 29.5949 27.7929 29.5166 27.595C29.4901 27.4232 29.4901 27.2483 29.5166 27.0765C29.5166 27.0765 29.6843 26.6037 29.7758 26.4283C29.8197 26.2355 29.7869 26.0331 29.6843 25.864C29.6014 25.6182 29.5576 25.3609 29.5547 25.1015C29.5547 24.9795 29.2039 24.7583 29.0819 24.6287C28.9599 24.4991 28.9904 24.3237 28.9904 24.1559C28.9345 23.872 28.9038 23.5836 28.8989 23.2943C28.9447 22.9969 28.5176 23.2104 28.2584 23.2943C27.9991 23.3781 27.8314 23.2104 27.8314 22.9511C27.8314 22.6918 27.3509 22.9053 27.0688 23.0731C26.7483 23.2028 26.4164 23.3024 26.0775 23.3705C25.9917 23.4144 25.8932 23.4262 25.7995 23.4038C25.7058 23.3814 25.6232 23.3264 25.5666 23.2485C25.4019 23.1084 25.2287 22.9785 25.0481 22.8596C24.8144 22.6946 24.6106 22.4909 24.4456 22.2572C24.1724 21.9196 23.9537 21.5414 23.7975 21.1362C23.7726 20.8827 23.7726 20.6273 23.7975 20.3737C23.7868 20.1439 23.8021 19.9137 23.8432 19.6874C23.9032 19.4412 24.0037 19.2067 24.1406 18.9935C24.3627 18.7655 24.6202 18.5749 24.9032 18.4292C25.0328 18.3529 25.3378 18.0937 25.3378 17.9183C25.3378 17.7429 25.5056 17.659 25.5895 17.4836C25.6733 17.3082 25.9784 16.8812 26.352 17.0566C26.352 17.0566 26.6952 17.0109 26.8248 16.9727C26.9544 16.9346 27.2976 16.7973 27.4653 16.7135C27.6594 16.6446 27.8622 16.6035 28.0677 16.5915C28.2198 16.6527 28.3785 16.6962 28.5405 16.7211C28.6701 16.7211 29.0896 16.6525 29.0896 16.6525C29.1699 16.9021 29.2336 17.1569 29.2802 17.415C29.2802 17.537 29.4098 17.6666 29.631 17.7505C29.8521 17.8344 30.8358 18.0555 31.2628 17.7505C31.3619 17.6666 31.6975 17.8725 31.6975 17.8725C32.1218 17.9506 32.5379 18.068 32.9404 18.2233C33.1158 18.3529 33.4208 18.4368 33.5047 18.5664C33.6628 18.7717 33.8055 18.9883 33.9317 19.2146C33.9775 19.3366 34.191 19.817 34.2367 19.9772C34.3039 20.2633 34.4064 20.5399 34.5418 20.8007C34.5875 20.8846 34.7324 21.0752 34.8925 21.304L34.9841 20.7245L35.0374 20.3279C34.7171 19.8475 34.191 19.0697 33.8936 18.6503C33.7845 18.463 33.654 18.289 33.5047 18.1318C33.3751 18.0479 33.8021 18.0479 33.8021 18.0479C33.8142 17.8727 33.8142 17.6969 33.8021 17.5218C33.7688 17.3557 33.7688 17.1846 33.8021 17.0185C33.6107 17.1231 33.4249 17.2377 33.2454 17.3616C33.1158 17.4455 32.9862 17.1862 32.8184 16.9727C32.6398 16.7754 32.507 16.541 32.4295 16.2864C32.3838 16.0653 32.643 15.9814 32.643 15.9814L33.0319 15.7603C33.2851 15.7284 33.5413 15.7284 33.7945 15.7603L34.557 15.8442C34.557 15.8442 34.6866 15.5391 34.5189 15.4171C34.3511 15.2951 33.9546 15.0664 33.7563 15.1121C33.5581 15.1579 33.8478 14.8986 34.0614 14.7232L33.5809 14.6393C33.5809 14.6393 33.1539 14.8528 33.0167 14.8986C32.8118 14.9597 32.629 15.0789 32.4905 15.2418C32.3227 15.4553 32.5591 15.7603 32.3914 15.8442C32.2551 15.9107 32.1151 15.9693 31.972 16.0195C31.7923 16.0432 31.6103 16.0432 31.4306 16.0195C31.0264 16.0195 31.2323 16.3627 31.3543 16.5228L31.0417 16.1492L30.79 15.5391C30.6174 15.4151 30.4365 15.303 30.2486 15.2036L29.5471 14.8071L29.5852 15.2036L30.0809 15.6993H30.1266L30.4316 16.05H29.9055V15.7069C29.0209 15.5773 29.4556 15.4476 29.4022 15.4019L28.9523 15.1045C28.9523 15.1045 28.4338 15.1884 28.3041 15.2265C28.1745 15.2646 28.1287 15.4019 27.8695 15.4858C27.6794 15.5431 27.5167 15.6678 27.4119 15.8365C27.244 16.0749 27.0633 16.304 26.8705 16.5228C26.6951 16.6982 26.3749 16.6448 26.2452 16.6448C25.9881 16.6032 25.7335 16.5472 25.4827 16.4771V15.7145C25.5227 15.5396 25.5381 15.3599 25.5284 15.1807L25.9097 15.1197L26.535 14.9825L26.718 14.8528L26.9849 14.5097C26.945 14.4823 26.9111 14.4472 26.8851 14.4064C26.8591 14.3656 26.8417 14.3199 26.8339 14.2722C26.8261 14.2244 26.828 14.1756 26.8395 14.1286C26.8511 14.0816 26.872 14.0375 26.901 13.9988C27.0002 13.8463 27.3815 13.8234 27.5492 13.6938C27.6806 13.6025 27.8244 13.5306 27.9762 13.4803C27.9762 13.4803 28.2812 13.221 28.5786 12.916C28.7334 12.8332 28.8939 12.7619 29.059 12.7025C29.3219 12.9492 29.6108 13.1665 29.9207 13.3506C30.1336 13.2781 30.3361 13.1781 30.5231 13.0532C30.5844 12.8874 30.6129 12.7113 30.607 12.5347C30.5613 12.4051 30.3478 11.9704 30.3478 11.9704C30.2724 12.1054 30.1883 12.2353 30.0961 12.3593C30.0096 12.4812 29.9355 12.6115 29.875 12.7482C29.875 12.7482 29.2726 12.7025 29.2268 12.5728C29.1811 12.4432 29.1048 12.2297 29.059 12.1077C29.0133 11.9857 28.6701 11.978 28.4185 12.0695C28.1669 12.1611 28.4185 11.6044 28.4185 11.6044C28.4185 11.6044 28.6778 11.2765 28.8532 11.2765C29.1133 11.2088 29.3682 11.1222 29.6157 11.0172C29.9066 10.8641 30.2102 10.7366 30.5231 10.636C30.7367 10.636 30.9959 10.636 31.1256 10.636H31.7737L32.6735 10.697C32.6735 10.697 33.4361 11.0554 33.1921 11.2231C33.1921 11.2231 33.4895 11.4443 33.6267 11.5739C33.764 11.7035 34.0537 11.4748 34.2291 11.3756C35.5161 12.105 36.6402 13.0902 37.5319 14.2705C38.4237 15.4508 39.0644 16.8012 39.4145 18.2386C39.4343 18.3449 39.4911 18.4407 39.5748 18.5091C39.6586 18.5775 39.7638 18.614 39.872 18.6122C39.9331 18.6132 39.9937 18.6022 40.0506 18.5797C40.1074 18.5573 40.1592 18.5239 40.2031 18.4814C40.247 18.4389 40.2821 18.3882 40.3064 18.3321C40.3307 18.2761 40.3438 18.2158 40.3448 18.1547C40.3523 18.1246 40.3573 18.094 40.36 18.0632V18.0632ZM16.9422 20.0153C16.9392 20.276 16.8902 20.5342 16.7973 20.7778C16.851 18.4425 17.6262 16.1811 19.0163 14.3038H19.0925C19.0925 14.4792 18.8561 14.5173 19.0925 14.952C19.3976 15.5086 19.1383 15.7679 19.1383 15.7679L18.2766 16.3703C18.1394 16.4618 17.8039 16.9346 18.0174 16.805C18.2309 16.6753 18.4901 16.5457 18.2766 16.8888C18.0247 17.2493 17.793 17.6235 17.5827 18.0098C17.5065 18.2309 17.0718 18.7723 17.0718 18.9935C17.0163 19.3317 16.9806 19.6729 16.965 20.0153H16.9422ZM21.2963 27.9763L21.1133 28.6245L21.2963 29.143C21.1708 29.2482 21.0217 29.3215 20.8617 29.3565C20.7015 29.3565 20.6482 29.4633 20.4728 29.4099C18.7891 27.8479 17.6147 25.8152 17.1023 23.5764C17.1936 23.6092 17.2768 23.6612 17.3463 23.7289C17.4852 23.8607 17.6484 23.9643 17.8267 24.0339C18.0402 24.1178 18.1241 24.2474 18.3834 24.3771C18.6426 24.5067 18.5511 24.3771 18.9019 24.8041C19.0849 24.968 19.2195 25.179 19.2908 25.4141C19.3714 25.6105 19.4737 25.7972 19.5958 25.9708C19.6721 26.1004 19.9314 26.1843 20.0686 26.2758C20.2075 26.3692 20.3672 26.4269 20.5338 26.4436C20.6634 26.4436 21.0523 26.8325 21.2963 26.8706C21.5403 26.9087 21.5098 27.351 21.5098 27.351L21.2963 27.9763ZM23.8814 10.758C23.8814 10.758 23.5687 10.758 23.012 11.3604C22.8141 11.5494 22.6282 11.7506 22.4554 11.9628C22.3257 12.1306 22.3715 12.1763 22.0665 12.3898C21.8885 12.5111 21.742 12.6732 21.6395 12.8626L21.1591 13.038L20.7778 12.8626C20.7778 12.8626 20.427 12.9922 20.4728 12.8626C20.4834 12.813 20.4988 12.7645 20.5185 12.7177C21.5812 11.7283 22.8237 10.9517 24.1787 10.4301L23.8814 10.758ZM27.1832 13.5108L26.4206 13.6785V13.2286L25.8258 13.6785L25.6657 13.4193L25.8335 13.038L26.4206 13.1981V12.4356L26.6418 12.2221L26.8858 12.6948L27.3509 13.2515L27.1832 13.5108Z" fill="#8DB6DC"/>
<path d="M61.4213 40.0093C61.4184 40.2329 61.3676 40.4532 61.2723 40.6555C61.177 40.8577 61.0394 41.0372 60.8689 41.1818C60.6983 41.3263 60.4987 41.4326 60.2835 41.4934C60.0684 41.5543 59.8427 41.5682 59.6217 41.5344H56.9375C55.8928 41.5344 55.5421 41.0006 55.1379 40.1084L50.8066 29.1888C50.4165 28.1968 50.1005 27.1773 49.8611 26.1386H49.5484C49.5241 27.2125 49.4401 28.2843 49.2968 29.3489L47.4972 41.5497H42.9219L45.7662 22.6156C45.7722 22.3903 45.8261 22.1688 45.9244 21.9659C46.0227 21.763 46.1632 21.5835 46.3363 21.4392C46.5095 21.2948 46.7115 21.1891 46.9287 21.129C47.146 21.0689 47.3736 21.0557 47.5963 21.0905H50.2728C51.2794 21.0905 51.6607 21.6243 52.042 22.5165L56.236 33.0778C56.6907 34.1585 57.0703 35.2694 57.3722 36.4025H57.7534C57.7442 35.3004 57.8182 34.1992 57.9746 33.1083L59.7132 21.0905H64.2885L61.4213 40.0093Z" fill="white"/>
<path d="M85.3498 40.3905C85.2227 40.7447 84.9851 41.0485 84.672 41.2572C84.3589 41.466 83.987 41.5685 83.6112 41.5496H79.2495C78.8805 41.5535 78.5227 41.4235 78.2423 41.1838C77.9618 40.944 77.7778 40.6107 77.7244 40.2456L74.6284 21.0752H79.4935L81.1939 35.7924C81.2931 36.5549 81.3541 37.4242 81.3846 38.1944H82.1471C82.3794 37.373 82.6595 36.5659 82.9859 35.7771L89.0863 21.0904H94.1725L85.3498 40.3905Z" fill="white"/>
<path d="M93.3872 41.5496L96.4374 21.0752H101.272L98.2218 41.5496H93.3872Z" fill="white"/>
<path d="M107.006 32.2008C103.72 30.9274 102.904 28.9676 103.278 26.1767C103.941 21.6014 106.656 20.6864 111.742 20.6864C114.137 20.6556 116.526 20.9349 118.849 21.5176L118.376 24.5677C116.477 24.5067 113.953 24.4762 111.62 24.4762C109.286 24.4762 108.394 24.4762 108.082 26.436C107.861 27.8314 108.234 28.1288 109.813 28.7236L113.732 30.1496C117.171 31.423 117.903 33.1998 117.491 36.25C116.859 40.8253 114.678 41.9767 108.898 41.9767C106.384 41.9522 103.879 41.6841 101.417 41.176L101.92 37.9428C105.931 38.0267 107.761 38.0877 108.715 38.0877C111.582 38.0877 112.436 37.7598 112.718 35.9831C112.909 34.5876 112.497 34.2902 111.139 33.8174L107.006 32.2008Z" fill="white"/>
<path d="M125.178 36.2118L122.837 41.5497H117.819L126.97 22.1733C127.108 21.8326 127.349 21.5435 127.659 21.3466C127.97 21.1496 128.334 21.0548 128.701 21.0752H133.276C133.641 21.0703 133.995 21.1959 134.275 21.4295C134.554 21.6631 134.741 21.9892 134.801 22.3487L138.21 41.5497H133.391L132.666 36.2118H125.178ZM131.332 26.4131C131.24 25.7649 131.202 25.0786 131.172 24.4228H130.257C130.035 25.0176 129.784 25.7344 129.494 26.3826L126.749 32.6202H132.178L131.332 26.4131Z" fill="white"/>
</svg>
