<svg width="139" height="51" viewBox="0 0 139 51" fill="none" xmlns="http://www.w3.org/2000/svg">
<path d="M69.7057 39.1731C71.4913 39.1731 72.9388 37.7256 72.9388 35.94C72.9388 34.1544 71.4913 32.7069 69.7057 32.7069C67.9202 32.7069 66.4727 34.1544 66.4727 35.94C66.4727 37.7256 67.9202 39.1731 69.7057 39.1731Z" fill="#F2D525"/>
<path d="M28.2479 4.87495V0.459961C22.8502 0.466016 17.6752 2.61295 13.8584 6.42974C10.0417 10.2465 7.89473 15.4215 7.88867 20.8192V20.8192C7.89651 25.6874 9.64589 30.3922 12.8205 34.0829C15.9952 37.7736 20.3855 40.2066 25.1979 40.9421C26.2073 41.0955 27.2269 41.172 28.2479 41.1709V36.7559C27.4441 36.7555 26.6414 36.6969 25.846 36.5805C22.0846 35.9913 18.6561 34.0811 16.1757 31.1927C13.6953 28.3042 12.3252 24.6265 12.3113 20.8192V20.8192C12.3133 16.5925 13.9927 12.5393 16.9808 9.54985C19.9688 6.56038 24.0212 4.87899 28.2479 4.87495V4.87495Z" fill="#F2D525"/>
<path d="M40.3487 17.8149C39.7404 15.3392 38.3913 13.1081 36.4815 11.4194C34.5718 9.73063 32.1923 8.6647 29.6608 8.3639C27.1293 8.06309 24.5662 8.54173 22.3139 9.7359C20.0616 10.9301 18.2272 12.7829 17.0556 15.0471C15.8841 17.3112 15.4311 19.8789 15.7573 22.4073C16.0834 24.9357 17.1731 27.3044 18.8808 29.1971C20.5886 31.0899 22.8332 32.4166 25.3148 33.0001C27.7964 33.5837 30.397 33.3962 32.7693 32.4629C32.8942 32.4131 33.0038 32.3311 33.0868 32.2253C33.1698 32.1196 33.2234 31.9937 33.2421 31.8605L33.7758 28.3529H33.4861L32.8761 28.8486C32.6549 29.0239 32.6931 29.1536 32.5177 29.3213C32.2943 29.5356 32.0365 29.7108 31.7552 29.8398C31.5798 29.8856 30.8478 30.0152 30.8478 30.0152V29.6187L30.6114 29.1841C30.501 28.9493 30.3789 28.7202 30.2454 28.4978C30.1081 28.33 30.1081 28.0632 29.8946 27.8573C29.7372 27.714 29.6146 27.5367 29.5362 27.3388C29.5087 27.167 29.5087 26.992 29.5362 26.8203C29.5362 26.8203 29.704 26.3475 29.7879 26.1721C29.816 26.0713 29.823 25.9658 29.8086 25.8622C29.7941 25.7586 29.7585 25.659 29.704 25.5697C29.6152 25.3252 29.5688 25.0673 29.5667 24.8072C29.5667 24.6852 29.216 24.4641 29.094 24.3344C28.972 24.2048 29.0101 24.0294 29.0101 23.8617C28.9541 23.5777 28.9235 23.2894 28.9186 23C28.9186 22.7027 28.5373 22.9162 28.2704 23C28.0036 23.0839 27.8434 22.9162 27.8434 22.6569C27.8434 22.3976 27.363 22.6111 27.0809 22.7789C26.7578 22.9086 26.4234 23.0081 26.082 23.0763C25.9963 23.1202 25.8977 23.132 25.804 23.1096C25.7104 23.0872 25.6278 23.0321 25.5711 22.9543C25.4064 22.8141 25.2333 22.6843 25.0526 22.5654C24.8207 22.3984 24.6173 22.1949 24.4502 21.963C24.177 21.6255 23.9583 21.2473 23.8021 20.8421C23.7772 20.5885 23.7772 20.3332 23.8021 20.0796C23.7914 19.8498 23.8068 19.6196 23.8478 19.3933C23.9119 19.1472 24.0149 18.913 24.1528 18.6994C24.3747 18.4711 24.6322 18.2806 24.9154 18.1352C25.045 18.0589 25.35 17.7997 25.35 17.6243C25.35 17.4489 25.5254 17.365 25.6016 17.1896C25.6779 17.0143 25.9905 16.5872 26.3641 16.7626C26.526 16.7458 26.6865 16.7178 26.8445 16.6787C26.9665 16.633 27.3173 16.5034 27.4774 16.4195C27.674 16.3504 27.8794 16.3093 28.0874 16.2975C28.2371 16.358 28.3932 16.4014 28.5526 16.4271C28.6822 16.4271 29.1016 16.3585 29.1016 16.3585C29.1851 16.6078 29.2513 16.8626 29.2998 17.121C29.2998 17.243 29.4218 17.3726 29.643 17.4565C29.8641 17.5404 30.8478 17.7615 31.2824 17.4565C31.3739 17.3726 31.7094 17.5785 31.7094 17.5785C32.1337 17.6566 32.5498 17.774 32.9523 17.9293C33.1277 18.0589 33.4327 18.1428 33.5166 18.2724C33.6745 18.4794 33.8196 18.6959 33.9512 18.9206C33.997 19.0502 34.2105 19.5229 34.2486 19.6831C34.3191 19.9681 34.4215 20.2444 34.5536 20.5066C34.5993 20.5905 34.7442 20.7811 34.912 21.0099L34.9959 20.4303L35.0569 20.0415C34.7366 19.5534 34.2105 18.7757 33.9055 18.3563C33.7989 18.1673 33.6682 17.993 33.5166 17.8378C33.3869 17.7539 33.8216 17.7539 33.8216 17.7539C33.821 17.5776 33.8057 17.4016 33.7758 17.2278C33.7465 17.0613 33.7465 16.891 33.7758 16.7245C33.7301 16.7245 33.3412 16.9761 33.2192 17.0676C33.0972 17.1591 32.9599 16.8923 32.7922 16.6787C32.6121 16.4825 32.4791 16.2478 32.4033 15.9925C32.4033 15.7714 32.6168 15.6875 32.6168 15.6875L33.0057 15.4663C33.2589 15.4344 33.515 15.4344 33.7682 15.4663L34.5307 15.5502C34.5307 15.5502 34.6527 15.2452 34.485 15.1232C34.3172 15.0012 33.9283 14.7724 33.7224 14.8182C33.5166 14.864 33.8063 14.6047 34.0198 14.4293L33.5471 14.3454C33.5471 14.3454 33.1124 14.5589 32.9752 14.6047C32.7712 14.6677 32.589 14.7866 32.449 14.9478C32.2889 15.1613 32.5177 15.4663 32.3499 15.5502C32.2143 15.6181 32.0741 15.6767 31.9305 15.7256C31.7534 15.7493 31.5739 15.7493 31.3968 15.7256C30.985 15.7256 31.1909 16.0687 31.3205 16.2289L31.0079 15.8552L30.7486 15.2452C30.5778 15.1225 30.3995 15.0105 30.2149 14.9097L29.5133 14.5208V14.9097L30.009 15.4053H30.0547L30.3597 15.7561H29.8336V15.413C28.9567 15.2833 29.3837 15.1537 29.3303 15.108L28.8805 14.8106C28.8805 14.8106 28.3619 14.8945 28.2323 14.9326C28.1027 14.9707 28.0569 15.108 27.7977 15.1918C27.6076 15.2492 27.4449 15.3739 27.3402 15.5426C27.1771 15.7846 26.9962 16.014 26.7988 16.2289C26.631 16.4042 26.3031 16.3509 26.1735 16.3509C25.9164 16.3092 25.6618 16.2532 25.411 16.1831V15.4206C25.4553 15.2464 25.4707 15.066 25.4567 14.8868L25.838 14.8258L26.4633 14.6886L26.6539 14.5589L26.9132 14.2158C26.8733 14.1885 26.8393 14.1533 26.8134 14.1125C26.7874 14.0717 26.77 14.026 26.7621 13.9783C26.7543 13.9305 26.7562 13.8817 26.7677 13.8347C26.7793 13.7878 26.8002 13.7436 26.8293 13.7049C26.936 13.5601 27.3097 13.5295 27.4774 13.3999C27.6097 13.3102 27.7533 13.2384 27.9044 13.1864C27.9044 13.1864 28.2094 12.9272 28.5144 12.6222C28.6661 12.5385 28.8242 12.4671 28.9872 12.4086C29.25 12.6553 29.539 12.8727 29.8489 13.0568C30.0617 12.9843 30.2642 12.8843 30.4512 12.7594C30.5125 12.5936 30.541 12.4175 30.5351 12.2409C30.5351 12.1113 30.2835 11.6766 30.2835 11.6766C30.2041 11.8108 30.1176 11.9406 30.0242 12.0655C29.9385 12.1866 29.8669 12.3171 29.8107 12.4544C29.8107 12.4544 29.2007 12.4086 29.1626 12.279L28.9872 11.8139C28.9872 11.6842 28.6059 11.6843 28.3467 11.7758C28.0874 11.8673 28.3924 11.3106 28.3924 11.3106C28.3924 11.3106 28.6517 10.9827 28.8195 10.9827C29.0791 10.9134 29.3339 10.8268 29.582 10.7235C29.8696 10.5691 30.1708 10.4415 30.4817 10.3422C30.7029 10.3422 30.9621 10.3422 31.0841 10.3422H31.7323L32.632 10.4032C32.632 10.4032 33.3946 10.7616 33.1506 10.9294C33.3018 11.0381 33.4469 11.1552 33.5852 11.2801C33.7072 11.4021 34.0198 11.181 34.1952 11.0819C35.4793 11.8138 36.6008 12.7999 37.491 13.9798C38.3812 15.1597 39.0215 16.5088 39.3727 17.9445C39.4001 18.0538 39.4657 18.1497 39.5575 18.2149C39.6494 18.2801 39.7615 18.3104 39.8737 18.3003C39.9859 18.2902 40.0908 18.2403 40.1695 18.1597C40.2482 18.0791 40.2956 17.9731 40.303 17.8607C40.3191 17.8463 40.3343 17.831 40.3487 17.8149V17.8149ZM16.9318 19.767C16.9325 20.028 16.8833 20.2868 16.7869 20.5295C16.8439 18.1984 17.6159 15.9412 18.9982 14.0633H19.0745C19.0745 14.2387 18.8457 14.2768 19.0745 14.7114C19.3795 15.2681 19.1202 15.5273 19.1202 15.5273L18.2586 16.1297C18.1289 16.2212 17.7858 16.694 17.9993 16.5644C18.2128 16.4347 18.4721 16.3051 18.2586 16.6483C18.0451 16.9914 17.6562 17.5557 17.5647 17.7692C17.4732 17.9827 17.0538 18.5317 17.0538 18.7604C17.0538 18.9892 16.886 19.5534 16.9242 19.767H16.9318ZM21.24 27.7277L21.0646 28.3758L21.24 28.8943C21.1156 29.0011 20.966 29.0746 20.8054 29.1078C20.6453 29.1078 20.5919 29.2146 20.4165 29.1612C18.7465 27.6044 17.5807 25.5834 17.069 23.3584C17.1612 23.3893 17.2448 23.4416 17.313 23.5109C17.4519 23.6427 17.6151 23.7463 17.7934 23.8159C18.0069 23.8998 18.0984 24.0294 18.3501 24.1591C18.6017 24.2887 18.5254 24.1591 18.8686 24.5861C19.0545 24.7475 19.1895 24.9594 19.2575 25.1961C19.338 25.3924 19.4403 25.5791 19.5625 25.7527C19.6463 25.8823 19.9056 25.9662 20.0352 26.0577C20.1746 26.1501 20.3341 26.2076 20.5004 26.2255C20.63 26.2255 21.0189 26.6144 21.2629 26.6525C21.5069 26.6906 21.4764 27.1329 21.4764 27.1329L21.24 27.7277ZM23.825 10.51C23.825 10.51 23.5123 10.51 22.9633 11.1124C22.7621 11.3005 22.5736 11.5017 22.399 11.7148C22.2694 11.8825 22.3152 11.9283 22.0102 12.1418C21.8347 12.2659 21.6889 12.4274 21.5831 12.6145L21.1028 12.7899L20.7291 12.6145C20.7291 12.6145 20.3784 12.7441 20.4165 12.6145C20.4297 12.5646 20.4475 12.5161 20.4699 12.4696C21.5285 11.4788 22.7688 10.702 24.1223 10.1821L23.825 10.51ZM27.1343 13.2627L26.3718 13.4304V12.9805L25.7846 13.4304L25.6169 13.1712L25.7846 12.7899L26.3718 12.95V12.1875L26.5929 11.974L26.8369 12.4468L27.302 13.0034L27.1343 13.2627Z" fill="#8DB6DC"/>
<path d="M37.3597 46.4932C38.1222 46.5618 38.3815 47.0117 38.3815 47.7818C38.3815 48.7731 37.9011 49.04 36.7268 49.04C35.8118 49.04 35.3314 49.04 34.729 48.9866V44.1599C35.33 44.1099 35.9333 44.0921 36.5362 44.1065C37.8096 44.1065 38.2671 44.3657 38.2671 45.3646C38.2671 46.0509 38.0155 46.4093 37.3978 46.4703L37.3597 46.4932ZM36.5362 46.1653C37.1462 46.1653 37.3444 46.028 37.3444 45.4714C37.3444 44.9148 37.1233 44.808 36.4523 44.808H35.6135V46.1653H36.5362ZM36.5819 48.3385C37.2529 48.3385 37.4588 48.2012 37.4588 47.6217C37.4588 47.0422 37.2453 46.8134 36.5438 46.8058H35.6135V48.3308L36.5819 48.3385Z" fill="#191919"/>
<path d="M41.7597 48.9866V47.0041C41.7597 46.8363 41.7597 46.6915 41.7978 46.4932C41.7281 46.657 41.6412 46.8129 41.5385 46.9583L40.0135 48.9866H39.251V45.5553H40.0135V47.5607C40.0244 47.7207 40.0244 47.8812 40.0135 48.0411C40.0845 47.8876 40.1714 47.7419 40.2728 47.6065L41.7978 45.5553H42.5603V48.9866H41.7597Z" fill="#191919"/>
<path d="M43.4369 45.6316C43.8229 45.5328 44.2205 45.4867 44.6189 45.4944C45.8389 45.4944 46.3116 45.6468 46.3116 46.4246C46.3116 46.9355 46.1058 47.1871 45.5491 47.1871C46.1744 47.2329 46.4413 47.5227 46.4413 48.0869C46.4413 48.8494 45.9456 49.0172 44.84 49.0172C44.3287 49.0225 43.818 48.9791 43.3149 48.8876L43.3759 48.2699C43.7877 48.2699 44.3291 48.3309 44.7866 48.3309C45.3661 48.3309 45.5491 48.2699 45.5491 47.9115C45.5491 47.5532 45.3737 47.4921 44.7866 47.4845H43.8411V46.8974H44.779C45.2899 46.8974 45.4347 46.8135 45.4347 46.4856C45.4347 46.1577 45.2594 46.1272 44.6722 46.1272C44.2605 46.1272 43.8258 46.1272 43.5132 46.1882L43.4369 45.6316Z" fill="#191919"/>
<path d="M50.6581 47.271C50.6581 48.5901 50.1853 49.0781 48.8967 49.0781C47.608 49.0781 47.1353 48.5901 47.1353 47.271C47.1353 45.9518 47.6157 45.4562 48.8967 45.4562C50.1777 45.4562 50.6581 45.9594 50.6581 47.271ZM48.0579 47.271C48.0579 48.1555 48.2485 48.3995 48.8967 48.3995C49.5448 48.3995 49.7431 48.1555 49.7431 47.271C49.7431 46.3864 49.5448 46.1348 48.8967 46.1348C48.2485 46.1348 48.0579 46.3941 48.0579 47.271Z" fill="#191919"/>
<path d="M53.8684 47.2329C54.5318 47.2786 54.7682 47.5836 54.7682 48.1403C54.7682 48.8418 54.3412 49.0324 53.3041 49.0324C52.4959 49.0324 52.0612 49.0324 51.5122 48.9943V45.5553C52.0002 45.5553 52.3967 45.5172 53.0982 45.5172C54.242 45.5172 54.6233 45.7078 54.6233 46.4322C54.6233 46.9126 54.4098 47.1948 53.8608 47.1948L53.8684 47.2329ZM53.1059 46.9431C53.6091 46.9431 53.7845 46.844 53.7845 46.5161C53.7845 46.1882 53.5939 46.1349 53.022 46.1349H52.2595V46.9431H53.1059ZM53.1059 48.4072C53.6396 48.4072 53.8303 48.3233 53.8303 47.9573C53.8303 47.5913 53.6396 47.4921 53.0677 47.4921H52.3052V48.4072H53.1059Z" fill="#191919"/>
<path d="M58.9767 47.271C58.9767 48.5901 58.504 49.0781 57.2153 49.0781C55.9267 49.0781 55.4463 48.5901 55.4463 47.271C55.4463 45.9518 55.9267 45.4562 57.2153 45.4562C58.504 45.4562 58.9767 45.9594 58.9767 47.271ZM56.3766 47.271C56.3766 48.1555 56.5596 48.3995 57.2153 48.3995C57.8711 48.3995 58.0541 48.1555 58.0541 47.271C58.0541 46.3864 57.8635 46.1348 57.2153 46.1348C56.5672 46.1348 56.3613 46.3941 56.3613 47.271H56.3766Z" fill="#191919"/>
<path d="M59.793 47.5074V46.905H61.9814V47.5074H59.793Z" fill="#191919"/>
<path d="M64.4747 46.2263V48.9866H63.6054V46.2263H62.3701V45.5553H65.7023V46.2263H64.4747Z" fill="#191919"/>
<path d="M68.4399 49.0934C68.3815 49.3323 68.2745 49.5566 68.1257 49.7524C67.9769 49.9482 67.7893 50.1113 67.5747 50.2315C67.3601 50.3516 67.1231 50.4263 66.8784 50.4509C66.6337 50.4755 66.3865 50.4495 66.1523 50.3744L66.2362 49.7873C66.5342 49.8307 66.8383 49.7884 67.1131 49.6653C67.3249 49.5104 67.4888 49.299 67.5859 49.0553V48.9866H67.4105C67.3439 48.9907 67.278 48.9717 67.2238 48.9328C67.1696 48.8939 67.1305 48.8375 67.1131 48.7731L65.8931 45.5553H66.8462L67.6087 47.9115C67.6545 48.0716 67.6926 48.2165 67.7231 48.369H67.8222C67.8756 48.2165 67.929 48.0487 67.9671 47.9115L68.7296 45.5553H69.6828L68.4399 49.0934Z" fill="#191919"/>
<path d="M71.1772 46.0663C71.5668 45.6851 72.0886 45.4692 72.6336 45.4639C73.5029 45.4639 73.8537 46.1349 73.8537 47.3015C73.8537 48.6436 73.3885 49.0706 72.4811 49.0706C72.0433 49.08 71.6119 48.9636 71.2382 48.7351C71.2536 48.9712 71.2536 49.2081 71.2382 49.4442V50.3516H70.3613V45.5554H71.1238L71.1772 46.0663ZM71.2611 48.2318C71.575 48.3156 71.8972 48.3641 72.2219 48.3767C72.7404 48.3767 72.9386 48.2013 72.9386 47.2939C72.9386 46.3865 72.7633 46.1654 72.3134 46.1654C71.9273 46.197 71.5601 46.346 71.2611 46.5924V48.2318Z" fill="#191919"/>
<path d="M77.2319 48.9866V47.0041C77.2319 46.8363 77.2319 46.6915 77.2319 46.4932C77.1592 46.6555 77.0724 46.8112 76.9726 46.9583L75.4476 48.9866H74.6851V45.5553H75.4476V47.5607C75.4585 47.7207 75.4585 47.8812 75.4476 48.0411V48.0411C75.5186 47.8876 75.6055 47.7419 75.7068 47.6065L77.2319 45.5553H77.9563V48.9866H77.2319Z" fill="#191919"/>
<path d="M81.9517 48.8571C81.5312 49.0075 81.0867 49.0799 80.6402 49.0706C79.3592 49.0706 78.894 48.5902 78.894 47.2634C78.894 45.9366 79.3668 45.4563 80.6402 45.4563C81.0651 45.4536 81.4875 45.5205 81.8907 45.6545L81.7916 46.1883C81.4256 46.1883 81.0291 46.1883 80.7927 46.1883C80.0683 46.1883 79.8167 46.4247 79.8167 47.2787C79.8167 48.1327 80.0683 48.3843 80.7927 48.3843C81.1496 48.383 81.5061 48.3601 81.8602 48.3157L81.9517 48.8571Z" fill="#191919"/>
<path d="M84.4683 46.2263V48.9866H83.599V46.2263H82.3638V45.5553H85.696V46.2263H84.4683Z" fill="#191919"/>
<path d="M88.891 48.9866V47.0041C88.891 46.8363 88.891 46.6915 88.891 46.4932C88.8213 46.657 88.7344 46.8129 88.6318 46.9583L87.1067 48.9866H86.3823V45.5553H87.1448V47.5607C87.1557 47.7207 87.1557 47.8812 87.1448 48.0411C87.2188 47.8891 87.3055 47.7437 87.4041 47.6065L88.9291 45.5553H89.6917V48.9866H88.891Z" fill="#191919"/>
<path d="M93.6794 48.9866H92.8177V47.6522C92.4017 47.7771 91.9709 47.8464 91.5367 47.8581C90.8733 47.8581 90.5454 47.6141 90.5454 47.0956V45.5706H91.4376V46.8287C91.4376 47.1108 91.5443 47.21 91.8569 47.21C92.1907 47.2092 92.5216 47.1471 92.833 47.027V45.5553H93.6946L93.6794 48.9866Z" fill="#191919"/>
<path d="M95.4941 47.6294C95.5627 48.247 95.8372 48.3919 96.4548 48.3919C96.7903 48.3919 97.3012 48.3919 97.7359 48.308L97.8121 48.857C97.339 49.0198 96.8407 49.0973 96.3404 49.0858C95.0442 49.0858 94.5562 48.5825 94.5562 47.2786C94.5562 45.9747 95.067 45.4714 96.2871 45.4714C97.5071 45.4714 97.9036 45.8908 97.9036 46.661C97.9246 46.7916 97.9151 46.9253 97.8756 47.0516C97.8361 47.1778 97.7678 47.2932 97.6762 47.3886C97.5845 47.484 97.4719 47.5567 97.3473 47.6012C97.2227 47.6456 97.0894 47.6605 96.9581 47.6446L95.4941 47.6294ZM96.7065 47.0346C96.9886 47.0346 97.0267 46.8135 97.0267 46.6381C97.0267 46.2721 96.859 46.1348 96.3176 46.1348C95.7762 46.1348 95.5017 46.3102 95.4712 47.0346H96.7065Z" fill="#191919"/>
<path d="M101.625 48.8571C101.204 49.008 100.76 49.0804 100.313 49.0706C99.0398 49.0706 98.5747 48.5902 98.5747 47.2634C98.5747 45.9366 99.0475 45.4563 100.321 45.4563C100.746 45.4536 101.168 45.5205 101.571 45.6545L101.465 46.1883C101.099 46.1883 100.702 46.1883 100.466 46.1883C99.749 46.1883 99.4974 46.4247 99.4974 47.2787C99.4974 48.1327 99.749 48.3843 100.466 48.3843C100.825 48.3832 101.184 48.3603 101.541 48.3157L101.625 48.8571Z" fill="#191919"/>
<path d="M104.278 47.21C105.087 47.3015 105.216 47.637 105.697 48.9866H104.766C104.347 47.8124 104.233 47.5226 103.63 47.515H103.226C103.236 47.6164 103.236 47.7186 103.226 47.82V48.9866H102.349V45.5553H103.226V46.4932C103.225 46.6292 103.21 46.7647 103.18 46.8973H103.546C104.172 46.8973 104.309 46.5313 104.644 45.5553H105.536C105.117 46.7372 105.01 47.0803 104.24 47.1871L104.278 47.21Z" fill="#191919"/>
<path d="M108.914 48.9866V47.0041C108.914 46.8363 108.914 46.6915 108.953 46.4932C108.88 46.6555 108.793 46.8112 108.693 46.9583L107.168 48.9866H106.406V45.5553H107.168V47.5607C107.168 47.7209 107.168 47.8657 107.168 48.0411C107.242 47.8873 107.331 47.7417 107.435 47.6065L108.96 45.5553H109.723V48.9866H108.914Z" fill="#191919"/>
<path d="M113.253 48.9866V47.0041C113.253 46.8364 113.253 46.6915 113.253 46.4932C113.181 46.6572 113.091 46.8132 112.986 46.9584L111.461 48.9866H110.737V45.5553H111.499V47.5607C111.51 47.7207 111.51 47.8812 111.499 48.0411V48.0411C111.573 47.8874 111.662 47.7417 111.766 47.6065L113.291 45.5553H114.054V48.9866H113.253ZM113.535 44.0303C113.596 44.6022 113.139 45.0597 112.391 45.0597C111.644 45.0597 111.164 44.6022 111.225 44.0303H111.858C111.858 44.4268 112.033 44.6174 112.391 44.6174C112.75 44.6174 112.918 44.4268 112.902 44.0303H113.535Z" fill="#191919"/>
<path d="M119.742 48.9866H116.692V45.5553H117.569V48.3385H119.018V45.5553H119.895V48.3385H120.413V49.9855H119.834L119.742 48.9866Z" fill="#191919"/>
<path d="M121.938 47.6294C122.007 48.247 122.282 48.3919 122.892 48.3919C123.235 48.3919 123.746 48.3919 124.18 48.308L124.256 48.857C123.783 49.0198 123.285 49.0973 122.785 49.0858C121.488 49.0858 121 48.5825 121 47.2786C121 45.9747 121.511 45.4714 122.724 45.4714C123.936 45.4714 124.348 45.8908 124.348 46.661C124.368 46.792 124.357 46.9258 124.316 47.052C124.276 47.1782 124.207 47.2934 124.115 47.3885C124.022 47.4837 123.91 47.5563 123.785 47.6007C123.66 47.6451 123.526 47.6602 123.395 47.6446L121.938 47.6294ZM123.151 47.0346C123.433 47.0346 123.471 46.8135 123.471 46.6381C123.471 46.2721 123.303 46.1348 122.762 46.1348C122.221 46.1348 121.946 46.3102 121.916 47.0346H123.151Z" fill="#191919"/>
<path d="M128.45 48.9866H127.581V47.4616H126.018V48.9866H125.141V45.5553H126.018V46.8592H127.581V45.5553H128.45V48.9866Z" fill="#191919"/>
<path d="M131.233 46.2263V48.9866H130.326V46.2263H129.091V45.5553H132.423V46.2263H131.233Z" fill="#191919"/>
<path d="M133.925 46.0663C134.318 45.6846 134.842 45.4688 135.389 45.4639C136.251 45.4639 136.602 46.1349 136.602 47.3015C136.602 48.6436 136.137 49.0706 135.229 49.0706C134.794 49.0786 134.365 48.9622 133.994 48.7351C134.009 48.9712 134.009 49.2081 133.994 49.4442V50.3516H133.109V45.5554H133.872L133.925 46.0663ZM134.017 48.2318C134.328 48.3156 134.648 48.3642 134.97 48.3767C135.496 48.3767 135.694 48.2013 135.694 47.2939C135.694 46.3865 135.519 46.1654 135.061 46.1654C134.678 46.1976 134.313 46.3466 134.017 46.5924V48.2318Z" fill="#191919"/>
<path d="M24.6942 44.3657C19.0614 43.511 13.921 40.6669 10.2043 36.3488C6.4877 32.0306 4.44065 26.5241 4.43406 20.8268H0.0800781C0.0891641 27.5682 2.51183 34.0835 6.90943 39.193C11.307 44.3026 17.3888 47.6686 24.0537 48.6816C25.4413 48.8964 26.8434 49.0034 28.2475 49.0019V44.6479C27.0577 44.6429 25.8699 44.5486 24.6942 44.3657V44.3657Z" fill="#191919"/>
<path d="M34.2866 41.3004L37.3367 20.8268H42.1634L39.1134 41.3004H34.2866Z" fill="#191919"/>
<path d="M61.3789 39.7602C61.376 39.9837 61.3252 40.2041 61.2299 40.4063C61.1346 40.6086 60.9971 40.788 60.8265 40.9326C60.6559 41.0771 60.4563 41.1834 60.2412 41.2442C60.026 41.3051 59.8004 41.3191 59.5794 41.2852H56.8953C55.8506 41.2852 55.5075 40.7515 55.0957 39.8593L50.7723 28.94C50.3762 27.9495 50.0575 26.9298 49.8191 25.89H49.4989C49.4786 26.9641 49.3945 28.036 49.2472 29.1002L47.4477 41.3005H42.8726L45.6863 22.3671C45.6934 22.1422 45.7482 21.9213 45.8469 21.7191C45.9456 21.5168 46.086 21.3378 46.2589 21.1937C46.4318 21.0496 46.6332 20.9438 46.8499 20.8832C47.0667 20.8226 47.2938 20.8086 47.5163 20.8421H50.1699C51.184 20.8421 51.5577 21.3759 51.9389 22.268L56.1404 32.8289C56.5872 33.9126 56.9666 35.0229 57.2765 36.1535H57.6578C57.6486 35.0515 57.7225 33.9503 57.8789 32.8594L59.6099 20.8421H64.185L61.3789 39.7602Z" fill="#191919"/>
<path d="M85.2764 40.149C85.1483 40.5004 84.9113 40.8017 84.5999 41.0088C84.2885 41.216 83.919 41.3181 83.5455 41.3004H79.1839C78.8149 41.3043 78.4571 41.1743 78.1767 40.9346C77.8963 40.6948 77.7123 40.3616 77.6588 39.9965L74.563 20.8268H79.4279L81.1359 35.5434C81.2274 36.3059 81.2884 37.1752 81.3265 37.953H82.0891C82.328 37.1243 82.6131 36.3097 82.9431 35.5129L89.0432 20.8268H94.1292L85.2764 40.149Z" fill="#191919"/>
<path d="M93.3438 41.3004L96.3938 20.8268H101.221L98.1705 41.3004H93.3438Z" fill="#191919"/>
<path d="M106.962 31.952C103.683 30.6786 102.86 28.7189 103.241 25.9281C103.905 21.353 106.619 20.438 111.698 20.438C114.092 20.4072 116.481 20.6865 118.804 21.2691L118.331 24.3192C116.44 24.2582 113.909 24.2277 111.576 24.2277C109.242 24.2277 108.35 24.2277 108.037 26.1874C107.816 27.5828 108.198 27.8801 109.776 28.4749L113.688 29.9008C117.134 31.1742 117.859 32.9509 117.447 36.001C116.814 40.5761 114.641 41.7275 108.861 41.7275C106.345 41.7035 103.837 41.4353 101.373 40.9269L101.884 37.6938C105.887 37.7776 107.725 37.8386 108.67 37.8386C111.545 37.8386 112.399 37.5108 112.681 35.7341C112.872 34.3387 112.46 34.0413 111.103 33.5685L106.962 31.952Z" fill="#191919"/>
<path d="M125.133 35.9628L122.792 41.3005H117.775L126.925 21.9249C127.064 21.5835 127.307 21.2942 127.618 21.0973C127.93 20.9005 128.296 20.8059 128.664 20.8268H133.239C133.603 20.8218 133.957 20.9475 134.237 21.1811C134.517 21.4147 134.704 21.7408 134.764 22.1002L138.172 41.3005H133.376L132.614 35.9628H125.133ZM131.287 26.1645C131.195 25.5163 131.165 24.8301 131.134 24.1819H130.219C129.998 24.7691 129.739 25.4858 129.457 26.134L126.712 32.3714H132.141L131.287 26.1645Z" fill="#191919"/>
</svg>
